<svg xmlns="http://www.w3.org/2000/svg" width="24" height="24" xmlns:v="https://vecta.io/nano"><path d="M10.547 2.344c-1.34.207-3.074.918-4.219 1.734-.836.59-2.184 2.055-2.691 2.914-1.754 2.984-1.848 6.406-.254 9.508 1.277 2.492 3.488 4.238 6.328 4.977 1.164.301 3.359.313 4.539.02 6.141-1.535 9.254-8.23 6.449-13.855-.543-1.086-1.059-1.773-2.062-2.719a9.23 9.23 0 0 0-4.34-2.398c-.863-.219-2.852-.32-3.75-.18zm2.438 1.133a9.73 9.73 0 0 1 3.441 1.172c.738.441 2.512 2.055 2.512 2.289 0 .066-1.219.094-3.73.094h-3.742l-.055.965c-.16 2.551-1.445 4.855-3.469 6.246-.965.656-2.738 1.32-3.527 1.32-.27 0-.289-.027-.563-.871a8.44 8.44 0 0 1 .031-5.437c.438-1.305 1.059-2.289 2.07-3.301 1.012-1.004 1.996-1.621 3.301-2.07a7.84 7.84 0 0 1 3.73-.406zm1.453 5.355c.355 1.809 1.594 3.496 3.188 4.332.676.355 1.875.711 2.41.711.188 0 .309.047.309.113s-.113.449-.254.844c-.242.711-.254.73-.551.73-.434 0-1.828-.422-2.504-.758-2.355-1.184-3.977-3.414-4.359-6.02l-.086-.535h1.727zm2.813-.441c0 .289.469 1.18.844 1.586.461.496 1.34.965 1.977 1.047l.453.059.063.504c.031.281.031.656 0 .836-.074.383-.215.414-1.172.188-1.828-.43-3.375-1.969-3.797-3.789l-.129-.57h.879c.715 0 .883.027.883.141zm2.578.02c.039.094.168.449.281.797l.227.637h-.219c-.109 0-.43-.141-.711-.309a1.93 1.93 0 0 1-.777-.797l-.273-.488h.703c.582 0 .715.027.77.16zm-7.641 2.879c.141.43 1.004 1.797 1.52 2.406 1.098 1.305 2.914 2.402 4.742 2.844.367.094.676.188.676.215 0 .129-.703.973-1.191 1.441-1.395 1.332-3.047 2.102-5.023 2.336-2.449.289-4.996-.582-6.844-2.336-.535-.504-1.246-1.387-1.184-1.453.02-.016.395-.129.836-.234 2.598-.672 4.988-2.66 6.008-5.016.125-.281.254-.523.293-.523.027 0 .113.141.168.32zm0 0" fill="rgb(0%,0%,0%)"/></svg>