<?xml version="1.0" encoding="utf-8"?>
<!-- Generator: Adobe Illustrator 22.1.0, SVG Export Plug-In . SVG Version: 6.00 Build 0)  -->
<svg version="1.1" id="Layer_1" xmlns="http://www.w3.org/2000/svg" xmlns:xlink="http://www.w3.org/1999/xlink" x="0px" y="0px"
	 viewBox="0 0 4000 3083" style="enable-background:new 0 0 4000 3083;" xml:space="preserve">
<style type="text/css">
	.st0{opacity:0.3;}
	.st1{fill:#7B7B7B;}
	.st2{fill:#ED7445;}
	.st3{fill:#EA5A1B;}
	.st4{fill:#8E381A;}
	.st5{fill:#AA512B;}
	.st6{fill:#3F1B11;}
	.st7{fill:#28110B;}
	.st8{fill:#777782;}
	.st9{fill:#FFFFFF;}
	.st10{fill:#70301E;}
	.st11{fill:#F9D3B7;}
	.st12{fill:#FFFEFF;}
	.st13{opacity:0.5;}
	.st14{fill:#A82B26;}
	.st15{opacity:0.35;}
	.st16{fill:#FFAD40;}
</style>
<g>
	<g>
		<g class="st0">
			<ellipse class="st1" cx="1987.3" cy="2741.5" rx="1188.4" ry="194.5"/>
		</g>
		<g>
			<g>
				<g>
					<path class="st2" d="M1973.1,2439.5c-93.6,93.2-752.3,545.2-1282.1-108.6c-397.6-490.6-139.4-1323.6,352.6-1362.8
						c136.1-10.8,289.7,74.9,337.3,255.5c29.8,113,7.9,235-29.7,386.9c-116.4,471.6,152.3,716.4,517.7,596.3"/>
				</g>
				<g>
					<path class="st2" d="M1973.1,2439.6c-0.9,0.9-1.8,1.8-2.8,2.7c-67.3,64.5-367.5,272.8-713.8,230.6
						c-92.8-11.3-188.9-40.6-284.7-95.5c-71.2-40.8-142.2-95.7-211.6-168c-23.3-24.2-46.3-50.3-69.1-78.4
						c-397.6-490.5-139.4-1323.6,352.6-1362.8c136.1-10.8,289.6,74.9,337.3,255.5c29.8,113.1,7.8,235-29.7,386.9
						c-24.2,97.8-31.7,186-25.3,263.1c0.2,2.7,0.4,5.5,0.7,8.3c1.3,13.8,3.1,27.2,5.4,40.3c0.4,2.6,0.9,5.1,1.4,7.7
						c4.8,25.8,11.3,50.1,19.5,72.8c0.6,1.8,1.3,3.6,1.9,5.4c0.7,1.9,1.4,3.7,2.1,5.4c0.9,2.4,1.9,4.7,2.8,7.1
						c4.5,11.1,9.5,21.7,14.8,32c1.3,2.5,2.6,5,4,7.4c1.1,2.2,2.4,4.3,3.6,6.4c0.6,1.2,1.4,2.4,2.1,3.6c5,8.6,10.3,16.8,15.9,24.7
						c27.8,39.4,62.4,71.1,102.5,94.5c5.5,3.1,11,6.1,16.6,9c5.3,2.7,10.8,5.3,16.3,7.7c2.1,1,4.2,1.9,6.4,2.8
						c2.9,1.2,5.8,2.4,8.8,3.5c2.3,1,4.8,1.8,7.2,2.7c1.2,0.5,2.5,0.9,3.7,1.3c1.4,0.5,2.9,1,4.3,1.5c2.5,0.9,4.9,1.6,7.5,2.4
						c0.9,0.3,1.8,0.6,2.7,0.8c3.2,1,6.4,1.9,9.7,2.7c3.6,1,7.3,2,11,2.8c0.2,0,0.4,0.1,0.6,0.2c3.4,0.8,6.8,1.6,10.3,2.3
						c0.4,0.1,0.8,0.2,1.2,0.2c3.8,0.8,7.5,1.5,11.3,2.1c3.5,0.6,6.9,1.1,10.4,1.7c0.6,0.1,1.2,0.2,1.9,0.3c3.8,0.5,7.6,1,11.4,1.5
						c4,0.5,8,0.9,12.1,1.2c11.7,1,23.7,1.5,35.9,1.5c3.2,0,6.3,0,9.5-0.1c2.9,0,5.8-0.1,8.7-0.2c2.8-0.1,5.6-0.2,8.4-0.4
						c0.5,0,1,0,1.5-0.1c4-0.2,8-0.5,12-0.8c3.7-0.3,7.4-0.6,11.1-1.1c2.4-0.2,4.9-0.5,7.4-0.8c3.1-0.3,6.3-0.7,9.5-1.2
						c3.9-0.5,7.9-1,11.8-1.7c3.4-0.5,6.7-1.1,10.2-1.7c2.1-0.3,4.3-0.8,6.5-1.2c1.7-0.3,3.4-0.6,5.1-1c2.9-0.5,5.7-1.1,8.6-1.8
						c10.1-2.1,20.3-4.6,30.6-7.4c3.2-0.9,6.5-1.7,9.7-2.7c8.8-2.5,17.7-5.2,26.6-8.1L1973.1,2439.6z"/>
				</g>
				<g>
					<path class="st2" d="M1973.1,2439.6c-0.9,0.9-1.8,1.8-2.8,2.7c-67.3,64.5-367.5,272.8-713.8,230.6
						c-92.8-11.3-188.9-40.6-284.7-95.5c-71.2-40.8-142.2-95.7-211.6-168c-23.3-24.2-46.3-50.3-69.1-78.4
						c-148.7-183.4-205.6-414.7-192.9-634.6c0.1-1.7,0.1-3.3,0.2-4.9l0,0c22.8-366,238.6-698.9,545.3-723.2
						c136.1-10.8,289.6,74.9,337.3,255.5c29.8,113.1,7.8,235-29.7,386.9c-24.2,97.8-31.7,186-25.3,263.1c0.2,2.7,0.4,5.5,0.7,8.3
						c1.3,13.8,3.1,27.2,5.4,40.3c0.4,2.6,0.9,5.1,1.4,7.7c4.8,25.8,11.3,50.1,19.5,72.8c0.6,1.8,1.3,3.6,1.9,5.4
						c0.7,1.9,1.4,3.7,2.1,5.4c0.9,2.4,1.9,4.7,2.8,7.1c4.5,11.1,9.5,21.7,14.8,32c1.3,2.5,2.6,5,4,7.4c1.1,2.2,2.4,4.3,3.6,6.4
						c0.6,1.2,1.4,2.4,2.1,3.6c5,8.6,10.3,16.8,15.9,24.7c26.2,37.2,58.5,67.5,95.9,90.5c2.2,1.4,4.4,2.7,6.7,4
						c2.8,1.6,5.5,3.1,8.2,4.6c5.5,3,11.1,5.8,16.9,8.5c2.6,1.2,5.1,2.4,7.7,3.5c0.2,0.1,0.4,0.3,0.6,0.3c1.2,0.6,2.4,1.1,3.6,1.6
						c3.9,1.7,7.8,3.3,11.9,4.8c2.1,0.8,4.2,1.6,6.3,2.3c2.7,1,5.3,1.9,8,2.8c2.5,0.9,4.9,1.6,7.5,2.4c0.9,0.3,1.8,0.6,2.7,0.8
						c3.2,1,6.4,1.9,9.7,2.7c7.5,2.1,15.2,3.9,23,5.4c3.8,0.8,7.5,1.5,11.3,2.1c1.7,0.3,3.5,0.6,5.2,0.9c2.3,0.4,4.7,0.7,7.1,1
						c3.8,0.5,7.6,1,11.4,1.5c1.8,0.2,3.6,0.4,5.4,0.6c5.5,0.5,11.1,1,16.7,1.3c1.9,0.1,3.8,0.2,5.7,0.3c1.3,0.1,2.7,0.2,4.1,0.2
						c2.3,0.1,4.7,0.2,7,0.2c12.1,0.3,24.5,0.1,37.2-0.7c4-0.2,8-0.5,12-0.8c1.8-0.1,3.6-0.3,5.5-0.5s3.8-0.4,5.6-0.6
						c5.6-0.5,11.2-1.2,16.9-2c2-0.3,3.9-0.5,5.9-0.8s3.9-0.6,5.9-0.9c3.4-0.5,6.7-1.1,10.2-1.7c2.1-0.3,4.3-0.8,6.5-1.2
						c9.6-1.8,19.2-3.9,28.9-6.2c3.7-0.9,7.4-1.8,11.2-2.8c1.4-0.3,2.8-0.7,4.2-1.1c3.2-0.9,6.5-1.7,9.7-2.7
						c8.8-2.5,17.7-5.2,26.6-8.1L1973.1,2439.6z"/>
				</g>
				<g>
					<path class="st3" d="M498.4,1691.2c-0.1,1.7-0.2,3.4-0.3,5.2c0.1-1.7,0.1-3.3,0.2-4.9l0,0
						C498.4,1691.3,498.5,1691.3,498.4,1691.2z"/>
				</g>
				<g>
					<path class="st3" d="M1970.3,2442.3c-67.3,64.5-367.5,272.8-713.8,230.6c-92.8-11.3-188.9-40.6-284.7-95.5
						c-71.2-40.8-142.2-95.7-211.6-168c-23.3-24.2-46.3-50.3-69.1-78.4c-148.7-183.4-205.6-414.7-192.9-634.6
						c-6.3,136.3,110.4,651.2,572.5,782.8c173.7,49.5,249.5-287.5,425.4-293.9h0.1c2.2,1.4,4.4,2.7,6.6,4c2.7,1.6,5.5,3.1,8.2,4.6
						c5.5,3,11.1,5.8,16.9,8.5c2.5,1.3,5.1,2.4,7.7,3.5c0.2,0.1,0.4,0.3,0.6,0.3c1.2,0.5,2.3,1.1,3.6,1.6c3.9,1.7,7.8,3.3,11.9,4.8
						c2.1,0.8,4.1,1.6,6.3,2.3c2.7,1,5.3,1.9,8,2.8c2.5,0.9,4.9,1.6,7.5,2.4c0.9,0.3,1.8,0.6,2.7,0.8c3.2,1,6.4,1.9,9.7,2.7
						c7.5,2.1,15.2,3.9,23,5.4c3.7,0.8,7.5,1.5,11.3,2.1c1.7,0.3,3.5,0.6,5.2,0.9c2.3,0.4,4.7,0.7,7.1,1c3.8,0.6,7.6,1.1,11.4,1.5
						c1.8,0.2,3.5,0.4,5.4,0.6c5.5,0.5,11.1,1,16.7,1.3c1.9,0.1,3.8,0.2,5.7,0.3c1.3,0.1,2.7,0.2,4.1,0.2c2.3,0.1,4.6,0.1,7,0.2
						c12.1,0.3,24.5,0.1,37.2-0.7c4-0.2,8-0.5,12-0.8c1.8-0.1,3.6-0.3,5.5-0.5c1.8-0.2,3.7-0.3,5.6-0.6c5.6-0.5,11.2-1.2,16.9-2
						c1.9-0.2,3.9-0.5,5.9-0.8s3.9-0.6,5.9-0.9c3.4-0.5,6.8-1.1,10.2-1.7c2.2-0.4,4.3-0.8,6.5-1.2c9.6-1.8,19.2-3.9,28.9-6.2
						c3.7-0.9,7.4-1.8,11.2-2.8c1.4-0.3,2.8-0.7,4.2-1.1c3.2-0.9,6.5-1.7,9.7-2.7c8.8-2.5,17.7-5.2,26.6-8.1L1970.3,2442.3z"/>
				</g>
				<g>
					<path class="st4" d="M605.9,2084.2c-7.4,27-13.4,55.2-17.6,84.7c-2.2-4.5-4.3-9-6.4-13.6c-2.1-4.5-4.1-8.9-6-13.4
						c-0.7-1.6-1.5-3.3-2.2-5c-2.8-6.5-5.6-13.1-8.3-19.6c-12.2-29.8-22.6-60.2-31.5-91c-1.7-5.8-3.3-11.6-4.8-17.4
						c-0.3-1.2-0.6-2.3-0.9-3.6c-3.4-13.1-6.6-26.2-9.4-39.4c-1.5-6.9-2.9-13.8-4.2-20.6c-2.5-13.3-4.9-26.7-6.9-40.1
						c-0.3-1.6-0.5-3.2-0.7-4.8c-1.8-12.6-3.4-25.3-4.7-38c-1.1-10.4-2-20.8-2.8-31.2l0,0c-0.8-10.3-1.4-20.8-1.8-31.2
						c-0.6-13.9-0.9-27.7-1-41.6c0-13,0.1-25.9,0.6-38.9c0.1-1.7,0.1-3.4,0.2-5.1c0-1.1,0.1-2.1,0.1-3.2l0,0
						c0.1-3.9,0.3-7.7,0.6-11.6c-0.1,3.4-0.1,7-0.1,10.8C498.7,1784.3,527.4,1934.1,605.9,2084.2z"/>
				</g>
				<g>
					<path class="st4" d="M971.8,2577.3c-71.2-40.8-142.2-95.7-211.6-168c0.7-32.4,3.6-67.5,9.4-103.7
						c63.4,61.1,140.2,113.8,232.7,150.3C988.3,2497.8,978.5,2539,971.8,2577.3z"/>
				</g>
				<g>
					<path class="st5" d="M971,2581.6c-71.3-43.5-142.1-99.9-210.9-172.1c3.7-162,61-392.3,263.2-500.2
						c81.5-43.5,201.2-44.9,302.6-35.7c7.4,89,33.5,163.3,74.3,221.1C1098.1,2152.5,1002.2,2401.3,971,2581.6z"/>
				</g>
				<g>
					<path class="st6" d="M971.8,2577.3c-71.2-40.8-142.2-95.7-211.6-168c3.7-162,61.1-392.1,263.2-500
						c81.4-43.5,201.2-44.9,302.6-35.7c0.2,2.8,0.5,5.6,0.7,8.3c1.3,13.8,3.1,27.2,5.4,40.3c0.5,2.6,0.9,5.1,1.4,7.7
						c4.8,25.8,11.3,50.1,19.5,72.8c0.6,1.8,1.3,3.6,1.9,5.4c0.7,1.9,1.4,3.7,2.1,5.4c0.9,2.4,1.8,4.7,2.8,7.1
						c4.5,11.1,9.5,21.7,14.8,32c1.3,2.5,2.6,5,4,7.4c1.1,2.2,2.4,4.3,3.6,6.4c0.7,1.2,1.4,2.4,2.1,3.6c5,8.6,10.3,16.8,15.9,24.7
						C1100.5,2152,1003.7,2397.4,971.8,2577.3z"/>
				</g>
				<g>
					<path class="st6" d="M588.2,2168.9c-69.9-143.9-97.6-303.2-90.9-457.6c80.2-124.7,290-318.1,589.8-244.3
						c88.5,21.7,187.5,80.7,263.4,146.6c-15.5,63.5-24,122.9-26.2,177.8C1003.7,1595.8,647.2,1766,588.2,2168.9z"/>
				</g>
				<g>
					<path class="st7" d="M971.8,2577.3c-71.2-40.8-142.2-95.7-211.6-168c0.7-32.4,3.6-67.5,9.4-103.7
						c63.4,61.1,140.2,113.8,232.7,150.3C988.3,2497.8,978.5,2539,971.8,2577.3z"/>
				</g>
				<g>
					<path class="st7" d="M588.2,2168.9c-2.2-4.5-4.3-9-6.4-13.6c-2.1-4.5-4.1-8.9-6-13.4c-0.7-1.6-1.5-3.3-2.2-5
						c-2.8-6.5-5.6-13.1-8.3-19.6c-12.2-29.8-22.6-60.2-31.5-91c-1.7-5.8-3.3-11.6-4.8-17.4c-0.3-1.2-0.6-2.3-0.9-3.6
						c-3.4-13.1-6.6-26.2-9.4-39.4c-1.5-6.9-2.9-13.8-4.2-20.6c-2.6-13.3-4.9-26.7-6.9-40.1c-0.3-1.6-0.5-3.2-0.7-4.8
						c-1.9-12.6-3.5-25.3-4.7-38c-1.2-10.4-2.1-20.8-2.8-31.2l0,0c-0.8-10.4-1.4-20.8-1.8-31.2c-0.6-13.9-1-27.8-1-41.6
						c0-13,0.1-25.9,0.6-38.9c0.1-1.7,0.1-3.4,0.2-5.1c0-1.1,0.1-2.1,0.1-3.2l0.6-0.8c0.8,73.8,29.4,223.6,108,373.7
						C598.5,2111.2,592.5,2139.4,588.2,2168.9z"/>
				</g>
				<g>
					<path class="st7" d="M1970.3,2442.3c-60.7,58.1-310.8,233.3-613.4,236.1c-158.3-61.3-30.1-361.5,145.8-489.2l0,0
						c0.9,0.5,1.8,1,2.6,1.5c4.6,2.6,9.2,5.1,13.9,7.5c5.3,2.7,10.8,5.3,16.3,7.7c2.1,1,4.2,1.9,6.4,2.8c2.9,1.2,5.8,2.4,8.8,3.5
						c2.3,1,4.8,1.8,7.2,2.7c1.2,0.5,2.5,0.9,3.7,1.3c1.4,0.5,2.9,1,4.3,1.5c2.5,0.9,4.9,1.6,7.5,2.4c0.9,0.3,1.8,0.6,2.7,0.8
						c3.2,1,6.4,1.9,9.7,2.7c3.6,1,7.3,2,11,2.8c0.2,0,0.4,0.1,0.6,0.2c3.4,0.8,6.8,1.6,10.3,2.3c0.4,0.1,0.8,0.2,1.2,0.2
						c3.7,0.8,7.5,1.5,11.3,2.1c3.4,0.6,6.9,1.2,10.4,1.7c0.6,0.1,1.2,0.2,1.9,0.3c3.8,0.6,7.6,1.1,11.4,1.5c4,0.5,8,0.9,12.1,1.2
						c11.7,1,23.7,1.5,35.9,1.5c3.1,0,6.3,0,9.5-0.1c2.9,0,5.8-0.1,8.7-0.2c2.8,0,5.5-0.2,8.4-0.4c0.5,0,1,0,1.5-0.1
						c4-0.2,8-0.5,12-0.8c3.6-0.3,7.4-0.6,11.1-1.1c2.4-0.2,4.9-0.5,7.4-0.8c3.1-0.3,6.3-0.7,9.5-1.2c3.9-0.5,7.9-1,11.8-1.7
						c3.4-0.5,6.8-1.1,10.2-1.7c2.2-0.4,4.3-0.8,6.5-1.2c1.7-0.3,3.4-0.6,5.1-1c2.9-0.5,5.7-1.1,8.6-1.8c10.1-2.1,20.3-4.6,30.6-7.4
						c3.2-0.9,6.5-1.7,9.7-2.7c8.8-2.5,17.7-5.2,26.6-8.1L1970.3,2442.3z"/>
				</g>
				<g>
					<path class="st6" d="M1393.7,1371.6c-263.7-216.7-644.9-189-833.8,28.3c88.2-235.7,262.2-414.1,483.7-431.7
						c136.1-10.8,289.6,74.9,337.2,255.5C1393.3,1270.9,1396.7,1319.7,1393.7,1371.6z"/>
				</g>
				<g>
					<path d="M1350.2,2693.7c-14.2,0-28.6-0.4-43.1-1.1c-237.7-12.7-448.9-131.1-628-352c-109.6-135.3-176.6-304.8-193.7-490.1
						c-15.6-168.8,11.6-345.3,76.7-496.9c47.9-111.6,115-206.9,194.2-275.7c85.8-74.5,182-116.5,286.1-124.8
						c133.5-10.6,300.9,68.3,353.1,266.7c29.3,111.1,11.3,228.7-29.6,394.4c-55.9,226.5-23.1,416.7,90.2,521.7
						c96.5,89.5,245.2,110.1,408.1,56.6c8-2.6,16.5,1.7,19.2,9.7c2.6,8-1.7,16.5-9.7,19.2c-173.6,57.1-333.3,34-438.2-63.2
						c-58.4-54.2-98.7-130.8-116.3-221.6c-18.7-96.4-12.9-207.3,17.3-329.6c39.7-160.9,57.3-274.6,29.7-379.4
						c-47.8-181.6-200.1-253.9-321.4-244.2c-188.6,15-358.6,157.8-454.7,382.1c-114,265.9-123.4,664.6,112.7,956
						c173.4,213.9,377.3,328.6,606,340.8c327,17.5,602.8-182.9,653.6-233.4c5.9-5.9,15.5-5.9,21.5,0c5.9,5.9,5.9,15.6,0,21.5
						C1930.1,2503.7,1671.9,2693.7,1350.2,2693.7z"/>
				</g>
			</g>
			<g>
				<path class="st8" d="M2762.2,2690.6c-38.4,4.6-174.9-21.4-210-23.2c-52-2.6-152.5,5.9-261,24.2c0,0,122.5-421.3,122.2-470
					c203.1-48.7,399.8,84,399.8,84S2814.9,2684.3,2762.2,2690.6z"/>
			</g>
			<g>
				<path class="st6" d="M2806.1,2514.6c-6.6,88.9-19.3,173-43.9,176c-38.4,4.6-174.9-21.4-210-23.1c-52-2.6-152.5,5.9-261,24.2
					c0,0,122.5-421.3,122.2-470c35.6-8.5,71.1-11.5,105.3-10.6c160.8,4.3,294.5,94.6,294.5,94.6S2813.6,2413.3,2806.1,2514.6z"/>
			</g>
			<g>
				<path class="st7" d="M2806.1,2514.6c-6.6,88.9-19.3,173-43.9,176c-38.4,4.6-174.9-21.4-210-23.1c-52-2.6-152.5,5.9-261,24.2
					c0,0,122.5-421.3,122.2-470c35.6-8.5,71.1-11.5,105.3-10.6c7.9,45.9,20.3,127,29,230.5c8.4,99.6,108.7,50.5,121.8-14.7
					c13.6-67.5,47.4-87,47.4-87S2762.9,2428.2,2806.1,2514.6z"/>
			</g>
			<g>
				<path d="M2291.2,2706.9c-4.3,0-8.4-1.8-11.3-5.1c-3.5-3.9-4.7-9.3-3.2-14.3c49-168.5,121.8-431.6,121.6-465.7
					c0-7.1,4.8-13.2,11.6-14.9c207.2-49.7,403.6,80.6,411.8,86.2c4.2,2.8,6.7,7.5,6.7,12.5c0,1,0.4,96.3-5.8,191.2
					c-11.6,178.8-35,206.1-58.6,208.9l0,0c-26.3,3.1-88.9-6.1-144.2-14.2c-28.9-4.2-56.2-8.3-68.3-8.9c-54.2-2.7-155.3,6.8-257.7,24
					C2292.9,2706.8,2292.1,2706.9,2291.2,2706.9z M2531.9,2651.8c7.6,0,14.6,0.2,21,0.5c13.6,0.7,40.3,4.6,71.2,9.1
					c47.5,7,112.5,16.5,135.4,14.2c3.5-2.6,23.3-24.7,33.2-189.8c4.5-74.6,5.1-147.7,5.1-171.8c-34.9-21.4-200.6-115.3-370.6-80
					c-10.3,73.1-89.5,350.6-115,438.8C2396.7,2659.6,2478.1,2651.8,2531.9,2651.8z"/>
			</g>
			<g>
				<path class="st8" d="M2664.9,2604.5c19.3,48,51.8,93.6,134.1,85.1c119.7-12.3,225.4-208.6,197.7-360.3
					c-20.6-112.6-149.4-137.6-233.8-71.3c-39.8,31.3-77.6,104.1-97.9,200.2v146.3H2664.9z"/>
			</g>
			<g>
				<path class="st6" d="M2961.8,2544.9c-37.7,77.9-98.2,138.1-162.8,144.7c-82.3,8.4-114.8-37.1-134.1-85.1v-146.3
					c1.1-5,2.2-9.9,3.3-14.7l0,0c20.9-88.9,56.9-155.8,94.6-185.5c84.4-66.3,213.3-41.3,233.8,71.3
					C3009.4,2399.1,2993.9,2478.4,2961.8,2544.9z"/>
			</g>
			<g class="st0">
				<path class="st9" d="M3000.6,2398.1c-0.6-11.5-1.9-22.9-3.9-34c-20.6-112.6-149.4-137.6-233.8-71.3
					c-37.7,29.6-77,76.5-97.9,165.4c1.1-5,2.2-9.9,3.3-14.7l0,0c20.9-88.9,56.9-155.8,94.6-185.5c84.4-66.3,213.3-41.3,233.8,71.3
					C3000.7,2351.5,3001.9,2374.7,3000.6,2398.1z"/>
			</g>
			<g>
				<path class="st7" d="M2961.8,2544.9c-37.7,77.9-98.2,138.1-162.8,144.7c-82.3,8.4-114.8-37.1-134.1-85.1c0,0-8-25.9-8-61.4
					c0-43.6,8-84.9,8-84.9c1.1-5,2.2-9.9,3.3-14.7l8.9-24.2c-7.1,36.9,36.3,212.2,147.4,217.7
					C2877.3,2639.6,2924.8,2596.5,2961.8,2544.9z"/>
			</g>
			<g>
				
					<ellipse transform="matrix(0.2844 -0.9587 0.9587 0.2844 -377.4151 4532.7744)" class="st10" cx="2847.6" cy="2519.2" rx="113.8" ry="77.4"/>
			</g>
			<g>
				
					<ellipse transform="matrix(0.2844 -0.9587 0.9587 0.2844 -180.5463 4552.354)" class="st10" cx="2959.2" cy="2397.1" rx="41.8" ry="28.4"/>
			</g>
			<g>
				
					<ellipse transform="matrix(0.2844 -0.9587 0.9587 0.2844 -261.6057 4391.3506)" class="st10" cx="2810.8" cy="2370.9" rx="41.8" ry="28.4"/>
			</g>
			<g>
				
					<ellipse transform="matrix(0.2844 -0.9587 0.9587 0.2844 -180.2334 4451.7275)" class="st10" cx="2891.9" cy="2346.6" rx="46.4" ry="31.6"/>
			</g>
			<g>
				<path d="M2664.9,2604.5c15.5,19.4,29.8,37.8,47.1,49.9c33.9,24.8,81.7,25.1,119.6,8.8c107.5-52.7,166.2-202.9,151.3-318.1
					c-9.9-98.9-111.9-131.9-192.4-86.8c-66,37.1-99.1,130.7-125.6,199.9c3.4-48.4,15.1-96.6,35.9-140.6
					c21.5-47.8,58-86.2,109.1-103.2c49.9-17.3,109.4-11.7,151.5,22.5c80.6,64.3,59.2,202.6,26.1,287
					c-28.2,69.2-71.6,138.2-142.2,170.6c-36.7,16-79.8,17.1-117.2,2.3C2691,2681.7,2667.9,2643.3,2664.9,2604.5L2664.9,2604.5z"/>
			</g>
			<g>
				<path class="st2" d="M2525.3,2303.8c0.3-285-149.2-387.1-163.2-667c-6.9-138.1-408.5-203.7-549.9-10.2
					c-59.2,81.1-322.3,466.5-273.2,827.3c27.5,202.2,124.8,299.9,307.1,330c38.6,6.4,79.7-5.1,154.2-10.6
					c98.9-7.3,401.1-30.9,469.2-181c0,0,35.4-54.5,47.6-123.1C2531,2389.5,2525.3,2303.8,2525.3,2303.8z"/>
			</g>
			<g>
				<path class="st2" d="M2517,2469.2c-12.1,68.6-47.6,123.1-47.6,123.1c-68.1,150.1-370.2,173.7-469.2,181
					c-74.6,5.5-115.6,17-154.2,10.6c-141.1-23.3-231.3-87.1-277.6-208.5c-13.6-35.5-23.3-75.8-29.6-121.6
					c-49.1-360.7,214-746.2,273.2-827.3c36.1-49.3,89.1-81.8,148.1-100.5l0,0c0.4-0.1,0.9-0.3,1.3-0.4
					c172.3-54,395.3,8.6,400.5,111.2c14,279.9,163.5,382,163.2,667C2525.3,2303.8,2531,2389.5,2517,2469.2z"/>
			</g>
			<g>
				<path class="st3" d="M2432.6,1927.9c-79.1,9.4-161.3,14.5-200.3,10.3c-244.5-26.7-228.5-213.5-304.9-244.6
					c-27-11-83-14.7-138.7-33.9l0,0c9.5-13.9,17.4-25,23.3-33.1c141.4-193.5,543-127.9,549.9,10.3
					C2368.1,1757.1,2399.2,1844.6,2432.6,1927.9z"/>
			</g>
			<g>
				<path class="st7" d="M2432.6,1927.9L2432.6,1927.9c-79.1,9.4-161.3,14.5-200.3,10.3c-244.5-26.7-228.5-213.5-304.9-244.6
					c-16.3-6.6-43.1-10.6-74.1-16.9c33.9-53.6,70.1-103.5,106.9-150.6l0,0c0.4-0.1,0.9-0.3,1.3-0.4l0,0c5.4-1.7,10.9-3.3,16.4-4.8
					c2.6-0.7,5.3-1.4,8-2.1c0.1,0,0.2,0,0.3-0.1c2.8-0.7,5.6-1.3,8.4-1.9c71-15.9,147.3-13.8,212,1.2c3.4,0.8,6.8,1.6,10.1,2.5
					c0.7,0.2,1.5,0.4,2.3,0.6c3.3,0.9,6.6,1.8,9.8,2.7c1.8,0.5,3.6,1.1,5.4,1.6c7.1,2.2,14,4.5,20.7,7c5,1.9,9.9,3.8,14.7,5.9
					c3.2,1.3,6.3,2.8,9.3,4.2c1.5,0.7,3,1.5,4.5,2.2c3,1.5,5.9,3,8.7,4.6l0,0c3.7,2,7.3,4.1,10.8,6.3c1,0.6,2.1,1.3,3.1,1.9
					c2.8,1.8,5.6,3.7,8.2,5.7c2.9,2.1,5.8,4.3,8.5,6.5c2.2,1.8,4.4,3.7,6.5,5.6s4,3.8,5.9,5.8c1.9,1.9,3.7,4,5.4,6s3.4,4.1,4.8,6.1
					c1.5,2.1,2.9,4.2,4.3,6.3c3.3,5.3,6,10.8,8,16.4c0.8,2.3,1.5,4.6,2.1,6.9c1.2,4.6,1.9,9.3,2.1,14.1c0.3,5.4,0.6,10.7,1,16
					c0.2,3.1,0.4,6.2,0.7,9.3c0,0.5,0.1,1,0.1,1.5c0.2,2.9,0.5,5.7,0.7,8.5c0.2,1.9,0.4,3.8,0.6,5.7c0.2,1.9,0.4,3.7,0.6,5.6
					c0.2,2.2,0.5,4.3,0.7,6.5c1.3,10.7,2.7,21.2,4.4,31.4c0.3,2.2,0.7,4.4,1.1,6.6c0.3,1.8,0.6,3.6,1,5.4c0.5,2.8,1,5.6,1.5,8.3
					c0.4,2.2,0.8,4.4,1.3,6.6c0.5,2.6,1.1,5.3,1.6,7.9c0,0.1,0,0.2,0.1,0.3c0.4,2.2,0.9,4.4,1.4,6.5c0.4,2.1,0.9,4.1,1.4,6.2
					c1,4.6,2.2,9.2,3.3,13.8c0.4,1.8,0.9,3.6,1.3,5.4c1.5,5.7,2.9,11.3,4.5,16.8c0.8,2.9,1.6,5.8,2.5,8.7c0.9,2.9,1.7,5.8,2.6,8.6
					c3.7,12.1,7.5,24,11.6,35.6c1.7,4.8,3.4,9.6,5.1,14.4c2.2,6,4.4,12,6.6,17.9C2422.7,1902.9,2427.6,1915.5,2432.6,1927.9z"/>
			</g>
			<g>
				<path class="st3" d="M1949.4,2778.2c-44.4,5.2-74.6,10.4-103.4,5.6c-93.5-15.4-164.7-48.7-215.5-104.7
					c-48.2-53.1-78.2-126.8-91.6-225.3c-0.3-2-0.5-4-0.7-5.9c11.2,32.8,25.5,59.4,43.6,68.3c20.5,10,42.2,15.3,71.6,10
					C1702.7,2517.2,1873.2,2695.3,1949.4,2778.2z"/>
			</g>
			<g>
				<path class="st7" d="M1949.4,2778.2c-4.1,0.4-8,0.9-11.8,1.4c-1.9,0.2-3.7,0.4-5.5,0.7c-2.2,0.3-4.5,0.6-6.7,0.8
					c-2.6,0.3-5.2,0.6-7.7,0.9c-5.7,0.7-11.1,1.3-16.3,1.8c-1.4,0.1-2.8,0.3-4.1,0.4c-18.9,1.8-35.3,2.2-51.2-0.4
					c-2.2-0.4-4.5-0.7-6.7-1.2c-1.6-0.3-3.1-0.6-4.7-0.9c-2-0.3-4-0.7-5.9-1.1c-5.7-1.1-11.3-2.3-16.7-3.5c-2.8-0.6-5.5-1.3-8.2-1.9
					c-2.7-0.7-5.4-1.3-8.1-2.1c-0.1,0-0.1,0-0.2,0c-2.6-0.7-5.1-1.4-7.7-2.1c-5.1-1.5-10.1-2.9-15.1-4.5c-0.3-0.1-0.6-0.1-0.9-0.3
					c-2.4-0.7-4.7-1.5-7.1-2.3c-2.5-0.8-5-1.7-7.4-2.6c-2.4-0.9-4.8-1.8-7.3-2.7c-4.8-1.8-9.6-3.8-14.2-5.8c-2.3-1-4.6-2-6.8-3
					c-4.8-2.2-9.5-4.5-14.2-6.8c-1.9-1-3.9-2-5.8-3.1c-0.2-0.1-0.4-0.2-0.6-0.3c-1.9-1-3.8-2.1-5.8-3.2
					c-8.7-4.9-16.9-10.1-24.9-15.7c-1.5-1.1-3-2.1-4.5-3.2c-0.5-0.4-1-0.7-1.5-1.1c-1.7-1.2-3.3-2.5-4.9-3.7
					c-5.6-4.3-11-8.8-16.3-13.6c-1.8-1.6-3.5-3.2-5.2-4.8s-3.4-3.2-5.1-4.9c-3.4-3.3-6.6-6.7-9.8-10.2c-1.4-1.5-2.7-3.1-4.1-4.6
					c-3.1-3.6-6.2-7.2-9.1-11c-1.4-1.8-2.7-3.5-4.1-5.3c-0.8-1.1-1.6-2.2-2.5-3.4c-0.9-1.1-1.7-2.3-2.5-3.4c-1-1.5-2.1-3-3.1-4.5
					c-1.3-1.9-2.5-3.8-3.8-5.7c-1-1.6-2.1-3.3-3.1-4.9c-4.1-6.7-8.1-13.6-11.8-20.7c-0.7-1.3-1.4-2.7-2.1-4.1
					c-4.1-8.2-8.1-16.7-11.7-25.6c-0.7-1.6-1.4-3.3-2-4.9c-0.7-1.9-1.5-3.7-2.2-5.6c17.2-8.1,31.8-23.6,43.7-48.8
					c12.2,2.3,25.5,2.4,41.1-0.4C1702.7,2517.2,1873.2,2695.3,1949.4,2778.2z"/>
			</g>
			<g>
				<path class="st6" d="M2517,2469.2c-12.1,68.6-47.6,123.1-47.6,123.1c-68.1,150.1-370.2,173.7-469.2,181
					c-74.6,5.5-115.6,17-154.2,10.6c-141.1-23.3-231.3-87.1-277.6-208.5c43.8-20.6,71.5-89.9,78.6-244.9
					c16.5-362.1,159.3-607.3,313.1-804.5l0,0c0.4-0.1,0.9-0.3,1.3-0.4c172.3-54,395.3,8.6,400.5,111.2c14,279.9,163.5,382,163.2,667
					C2525.3,2303.8,2531,2389.5,2517,2469.2z"/>
			</g>
			<g>
				<path class="st7" d="M2432.6,1927.9c-79.1,9.4-161.3,14.5-200.2,10.3c-244.5-26.7-228.5-213.5-304.9-244.6
					c-16.3-6.6-43.1-10.6-74.1-16.9c33.9-53.6,70.1-103.5,106.9-150.6l0,0c0.4-0.1,0.9-0.3,1.3-0.4c5.4-1.7,10.9-3.3,16.4-4.8
					c2.6-0.7,5.3-1.4,8-2.1c0.1,0,0.2,0,0.3-0.1c2.8-0.7,5.6-1.3,8.4-1.9c71-15.8,147.3-13.8,212,1.2c3.4,0.8,6.8,1.6,10.1,2.5
					c0.7,0.2,1.5,0.4,2.3,0.6c3.3,0.9,6.6,1.8,9.8,2.7c1.8,0.5,3.6,1.1,5.4,1.6c7.1,2.2,14,4.6,20.7,7c5,1.9,9.9,3.8,14.7,5.9
					c3.2,1.3,6.3,2.8,9.3,4.2c1.5,0.7,3,1.5,4.5,2.2c3,1.5,5.9,3,8.7,4.6l0,0c3.7,2,7.3,4.1,10.8,6.3c1,0.6,2.1,1.3,3.1,1.9
					c2.8,1.8,5.6,3.7,8.2,5.7c2.9,2.1,5.8,4.3,8.5,6.5c2.2,1.9,4.4,3.7,6.5,5.6s4,3.8,5.9,5.8c1.9,1.9,3.7,4,5.4,6s3.4,4.1,4.8,6.1
					c1.5,2.1,2.9,4.2,4.3,6.3c3.3,5.3,6,10.8,8,16.4c0.8,2.3,1.5,4.6,2.1,6.9c1.2,4.6,1.9,9.3,2.1,14.1c0.3,5.4,0.6,10.7,1,16
					c0.2,3.1,0.4,6.2,0.7,9.3c0,0.5,0.1,1,0.1,1.5c0.2,2.9,0.5,5.7,0.7,8.5c0.2,1.9,0.4,3.8,0.6,5.7c0.2,1.9,0.4,3.7,0.6,5.6
					c0.2,2.2,0.5,4.3,0.7,6.5c1.3,10.7,2.7,21.2,4.4,31.4c0.3,2.2,0.7,4.4,1.1,6.6c0.3,1.8,0.6,3.6,1,5.4c0.5,2.8,1,5.6,1.5,8.3
					c0.4,2.2,0.8,4.4,1.3,6.6c0.5,2.6,1.1,5.3,1.6,7.9c0,0.1,0,0.2,0.1,0.3c0.4,2.2,0.9,4.4,1.4,6.5c0.4,2.1,0.9,4.1,1.4,6.2
					c1,4.6,2.2,9.2,3.3,13.8c0.4,1.8,0.9,3.6,1.3,5.4c1.5,5.7,2.9,11.3,4.5,16.8c0.8,2.9,1.6,5.8,2.5,8.7c0.8,2.9,1.7,5.8,2.6,8.6
					c3.7,12.1,7.5,24,11.6,35.6c1.7,4.8,3.4,9.6,5.1,14.4c2.2,6,4.4,12,6.6,17.9C2422.7,1902.9,2427.6,1915.5,2432.6,1927.9z"/>
			</g>
			<g>
				<path class="st7" d="M1949.4,2778.2c-4.1,0.4-8,0.9-11.8,1.4c-1.9,0.2-3.7,0.4-5.5,0.7c-2.2,0.3-4.5,0.6-6.7,0.8
					c-2.6,0.3-5.2,0.6-7.7,0.9c-5.7,0.7-11.1,1.3-16.3,1.8c-1.4,0.1-2.8,0.3-4.1,0.4c-18.9,1.8-35.3,2.2-51.2-0.4
					c-2.2-0.4-4.5-0.7-6.7-1.2c-1.6-0.3-3.1-0.6-4.7-0.9c-2-0.3-4-0.7-5.9-1.1c-5.7-1.1-11.3-2.3-16.7-3.5c-2.8-0.6-5.5-1.3-8.2-1.9
					c-2.7-0.7-5.4-1.3-8.1-2.1c-0.1,0-0.1,0-0.2,0c-2.6-0.7-5.1-1.4-7.7-2.1c-5.1-1.5-10.1-2.9-15.1-4.5c-0.3-0.1-0.6-0.1-0.9-0.3
					c-2.4-0.7-4.7-1.5-7.1-2.3c-2.5-0.8-5-1.7-7.4-2.6c-2.4-0.9-4.8-1.8-7.3-2.7c-4.8-1.8-9.6-3.8-14.2-5.8c-2.3-1-4.6-2-6.8-3
					c-4.8-2.2-9.5-4.5-14.2-6.8c-1.9-1-3.9-2-5.8-3.1c-0.2-0.1-0.4-0.2-0.6-0.3c-1.9-1-3.8-2.1-5.8-3.2
					c-8.7-4.9-16.9-10.1-24.9-15.7c-1.5-1.1-3-2.1-4.5-3.2c-0.5-0.4-1-0.7-1.5-1.1c-1.7-1.2-3.3-2.5-4.9-3.7
					c-5.6-4.3-11-8.8-16.3-13.6c-1.8-1.6-3.5-3.2-5.2-4.8s-3.4-3.2-5.1-4.9c-3.4-3.3-6.6-6.7-9.8-10.2c-1.4-1.5-2.7-3.1-4.1-4.6
					c-3.1-3.6-6.2-7.2-9.1-11c-1.4-1.8-2.7-3.5-4.1-5.3c-0.8-1.1-1.6-2.2-2.5-3.4c-0.9-1.1-1.7-2.3-2.5-3.4c-1-1.5-2.1-3-3.1-4.5
					c-1.3-1.9-2.5-3.8-3.8-5.7c-1-1.6-2.1-3.3-3.1-4.9c-4.1-6.7-8.1-13.6-11.8-20.7c-0.7-1.3-1.4-2.7-2.1-4.1
					c-4.1-8.2-8.1-16.7-11.7-25.6c-0.7-1.6-1.3-3.3-2-4.9c-0.7-1.9-1.5-3.7-2.2-5.6c17.2-8.1,31.8-23.6,43.7-48.8
					c12.2,2.3,25.5,2.4,41.1-0.4C1702.7,2517.2,1873.2,2695.3,1949.4,2778.2z"/>
			</g>
			<g>
				<path class="st7" d="M2516.7,2189.6c-68.5,10-186.3,69.9-378.6,40.9c-197.3-29.7-298.3-223.4-298.3-223.4l133.7-118.2
					c0,0,289.6,57.6,488.3,111.4C2484.7,2058.1,2505.5,2118,2516.7,2189.6z"/>
			</g>
			<g>
				<path class="st7" d="M2524.4,2469.2c-12.1,68.6-55,123.1-55,123.1c-68.1,150.1-370.1,173.7-469.1,181
					c-74.6,5.5-115.6,16.9-154.2,10.6c-14.2-2.3-28-5.1-41.2-8.3c-1.8-0.4-3.4-0.8-5.1-1.3c-1.3-0.3-2.6-0.7-4-1
					c-2.6-0.7-5.3-1.4-7.9-2.2c-2.6-0.7-5.2-1.5-7.8-2.2c-2.5-0.7-5-1.5-7.4-2.3c-2.9-0.9-5.7-1.9-8.5-2.8c-4.7-1.6-9.4-3.3-13.9-5
					c-2.4-0.9-4.8-1.9-7.2-2.8c-2.4-1-4.7-1.9-7-2.9s-4.6-2-6.9-3.1c-2.3-1-4.6-2.1-6.8-3.2c-2.2-1.1-4.4-2.2-6.6-3.3
					s-4.4-2.3-6.5-3.4c-2.2-1.2-4.3-2.3-6.4-3.5c-4.2-2.4-8.4-4.9-12.5-7.5c-2-1.3-4-2.6-6-3.9c-2-1.3-4-2.6-5.9-4s-3.9-2.8-5.8-4.1
					c-3.8-2.8-7.6-5.7-11.2-8.7c-11-9-21.2-18.6-30.7-29.2c38.8-168.1,111.7-424.9,195.1-422.9c123.9,3,285.7,182.9,430.6,190.6
					c176.8,9.3,274.6-92.2,266-211.5c2,21.7,3,44.5,3,68.5C2525.3,2303.8,2538.5,2389.5,2524.4,2469.2z"/>
			</g>
			<g>
				<path d="M2525.3,2303.8c-14.6-70.5-25-138-45-204.6c-30.3-100-82.7-196-109.8-298.7c-11.8-43.5-19.9-88.2-23.9-133.2
					c-1.3-12.4-1.1-25.4-3.1-37.6c-5.7-26.1-26.4-44.4-48.9-58.7c-72.5-43-162.2-52.7-245.2-45.4c-86.7,8.5-176.8,42.7-227.9,116.3
					c-160.3,227.5-304.8,529.2-266.2,813.6c13.5,99.5,53.1,202.6,141.4,257.5c42.4,27.2,92.2,43.2,142,52.1
					c16.3,3.4,31.6,4.2,48.4,2.8c34.3-3,70.3-8.4,105.2-10.8c35.4-2.4,70-5.3,104.8-9.3c118.6-14.9,303.5-49.2,372.3-155.3
					c-52.8,159.7-330.8,186.5-474.4,198.4c-44.8,3.1-88.5,13.5-134.1,12.1c-27.8-2.2-54.8-8.8-81.7-16.2
					c-206.1-57-262.8-240.6-261.9-434.9c7.7-264.6,132.2-521.1,281.5-734.6c105.2-146.4,367.4-162.9,514.4-75.7
					c33.5,20.2,65.8,55.1,66.6,97c2.9,51.7,10.6,103.1,23.9,153.2C2447.1,1959.5,2562.5,2122.7,2525.3,2303.8L2525.3,2303.8z"/>
			</g>
			<g>
				<path class="st11" d="M2078.2,2608.6c0,0-0.1,0.1-0.2,0.5C2078.1,2608.8,2078.2,2608.6,2078.2,2608.6z"/>
			</g>
			<g>
				<path class="st6" d="M2049.5,2838.4c-15.6,2-188-4.8-289.3-120.4c0,0-86.6-80.3-106.9-191.8c-33-181.6,76.6-256.9,76.6-256.9
					c186.1-66.6,291.7,126.6,291.7,126.6s3.1,31.5,7.4,77.6C2040.6,2600,2061,2836.9,2049.5,2838.4z"/>
			</g>
			<g>
				<path class="st7" d="M2049.5,2838.4c-15.6,2-188-4.8-289.3-120.4c0,0-86.6-80.3-106.9-191.8c0,0,36.6-7.2,81,36.1
					c34.9,34,66.9,64.6,88.3,14.1c21.3-50.5,17-78.6,42.2-122.5c10-17.4,81.5-3.5,164.1,19.7C2040.6,2600,2061,2836.9,2049.5,2838.4
					z"/>
			</g>
			<g>
				<path d="M1760.2,2718c51,38.4,105.7,65.3,166,83.7c36.5,11.1,74.7,20.2,113,21.7c1.5,0.1,6.3,0.1,7.7,0h0.6h0.1
					c0.4,0-0.5,0-1.6,0.3c-4.5,1.3-7.3,3.6-9.1,7.4c1.4-13.7,0.8-35.2,0.1-52.4c-6.1-126.9-18.5-254.5-30.5-381.2l1.8,5.8
					c-3.4-5.1-7.7-10.9-11.7-16.3c-44.6-59.2-106-110.9-182-120.1c-28-3.9-56.3-1.8-84.6,2.5c38.2-22.8,87.2-30.7,131.5-21.2
					c68,14.7,125.1,62.6,162,120.2c4.6,8,11.1,16.5,13.2,26.1c6.2,63.7,12,127.4,17.4,191.1c5.8,80.4,14.8,160.1,13.5,241.3
					c-0.4,5.2-0.8,10.9-2.9,16.1c-2.2,4.9-5.7,8.6-11.4,10.1c-2.5,0.6-2.6,0.4-4.6,0.6C1940.7,2853.3,1818,2815.7,1760.2,2718
					L1760.2,2718z"/>
			</g>
			<g>
				<path class="st6" d="M2078.5,2831.8c158.4-47.1,99-330.7,60.1-403.9c-51.4-108.4-171-126-244.7-81.8
					c-29.9,17.9-115.3,90.1-90.5,235.7C1829.4,2735.1,1944.7,2870.7,2078.5,2831.8z"/>
			</g>
			<g class="st0">
				<path class="st9" d="M2168,2515.8c-6.5-22.1-13.7-40.3-20.2-52.6c-51.4-108.4-171-126-244.7-81.8
					c-29.9,17.9-115.3,90.1-90.6,235.7c0.9,5.3,1.9,10.6,3.1,15.8c-5.2-16.7-9.2-33.8-12.2-51.2c-24.8-145.6,60.6-217.8,90.6-235.7
					c73.7-44.2,193.2-26.6,244.7,81.8C2148.3,2446.2,2159.4,2477.9,2168,2515.8z"/>
			</g>
			<g>
				<path class="st7" d="M2078.5,2831.8c-109.6,31.9-207-53.5-252.8-169.9c54.2,90.8,141.6,145.1,236.9,114.7
					c96-30.6,118.5-149,106-258.1C2193.6,2631.2,2196.1,2796.8,2078.5,2831.8z"/>
			</g>
			<g>
				<path d="M2032.2,2853.7c-34.1,0-67.9-10-99.5-29.8c-71.5-44.8-126.8-136.6-144.3-239.6c-28.9-170,84.7-243.4,97.7-251.3
					c42.4-25.4,97.6-31.6,147.5-16.5c51.8,15.7,93.9,52.8,118.6,104.5c32.4,61.5,69.5,230.9,25,337.1
					c-19.1,45.6-50.9,75.3-94.4,88.2h-0.1C2065.9,2851.2,2049,2853.7,2032.2,2853.7z M2078.5,2831.8L2078.5,2831.8L2078.5,2831.8z
					 M1978.1,2338.7c-27.3,0-54.1,6.9-76.5,20.4c-11.2,6.7-108.9,70.1-83.4,220.1c16.1,94.7,66.1,178.6,130.5,218.9
					c40.2,25.2,82.4,31.6,125.4,19.1c34.3-10.2,59.6-34.1,75-70.9c40.3-96.2,5.3-256.2-24-311.4c-0.1-0.2-0.2-0.4-0.3-0.6
					c-26.8-56.4-69.2-79.4-100.1-88.8C2009.5,2341,1993.7,2338.7,1978.1,2338.7z"/>
			</g>
			<g>
				
					<ellipse transform="matrix(0.9768 -0.2142 0.2142 0.9768 -518.2855 493.1786)" class="st10" cx="2016.6" cy="2638.2" rx="98.1" ry="121.7"/>
			</g>
			<g>
				
					<ellipse transform="matrix(0.9768 -0.2142 0.2142 0.9768 -479.5432 500.9451)" class="st10" cx="2071.8" cy="2463.3" rx="36" ry="44.7"/>
			</g>
			<g>
				
					<ellipse transform="matrix(0.9768 -0.2142 0.2142 0.9768 -496.2343 463.4824)" class="st10" cx="1890.6" cy="2521.6" rx="36" ry="44.7"/>
			</g>
			<g>
				
					<ellipse transform="matrix(0.9768 -0.2142 0.2142 0.9768 -479.9661 478.4105)" class="st10" cx="1967.6" cy="2454" rx="40" ry="49.6"/>
			</g>
			<g>
				<g>
					<g>
						<path class="st2" d="M2770.9,922c79.2,154.8,177,199.3,177,199.3s-64.1,212.7-133.5,281
							C2703.5,1511.5,2705.9,795.1,2770.9,922z"/>
						<path d="M2792.4,1428.9c-6.7,0-12.3-2-16.1-4c-72.8-37.6-72.9-367.8-56.5-469c6.9-42.8,16.5-61.4,33.1-64
							c12.1-1.9,22.7,5.9,31.5,23.1c76,148.4,168.9,192,169.8,192.4c6.9,3.1,10.4,10.9,8.2,18.2c-2.7,8.8-66,217.3-137.4,287.5
							C2812.8,1425.3,2801.5,1428.9,2792.4,1428.9z M2757.1,928.4c-9.4,26.3-18.9,107.4-15.4,220.7c3.8,124.3,21.9,223.2,45.1,246.2
							c3.4,3.4,6.6,6.6,17.1-3.7c56.7-55.8,111.4-217.7,125.9-262.8c-29.4-17.3-107-72.2-172.3-199.8
							C2757.3,928.7,2757.2,928.5,2757.1,928.4z"/>
					</g>
					<g>
						<g>
							<path class="st12" d="M2716.1,924l-231.4-211.3l-267.3-244.1c163.8-151.7,479.2-310,570.2-248c17.2,11.8,29.8,37.3,37.7,72.9
								C2855.1,427.1,2819.1,702.4,2716.1,924z"/>
						</g>
						<g class="st13">
							<path class="st9" d="M2828.5,309.2c-7.4-20.3-17.2-35.2-29.2-43.4c-87.6-59.8-383,84.6-551.1,230.8l-30.7-28.1
								c163.8-151.7,479.2-310,570.2-248C2807.3,234,2820.9,265.4,2828.5,309.2z"/>
						</g>
						<g>
							<path d="M2716.1,939.2c-2.1,0-4.3-0.5-6.4-1.4c-7.6-3.5-10.9-12.6-7.4-20.2c134.1-288.4,145.7-637.4,76.8-684.4
								c-36.4-24.9-127.3-8-243,45c-111.1,51-229.2,128.2-308.4,201.5c-6.1,5.7-15.7,5.3-21.4-0.8c-5.7-6.1-5.3-15.8,0.8-21.4
								c81.4-75.4,202.6-154.6,316.4-206.8c74.8-34.3,209.8-85.5,272.7-42.5c95.6,65.2,60.3,450-66.4,722.3
								C2727.3,935.9,2721.8,939.2,2716.1,939.2z"/>
						</g>
						<g>
							<path class="st6" d="M2710.6,691.3c-46.6-70.8-86.2-119.6-121.1-156.3c-30.6-32.1-57.6-54.9-82.5-75.1
								c8.3-31.3,215.7-195.8,244-138.9c8.5,17,13.7,42.5,15.8,72.5C2773.7,486.7,2752,624,2710.6,691.3z"/>
						</g>
						<g>
							<path class="st7" d="M2766.8,393.5c-12.1-17-30.9-37.4-49.2-33.9c-31.1,6-101.3,105-128.1,175.3
								c-30.6-32.1-57.6-54.9-82.5-75.1c8.3-31.3,215.7-195.8,244-138.9C2759.5,338,2764.7,363.5,2766.8,393.5z"/>
						</g>
						<g>
							<path d="M2711,719.5l-13.1-19.9c-85.4-129.9-145.8-183.8-200.4-227.9l-7.6-6.2l2.5-9.5c9.1-34.5,162-154.8,229.2-161.7
								c27.5-2.8,38.8,11.3,43.1,19.9l0,0c38.5,77.3,15.5,293.2-41.1,385L2711,719.5z M2526.6,456.3
								c50.7,41.7,107.1,94.5,182.5,205.6c45.1-96.5,56.9-276.6,28.3-334.1l0,0c-0.6-1.1-1.9-3.8-10.6-3.4
								C2674.6,326.9,2553.7,422.3,2526.6,456.3z"/>
						</g>
					</g>
					<g>
						<path class="st12" d="M2007.2,425.6l-360.8,330l-155.9,142.6c-115-230-153.3-521.8-114.6-648.1c8-26,19.2-44.9,33.7-54.9
							C1504.1,130,1834.9,278.7,2007.2,425.6z"/>
					</g>
					<g class="st13">
						<path class="st9" d="M2007.2,425.6l-22.7,20.8c-178.4-138-502.8-261.9-570-227.7c-54.7,27.8-50.7,217.8-29.1,370
							c-38.7-188.4-30.7-355.5,24.3-393.4C1504.1,130,1834.9,278.7,2007.2,425.6z"/>
					</g>
					<g>
						<path d="M1490.5,913.5c-5.6,0-10.9-3.1-13.6-8.4C1342.2,636,1301.8,251.2,1401,182.7c105.2-72.6,448,88.1,616.1,231.4
							c6.4,5.4,7.1,15,1.7,21.4s-15,7.1-21.4,1.7c-170.5-145.4-494.2-288.1-579.2-229.5c-71.7,49.4-56.7,399,85.8,683.8
							c3.8,7.5,0.7,16.6-6.8,20.4C1495.1,912.9,1492.8,913.5,1490.5,913.5z"/>
					</g>
					<g>
						<path class="st2" d="M1799.7,379c68.2-29.2,149.1-47.9,245.8-55.5c716.2-56,790.3,482.2,797.6,762.5
							c93.9,171.5,64.7,582.2-692.8,584.4c-746.1-7.1-870.4-493.2-876.9-520.9c120.2-140.6,150.4-340,205.2-443.8"/>
					</g>
					<g>
						<path class="st2" d="M2150.4,1670.4c-255.9-2.4-438.6-61.2-568.6-138.6c-248.9-148.1-304-364.1-308.3-382.3
							c120.2-140.6,150.4-340,205.2-443.8c0,0,54.5-109.7,140.4-201.4C1670,450,1799.7,379,1799.7,379
							c68.3-29.2,149.2-47.9,245.8-55.5c716.2-56,790.4,482.2,797.6,762.4c0.3,0.5,0.5,0.9,0.8,1.5
							C2936.9,1259.8,2905.7,1668.2,2150.4,1670.4z"/>
					</g>
					<g>
						<path class="st2" d="M2865.3,1344.6c-51.7,162.8-240.4,324.4-714.9,325.8c-255.9-2.4-438.7-61.2-568.6-138.6
							c-158.2-94.1-238.2-215.8-276.5-296.5c-22-46.3-30.3-79.2-31.8-85.8c120.2-140.6,150.4-340,205.2-443.8
							c0,0,54.5-109.8,140.4-201.4c51-54.4,180.7-125.3,180.7-125.3c68.3-29.2,149.2-47.9,245.8-55.5
							c716.2-56,790.4,482.2,797.6,762.4c0.2,0.5,0.5,0.9,0.7,1.4C2878.4,1151.5,2895.9,1248.3,2865.3,1344.6z"/>
					</g>
					<g>
						<path class="st2" d="M2865.3,1344.6c-51.7,162.8-240.4,324.4-714.9,325.8c-255.9-2.4-438.7-61.2-568.6-138.6
							c-158.2-94.1-238.2-215.8-276.5-296.5c-22-46.3-30.3-79.2-31.8-85.8c120.2-140.6,150.4-340,205.2-443.8
							c0,0,54.5-109.8,140.4-201.4c51-54.4,180.7-125.3,180.7-125.3c68.3-29.2,149.2-47.9,245.8-55.5
							c716.2-56,790.4,482.2,797.6,762.4c0.2,0.5,0.5,0.9,0.7,1.4C2878.4,1151.5,2895.9,1248.3,2865.3,1344.6z"/>
					</g>
					<g>
						<path class="st4" d="M2514.8,1591.7c122.3-35.2,199.4-87.1,248-139.8c3.2-11.7,5-23.7,5.6-35.7
							c-34.9,33.6-86.7,72.2-161.2,105.1C2586.1,1547.4,2555.5,1571.4,2514.8,1591.7z"/>
					</g>
					<g>
						<path class="st4" d="M1748.7,1530.9c4.9,15.3,11.2,31,18.8,47.1c84,27.8,177,45.7,278.2,53.5c5.6,0.4,11.3,0.8,17,1.2
							c-52.8-11.8-87.7-29.9-110.9-53.6C1875.5,1567.5,1808.2,1550.8,1748.7,1530.9z"/>
					</g>
					<g>
						<path class="st11" d="M1507.5,1409.3c6.5,15.8,14.2,31.3,22.6,46.3c21.1,16.1,44.2,31.7,69.2,46.6
							c121.6,72.4,271.7,115.9,446.3,129.3c33.9,2.6,69.3,4.1,105,4.4c510.2-1.5,646.1-189.7,681.7-301.7
							c0,0-128.7,284.7-707.1,261.2C1820.7,1583.1,1626.8,1496.3,1507.5,1409.3z"/>
					</g>
					<g>
						<path class="st14" d="M1936.5,1646.4c2,2.7,3.9,5.5,5.8,8.1c-54.8-8.3-105.3-19.5-151.6-33.1c-33.1-42.2-56-88.7-67.1-136.9
							c51.5,16.9,107.8,31.8,169.3,43.5C1894.6,1566.4,1907.6,1606.2,1936.5,1646.4z"/>
					</g>
					<g>
						<path class="st14" d="M2757.7,1429.2c-13.5,43.9-33.6,84.6-54.7,117.2c-33.3,21.5-72.1,41-117.1,58
							c34.5-41.5,54.2-81.5,63.3-119.1C2688.6,1468.9,2724.7,1450.1,2757.7,1429.2z"/>
					</g>
					<g>
						<path class="st12" d="M2150.4,1670.4c-255.9-2.4-452.4-71.1-582.4-148.5c-34.4-43.6-63.9-93.1-78.2-146
							c-16-59.1-13-122.2,23.3-185.6c71.7-125.1,169.3-115.9,267.8-76.6c102.4,40.9,205.8,114.4,281.9,103.7
							c117.1-16.4,163.3-96.3,300-89.9c91.4,4.3,95.2,54.5,180.3,74.9c101.6,24.3,222.5-110.9,300.8-115
							C2936.9,1259.8,2905.7,1668.2,2150.4,1670.4z"/>
					</g>
					<g>
						<path class="st6" d="M2263,1654.4c1.7,2.6,3.4,5.1,5.1,7.5c1,1.5,2.1,3,3.1,4.4c198.2-13.5,337-58.8,431.5-119.7
							c0.1-0.1,0.2-0.1,0.3-0.2c139.5-124.1,47.9-348.4-192.4-354.4c75,41.7,136,101.2,132,237.3c-2.9,98.9-106.1,189.3-333.7,219.9
							C2294.2,1651.1,2278.9,1652.9,2263,1654.4z"/>
					</g>
					<g>
						<path class="st6" d="M1790.6,1621.4L1790.6,1621.4c100,29.3,218.7,47.7,359.7,49c34.5-0.1,67.5-1.1,99.1-2.8
							c6.6-2,12.8-3.9,18.7-5.7c18.6-5.8,32.9-10.2,40.8-12.8c4.4-1.4,6.8-2.2,6.8-2.3c-339.3,12.4-396.3-59.2-408.8-181.9
							c-15.5-151.6,133-213.7,231-268.6C1786.8,1218.2,1646.7,1379.1,1790.6,1621.4z"/>
					</g>
					<g>
						<path d="M1799.7,379c82.5-53.4,183-68.2,279.3-73.3c226.3-17,475.7,37.2,620.3,226c121.9,155.8,156.6,360.8,159,553.8
							l-1.9-6.9c22.7,42.5,35.5,89.7,38.8,137.5c2.8,35.6-0.5,72.1-8.3,106.9c-90.6,368.5-669,393.6-973.9,341.7
							c-194.4-32.7-386.1-117-518-267.4c-46.4-52.7-85.4-112.3-113.1-177.1c-9.2-21.8-17.3-43.6-23.3-67.4c-1.1-4.5,0-9,2.6-12.5
							c30.4-39.6,56.9-82.8,78.9-127.9c26-49.8,61.2-143.2,82.8-196.4c15.9-37.9,32.4-76.4,55.7-110.6
							c-27.4,77.9-43.1,157.9-71.5,235.7c-27.8,78.8-65,155.9-122.1,218c0,0,3.2-13.4,3.2-13.3c48.9,173.2,183.7,313.2,341.5,395
							c105.1,54.5,221.7,86.2,338.8,101.6c246.6,30.8,637,13.7,813-182.6c59.2-65.1,90.2-154.1,83.4-241.6
							c-1.3-21.9-5.2-43.6-11.1-64.6c-5.8-21-13.7-41.5-24-60.5c-1.2-2.2-1.8-4.5-1.9-6.9c-4.3-102.2-15.9-204.8-44.9-303.1
							c-61.4-214-202.1-368.1-421.9-421.4C2176.8,316.7,1982.9,335.9,1799.7,379L1799.7,379z"/>
					</g>
					<g>
						<path class="st6" d="M1704.8,426.1c-55.4,45-120.4,102.5-210.6,238.6c-4.7-7.1-9.2-15-13.4-23.6
							c-29.6-59.9-47.3-152.9-48.9-230.6c-1-48.4,4.2-90.8,16.8-115.8C1477.9,236.7,1695.9,395.1,1704.8,426.1z"/>
					</g>
					<g>
						<path class="st7" d="M1704.8,426.1c-55.4,45-120.4,102.5-210.6,238.6c-4.7-7.1-9.2-15-13.4-23.6c7.2-55.7,51.9-116,69.3-163.1
							c36.2-97.6-38.3-158.7-66.4-148.7c-16.6,5.9-41.6,58.2-51.8,81.2c-1-48.4,4.2-90.8,16.8-115.8
							C1477.9,236.7,1695.9,395.1,1704.8,426.1z"/>
					</g>
					<g>
						<path d="M1494.2,679.9c-5.1,0-9.8-2.5-12.6-6.8c-60-90.4-86-306.4-46.4-385.2c4.5-8.9,16.3-23.4,45.9-20.6
							c71.2,6.6,228.3,120,238.3,154.8c1.7,5.8-0.3,12.1-5,16c-56.7,46-119.4,102.1-207.5,235.1
							C1504.1,677.3,1499.3,679.9,1494.2,679.9C1494.3,679.9,1494.3,679.9,1494.2,679.9z M1473.8,297.2c-9.3,0-10.9,3.2-11.4,4.3
							l0,0c-29.5,58.7-15.4,239.6,32.9,334.6c78.3-114.7,136.9-169.6,189.7-213.2c-28.6-32.5-155.4-123.9-209.7-125.6
							C1474.7,297.2,1474.2,297.2,1473.8,297.2z M1448.8,294.7L1448.8,294.7L1448.8,294.7z"/>
					</g>
					<g>
						<g>
							<path d="M2457.5,1147.8c0.6,32.3-34.8,61.5-62.1,79.1c-18.9,12.2-43.2,12.7-62.5,1.2c-28-16.6-64.5-44.4-65.1-76.6
								C2266.8,1099.1,2456.5,1095.4,2457.5,1147.8z"/>
						</g>
						<g class="st15">
							<path class="st9" d="M2412.3,1137.3c0.1,6-13.1,11.5-23.2,14.9c-7,2.3-16,2.5-23.1,0.5c-10.3-3-23.7-8-23.8-13.9
								C2341.9,1129,2412.1,1127.6,2412.3,1137.3z"/>
						</g>
					</g>
					<g>
						<g>
							<path class="st2" d="M1775.9,392.6c150.8-104.1,243.6-103.2,424-176.1c45-18.2,123.2-68.8,123.2-68.8s19.1,85.5,6.5,136
								c106-4.8,143.9,41,291.1,40.9c-26.2,42.5-81.9,99.4-163.2,94.7"/>
						</g>
						<g>
							<path d="M1775.9,392.6c47.9-40.8,103.2-74.5,161.8-98.8c81.1-33.7,165.9-56.8,247.1-90.1c46-18.1,88.3-44.8,131.2-69.2
								c7-4.1,16.1-1.7,20.2,5.3c4.7,12.8,5.5,26.6,7.9,39.6c3.3,23.5,5.5,47,4.8,70.9c-0.5,12.1-1.5,24.5-4.6,37.1l-15.4-18.8
								c50.5-3.4,101.9,10.1,149.5,23c46.8,12.4,94,17.8,142.3,17.9c8.4-0.2,15.4,6.7,15.3,15.1c0,2.9-0.9,5.7-2.4,8
								c-7.9,15.9-19.1,29.9-32,42c-37.9,35.4-92.8,56.1-144.1,44.7c32.4-3.4,62.8-15,88.2-34.6c24.8-18.8,42.9-43.9,62.1-68
								l12.9,23.1c-25.1-0.2-50.4-1.4-75.5-4.4c-49.1-5.3-97.5-22.2-145-31.6c-23.2-4.4-46.4-6-70-4.9c-9.9,0.6-17.8-9-15.5-18.6
								c2.3-9.7,3.3-20.2,3.8-31c0.8-32.6-3.7-66.3-10.2-98.2l23.1,9.4c-31.6,21.8-63.8,42-97.9,59.7c-8.4,4.3-18,9-26.9,12.6
								c-70.8,29.1-151,51.5-224.7,72.9C1909.8,326.7,1842,355.7,1775.9,392.6L1775.9,392.6z"/>
						</g>
					</g>
				</g>
				<g>
					<path d="M1801.2,997.9c20.7,43.1,44,86.7,79.6,117.1c28.9,25.2,64.4,38.2,101.8,41.7c46.1,5.8,93.2-7.6,128.9-37.3
						c35.4-29,55-70.4,70.9-115.5c18.5,51.8,7.2,113.1-29.7,156c-57.4,68.5-161.9,76.5-239,38.7
						C1837.7,1163.1,1799.9,1078.1,1801.2,997.9L1801.2,997.9z"/>
				</g>
				<g>
					<path d="M2740.2,1015.3c35,108.8-43.3,224.4-163.4,185.8c-78-26.6-109-119.2-92.1-193.7c22.1,62.9,56.8,143.6,131.3,147.9
						C2693.2,1162.6,2726.3,1079.1,2740.2,1015.3L2740.2,1015.3z"/>
				</g>
				<g>
					<path d="M2475.9,1476.8c-18.5-14-39-19.8-61.3-17.9c-35.1,2.5-64.8,24.8-91,47.2c-6.6,5.6-12.7,11.9-19.7,17.7
						c7.7-16.1,17-31.7,29.5-45c18.3-20.7,44-37.5,72.2-41.9C2434.2,1431.8,2470.2,1446,2475.9,1476.8L2475.9,1476.8z"/>
				</g>
				<g>
					<path d="M2389.5,1217.2c-7,35.5-33.6,68.4-37,68c-2.3-0.3,4.4-32.1-8.4-71.8"/>
				</g>
				<g>
					<path class="st12" d="M1995.6,760.8c32.2-12.2,80.4-43.4,142.4-24.2c72.2,22.3,60.8,113.2,21.2,121.1
						C2085.5,872.6,2065,791.5,1995.6,760.8z"/>
				</g>
				<g>
					<path class="st12" d="M2660.1,792.2c-34.6-31.1-88.8-49.5-129.7-30.7c-44.5,20.4-53,84.7-17.4,99.9
						C2576.3,888.7,2589.9,810.7,2660.1,792.2z"/>
				</g>
			</g>
			<g>
				<g>
					<path class="st8" d="M2408.7,1968.2c-20.8-166-121.7-282.6-66.6-392.1c28-55.6,87.7-59.8,112.3-56
						c120.4,18.5,201.5,189.9,188.6,325.6C2628.2,1999.1,2495.1,1999.1,2408.7,1968.2z"/>
				</g>
				<g>
					<path class="st16" d="M2642.9,1845.6c-0.9,9.7-2.3,18.7-4.2,27.2l0,0c-27.1,126.1-149.1,124.3-230,95.3
						c-6.9-54.8-22.5-104.3-38.3-149.8c-32.1-92.4-65.2-169-28.3-242.3c28-55.6,87.7-59.8,112.3-56
						C2574.8,1538.5,2655.9,1709.9,2642.9,1845.6z"/>
				</g>
				<g>
					<path class="st6" d="M2644.8,1845.6c-0.9,9.7-2.3,18.7-4.1,27.2l0,0c-27.1,126.1-149.1,124.3-230,95.3
						c-6.9-54.8-22.5-104.2-38.3-149.8c-3.5-10.1-7-20.1-10.5-29.9c-28-79.3-50.6-147.1-17.8-212.4c28-55.6,87.7-59.8,112.3-56
						c70.8,10.9,127.9,74.5,160.4,152.7C2639.5,1727.6,2650.1,1789.6,2644.8,1845.6z"/>
				</g>
				<g class="st0">
					<path class="st9" d="M2554.3,1576.7c-23.5-17.8-49.6-29.9-77.7-34.2c-26.4-4-90.4,0.4-120.4,60
						c-39.6,78.6-4.1,160.7,30.3,259.7c11.9,34.2,23.6,70.5,32.2,109.3c-3.4-1.1-6.7-2.2-10-3.4c-6.9-54.8-22.5-104.3-38.3-149.8
						c-32.1-92.4-65.2-169-28.3-242.3c28-55.6,87.7-59.8,112.3-56C2492.1,1525.8,2526,1546.6,2554.3,1576.7z"/>
				</g>
				<g>
					<path class="st7" d="M2638.7,1872.9c-27.1,126.1-149.1,124.3-230,95.3c-6.9-54.8-22.5-104.3-38.3-149.8
						c35.2,0.3,87.1,6.4,133,34.2C2560.1,1887,2606.7,1912,2638.7,1872.9z"/>
				</g>
				<g>
					<path d="M2498.2,1999.5c-42.1,0-79.3-11.5-94.6-17c-5.4-1.9-9.2-6.7-9.9-12.4c-7.9-62.9-28.1-120.1-46-170.5
						c-29.9-84.6-55.8-157.6-19.2-230.3c31-61.6,97.4-68.9,128.1-64.2c129.9,19.9,214.9,200.2,201.4,342
						c-5.7,59.9-28.8,103-68.7,128.4C2560.7,1993.6,2528.3,1999.5,2498.2,1999.5z M2422.5,1956.8c30.2,9.5,99.3,25.6,150.6-7
						c31.5-20,50-55.6,54.8-105.6c12-126-63.7-291.9-175.8-309.1c-23.2-3.6-73.3,1.8-96.4,47.8c-30.8,61.2-8.1,125.3,20.7,206.5
						C2393.8,1838.8,2413.5,1894.5,2422.5,1956.8z"/>
				</g>
				<g>
					<path class="st6" d="M2547.6,2124.8c-16.8,21-38.4,24.9-79.1,26.4c-9,0.3-18.4,1.3-28.3,2.6l0,0c-69.6,9.6-162.1,40.3-281,24.3
						c-135.4-18.2-266.4-109.2-314.1-164.9c-1.8-2.2-3.5-4.3-5.1-6.3l87.6-313.4c11.2,5,26.6,15.8,45.6,29.5l0,0
						c61.9,44.9,160.5,121.7,264,136.2c52.1,7.3,112-5.1,170-1l0,0c29.9,2.1,59.3,8.6,86.8,24.4c29.8,17.2,49.6,49,61.1,84.5
						c0,0,0,0,0,0.1C2574.2,2027.3,2569.4,2097.6,2547.6,2124.8z"/>
				</g>
				<g class="st0">
					<path class="st9" d="M2554.9,1967.3C2554.9,1967.4,2554.9,1967.4,2554.9,1967.3c-88.5-122.2-196.6-63.3-332.7-83.4
						c-134-19.7-246.5-157.6-249.1-160.8c61.9,44.9,160.5,121.7,264,136.2c78.9,11.1,175.9-23.1,256.8,23.4
						C2523.6,1900,2543.5,1931.8,2554.9,1967.3z"/>
				</g>
				<g>
					<path class="st7" d="M2547.6,2124.8c-16.8,21-38.4,24.9-79.1,26.4c-72,2.6-173.4,45.3-309.3,27
						c-135.4-18.2-266.4-109.2-314.1-164.9c49.2,6.9,196.9,113.4,324.9,123.9c129.5,10.7,207.7-25.5,305.7-21.2
						c72.5,3.3,85.3-87.5,79.5-148.7C2574.2,2027.3,2569.4,2097.6,2547.6,2124.8z"/>
				</g>
				<g>
					<path d="M1927.5,1693.6c32.7,11.8,61.4,32.6,91.1,49.9c57.6,34.9,116,69.6,179.4,91.1c31.9,10.4,63.4,13.2,97,11.3
						c84.5-5.3,197.8-17.2,251.6,66.4c36.7,56.1,51.6,154.6,19.1,215.1c-20.8,35.9-62.9,39.8-99.7,40.9c-18.3,1-36.4,4.3-55.2,7.8
						c-149.3,32.8-272.6,39.1-412.7-33.6c-31.5-15.8-61.5-34.6-88.8-56.9c-26.9-22.4-52.8-47.7-69.5-78.8
						c26.7,22.4,54.9,41.1,83.7,58.9c84.8,53.1,178.8,96.1,280.2,99c33.2,1.4,66.6-0.4,99.9-4.9c50.9-6.2,101.4-20.6,153.6-25.4
						c56.5-2.5,85-0.8,92.3-66.5c5.6-59.1-9.4-135.5-60.7-169.9c-27.3-16.7-58.8-23.3-90.8-24.7c-50.2-2.5-103.8,7.3-155.7,1.9
						c-18.3-2.2-36-5.7-53.3-10.8c-69.1-18.7-128.5-59.5-182.3-104.4C1979.7,1738.4,1955.7,1713.6,1927.5,1693.6L1927.5,1693.6z"/>
				</g>
				<g>
					<path d="M2413.8,1506.5c45.2,4.9,78.9,42.7,95.6,82.3c-22.1-28.7-55.5-55.2-93.4-52.2c-0.3,0.1-1,0.1-0.8,0.2L2413.8,1506.5
						L2413.8,1506.5z"/>
				</g>
				<g>
					<path d="M2372.2,1529.8c36.4,19.8,64.7,54.6,75.6,94.5c-17.6-30.6-46.6-53.9-80.1-64.4c-2-0.6-4.4-1.3-5.7-1.5L2372.2,1529.8
						L2372.2,1529.8z"/>
				</g>
			</g>
		</g>
		<g>
			<g>
				<path class="st12" d="M2959.1,904.2c0,0,95.7,8.3,146.8-56.8c22.9,12,48.3,19.2,75.2,20.6c44.4,2.2,88.7,2.2,133.1,0
					c103.3-5.1,185.5-97.7,185.8-210.9v-3.9c-0.3-113.2-82.4-205.8-185.8-210.9c-44.4-2.2-88.7-2.2-133.1,0
					c-103.3,5.1-185.5,97.7-185.8,210.9v3.9c0.1,40,10.4,77.4,28.3,109.3C3015.7,812.7,2998.1,873,2959.1,904.2z"/>
			</g>
			<g>
				<g>
					<path d="M3235.3,730.9c-16.7-1.4-30.8,10.4-32.2,26.9c-1.4,16.2,10.9,30.5,27.2,31.9c16.2,1.4,30.5-10.7,31.8-26.9
						S3251.5,732.2,3235.3,730.9z"/>
				</g>
				<g>
					<path d="M3253.8,529.3c-33.5-2.8-63.5,13.2-78.4,41.8c-2.3,4.6-2.5,10-0.6,14.7c1.9,4.6,5.7,8.2,10.3,9.8l11.1,4l0.3,0.1
						c1.3,0.4,2.6,0.6,4,0.7c7.7,0.6,14.9-3.2,18.5-9.8c3.5-6.1,11.8-15.9,27.8-14.6c18.6,1.6,25.8,16.3,24.7,29.3
						c-1.1,13.7-10.3,22.2-21.9,32.9c-13.4,12.5-30.1,28-35.5,55.9l-0.1,0.4c-0.7,5,0.6,10.1,3.7,14.1c3,3.8,7.4,6.2,12.3,6.6
						l13.8,1.2c8.6,0.7,16.7-5.2,18.8-13.8l0.1-0.3c3.3-16.1,13.5-25.7,25.2-36.7c14.5-13.7,31-29.2,33.5-59.1
						C3324.8,567.3,3294.5,532.7,3253.8,529.3z"/>
				</g>
			</g>
			<g>
				<path d="M2970.2,918.8c-7.1,0-11.5-0.4-12.3-0.4c-5.8-0.5-10.7-4.5-12.4-10c-1.7-5.6,0.2-11.6,4.7-15.2
					c34.4-27.5,50.8-81.8,58.6-124.3c-18-33.9-27.6-72.4-27.6-111.7v-4c0.3-120.7,87.8-219.6,199.3-225.1c44.6-2.2,89.9-2.2,134.5,0
					c111.5,5.5,199,104.4,199.3,225.1v4c-0.3,120.7-87.8,219.6-199.3,225.1c-44.6,2.2-89.9,2.2-134.5,0c-24.7-1.2-48.4-7-70.9-17.2
					C3064.8,913.4,2997.7,918.8,2970.2,918.8z M2959.1,904.2L2959.1,904.2L2959.1,904.2z M3247.7,454.8c-22,0-44,0.5-65.9,1.6
					c-96.3,4.8-172,91.2-172.3,196.8v3.9c0.1,36.2,9.2,71.6,26.5,102.3c1.6,2.8,2.2,6.1,1.6,9.4c-6.4,37.5-19.3,85-45,120.2
					c30-3.4,74-14.6,102-50.4c4.2-5.4,11.7-7,17.8-3.8c21.7,11.4,45,17.8,69.3,19c43.7,2.2,88,2.2,131.7,0
					c96.3-4.8,172-91.2,172.3-196.7v-3.9c-0.3-105.6-75.9-192-172.3-196.7C3291.7,455.3,3269.7,454.8,3247.7,454.8z"/>
			</g>
		</g>
	</g>
</g>
</svg>
