<?xml version="1.0" encoding="utf-8"?>
<!-- Generator: Adobe Illustrator 22.1.0, SVG Export Plug-In . SVG Version: 6.00 Build 0)  -->
<svg version="1.1" id="Layer_1" xmlns="http://www.w3.org/2000/svg" xmlns:xlink="http://www.w3.org/1999/xlink" x="0px" y="0px"
	 viewBox="0 0 4000 3113" style="enable-background:new 0 0 4000 3113;" xml:space="preserve">
<style type="text/css">
	.st0{opacity:0.2;}
	.st1{fill:#636363;}
	.st2{fill:#A4A6BA;}
	.st3{fill:#FFFFFF;}
	.st4{opacity:0.3;}
	.st5{opacity:0.6;}
	.st6{fill:#6E7189;}
	.st7{opacity:0.4;}
	.st8{opacity:0.5;}
	.st9{fill:none;stroke:#000072;stroke-width:35.325;stroke-linecap:round;stroke-linejoin:round;stroke-miterlimit:10;}
	.st10{fill:#C0BECC;}
	.st11{opacity:0.7;}
	.st12{fill:none;stroke:#000072;stroke-width:35.325;stroke-miterlimit:10;}
	.st13{fill:#FF8D06;}
</style>
<g>
	<g>
		<g class="st0">
			<ellipse class="st1" cx="2020.3" cy="2812" rx="1134.6" ry="153"/>
		</g>
		<g>
			<g>
				<g>
					<path class="st2" d="M1218.4,2741.7c-263.2,17.7-387.6-148.4-349.5-478.3c14.7-103.4,5.5-179.6-23.6-231.8
						c-33.5-60.3-93.3-88.5-172.9-89.5c-48.7-0.6-93.6-29.9-111.4-75.3c-3.8-9.6-6.3-19.7-7.4-30.2c-0.9-8.2-0.9-16.6,0.2-25.2
						c0.2-1.6,0.4-3.3,0.7-5c3.9-23.4,15.8-47.5,38.2-70c25-25.2,57.4-41.5,92-49.7c148.9-35.5,303.3,44.1,385.2,177.2
						c41.6,67.5,64.5,148.8,58.6,235.8c-0.5,7-1.7,14-3.2,20.8c-8.1,36.9-12,69.3-12.1,97.5c0,5.8,0.1,11.3,0.4,16.7
						c3.5,64.4,29.1,104.9,71.4,127.2l29.8,337L1218.4,2741.7z"/>
				</g>
				<g>
					<path class="st3" d="M1069.8,1863.9c-56.3-2.6-114.9,22.8-155.9,63.2c-30,29.5-52.1,65.5-68.6,104.4
						c-33.5-60.3-93.3-88.5-172.9-89.5c-48.7-0.6-93.6-29.9-111.4-75.3c-15.4-39.2-10.9-87.5,31.7-130.3c25-25.2,57.4-41.5,92-49.7
						C833.5,1651.3,987.9,1730.9,1069.8,1863.9z"/>
				</g>
				<g>
					<path d="M1181.1,2760.6c-103.5,0-184.9-30.3-242.1-90.3c-79.8-83.8-109.3-221.4-87.7-409c16.3-114.5,3.2-197.3-38.9-246.5
						c-30.7-35.8-77.9-54.4-140.2-55.2c-56.3-0.7-107.6-35.5-127.6-86.5c-20.3-51.6-7.3-106,35.6-149.2c26-26.2,60.7-45,100.4-54.4
						c108.4-25.8,223.9,4.6,316.9,83.4c101.9,86.3,157.5,216.4,148.5,348c-0.5,7.1-1.6,14.5-3.6,23.4
						c-25.8,117.8-9.2,190.4,50.7,221.9c5.3,2.8,8.8,8.1,9.4,14.1l33.5,379.8c0.4,4.7-1.1,9.4-4.2,13c-3.1,3.6-7.5,5.8-12.2,6.1
						C1206.4,2760.2,1193.6,2760.6,1181.1,2760.6z M757,1695.9c-22.9,0-45.8,2.6-68.4,8c-33.3,7.9-62.2,23.5-83.5,45
						c-44.6,44.9-36.5,89.1-27.8,111.4c14.9,37.8,53.1,63.6,95.2,64.1c73,0.9,129,23.6,166.6,67.5c49.1,57.3,64.9,149.4,47.1,274
						c-20.3,176.3,5.9,304.3,78.2,380.1c53.5,56.1,132.4,82.7,234.6,79.1l-31.1-352.3c-68.1-41.5-88.4-127.5-60.2-255.9
						c1.6-7.1,2.5-12.9,2.8-18.2c8.2-120.5-42.7-239.6-136.1-318.7C909.8,1725,833.2,1695.9,757,1695.9z"/>
				</g>
				<g class="st4">
					<g>
						<path d="M1124.8,2192.2c-1.7-1.6-3.4-3.2-5.1-4.8l6.7-6.1C1125.9,2185,1125.4,2188.6,1124.8,2192.2z"/>
					</g>
				</g>
				<g class="st0">
					<g>
						<path d="M1214.6,2698.9c-257.2,9.8-378.2-153.8-340.2-472.5c15.1-102,5.6-177.2-24-228.6c-34.1-59.4-95.2-87.3-176.4-88.3
							c-49.7-0.6-95.4-29.5-113.6-74.2c-3.1-7.6-5.4-15.7-6.8-23.9c-0.4-1.9-0.6-3.9-0.8-5.8c0.5,0.3,1,0.6,1.5,0.8
							c30.8,17.1,65,28.4,100.3,32.1c53,5.7,108.1-4.1,159.1,11.2c59.5,17.8,104.1,67.8,128.5,123.3
							c24.5,55.4,31.5,116.3,37.5,176.3c4.1,40,14.2,88.4,53.7,101.2c27.2,8.8,58-5.3,75.6-27.2c1.4-1.7,2.6-3.4,3.8-5.3
							c0,5.8,0.1,11.3,0.4,16.7c3.5,64.4,29.1,104.9,71.4,127.2L1214.6,2698.9z"/>
					</g>
				</g>
			</g>
			<g>
				<g>
					<g>
						<path class="st3" d="M1485.1,2757.4l-41.6-364.8c201.4,191.5,457.8,280.1,777.8,249.8l-11.2,140L1485.1,2757.4z"/>
					</g>
					<g class="st0">
						<path d="M1485.1,2757.4l-41.6-364.8c201.4,191.5,457.8,280.1,777.8,249.8l-11.2,140L1485.1,2757.4z"/>
					</g>
				</g>
				<g>
					<g>
						<path class="st2" d="M1590.6,2728.7c-14.4,76.3-59.5,124.2-121.4,123.4h-239.4c-24.2,0-47.7-9.7-63.5-28
							c-11.3-13.1-17.5-28.5-19.6-44.7c-1.3-10.1-1-20.4,0.6-30.6c2.4-15.3,7.9-30.4,15.4-44c6.1-11,13.6-21,22.1-29.4
							c-1.6-3-3.1-6-4.7-9.1c-12.4-24.3-22.9-48.7-31.6-72.9c-46.9-129.6-41.1-250.8,21.2-312.3c32.6-32.2,80.7-48,144.7-40
							l34.4,13.7c73.7,29.5,129.7,91.4,151.6,167.7c8.6,30.1,17.8,59.6,27.6,88.5c8.3,24.2,17,48,26.3,71.2
							c8,20.1,16.5,39.8,25.4,59.1C1592.4,2668.7,1596.2,2699.3,1590.6,2728.7z"/>
					</g>
					<g class="st5">
						<path class="st3" d="M1500.8,2842.6h-239.4c-24.2,0-47.7-9.7-63.5-28c-11.3-13.1-17.5-28.5-19.6-44.7
							c-1.3-10.1-1-20.4,0.6-30.6c2.4-15.3,7.9-30.4,15.4-44c6.1-11,13.6-21,22.1-29.4c-1.6-3-3.1-6-4.7-9.1
							c-12.4-24.3-22.9-48.7-31.6-72.9c-46.9-129.6-41.1-250.8,21.2-312.3c12.3-12.1,26.8-21.9,43.5-29c-30.6,6-55.6,19.3-75,38.5
							c-62.2,61.5-68.1,182.7-21.2,312.3c8.7,24.1,19.3,48.5,31.6,72.9c1.5,3,3.1,6,4.7,9.1c-8.5,8.3-16,18.4-22.1,29.4
							c-7.6,13.6-13,28.7-15.4,44c-1.6,10.2-1.9,20.5-0.6,30.6c2.1,16.2,8.3,31.6,19.6,44.7c15.8,18.3,39.3,28,63.5,28h239.4
							c17.4,0.2,33.5-3.4,48-10.4C1511.9,2842.4,1506.4,2842.7,1500.8,2842.6z"/>
					</g>
					<g>
						<path class="st3" d="M1590.6,2728.7c-14.4,76.3-59.5,124.2-121.4,123.4h-239.4c-24.2,0-47.7-9.7-63.5-28
							c-11.3-13.1-17.5-28.5-19.6-44.7c4.2-25.1,9.6-50,16-74.6c1.5-5.8,3.1-11.7,4.7-17.5l-1.3,1.5c1.9-8.8,7.2-16.5,14-22.4
							c3.4-3,7.2-5.6,11.1-7.7c11.9-6.4,25.4-8.9,38.7-10.9c49.9-7.4,100.9-7.3,150.8,0.3c24.4,3.7,49.1,9.2,73.6,5.9
							c29.1-4,55.4-20.4,75.8-41.6c8.9-9.2,16.9-19.3,24.1-29.9c8,20.1,16.5,39.8,25.4,59.1
							C1592.4,2668.7,1596.2,2699.3,1590.6,2728.7z"/>
					</g>
					<g>
						<path d="M1229.9,2869.7c-30.1,0-58.1-12.4-76.9-34.1c-41.1-47.5-26.8-118.5,10.5-163.1c-74.2-147.3-84.5-295.7-25.8-380.6
							c26.3-38,78.8-80.7,178.8-68.2c1.5,0.2,3,0.6,4.4,1.1l34.4,13.7c78.3,31.2,138.8,98.3,162.1,179.3c0,0,0,0,0,0
							c23.8,83,49.5,153.8,78.5,216.3c14.2,30.7,18.5,64.6,12.2,97.9c-16,85.1-68.5,137.8-137.2,137.8c-0.6,0-1.2,0-1.7,0
							L1229.9,2869.7z M1283,2256.9c-51.2,0-91,18.8-116.2,55.2c-52,75.2-38.5,217.9,33.7,355.2c3.6,6.9,2.3,15.3-3.2,20.8
							c-32.6,32.2-47.5,89.9-17.6,124.5c12,13.9,30.3,21.9,50.2,21.9l239.4,0c0.4,0,0.8,0,1.3,0c51.6,0,89.9-40.6,102.8-109
							c4.9-26,1.6-52.5-9.5-76.5c-29.8-64.2-56.1-136.6-80.4-221.4c-20.2-70.6-73-129-141.2-156.2l-32.2-12.9
							C1300.7,2257.4,1291.7,2256.9,1283,2256.9z"/>
					</g>
					<g>
						<path d="M1174.5,2661.1c74-53.7,173.3-36.3,254.7-12.4c4.1,1.3,6.5,5.7,5.2,9.8c-1.1,3.6-4.6,5.8-8.2,5.5
							c-41.4-3.7-82.5-7.4-122.4-5.2c-38.4,2.1-76.8,10-108.6,31C1176.1,2702.2,1156.7,2675.3,1174.5,2661.1L1174.5,2661.1z"/>
					</g>
					<g>
						<path d="M1343.5,2853.9c-14.6-45.2-13.2-101.4,23.6-136.4c7.3-7.1,18.5,2.6,12.5,10.8c-26,33.2-20.4,77-3,113.2
							C1386.1,2864.6,1351.5,2877.6,1343.5,2853.9L1343.5,2853.9z"/>
					</g>
					<g>
						<path d="M1201,2853.3c-10.2-35-13.8-76,2.5-110.4c5.3-11.5,12.6-21.9,21-30.8c3.2-3.3,8.4-3.4,11.7-0.3
							c3.1,2.9,3.4,7.6,1,10.9c-26.3,35-20.4,80.7-3,118.6C1243.4,2864.6,1208.8,2877.1,1201,2853.3L1201,2853.3z"/>
					</g>
					<g class="st0">
						<g>
							<path d="M1590.6,2728.7c-14.4,76.3-59.5,124.2-121.4,123.4h-239.4c-24.2,0-47.7-9.7-63.5-28c-11.3-13.1-17.5-28.5-19.6-44.7
								c-1.3-10.1-1-20.4,0.6-30.6c20.8,24.6,48,43.9,78.3,54.8c50.1,18.1,108,13,154.1-13.4c26.4-15.1,50-38.6,56.2-68.4
								c6.2-29.8-10.6-65.1-40.2-71.8c8.5-69.5,17-140.7,1.5-209.1c-15.5-68.3-60-134.4-126.7-155.9c-32.6-10.5-66.8-9.7-100.8-3.9
								c32.6-32.2,80.7-48,144.7-40l34.4,13.7c73.7,29.5,129.7,91.4,151.6,167.7c8.6,30.1,17.8,59.6,27.6,88.5
								c8.3,24.2,17,48,26.3,71.2c8,20.1,16.5,39.8,25.4,59.1C1592.4,2668.7,1596.2,2699.3,1590.6,2728.7z"/>
						</g>
					</g>
				</g>
			</g>
			<g>
				<g>
					<path class="st6" d="M2696.8,2130.2c-4.8,13.5-7.6,27.6-8.3,41.9l-1.4,25.8c-4.5,84.4-62.3,156.6-143.7,179.5l-93.8,26.3
						c-38,10.6-73,30.6-100.5,59.1c-176,182.9-543.2,203-841.8-31.7c-24.5-19.3-41.3-46.4-47.7-76.8c-0.3-1-0.5-2-0.7-3
						c-1.1-6-2.2-12.1-3.2-18c-2.4-14.4-4.5-28.7-6.1-42.7c-1.8-15.1-3.2-29.9-4.2-44.6c-1.3-19.2-1.9-38-2-56.6
						c-0.1-74.3,9.7-144,26.7-209.7c21.4-82.6,54.3-159,93.4-230.2c11.6-21,27.2-39,45.8-53c5.1-3.9,10.5-7.5,16.1-10.8
						c20.2-11.9,42.9-19.5,66.9-22c239.7-24.9,461.4-26.8,644.6,20.8c19.7,5.1,38.9,10.8,57.7,17.1c17.8,9.4,35.3,19.4,52.3,29.8
						C2621.2,1838.1,2745.5,1994.2,2696.8,2130.2z"/>
				</g>
				<g class="st5">
					<g>
						<path class="st3" d="M2311.2,2484.2c-22.8,23.7-48.9,44.7-77.6,62.7c43.9-22.1,83-50.3,115.5-84.1
							c9.4-9.8,19.8-18.5,30.9-26.3C2354.3,2447.9,2330.8,2463.8,2311.2,2484.2z"/>
					</g>
					<g>
						<path class="st3" d="M2447.1,1731.3c-17-10.5-34.5-20.4-52.3-29.8c-18.8-6.3-38-12-57.7-17.1
							c-183.2-47.6-404.9-45.7-644.6-20.8c-24,2.5-46.8,10.1-66.9,22c-5.4,3.2-10.5,6.6-15.5,10.4c14.1-5.6,29-9.4,44.5-11
							c239.7-24.9,461.4-26.8,644.6,20.8c19.7,5.1,38.9,10.8,57.7,17.1c17.8,9.4,35.3,19.4,52.3,29.8
							c174.1,106.9,298.4,263,249.8,398.9c-4.8,13.5-7.6,27.6-8.3,41.9l-1.4,25.8c-3.2,60.8-34.2,115.3-81.6,149.5
							c68.5-29.2,115.5-95.1,119.6-170.9l1.4-25.8c0.8-14.3,3.5-28.4,8.3-41.9C2745.5,1994.2,2621.2,1838.1,2447.1,1731.3z"/>
					</g>
				</g>
				<g class="st7">
					<g>
						<path d="M2220.3,2315.9c-9.6,56.4-19.3,112.8-28.9,169.3c-4.5,26.5-10.1,55.1-29.9,73.3c-11.7,10.8-26.9,16.6-42.1,21.2
							c-82,25.3-170.5,23-254.3,4.9c-83.8-18.2-163.4-51.8-240.8-88.7c-48-22.9-96.5-48.1-131.8-87.9c-13.9-15.6-25.3-34-32.9-53.7
							c-8-20.5-11.9-42.4-10-63.8c0.9-10.2,3.1-20.2,6.8-29.9l0.1-0.7c-3.8-4.5-7.6-9.1-11.1-14c-1.3-19.2-1.9-38-2-56.6
							c1.7-1.4,3.6-2.6,5.7-3.5c7.9-3.4,16.9-2.3,25.4-1.1c242.7,34.1,485.4,68.2,728.1,102.2c4.7,0.7,9.7,1.5,13.3,4.5
							C2222.7,2297,2221.8,2307.3,2220.3,2315.9z"/>
					</g>
				</g>
				<g>
					<path d="M1980.4,2621.2c-2.1,0-4.2,0-6.4,0c-165.4-1.6-335-64.2-477.6-176.2c-28.6-22.5-48.1-54.6-54.8-90.4
						c-39.4-210.4-4.6-411.1,106.5-613.7c29.2-53.1,82.4-88.6,142.5-94.9c309.2-32.2,534.8-19.9,709.8,38.7c0.9,0.3,1.8,0.7,2.7,1.1
						c197.4,104.4,369.9,284.1,310.5,450.3c-4.2,11.7-6.6,24.1-7.3,36.9l-1.4,25.9c-4.9,92.1-67.9,170.6-156.6,195.5l-93.8,26.3
						c-36,10.1-68,28.9-92.5,54.4C2272.2,2568.1,2133.5,2621.2,1980.4,2621.2z M1993.2,1663.9c-89.8,0-188.9,5.8-299,17.2
						c-48.5,5.1-91.6,33.7-115.1,76.7c-108.5,197.8-141.1,385.3-102.8,590.2c5.1,27.4,20,52,41.9,69.2
						c136.4,107.3,298.4,167.2,456.1,168.7c145.7,1.3,277.9-47.9,362-135.3c28.9-30,66.4-52.1,108.4-63.9l93.8-26.3
						c74.2-20.8,126.8-86.4,130.9-163.3l1.4-25.9c0.9-16.3,4-32.1,9.3-46.9c51.9-145.2-115-312.3-292.4-406.5
						C2279.6,1681.7,2150.8,1663.9,1993.2,1663.9z"/>
				</g>
				<g>
					<path class="st6" d="M1648.3,2290.1c-22.9,27.5-57,43.1-92.7,43.1h-122.3c-32.9,0-65-10.9-91.1-31l-14-10.8
						c-39.5-30.4-66.2-74.7-74.1-123.9c-32.6-204.5,15.1-316.1,142.9-442c25.1-24.7,53.3-50,84.5-76.7c50.6,12.9,94.3,28.5,128,47.6
						c69.8,39.4,97,94.1,55.3,172.5c-16.5,18.8-24.1,54.2-26,100.5c-0.2,4.7-1.9,9.1-4.5,12.6c-0.8,1-1.5,1.9-2.4,2.8
						c-4.1,3.9-9.5,6.3-15.6,6.3C1698.1,2084.4,1726.6,2196.2,1648.3,2290.1z"/>
				</g>
				<g class="st5">
					<path class="st3" d="M1593.2,2326.6h-122.3c-32.9,0-65-10.9-91.1-31l-14-10.8c-39.5-30.4-66.2-74.7-74.1-123.9
						c-32.6-204.5,15.1-316.1,142.9-442c21-20.7,44.2-41.8,69.6-63.8c-7.4-2.1-14.9-4.2-22.7-6.1c-31.3,26.7-59.4,51.9-84.5,76.7
						c-127.8,125.9-175.5,237.4-142.9,442c7.9,49.2,34.6,93.5,74.1,123.9l14,10.8c26.1,20.1,58.2,31,91.1,31h122.3
						c13.7,0,27.2-2.3,39.9-6.7C1594.7,2326.5,1593.9,2326.6,1593.2,2326.6z"/>
				</g>
				<g class="st4">
					<g>
						<path d="M1648.3,2189.8c-22.9,27.5-57,43.1-92.7,43.1h-122.3c-32.9,0-65-10.9-91.1-31l-14-10.8
							c-39.5-30.4-66.2-74.7-74.1-123.9c-3.5-21.6-5.9-42.2-7.6-61.8c-4.7,47.6-2.2,100.7,7.6,162.1c7.9,49.2,34.6,93.5,74.1,123.9
							l14,10.8c26.1,20.1,58.2,31,91.1,31h122.3c35.7,0,69.8-15.7,92.7-43.1c45-53.9,54.6-113.8,39.3-172.6
							C1680.5,2142.3,1667.7,2166.6,1648.3,2189.8z"/>
					</g>
				</g>
				<g>
					<path d="M1492.9,1662.3c-83.3,73-168.8,149.7-207.5,255.2c-2.6,8-8.5,25.3-10,33.3c-1.2,5.7-3.9,17-5.2,22.6
						c-1.3,7.5-3.8,26.8-4.9,34.6c-0.6,13.4-2.4,33.7-1.8,47c0,30.9,2.9,64.2,7.5,94.7c4.6,55.3,34.6,103.9,80.1,135.2
						c20.9,16.8,46.8,27.2,73.6,29c6.1,0.5,16.7,0.3,23.2,0.4l97.8,0.2l6.1,0c44,1.4,77.4-22.3,98.9-59.3
						c13.7-21.5,22.6-46.7,24.8-72.1c5.3-57-20.1-112-54-157.2c-5.6-8-12.4-15.5-18.5-23.1c-3,6.2,25.2-55.7,13.3-29.5
						c2.5,0,4.7-2.1,5.8-4.3c3.7-19.5,7.5-39,13-58.1c5.1-16.3,11.6-33.2,24.3-46.8c2.7-2.9,7.3-3.1,10.2-0.3c2.7,2.5,3,6.7,0.9,9.6
						c-13.2,17.7-15.9,43.2-16.8,65.4c-0.4,11.1,1.4,22.6,1.5,33.7c-0.5,19.9-18.8,36.3-38.5,36.2c-12,26.3,15.5-35.8,12.9-29.3
						l0.3,0.3c12.2,14.4,24.6,29.7,34.8,45.6c30.8,46.3,52.5,103.9,47.1,160.9c-3.2,40-20,78.7-44.9,110
						c-26.2,36.1-70.9,56.9-115.2,55.7c0,0-6.1,0-6.1,0l-97.8,0.2c-17.4,0.2-35.9-0.1-52.9-4.4c-36-7.9-64.8-28.9-92.1-53
						c-39.6-35.6-64.7-87-69.5-139.9c-2.1-14.7-4.8-35.1-5.6-49.7c-2.2-19.3-2.1-43.4-2.4-62.9c0.4-8.2,1.8-29.6,2.2-38.1
						c1.3-8.6,3.8-29.6,5.4-38c1.5-6.2,4.2-18.8,5.7-25c1.4-9,8.7-28,11.3-36.8c2.2-7.3,7-16.6,9.8-23.7c16.8-39,41.5-74.8,68-107.1
						c43.1-51.5,92.4-95.9,142.3-138.4c7.4-6.3,18.6-5.4,24.9,2C1501.2,1644.8,1500.3,1655.9,1492.9,1662.3L1492.9,1662.3z"/>
				</g>
				<g>
					<path d="M1604.9,2004.7c-40.5-35.4-101.7-23.1-150.5-12.3c-18.3,4.3-36.5,9.4-54.7,14.7c-7.9,2.2-12-9.2-4.3-12.4
						c17.7-7.1,35.6-14,53.8-20.3c37.7-12.6,76.1-23.6,117.1-19.9c21,2,43,9.2,61.2,22.9C1646.5,1992.9,1623.6,2020.5,1604.9,2004.7
						L1604.9,2004.7z"/>
				</g>
				<g>
					<path d="M2332.6,2456.6c30.5-88,56.6-178.9,71.5-270.8c11.7-69,15.4-138.7,14.9-208.6c0,0-0.5-35-0.5-35
						c-0.3-11.7-0.8-23.4-0.7-35.2c-0.2-5.3,4.2-9.9,9.5-9.8c4.4,0,8,3.1,9,7.1c6.1,23.3,10.4,47.1,13.2,71.1
						c12.2,120-6.2,241.7-37.9,357.4c-12.4,44.8-29,92.8-46,136.2C2356.8,2490.2,2325.3,2478.8,2332.6,2456.6L2332.6,2456.6z"/>
				</g>
				<g>
					<path class="st3" d="M1469.3,2383.1l1.2,9.2c7.9,59.2,35.7,114.3,79.9,154.4c165.4,150.3,377.7,192.4,624,112.4
						c83.5-27.1,145.5-97.9,162.3-184.1v0C2115.1,2699,1616.1,2599.1,1469.3,2383.1z"/>
				</g>
				<g class="st4">
					<g>
						<path d="M2174.4,2601.6c-246.2,80-458.6,37.9-624-112.4c-22.8-20.8-41.3-45.5-54.9-72.8c-9.7-10.8-18.5-21.8-26.3-33.3
							l1.2,9.2c7.9,59.2,35.7,114.3,79.9,154.4c165.4,150.3,377.7,192.4,624,112.4c83.5-27.1,145.5-97.9,162.3-184.1
							c-11.9,12-24.6,23-38,33.2C2269.1,2551.6,2225.8,2584.9,2174.4,2601.6z"/>
					</g>
					<g>
						<polygon points="2336.6,2475.1 2336.6,2475.1 2336.6,2475.1 						"/>
					</g>
				</g>
				<g>
					<path d="M1940.4,2716.3c-151.2,0-287.5-52.6-401.8-156.5c-46.6-42.4-77-101-85.6-165.2l-1.2-9.2c-1.1-8.1,3.6-15.9,11.2-18.8
						c7.6-2.9,16.3-0.2,20.9,6.6c72.9,107.3,246,190.7,430.5,207.7c170.6,15.7,319.9-27.4,409.7-118.2c5.5-5.5,13.9-6.8,20.8-3.2
						c6.9,3.6,10.6,11.4,9.1,19c-18.1,92.8-84.8,168.5-174.2,197.5C2096.8,2702.9,2016.7,2716.3,1940.4,2716.3z M1504.3,2450.8
						c13.1,31.6,32.8,60,58,82.9c164.4,149.5,368.5,186,606.6,108.7c57.6-18.7,104.3-59.9,130.8-112.9
						c-97.7,69.4-235.4,100.6-388.6,86.6C1747.6,2601,1596.7,2538.5,1504.3,2450.8z"/>
				</g>
				<g>
					<path class="st3" d="M2231.8,2307.6l-15.6,57.6l-22.6,83.5c-13.7,50.5-59,86.1-111.4,87.1c-159.7,3.2-298.5-10.6-428.4-80.2
						c-11.3-6.1-18-18.4-16.9-31.2l3.1-38.4c1.7-20.4,9.9-39.7,23.4-55.1l121-137c3.7-4.2,8.2-7.5,13.1-9.8c6.6-3.1,14-4.3,21.5-3.4
						c110.8,13.9,230.4,12.3,355.9,0.2c16.6-1.6,32,8.7,36.9,24.6l19.2,62.2C2235.1,2280.6,2235.4,2294.5,2231.8,2307.6z"/>
				</g>
				<g>
					<path d="M2038.8,2549.5c-128.3,0-262.7-13.5-391.2-82.3c-16-8.6-25.4-25.8-23.9-44c0,0,0,0,0,0l3.1-38.4
						c1.9-23.1,11.4-45.4,26.7-62.8l121-137c11.6-13.2,28.9-19.8,46.2-17.6c104,13,219.4,13,352.9,0.1c22.7-2.2,44.1,12,50.8,33.8
						l19.2,62.2c4.8,15.4,5.1,31.8,0.8,47.4l-38.2,141.1c-15.1,55.9-66.1,95.7-123.9,96.9
						C2068.1,2549.3,2053.5,2549.5,2038.8,2549.5z M1650.1,2425.4c-0.6,7.6,3.3,14.9,10,18.5c137.8,73.8,284.2,81.4,421.9,78.7
						c46.1-0.9,86.7-32.7,98.8-77.3l38.2-141.1c2.9-10.7,2.7-22-0.6-32.6l-19.2-62.2c-3-9.8-12.7-16.2-22.9-15.3
						c-135.5,13.1-252.8,13.1-358.8-0.2c-8.6-1.1-17.2,2.2-23,8.8l-121,137c-11.6,13.1-18.8,30-20.2,47.4L1650.1,2425.4z"/>
				</g>
				<g>
					<path class="st3" d="M1904.2,1871.8v171.1l53,9.9c7.6-60.5,9.4-114.1,7.7-163.4L1904.2,1871.8z"/>
				</g>
				<g>
					<path d="M1957.2,2066.1c-0.8,0-1.6-0.1-2.4-0.2l-53-9.9c-6.3-1.2-10.8-6.6-10.8-13v-171.1c0-4.2,2-8.1,5.3-10.6
						c3.3-2.5,7.7-3.3,11.7-2.1l60.7,17.7c5.5,1.6,9.3,6.5,9.5,12.3c1.9,54.4-0.7,108.5-7.8,165.5c-0.5,3.6-2.4,6.9-5.3,9.1
						C1962.8,2065.2,1960,2066.1,1957.2,2066.1z M1917.5,2031.9l28.3,5.3c5.3-47.1,7.4-92.4,6.3-137.7l-34.5-10V2031.9z"/>
				</g>
				<g>
					<ellipse class="st3" cx="1930.7" cy="2092.6" rx="55.6" ry="49.3"/>
				</g>
				<g>
					<path d="M1930.7,2155.1c-37.9,0-68.8-28.1-68.8-62.6s30.9-62.6,68.8-62.6c37.9,0,68.8,28.1,68.8,62.6
						S1968.7,2155.1,1930.7,2155.1z M1930.7,2056.5c-23.3,0-42.3,16.2-42.3,36.1s19,36.1,42.3,36.1c23.3,0,42.3-16.2,42.3-36.1
						S1954.1,2056.5,1930.7,2056.5z"/>
				</g>
				<g>
					<path class="st3" d="M2138.1,1865.1l18.1,170.1l53.7,4.3c1.1-61-2.7-114.4-9.6-163.3L2138.1,1865.1z"/>
				</g>
				<g>
					<path d="M2209.9,2052.7c-0.4,0-0.7,0-1.1,0l-53.7-4.3c-6.4-0.5-11.5-5.5-12.1-11.8l-18.1-170.1c-0.4-4.1,1.1-8.3,4.1-11.1
						c3.1-2.8,7.2-4.1,11.4-3.3l62.2,11.2c5.6,1,10,5.5,10.8,11.2c7.6,53.9,10.8,108,9.7,165.4c-0.1,3.7-1.6,7.1-4.3,9.6
						C2216.4,2051.5,2213.2,2052.7,2209.9,2052.7z M2168.2,2022.9l28.7,2.3c0.3-47.5-2.4-92.7-8.3-137.6l-35.4-6.3L2168.2,2022.9z"
						/>
				</g>
				<g>
					
						<ellipse transform="matrix(0.9944 -0.1056 0.1056 0.9944 -207.6305 242.7038)" class="st3" cx="2187.8" cy="2081.8" rx="55.6" ry="49.3"/>
				</g>
				<g>
					<path d="M2186.4,2144.4c-34.4,0-63.6-23.5-67-55.4c-3.6-34.3,24.1-65.5,61.8-69.5c18-1.9,35.6,2.6,49.7,12.6
						c14.5,10.4,23.5,25.4,25.3,42.3c3.6,34.3-24.1,65.5-61.8,69.5C2191.7,2144.3,2189,2144.4,2186.4,2144.4z M2189.3,2045.7
						c-1.8,0-3.5,0.1-5.3,0.3c-23.2,2.5-40.4,20.6-38.3,40.3s22.7,33.9,45.9,31.4c23.2-2.5,40.4-20.6,38.3-40.3
						c-1-9.3-6.1-17.7-14.4-23.6C2208.1,2048.5,2198.9,2045.7,2189.3,2045.7z"/>
				</g>
				<g class="st8">
					<g>
						<path d="M1714.7,1668.5c211.5-0.2,422.9-0.3,634.4-0.5c-52.8,46-109,90.9-175.9,115.6c-98.5,36.4-211.9,24.9-308.5-15.8
							c-29.5-12.4-58.6-28.2-78.1-52.4c-14.5-17.9-24.6-41.1-46.3-50.4"/>
					</g>
				</g>
				<g class="st4">
					<g>
						<path d="M2429.3,1741.4c-40.4,41.4-72.2,94.3-108,140.6c-57.2,73.8-131.3,135.8-217.6,171.1c-86.4,35.4-185.5,42.8-273.8,12.7
							c-42.7-14.6-82.1-37.4-124.5-52.6c-28.9-10.4-58.6-17.1-88.9-21.2c-53.8-7.3-109.2-6.2-164-2.3c-14.2,1-28.4,2.2-42.5,3.4
							c14.2-37.4,28.6-75.3,32.8-115.2c4.2-39.8-2.9-82.4-27.7-113.7c-9.5-12-22-21.9-35.9-28.6c25.1-24.7,53.3-50,84.5-76.7
							c50.6,12.9,94.3,28.5,128,47.6c5.1-3.9,10.5-7.5,16.1-10.8c113.3,69.3,218.9,156,348.9,175.1
							c141.3,20.8,291.7-52.4,362.7-176.3c19.7,5.1,38.9,10.8,57.7,17.1C2394.8,1721,2412.3,1730.9,2429.3,1741.4z"/>
					</g>
				</g>
				<g class="st0">
					<g>
						<path d="M2216.2,2365.2l-22.6,83.5c-13.7,50.5-59,86.1-111.4,87.1c-159.7,3.2-298.5-10.6-428.4-80.2
							c-11.3-6.1-18-18.4-16.9-31.2l3.1-38.4c1.7-20.4,9.9-39.7,23.4-55.1l121-137c3.7-4.2,8.2-7.5,13.1-9.8
							c62,6.7,120.9,41.2,156.4,92.6c21.9,31.8,36.3,70.5,67.5,93.4c26.1,19.2,60.2,24.1,92.5,21.9
							C2149.4,2389.8,2183.8,2379.9,2216.2,2365.2z"/>
					</g>
				</g>
				<g class="st7">
					<g>
						<path d="M2433.3,1906.9c52.4,58.3,91,128.9,111.7,204.4c-24.8-8-49.6-16-74.5-23.9c-9.6-3.1-19.7-6.5-26.8-13.7
							c-12.9-13.3-11.6-34.3-10.2-52.8c2.4-34.5,1.7-69.2-2.3-103.5"/>
					</g>
				</g>
			</g>
			<g>
				<g>
					<path class="st3" d="M1907.9,2347.3c-16.6,12.8-36.1,13.2-50-4.2c-56.9,76.9-132.7,82-168,44.2c-6.5-7-8.2-17.3-4.6-26.1
						l9.1-22.5c-29,0.5-51.5-10.1-70.5-26.5c49.5-48.9,71-98.4,70.7-148.1c-0.3-42.7-16.6-85.8-45.1-128.9
						c-7.1-10.8-15-21.5-23.6-32.4c-2-2.5-4.1-5.1-6.1-7.6c65.9-60.9,283.3,79.7,318.8,251.9
						C1946,2293.3,1929.4,2330.8,1907.9,2347.3z"/>
				</g>
				<g>
					<path d="M1745.9,2428c-27.3,0-51.6-10-68.9-28.5c-11.1-11.9-14.3-29.5-8-44.8l0.2-0.4c-20.4-4-39.2-13.4-56.8-28.6
						c-3.7-3.2-6-7.8-6.1-12.8c-0.2-4.9,1.7-9.7,5.2-13.2c88.7-87.8,87-181-5.4-293.3c-6-7.2-5.2-17.8,1.7-24.2
						c22.7-21,59.3-24.8,103-10.7c97.3,31.3,218.7,144.2,245,272.1c0,0.2,0.1,0.5,0.1,0.7c10.1,62.2-18.7,110.9-50.8,125.2
						c-15.3,6.8-31.2,6.1-44.6-1.3c-31.3,36-69.9,57.4-108,59.6C1750.2,2427.9,1748,2428,1745.9,2428z M1694.4,2321.1
						c5.8,0,11.3,2.9,14.6,7.7c3.4,4.9,4,11.1,1.8,16.6l-9.1,22.5c-1.1,2.6-0.6,5.6,1.1,7.5c11.4,12.2,28.3,18.2,47.6,17.2
						c32.5-1.9,66.5-23.7,93.3-59.9c3.3-4.4,8.4-7,13.9-7.2c5.4,0,10.7,2.3,14.1,6.6c5.5,6.9,11.4,8.5,19.1,5.1
						c16.7-7.4,37.8-40.1,30.4-86.9c-23.2-111.6-133-216.9-221.2-245.2c-21.7-7-40.1-8.6-53.6-4.8c41.2,54,62.6,104.4,65.5,153.6
						c3.2,54.6-17.4,107-61.3,155.9c13.5,7.9,27.7,11.5,43.5,11.3C1694.2,2321.1,1694.3,2321.1,1694.4,2321.1z"/>
				</g>
				<g>
					<path d="M1840.6,2339.5c10.4-33.9,13.5-70.8-1.5-103.8c-4.1-9.3,9-16.5,14.6-8.1c23.2,34.4,27,79.1,21.4,119.2
						C1870.9,2371.9,1834.3,2364.1,1840.6,2339.5L1840.6,2339.5z"/>
				</g>
				<g>
					<path d="M1634.8,2298.4c39,25.9,53.1,30.7,95.8,8.3c6.7-3.3,14.4,4.1,11.4,10.9c-15.7,39.7-65.1,47.9-100,28.6
						c-11-5.5-20.7-12.4-29.2-20.1C1596.9,2311.1,1616.7,2286.3,1634.8,2298.4L1634.8,2298.4z"/>
				</g>
				<g class="st4">
					<g>
						<path d="M1649.4,2035.2c-7.1-10.8-15-21.5-23.6-32.4L1649.4,2035.2z"/>
					</g>
				</g>
				<g class="st0">
					<g>
						<path d="M1907.9,2347.3c-16.6,12.8-36.1,13.2-50-4.2c-56.9,76.9-132.7,82-168,44.2c-6.5-7-8.2-17.3-4.6-26.1l9.1-22.5
							c-29,0.5-51.5-10.1-70.5-26.5c49.5-48.9,71-98.4,70.7-148.1c10.6,12.9,23.4,23.8,38.4,31.3c40.1,20.1,90.9,14.2,127.7,39.9
							c24.8,17.4,38.9,46.8,44.2,76.6C1906.9,2323.6,1907.8,2335.4,1907.9,2347.3z"/>
					</g>
				</g>
			</g>
			<g>
				<g>
					<g>
						<path class="st2" d="M2707.6,1324.7L2707.6,1324.7c-9,29.7-21.1,59.6-37.3,88.8c-146.3,264.7-519.2,280.5-652.4,286.1
							c-101.8,4.3-518.7,21.9-718.4-256.8c-3.1-4.3-6.1-8.7-9.1-13.1c-56.1-83.7-77.6-169.2-86.1-227.9c-3.5-24.3-4.9-44.1-5.5-57.3
							c-9.8-204.1,75.9-400.5,226.5-538.7c313.3-287.6,788.8-306.8,1108.9,64.9c58,67.3,105.7,142.7,139.9,224
							c16.5,39.1,29.8,79.5,39.6,121C2724.3,1060.3,2748.3,1190.4,2707.6,1324.7z"/>
					</g>
					<g class="st4">
						<path d="M2716.4,1027.8c5.4,81-2.1,191.4-58.6,293.5c-146.3,264.7-519.2,280.5-652.4,286.1c-103.4,4.4-531.6,22.5-727.5-269.9
							c-44.2-66-66.9-133-78.8-187.2c2.8,48.9,15.1,165.7,91.3,279.4c195.9,292.3,624,274.2,727.5,269.9
							c133.2-5.6,506.1-21.4,652.4-286.1C2753.9,1262.3,2730.3,1093.3,2716.4,1027.8z"/>
					</g>
					<g>
						<path class="st3" d="M2048.9,1508.1c-17.4-1.2-34.9-1.2-52.3,0c-307.5,20.8-282.8-376.1,25.4-406.7c0.2,0,0.5,0,0.7,0
							c0.2,0,0.5,0,0.7,0C2331.6,1132.1,2356.3,1528.9,2048.9,1508.1z"/>
					</g>
					<g>
						<path d="M1947.4,1718.8c-398.2,0-584.8-149.6-671.6-279.2c-56.7-84.7-89.5-186.4-94.6-294.1c-9.9-206.7,74.8-408,232.2-552.5
							l0,0c167-153.3,375.2-230.9,586.1-218.5c208.6,12.2,398.2,110.8,548.2,284.9c90.1,104.6,153.5,226.5,183.2,352.5
							c12.8,54,47.2,243.2-45.1,410.3c-64.9,117.3-179.8,201-341.6,248.6c-130.2,38.3-257.3,43.7-325.5,46.6
							C1994.2,1718.3,1970.5,1718.8,1947.4,1718.8z M1425.4,605.9l11.9,13c-149.7,137.4-230.2,328.7-220.8,524.8
							c4.8,101.3,35.5,196.8,88.7,276.2c82,122.4,259.6,263.6,642.2,263.6c22.6,0,45.8-0.5,69.8-1.5c135.7-5.7,496.2-21,637.7-277
							c86.3-156,53.7-334.2,41.7-385.1c-28.5-120.5-89.2-237.2-175.6-337.6c-143.6-166.7-324.6-261-523.5-272.7
							c-201.2-11.8-400.3,62.5-560.1,209.2L1425.4,605.9z"/>
					</g>
					<g>
						<g>
							<ellipse cx="1705.8" cy="1113.7" rx="87" ry="101"/>
						</g>
						<g>
							<ellipse class="st3" cx="1730.5" cy="1131.4" rx="21.8" ry="33.1"/>
						</g>
					</g>
					<g>
						<g>
							<ellipse cx="2317.8" cy="1085" rx="87" ry="101"/>
						</g>
						<g>
							<ellipse class="st3" cx="2303.9" cy="1109.4" rx="21.8" ry="33.1"/>
						</g>
					</g>
					<g>
						<path d="M1928.1,1166.3c42.7-33.2,125.5-33.2,173.7-6c9.2,5.2,13.8,16.1,11.1,26.3c-8.1,30.4-37.4,51.6-74.6,66.4
							c-8.3,3.3-17.5,4.1-26.3,2.2c-41.6-9.3-74.7-32.1-89.8-56.4C1915.4,1188,1918,1174.1,1928.1,1166.3z"/>
					</g>
					<g>
						<ellipse class="st3" cx="2017.6" cy="1168.6" rx="42.9" ry="11.4"/>
					</g>
					<g>
						<path d="M2022,1331.6c-7,0-12.9-5.5-13.2-12.6l-4.4-91.3c-0.4-7.3,5.3-13.5,12.6-13.9c7.3-0.3,13.5,5.3,13.9,12.6l4.4,91.3
							c0.4,7.3-5.3,13.5-12.6,13.9C2022.4,1331.6,2022.2,1331.6,2022,1331.6z"/>
					</g>
					<g>
						<path d="M1945.7,1350.8c26.7-31.6,72.6-49.8,114.2-38.6c7.5,1.8,15.2,5,22.2,8.3c7.8,4.2,16.7,5.6,25.7,3.9
							c15.9-3.2,28.8-15.3,37.9-29.5c2.1-3.8,8.4-1.7,7.8,2.6c-3.1,38.6-47,65.1-84.6,51.1c-5.4-1.6-10.9-3.3-16.4-4.2
							c-33.1-7.8-69.3,3.5-100.7,15.1C1946.7,1361.6,1942,1354.9,1945.7,1350.8L1945.7,1350.8z"/>
					</g>
					<g>
						<path class="st3" d="M2022.7,1097c-0.2,0-0.5,0-0.7,0v-0.1C2022.2,1096.9,2022.5,1096.9,2022.7,1097z"/>
					</g>
					<g>
						<path class="st3" d="M2023.4,1096.9v0.1c-0.2,0-0.5,0-0.7,0C2022.9,1096.9,2023.2,1096.9,2023.4,1096.9z"/>
					</g>
					<g class="st4">
						<g>
							<path d="M2707.6,1324.7c-100.2-67.3-211-119.1-327-152.8c-213.5-62-443.6-63.1-658.9-7.6c-96.7,24.9-191.6,61.6-273.3,119.2
								c-59.8,42.2-112.3,96.3-148.9,159.4c-3.1-4.3-6.1-8.7-9.1-13.1c-56.1-83.7-77.6-169.2-86.1-227.9
								c10.2-19.7,22-38.6,34.8-56.6c49.9-70,115.4-127.1,180.2-183.6c78-68,158.8-137.5,256.7-170.9
								c81.2-27.6,168.9-28.5,254.6-24.9c252,10.7,501.4,57.8,743.5,128.8c16.5,39.1,29.8,79.5,39.6,121
								C2724.3,1060.3,2748.3,1190.4,2707.6,1324.7z"/>
						</g>
					</g>
				</g>
				<g>
					<g>
						<path class="st6" d="M2806.9,1208c-9.6-7.8-19.8-15.9-30.8-24.2c-65.6-50-156.4-109.2-272.4-158.3
							c-104.8-44.3-369.9-152.3-691.8-79.5c-88.8,20.1-261.7,59.3-406.6,197.9c-15.9,15.2-31.6,31.7-46.7,49.4
							c-21.1,24.7-39.1,49.6-54.6,73.7c-33.7,52.6-55.2,102-69.1,140.4c-12.3-30.1-26.2-67.8-39.4-112.2c-0.6-2-1.2-4.2-1.8-6.2
							c-7.6-26.4-15-55.2-21.4-86.1c-16.7-80.2-22.8-152-22.8-221.3c0-4.8,0-9.6,0.1-14.4c0.1-10.6,0.4-21,0.8-31.5
							c0.2-5.1,0.4-10.2,0.6-15.2c0.2-4.2,0.4-8.3,0.7-12.5c0.1-2.3,0.3-4.7,0.4-7c0.2-3.6,0.4-7.3,0.7-11c0.2-2.7,0.4-5.4,0.6-8.1
							c0.5-7.5,1.1-14.9,1.7-22.4c0.4-5.1,0.8-10.2,1.3-15.3c0.4-5.1,0.9-10.2,1.4-15.4c1.4-14.7,3-29.4,4.5-44.3v0
							c1.8-16.4,3.7-32.9,5.6-49.7c11.7-102.8,20.7-178.4,38.1-240.6c4.3-15.1,9-29.5,14.4-43.2c1.2-3.2,2.5-6.3,3.8-9.4
							c1.1-2.6,2.3-5.3,3.4-7.9c1.2-2.7,2.5-5.5,3.8-8.2c0-0.1,0.1-0.3,0.2-0.4c0.9-2,1.9-4,3-6c2.6-5.2,5.4-10.3,8.3-15.3
							c0.9-1.7,1.9-3.4,3-5c1.1-1.9,2.2-3.8,3.4-5.6c0.1-0.1,0.2-0.3,0.3-0.5c1.6-2.6,3.3-5.2,5-7.7c6.6-10,13.9-19.8,21.9-29.6
							c0.2-0.7,19.4-22.4,45.4-46.5c2.3-2.1,4.6-4.2,7-6.4c0.1-0.1,0.3-0.2,0.4-0.3c0.9-0.8,1.9-1.7,2.9-2.6
							c24.1-21.3,52.1-42.7,76-52c511.2-196.7,947.7,100.5,947.7,100.5c83,56.5,150.7,121.6,205.8,190.2
							c26,32.2,49.2,65.3,69.9,98.5c13.6,21.7,26.1,43.6,37.6,65.4c3.8,7.1,7.5,14.3,11,21.4c59.5,118.6,91.1,234.6,107.8,323.9
							c13.1,70,17.1,123.6,18.5,149.5C2806.7,1201.5,2806.8,1205.2,2806.9,1208z"/>
					</g>
					<g class="st5">
						<g>
							<path class="st3" d="M1293,341.8c2.3-2.1,4.6-4.2,7-6.4c0.1-0.1,0.3-0.2,0.4-0.3c0.9-0.8,1.9-1.7,2.9-2.6
								c24.1-21.3,52.1-42.7,76-52C1890.4,83.8,2327,381,2327,381c83,56.5,150.7,121.6,205.8,190.2c26,32.2,49.2,65.3,69.9,98.5
								c13.6,21.7,26.1,43.6,37.6,65.4c3.8,7.1,7.5,14.3,11,21.4c59.5,118.6,91.1,234.6,107.8,323.9c7.5,40,12,74.6,14.8,101.7
								c0.7,0.6,1.5,1.1,2.2,1.7c11,8.3,21.2,16.4,30.8,24.2c-0.1-2.8-0.2-6.5-0.4-11.1c-1.3-25.8-5.3-79.5-18.5-149.5
								c-16.7-89.3-48.3-205.3-107.8-323.9c-3.5-7.1-7.2-14.3-11-21.4c-11.5-21.8-24-43.7-37.6-65.4c-20.7-33.2-43.9-66.3-69.9-98.5
								c-55.2-68.6-122.8-133.7-205.8-190.2c0,0-436.5-297.2-947.7-100.5c-23.9,9.2-52,30.6-76,52c-1,0.9-1.9,1.8-2.9,2.6
								c-0.1,0.1-0.2,0.2-0.4,0.3c-2.3,2.2-4.7,4.3-7,6.4c-26,24.1-45.2,45.8-45.4,46.5c-2.9,3.5-5.7,7.1-8.4,10.6
								C1275.2,358.8,1283.7,350.5,1293,341.8z"/>
						</g>
						<g>
							<path class="st3" d="M1329.6,1226.2c-21.1,24.7-39.1,49.6-54.6,73.7c-19.9,31-35.5,60.9-47.8,88.1c2.6,6.7,5.2,13.2,7.7,19.3
								c13.9-38.4,35.4-87.8,69.1-140.4c13.5-21.1,28.9-42.7,46.6-64.2C1343.5,1210.3,1336.5,1218.1,1329.6,1226.2z"/>
						</g>
					</g>
					<g>
						<path d="M1234.9,1425c-7.2,0-13.6-4.3-16.3-11c-27.4-67.1-48.8-136.9-63.5-207.6c-37.9-181.9-21.8-323.6-4.7-473.7
							c21.4-187.7,33.2-291.3,112-388c2.2-2.9,6.2-7.5,14.3-16c7.3-7.7,19-19.7,33.2-32.8c36-33.4,66.9-55.2,91.9-64.8
							c268.6-103.3,516.3-70.1,676.7-24c173.8,49.9,282.7,123.3,287.2,126.4c180.6,122.9,311.8,299.2,390,523.9
							c58.3,167.6,67.4,310.2,68.7,349.9c0.2,6.9-3.6,13.3-9.8,16.4c-6.2,3.1-13.6,2.3-19-2.1c-91.4-74.1-191.9-134.7-299-180
							c-88.6-37.5-358.1-151.6-681-78.5c-95.8,21.7-295,66.8-443.8,241.5c-51.8,60.8-92.3,131-120.5,208.7
							c-2.5,6.9-9,11.5-16.3,11.6C1235.1,1425,1235,1425,1234.9,1425z M1291,365.5c-0.2,0.4-0.5,0.7-0.8,1
							c-69.8,85.3-82.5,175.1-104.8,370.3c-16.8,147.1-32.6,286.1,4.2,462.5c11.3,54.1,26.5,107.6,45.5,159.7
							c28.1-65,65-124.4,110-177.2c156.4-183.7,363.4-230.5,462.9-253c334-75.6,611.4,41.8,702.6,80.4
							c98.1,41.5,190.9,95.5,276.4,160.6c-11.9-147.7-77.7-559.8-441-807.1c-1.1-0.7-109.7-73.7-278.3-122
							c-155-44.4-394.1-76.3-653.1,23.3C1367.5,282.1,1298.5,356.3,1291,365.5z M1293.6,359.9
							C1293.6,359.9,1293.6,359.9,1293.6,359.9L1293.6,359.9z M1293.6,359.8C1293.6,359.8,1293.6,359.9,1293.6,359.8
							C1293.6,359.9,1293.6,359.8,1293.6,359.8z M1293.7,359.8C1293.7,359.8,1293.7,359.8,1293.7,359.8
							C1293.7,359.8,1293.7,359.8,1293.7,359.8z M1293.7,359.7C1293.7,359.7,1293.7,359.7,1293.7,359.7
							C1293.7,359.7,1293.7,359.7,1293.7,359.7z M1293.7,359.7C1293.7,359.7,1293.7,359.7,1293.7,359.7
							C1293.7,359.7,1293.7,359.7,1293.7,359.7z"/>
					</g>
					<g>
						<path class="st6" d="M1770.7,434.5c-20.7,42.2-44.6,80.9-71.2,116.2c-5.6,7.4-11.2,14.6-17,21.7
							c-124.2,152-298.2,234.4-459.3,250c29.5-101.1,39.5-210.7,55.5-325.4c0.8-5.4,1.5-10.8,2.3-16.2c3.9-26.8,13.2-52.8,28.8-75.1
							c6-8.5,12.3-16,19.1-22.4c71.2-68,186.8-27.5,308.4,28.1c15.5,7.1,31.7,12.5,48.3,16.1c12.5,2.7,25.2,4.4,38,5L1770.7,434.5z"
							/>
					</g>
					<g class="st5">
						<path class="st3" d="M1296.6,437.7c6-8.5,12.3-16,19.1-22.4c71.2-68,186.8-27.5,308.4,28.1c15.5,7.1,31.7,12.5,48.3,16.1
							c12.5,2.7,25.2,4.4,38,5l8.9,0.4c21.5,1,41.8-10.7,51.2-30l0.2-0.3l-47-2.3c-12.8-0.6-25.5-2.3-38-5
							c-16.6-3.6-32.8-9-48.3-16.1c-121.7-55.6-237.2-96.1-308.4-28.1c-6.8,6.4-13.2,13.9-19.1,22.4c-10.1,14.6-17.6,30.7-22.7,47.6
							C1290,447.8,1293.1,442.7,1296.6,437.7z"/>
					</g>
					<g>
						<path class="st6" d="M2670.5,634.7c-0.8,59.6-6.5,123.2-15.2,189.2c0,0.3,0,0.6-0.1,0.8c0,0.4-0.1,0.7-0.1,1.1
							c-0.5,4.2-1.1,8.3-1.6,12.5c-0.1,0-0.2,0-0.3,0c-227.1-38.5-422.9-166.9-508.9-339.8c-4.4-8.8-8.5-17.8-12.3-26.8
							c-7.6-17.8-13.9-36-19-54.7l36.7-3.4c22-2.1,43.3-8.8,62.7-19.5c15.3-8.4,30.7-16.5,46-24.1c87.2-43.3,173.8-72.2,259.6-82.6
							c14.6-1.8,29.2,1.2,41.7,8.4c4.2,2.4,8.2,5.3,11.8,8.7c0.4,0.4,0.8,0.7,1.2,1.1c41.5,40.6,67.5,93.9,82.3,156.5
							C2666.9,513.8,2671.4,572,2670.5,634.7z"/>
					</g>
					<g class="st5">
						<path class="st3" d="M2149.6,446.5c22-2.1,43.3-8.8,62.7-19.5c15.3-8.4,30.7-16.5,46-24.1c87.2-43.3,173.8-72.2,259.6-82.6
							c14.6-1.8,29.2,1.2,41.7,8.4c4.2,2.4,8.2,5.3,11.8,8.7c0.4,0.4,0.8,0.7,1.2,1.1c41.5,40.6,67.5,93.9,82.3,156.5
							c10.2,43.2,15,90.8,15.7,141.8c0-0.7,0-1.5,0.1-2.2c0.9-62.7-3.6-120.9-15.8-172.7c-14.7-62.6-40.8-115.9-82.3-156.5
							c-0.4-0.4-0.8-0.8-1.2-1.1c-3.6-3.4-7.6-6.3-11.8-8.7c-12.5-7.2-27.1-10.2-41.7-8.4c-85.8,10.4-172.4,39.3-259.6,82.6
							c-15.3,7.6-30.6,15.7-46,24.1c-19.4,10.7-40.6,17.4-62.7,19.5l-36.7,3.4c0.5,2,1.1,3.9,1.7,5.9
							C2119,438,2133.7,448,2149.6,446.5L2149.6,446.5z"/>
					</g>
					<g>
						<path d="M1217.9,820.8c22.1-112.5,30.9-228.1,46.1-341.7c6.3-52.4,35.1-104.8,82.3-131.1c84.4-44.2,185.1-1.1,264.6,32.5
							c17.1,7.2,34.3,16.2,51.6,22.9c34.5,14,72,15.2,108.6,21.4c5.3,0.9,8.9,6,8,11.3c-0.8,4.5-4.5,7.8-8.9,8.1
							c-19.9,1.3-38.2,2.2-58.5,1.8c-28.1-1.1-56.1-8.1-81.9-19.5c-3.7-1.8-28.3-12.3-32.7-14.3c-89.8-37.4-228-91.9-283.9,22.2
							c-7.6,15.4-12.7,32.2-15.5,49.7c-5.9,37.8-11.2,75.8-16.8,113.9c-5.8,38.2-11.8,76.4-20.2,114.2
							c-8.1,37.9-18.5,75.5-32.4,111.8c-1.1,2.8-4.3,4.2-7.1,3.2C1218.7,826.1,1217.3,823.4,1217.9,820.8L1217.9,820.8z"/>
					</g>
					<g>
						<path d="M2644.1,836.9c13.4-154,35.8-365.2-63.1-494.3c-6.9-8.9-14.5-17.2-22.5-25c-10.2-9.4-24.6-13.8-38.3-12.1
							c-54,6.6-106.9,19.9-158.4,37.9c-40.3,14.1-79.9,30.9-118.5,49.9c-30.1,16-61.9,31.3-97,29.4c-10.9-0.1-21.9-0.4-32.9-1.4
							c-2.5-0.2-4.3-2.4-4.1-4.9c0.2-1.9,1.5-3.5,3.3-4c30.3-8,62.1-11.4,89.4-27.9c90.5-53.3,188.6-96.2,293.1-112.7
							c2.7-0.3,18.4-2.6,20.9-2.8c12-1.4,24.3-0.2,35.9,3.5c13.1,4.1,25.2,11.6,34.8,21.5c106.1,109,105.2,273.8,93.7,415.2
							c-4.4,43.7-10.2,87.2-17.6,130.3C2660.3,850.9,2643.3,849.1,2644.1,836.9L2644.1,836.9z"/>
					</g>
					<g class="st4">
						<g>
							<path d="M1294.8,430.4l-14.3,37.6C1283,454.8,1287.6,442.1,1294.8,430.4z"/>
						</g>
					</g>
					<g class="st4">
						<g>
							<path d="M1355.6,366.1c8.5,0,8.5-13.2,0-13.2C1347.1,352.8,1347.1,366.1,1355.6,366.1L1355.6,366.1z"/>
						</g>
					</g>
					<g class="st4">
						<g>
							<path d="M1342.4,379.2c-0.6,0.1-1.1,0.3-1.7,0.4c3.7-5,7.9-9.7,12.5-14L1342.4,379.2z"/>
						</g>
					</g>
					<g>
						<path class="st9" d="M2053.3,960.7"/>
					</g>
					<g>
						<g class="st4">
							<g>
								<path d="M2806.9,1208c-9.6-7.8-19.8-15.9-30.8-24.2c-65.6-50-156.4-109.2-272.4-158.3c-104.8-44.3-369.9-152.3-691.8-79.5
									c-88.8,20.1-261.7,59.3-406.6,197.9c-15.9,15.2-31.6,31.7-46.7,49.4c-21.1,24.7-39.1,49.6-54.6,73.7
									c-33.7,52.6-55.2,102-69.1,140.4c-12.3-30.1-26.2-67.8-39.4-112.2c-0.6-2-1.2-4.2-1.8-6.2c-7.6-26.4-15-55.2-21.4-86.1
									c-16.7-80.2-22.8-152-22.8-221.3c0-4.8,0-9.6,0.1-14.4c0.1-10.6,0.4-21,0.8-31.5c0.2-5.1,0.4-10.2,0.6-15.2
									c0.2-4.2,0.4-8.3,0.7-12.5c0.1-2.3,0.3-4.7,0.4-7c0.2-3.6,0.4-7.3,0.7-11c0.2-2.7,0.4-5.4,0.6-8.1
									c0.5-7.5,1.1-14.9,1.7-22.4c0.4-5.1,0.8-10.2,1.3-15.3c0.4-5.1,0.9-10.2,1.4-15.4c1.4-14.7,3-29.4,4.5-44.3v0
									c1.8-16.4,3.7-32.9,5.6-49.7c11.7-102.8,20.7-178.4,38.1-240.6c4.3-15.1,9-29.5,14.4-43.2c1.2-3.2,2.5-6.3,3.8-9.4
									c1.1-2.6,2.3-5.3,3.4-7.9c1.2-2.7,2.5-5.5,3.8-8.2c0-0.1,0.1-0.3,0.2-0.4c0.9-2,1.9-4,3-6c2.6-5.2,5.4-10.3,8.3-15.3
									c0.9-1.7,1.9-3.4,3-5c1.1-1.9,2.2-3.8,3.4-5.6c0.1-0.1,0.2-0.3,0.3-0.5c1.6-2.6,3.3-5.2,5-7.7c-9.7,37.4-9.7,77.7,1.5,114.4
									c7.3-1.5,14-7.2,17.7-14c4.9-9,6-19.5,8.3-29.5c10.5-47.8,49.1-88.1,96.2-101.3c-42,33.3-58.2,96.6-40.2,148.2
									c20.2,58.3,76.7,99.7,137.3,111.7c19.9,4,40,5.1,60.1,3.9c47.2-2.8,92.8,21.6,113.8,63.8c0.8,1.6,1.6,3.2,2.5,4.8
									c0,0,0.1,0.3,0.3,0.5c0.6,1,26.7,41.8,75.4,58.4c40.5,13.7,78.5,4.7,89.4,2.2c127.1-28.4,327.2,7.7,431.6,26.5
									c51.4,9.3,136.4,25.1,237.3,68.4c142.2,61.1,241.6,144.7,302,204.5c9.6,47.4,16.1,97.2,18.5,149.5
									C2806.6,1200.6,2806.8,1204.3,2806.9,1208z"/>
							</g>
						</g>
						<g class="st4">
							<g>
								<path d="M1396,343.2c-6.3,3.2-12.2,7.1-17.7,11.4c2.1-0.6,4.2-1.2,6.3-1.7L1396,343.2z"/>
							</g>
						</g>
					</g>
					<g>
						<path class="st6" d="M2822.8,1240.3c0-0.4,0-0.8-0.1-1.3c-0.2-3.4-0.5-6.9-0.8-10.3c-0.1-1.9-0.4-3.8-0.6-5.6
							c-0.4-3.5-0.9-7.1-1.4-10.6c0-0.1,0-0.2,0-0.3v0c-32.8-213.8-306-356.1-716.2-373.1c-58.2-2.4-116.4,0-174.2,6.6
							c-422,48.4-698.4,203.4-733.2,408.6c0,0,0,0,0,0.1c-1.2,7.3-2.2,14.6-2.8,22c-0.1,1.9-0.3,3.7-0.4,5.6
							c-0.1,1.9-0.2,3.8-0.3,5.6c-0.9,22.9,1,46.3,6,70.3c5.3,25.3,14,51,26.1,77.3c6.8,14.6,14.6,29.3,23.6,44.2
							c39.6,65.6,93.5,118.7,154.9,157.9c5.8,3.7,11.6,7.4,17.4,11c5.3,3.3,10.5,6.6,15.8,9.9c18.5,11.5,36.9,22.8,55.2,33.8
							c5.2,3.1,10.4,6.2,15.5,9.3c5.7,3.4,11.5,6.8,17.3,10.2c5.7,3.4,11.5,6.7,17.2,10s11.5,6.6,17.2,9.9
							c11.4,6.5,22.8,12.8,34.2,19.2c0.1,0,0.1,0,0.2,0.1c10.9,6,21.7,11.8,32.5,17.6c6.3,3.4,12.6,6.7,18.9,10
							c5.7,3,11.4,6,17.1,8.9c4.9,2.6,9.8,5,14.7,7.5c0.8,0.4,1.6,0.8,2.4,1.2c99.6,50.4,197.9,91.9,294.8,122.6
							c0.8,0.2,1.5,0.5,2.3,0.7c3.8,1.2,7.6,2.4,11.3,3.5c4.5,1.4,9.1,2.8,13.6,4.2c39.1,11.6,80.4,9.5,118.2-6
							c10.6-4.4,21.1-8.9,31.7-13.6c2.7-1.2,5.4-2.4,8.1-3.6c11.7-5.3,23.5-10.7,35.2-16.4c3.2-1.5,6.4-3.1,9.6-4.6
							c10.9-5.3,21.7-10.8,32.5-16.4c4.5-2.3,9.1-4.7,13.6-7.1c9.4-4.9,18.8-10,28.1-15.2c3.6-1.9,7.1-3.9,10.6-5.9c0,0,0,0,0.1,0
							c120.1-67.3,241.1-152.7,362.7-250.9c2.5-2,5-4.1,7.6-6.3c0.2-0.2,0.5-0.4,0.7-0.6c2.5-2.1,4.9-4.2,7.4-6.4
							c0.6-0.5,1.2-1.1,1.8-1.6c2.8-2.5,5.6-5,8.3-7.6c0.3-0.3,0.6-0.5,0.9-0.8c2-1.9,4-3.8,6-5.7c1.5-1.4,3-2.9,4.5-4.5
							c2-2,4-4,5.9-6c0.6-0.6,1.2-1.3,1.9-1.9c2.6-2.6,5.1-5.3,7.6-8.1c0.4-0.4,0.7-0.7,1-1.1c2.2-2.4,4.3-4.8,6.4-7.2
							c1.5-1.6,2.8-3.2,4.2-4.9c1.2-1.4,2.4-2.8,3.6-4.3c1.5-1.7,2.8-3.4,4.2-5.1c1.9-2.3,3.8-4.7,5.6-7.1c0.4-0.4,0.6-0.8,0.9-1.1
							c2.5-3.2,4.9-6.4,7.3-9.7c2.2-3,4.3-6,6.4-9.1c1.6-2.3,3.2-4.6,4.7-6.9c0.9-1.3,1.8-2.6,2.6-3.9c1.7-2.5,3.3-4.9,4.8-7.5
							c0.9-1.3,1.7-2.5,2.4-3.8c1.7-2.7,3.3-5.4,4.9-8.2c7.6-12.9,14.7-26.4,21.2-40.2c2.4-5.2,4.8-10.4,6.9-15.6
							c7.2-17,13.2-33.6,18-50c1.5-5,2.8-9.9,4-14.8c0.4-1.6,0.8-3.3,1.2-4.9c1.3-5.3,2.4-10.6,3.3-15.8c0.2-1.2,0.4-2.4,0.7-3.6
							c0.6-3.5,1.2-7,1.7-10.4c0.9-5.8,1.6-11.5,2.1-17.2c0.3-3,0.5-6.1,0.7-9.1c0-0.4,0-0.8,0.1-1.2c0.3-5.2,0.5-10.3,0.5-15.4
							v-2.6C2823.2,1251.4,2823.1,1245.8,2822.8,1240.3z M2637,1394.7c-4.1,10.6-9,21.2-14.7,32.1c-25.1,47.8-61.3,87.7-103.9,118.6
							c-140,101.4-278.8,183.3-415.9,234.4c-29.5,11-61.6,12.6-92.1,4.6c-151-39.4-306.4-109.9-464.7-199.9
							c-47.7-27.1-89.6-64-120.2-109.5c-11-16.2-19.7-32.3-26.4-48.1c-21.9-51.4-21.7-100.2-2.1-145c17.6-40.3,51-77.3,98.1-110.1
							c99.2-68.9,259.5-119,463.2-140.7c45.1-4.8,90.5-6.6,135.8-5.2c258.3,8.5,446.7,74.4,522.5,177.9
							c8.3,11.3,15.2,23.1,20.8,35.3C2658.3,1285.4,2659.2,1337.7,2637,1394.7z"/>
					</g>
					<g>
						<path d="M2049.3,1807.1c-14.5,0-29-1.9-43.3-5.6c-142.4-37.1-295.8-103.1-469-201.6c-51.6-29.4-95.3-69.2-126.2-115
							c-49.5-73.5-59.2-147.6-28.1-214.4c60.9-130.8,270-224.5,573.6-256.9l0,0c46.6-5,93.1-6.7,138.2-5.3
							c278.5,9.2,478.7,83.9,549.1,204.9c38.1,65.5,36.1,142.2-5.8,221.9c-25.3,48.2-63,91.3-109.1,124.6
							c-153.2,111-290.6,188.4-420.1,236.7C2089.5,1803.5,2069.5,1807.1,2049.3,1807.1z M1960.1,1048.6L1960.1,1048.6
							c-286.7,30.6-490.6,119.1-545.4,236.7c-25.9,55.7-17.4,116.2,25.4,179.8c27.9,41.4,67.4,77.4,114.3,104.1
							c170.5,97,321.1,161.8,460.5,198.2c27.1,7.1,55.3,5.7,81.5-4.1c126.5-47.1,261.1-123.1,411.7-232.2
							c41.7-30.2,75.8-69.1,98.6-112.5c36.5-69.4,38.7-132.5,6.6-187.7c-63.2-108.7-257.6-178.7-519.8-187.4
							C2049.9,1042.1,2005.1,1043.8,1960.1,1048.6z"/>
					</g>
					<g class="st5">
						<g>
							<path class="st3" d="M2806.5,1193.3c0-0.4,0-0.7-0.1-1.1c-0.2-2.9-0.5-5.9-0.8-8.8c-0.1-1.6-0.3-3.2-0.6-4.8
								c-0.4-3-0.9-6.1-1.4-9.1c0-0.1,0-0.2,0-0.3v0c-32.1-183.1-299.7-305-701.4-319.5c-57-2.1-114,0-170.6,5.6
								c-413.3,41.5-684,174.2-718.1,350c0,0,0,0,0,0.1c-1.2,6.2-2.1,12.5-2.8,18.9c-0.1,1.6-0.3,3.2-0.4,4.8
								c-0.1,1.6-0.2,3.2-0.3,4.8c-0.5,10.5-0.1,21.1,1,31.9c0.6-5.5,1.4-10.9,2.5-16.3c0,0,0,0,0-0.1
								c34.1-175.7,304.8-308.5,718.1-350c56.6-5.7,113.6-7.7,170.6-5.6c401.7,14.6,669.3,136.4,701.4,319.5v0c0,0.1,0,0.2,0,0.3
								c0.5,3,1,6.1,1.4,9.1c0.2,1.6,0.4,3.2,0.6,4.8c0.1,0.7,0.1,1.5,0.2,2.2c0.2-1.9,0.3-3.7,0.5-5.6c0-0.3,0-0.7,0.1-1.1
								c0.3-4.4,0.5-8.8,0.5-13.2v-2.2C2806.9,1202.8,2806.8,1198,2806.5,1193.3z"/>
						</g>
					</g>
					<g>
						<path d="M2051.8,1952c-18.6,0-37.3-2.7-55.7-8.2c-182.6-54-379.5-149.5-602.1-291.7c-65.7-42-121.2-98.6-160.6-163.7
							c-66.5-110-76.4-219.5-28.6-316.9c86.1-175.4,349.5-300.6,722.7-343.5l0,0c59.6-6.8,119.1-9.1,177-6.7
							c341.6,14.2,593.8,114.9,691.9,276.2c58,95.3,59.3,208.5,3.8,327.4c-31.7,68-79.2,128.7-137.4,175.7
							c-195.6,158.1-371.2,268.1-536.7,336.4C2102,1947.1,2077,1952,2051.8,1952z M1931.5,863.3c-178.3,20.5-336.1,61.4-456.4,118.3
							c-117.3,55.5-199.8,126.6-238.6,205.6c-42.8,87.2-33.7,182.5,27.1,283c36.6,60.5,88.2,113.1,149.4,152.2
							c219.7,140.4,413.7,234.5,593.1,287.6c35.5,10.5,72.3,8.6,106.4-5.5c162.3-67,335-175.3,527.9-331.2
							c54-43.6,98.1-100.1,127.6-163.2c51-109.2,50.3-208.1-2-294.1C2674.2,965,2432.5,870.5,2103,856.8
							C2046.9,854.4,1989.3,856.6,1931.5,863.3L1931.5,863.3z"/>
					</g>
					<g class="st4">
						<g>
							<path d="M2806.9,1297.7v6.3c0,5-0.2,10.2-0.5,15.2c-0.1,0.4-0.1,0.8-0.1,1.2c-0.2,3-0.4,6-0.7,9c-0.5,5.7-1.2,11.3-2.1,17.1
								c-0.5,3.4-1,6.8-1.6,10.3c-0.2,1.2-0.4,2.4-0.7,3.6c-0.9,5.2-2,10.4-3.2,15.6c-0.4,1.6-0.8,3.2-1.2,4.8
								c-1.1,4.9-2.4,9.8-3.9,14.7c-0.6,2.1-1.2,4.3-1.9,6.4c-2.2,5.2-4.5,10.4-6.9,15.6c-6.5,13.9-13.6,27.3-21.2,40.2
								c-1.6,2.7-3.2,5.5-4.9,8.2c-0.8,1.3-1.5,2.6-2.4,3.8c-1.5,2.5-3.1,5-4.8,7.5c-0.8,1.3-1.7,2.6-2.6,3.9
								c-1.5,2.3-3,4.6-4.7,6.9c-2.1,3-4.3,6.1-6.4,9.1c-2.4,3.3-4.8,6.5-7.3,9.7c-0.3,0.4-0.5,0.8-0.9,1.1
								c-1.8,2.4-3.7,4.7-5.6,7.1c-1.3,1.7-2.7,3.4-4.2,5.1c-1.1,1.5-2.3,2.9-3.6,4.3c-1.3,1.6-2.7,3.3-4.2,4.9
								c-2.1,2.4-4.2,4.8-6.4,7.2c-0.3,0.4-0.6,0.7-1,1.1c-2.5,2.7-5,5.4-7.6,8.1c-0.6,0.7-1.2,1.3-1.9,1.9c-1.9,2-3.9,4-5.9,6
								c-1.5,1.6-3,3-4.5,4.5c-2,1.9-4,3.9-6,5.7c-0.3,0.3-0.6,0.6-0.9,0.8c-2.7,2.6-5.5,5.1-8.3,7.6c-0.6,0.5-1.2,1.1-1.8,1.6
								c-2.4,2.2-4.9,4.3-7.4,6.4c-0.2,0.2-0.5,0.4-0.7,0.6c-2.5,2.2-5,4.2-7.6,6.3c-121.6,98.2-242.6,183.6-362.7,250.9
								c0,0,0,0-0.1,0c-3.5,2-7.1,4-10.6,5.9c-9.4,5.2-18.8,10.2-28.1,15.2c-4.5,2.4-9.1,4.8-13.6,7.1
								c-10.8,5.6-21.7,11.1-32.5,16.4c-3.2,1.5-6.4,3.1-9.6,4.6c-11.7,5.7-23.5,11.1-35.2,16.4c-2.7,1.2-5.4,2.4-8.1,3.6
								c-10.6,4.7-21.1,9.2-31.7,13.6c-37.8,15.6-79,17.7-118.2,6c-4.5-1.3-9.1-2.7-13.6-4.2c-3.8-1.1-7.6-2.3-11.3-3.5
								c-0.8-0.2-1.5-0.5-2.3-0.7c-96.9-30.6-195.2-72.2-294.8-122.6c-0.8-0.4-1.6-0.8-2.4-1.2c-4.9-2.5-9.8-4.9-14.7-7.5
								c-5.7-2.9-11.4-5.9-17.1-8.9c-6.3-3.3-12.6-6.6-18.9-10c-10.8-5.8-21.6-11.7-32.5-17.6c0,0-0.1-0.1-0.2-0.1
								c-11.3-6.3-22.7-12.7-34.2-19.2c-5.7-3.3-11.5-6.6-17.2-9.9s-11.5-6.7-17.2-10c-5.7-3.4-11.5-6.8-17.3-10.2
								c-5.2-3-10.4-6.2-15.5-9.3c-18.4-11-36.8-22.3-55.2-33.8c-5.3-3.3-10.5-6.6-15.8-9.9c-5.8-3.7-11.6-7.3-17.4-11
								c-61.4-39.3-115.3-92.4-154.9-157.9c-9-14.8-16.9-29.6-23.6-44.2c-3.7-11.3-6.6-22.6-8.9-33.8c-4.9-23.7-6.8-46.9-5.9-69.6
								c0.1-1.9,0.2-3.7,0.3-5.6c0.1-1.9,0.3-3.7,0.4-5.5c0.6-7.3,1.5-14.6,2.7-21.8c7,43.1,23.7,87.8,51.2,133.7
								c3.8,6.4,7.9,12.8,12,19c12.1,18.1,40.2,10.4,40.9-11.5c1.1-35.5,12.4-71.6,31.2-101.3c13.5-21.2,29.9-40,48.1-57
								c-19.6,44.8-19.8,93.6,2.1,145c5.5,29.2,18.3,59.5,39,90.6c30,45.1,71,81.6,117.8,108.4c155,89.2,307.3,159.1,455.2,198.1
								c29.8,7.9,61.3,6.3,90.2-4.6c134.2-50.6,270.2-131.8,407.3-232.2c41.6-30.6,77.1-70.1,101.7-117.5c13.5-25.9,22.3-51,26.8-75
								c22.3-57,21.4-109.4,0.3-155.6c40.6,24.6,71.2,67.1,84,113.7c1.3,4.7,2.4,9.5,3.4,14.3c4.5,21.8,34.2,25.3,43.5,5.2
								c0.1-0.3,0.2-0.5,0.4-0.8c18.3-39.6,29.8-77.8,35.1-114.3c0,0.1,0,0.2,0,0.3c0.5,3.5,1,7,1.4,10.5c0.2,1.8,0.4,3.7,0.5,5.5
								c0.3,3.4,0.6,6.8,0.8,10.2v0C2806.8,1288.4,2806.9,1293.1,2806.9,1297.7z"/>
						</g>
					</g>
					<g class="st4">
						<g>
							<path d="M2644,625.8c-0.8,59.6-6.2,123.2-14.3,189.2c0,0.3,0,0.6-0.1,0.8c-1.9-0.5-3.7-1-5.5-1.5
								c-72.3-20.7-143.5-50.9-206.2-93.7c-36.3-24.7-34-80.9,2.9-104.5c1.8-1.1,3.5-2.3,5.2-3.5c34.1-24,59.5-59.3,89.3-89.1
								c17.1-17.1,36-32.9,47.3-54.8c13.7-26.4,14.4-58.7,7.5-88c-6.9-29.2-20.7-56.1-35-82.1h5.1c3.5-1.2,6.9-2.3,10.4-3.1
								c0,0,0,0,0.1,0c39.7,40.7,64.5,94.4,78.5,157.6C2640.6,505,2644.9,563.2,2644,625.8z"/>
						</g>
					</g>
				</g>
			</g>
		</g>
		<g>
			<g>
				<path class="st10" d="M1590.5,2810.1h1375.1c20.1,0,36.5-16.4,36.5-36.5v-5c0-20.1-16.4-36.5-36.5-36.5H1590.5
					c-20.1,0-36.5,16.4-36.5,36.5v5C1554,2793.7,1570.4,2810.1,1590.5,2810.1z"/>
			</g>
			<g class="st11">
				<path class="st3" d="M2965.5,2732.2H1590.5c-20.1,0-36.5,16.4-36.5,36.5v5c0,4.6,0.9,8.9,2.4,13c5.3-13.7,18.5-23.5,34-23.5
					h1375.1c15.5,0,28.8,9.8,34,23.5c1.5-4,2.4-8.4,2.4-13v-5C3002,2748.6,2985.6,2732.2,2965.5,2732.2z"/>
			</g>
			<g class="st4">
				<path d="M2965.5,2773.7H1590.5c-12.6,0-23.8-6.5-30.4-16.3c-3.9,5.8-6.1,12.7-6.1,20.1v5c0,20.1,16.4,36.5,36.5,36.5h1375.1
					c20.1,0,36.5-16.4,36.5-36.5v-5c0-7.4-2.3-14.4-6.1-20.1C2989.3,2767.2,2978.2,2773.7,2965.5,2773.7z"/>
			</g>
			<g>
				<path class="st10" d="M2160,2732.2l706.6,0c23.8,0,46.1-11.1,59.7-29.8c0.3-0.4,0.6-0.8,0.8-1.1c8-11.1,14.4-23.1,19.6-35.7
					l194.6-475.1c4.3-10.5,7.6-21.3,9.1-32.5c5.2-37.5-7.5-65.8-32.9-87.4c-13.6-11.6-31.3-17.8-49.4-17.8h-705.7
					c-12.4,0-24.7,2.4-35.7,8c-14.7,7.4-26.2,19.1-35,34.1c-2.9,4.8-5.2,10-7.3,15.1l-197.6,484.9c-3.2,7.8-5.9,15.9-7.6,24.2
					c-6.4,31.2-1.1,60,20.4,85.7C2114.3,2722.3,2136.7,2732.2,2160,2732.2z"/>
			</g>
			<g class="st4">
				<path d="M2160,2732.2l706.6,0c23.8,0,46.1-11.1,59.7-29.8c0.3-0.4,0.6-0.8,0.8-1.1c8-11.1,14.4-23.1,19.6-35.7l194.6-475.1
					c4.3-10.5,7.6-21.3,9.1-32.5c5.2-37.5-7.5-65.8-32.9-87.4c-13.6-11.6-31.3-17.8-49.4-17.8h-705.7c-12.4,0-24.7,2.4-35.7,8
					c-14.7,7.4-26.2,19.1-35,34.1c-2.9,4.8-5.2,10-7.3,15.1l-197.6,484.9c-3.2,7.8-5.9,15.9-7.6,24.2c-6.4,31.2-1.1,60,20.4,85.7
					C2114.3,2722.3,2136.7,2732.2,2160,2732.2z"/>
			</g>
			<g>
				<path d="M2965.5,2827.8H1590.5c-29.8,0-54.1-24.3-54.1-54.1v-5c0-29.8,24.3-54.1,54.1-54.1h1375.1c29.8,0,54.1,24.3,54.1,54.1v5
					C3019.7,2803.5,2995.4,2827.8,2965.5,2827.8z M1590.5,2749.9c-10.4,0-18.8,8.4-18.8,18.8v5c0,10.4,8.4,18.8,18.8,18.8h1375.1
					c10.4,0,18.8-8.4,18.8-18.8v-5c0-10.4-8.4-18.8-18.8-18.8H1590.5z"/>
			</g>
			<g>
				<path d="M2175.3,2824.3l-21.2-28.3c5.5-4.2,9.3-12.3,9.9-21.3c0.4-6.5-0.5-19.1-11.6-29.8l24.6-25.3c15.5,15,23.6,36,22.3,57.4
					C2198,2796.2,2189.1,2813.9,2175.3,2824.3z"/>
			</g>
			<g>
				<path class="st12" d="M2991.8,2745.4"/>
			</g>
			<g>
				<path d="M2866.7,2749.9H2160c-29.1,0-56-12.3-74-33.8c-23.8-28.5-32-62.3-24.1-100.6c1.8-8.6,4.5-17.5,8.5-27.3l197.6-484.9
					c2.8-6.9,5.5-12.4,8.5-17.5c10.9-18.4,25.2-32.2,42.3-40.8c12.8-6.5,27.9-9.9,43.7-9.9h705.7c22.5,0,44.2,7.8,60.8,22
					c31.6,26.8,44.8,61.6,39,103.3c-1.7,11.9-5,23.9-10.3,36.7l-194.6,475.1c-5.8,14.2-13.1,27.4-21.6,39.3l-0.9,1.3
					C2923.8,2736,2896.1,2749.9,2866.7,2749.9z M2362.5,2070.5c-10.3,0-19.9,2.1-27.7,6.1c-11.2,5.6-20.3,14.6-27.8,27.3
					c-2.1,3.5-4,7.6-6.2,12.8l-197.6,484.9c-3.2,7.7-5.3,14.6-6.6,21c-5.6,27.5-0.2,50.7,16.6,70.8c11.1,13.2,28.6,21.1,46.9,21.1
					h706.6c18.2,0,35.2-8.4,45.4-22.6l0.6-0.8c7-9.8,13-20.6,17.7-32.3l194.6-475.1c4.1-10,6.7-19.3,8-28.2
					c4.1-29.7-4.4-52.4-26.8-71.5c-10.3-8.8-23.8-13.6-38-13.6H2362.5z"/>
			</g>
			<g>
				<path class="st10" d="M3222.3,2158c-1.5,11.1-4.9,22-9.2,32.5l-195.7,475.1c-5.2,12.5-11.7,24.6-19.7,35.7
					c-0.3,0.4-0.6,0.8-0.8,1.1c-13.7,18.8-36.2,29.8-60.1,29.8h-710.6c-23.5,0-46-9.9-60.8-27.4c-6.2-7.4-11-15-14.7-22.8
					c-9-19.6-10.4-40.6-5.8-62.9c1.7-8.3,4.4-16.3,7.6-24.2l47.1-115l6.7-16.3l144.9-353.6c2.2-5.2,4.5-10.3,7.4-15.1
					c8.9-15,20.4-26.6,35.2-34.1c11-5.5,23.4-7.9,35.9-7.9h709.6c10.8,0,21.5,2.2,31.2,6.4c0,0,0.1,0,0.2,0
					c6.6,2.9,12.8,6.7,18.3,11.3c16.1,13.6,27.2,29.8,31.7,49.4C3223.7,2131.4,3224.2,2144.1,3222.3,2158z"/>
			</g>
			<g class="st11">
				<path class="st3" d="M2178.7,2716.2c-9-19.6-10.4-40.6-5.8-62.9c1.7-8.3,4.4-16.3,7.6-24.2l47.1-115l6.7-16.3l144.9-353.6
					c2.2-5.2,4.5-10.3,7.4-15.1c8.9-15,20.4-26.6,35.2-34.1c11-5.5,23.4-7.9,35.9-7.9h709.6c10.8,0,21.5,2.2,31.2,6.4
					c0,0,0.1,0,0.2,0c5.8,2.5,11.2,5.8,16.2,9.7c-5.8-12.3-14.5-23.1-25.8-32.6c-5.5-4.6-11.7-8.4-18.3-11.3c0,0-0.1,0-0.2,0
					c-9.7-4.2-20.4-6.4-31.2-6.4h-709.6c-12.5,0-24.9,2.4-35.9,7.9c-14.8,7.5-26.3,19.1-35.2,34.1c-2.9,4.8-5.2,9.9-7.4,15.1
					l-144.9,353.6l-6.7,16.3l-47.1,115c-3.2,7.8-6,15.9-7.6,24.2c-4.6,22.3-3.2,43.3,5.8,62.9c3.6,7.9,8.5,15.5,14.7,22.8
					c4.1,4.8,8.8,9,13.9,12.7C2179.2,2717,2178.9,2716.6,2178.7,2716.2z"/>
			</g>
			<g>
				<path d="M2936.8,2749.9h-710.6c-29.2,0-56.3-12.3-74.3-33.7c-24-28.5-32.1-62.4-24.3-100.6c1.8-8.6,4.6-17.5,8.6-27.3
					l198.7-484.9c2.8-6.9,5.5-12.4,8.5-17.5c11-18.4,25.3-32.2,42.5-40.8c12.8-6.4,28-9.8,43.8-9.8h709.6c22.6,0,44.3,7.8,61.1,21.9
					c31.8,26.9,45,61.6,39.2,103.3c-1.7,11.9-5,23.9-10.3,36.7l-195.7,475.1c-5.9,14.2-13.2,27.5-21.7,39.3l-0.9,1.2
					C2994.1,2736,2966.4,2749.9,2936.8,2749.9z M2429.8,2070.5c-10.4,0-20,2.1-28,6.1c-11.2,5.6-20.4,14.6-28,27.3
					c-2.1,3.5-4.1,7.6-6.2,12.8l-198.7,484.9c-3.2,7.7-5.3,14.6-6.7,21c-5.7,27.5-0.2,50.7,16.7,70.8c11.1,13.2,28.8,21.2,47.3,21.2
					h710.6c18.3,0,35.5-8.4,45.8-22.6l0.6-0.8c7.1-9.9,13.1-20.7,17.9-32.4l195.7-475.1c4.1-10,6.8-19.3,8-28.2
					c4.1-29.7-4.4-52.4-27-71.4c-10.4-8.8-24-13.6-38.3-13.6H2429.8z"/>
			</g>
			<g class="st4">
				<g>
					<g>
						<path d="M2861.3,2319c10.1,17.3,20.2,44,6.9,72.4c-4.7,9.8-13.4,17.1-24,19.9c-3,0.8-6.2,1.2-9.3,1.3
							c-7.9,0.1-15.7-2.3-22.3-6.9c-10.6-7.5-20.2-16-28.7-25.4c-1.8,7.4-6.9,13.8-14.4,17c-3,1.3-6.2,1.9-9.3,2
							c-9.1,0.1-17.8-4.9-22.2-13.4c-2.5,5.2-6.8,9.5-12.6,11.9c-3,1.3-6.1,1.9-9.2,2c-9.7,0.1-19.1-5.6-23.1-15.2l-13.5-32.1
							l-0.6,20.2c-0.4,10.9-5.3,21.2-13.7,28.3c-6.9,5.8-15.5,9-24.4,9.1c-1.9,0-3.7-0.1-5.6-0.3c-38.3-5.2-68.1-26.2-84.1-59.1
							c-10.6-21.9-9.4-47.8,3.3-69.5c17.7-30.4,43.7-50,77.1-58.4c12.4-3.1,25.3-0.3,35.4,7.9c10,8.1,15.7,20.5,15.3,33.4l-0.7,21.4
							l26.7-37.6c7.9-11.1,23.3-13.8,34.4-5.9c3.6,2.5,6.3,5.9,8,9.7l2.1-3.3c7.3-11.5,22.6-14.9,34-7.5c3.9,2.5,6.8,5.8,8.7,9.6
							c5.3-4.8,10.8-9.1,16.5-12.9c9.1-6.1,20.3-8,30.8-5.2c10.4,2.8,19.1,9.8,23.9,19.4C2874.6,2267.3,2879.1,2291,2861.3,2319z"/>
					</g>
				</g>
				<g>
					<path d="M2656.8,2263.2l-3.4,108.8c-0.3,8.2-7.5,14.4-15.6,13.3c-30.1-4.1-52.9-20.1-65.2-45.5c-7.2-14.7-5.9-32.1,2.4-46.3
						c14.5-24.8,35.2-40.2,61.7-46.9C2647.2,2244,2657.2,2252.4,2656.8,2263.2z"/>
				</g>
				<g>
					<line x1="2655.2" y1="2315.6" x2="2773.5" y2="2319"/>
				</g>
				<g>
					<path d="M2773.5,2318.7c14.5-26.7,31.5-47.4,51.6-60.9c6.4-4.3,15.3-2.2,18.7,4.7c8.2,16.6,5,35-13.7,55.9
						c15.9,21.4,24.5,42.4,14.9,62.8c-3.4,7.2-12.6,9.2-19.1,4.6C2802.3,2369.1,2784.7,2346.8,2773.5,2318.7z"/>
				</g>
				<g>
					<polyline points="2759.1,2374.6 2735.8,2319.4 2772.8,2261.4 					"/>
				</g>
				<g>
					<polyline points="2715,2375.1 2689.9,2315.2 2727.6,2261.9 					"/>
				</g>
				<g>
					<circle cx="2617.4" cy="2303.8" r="14.6"/>
				</g>
			</g>
			<g>
				<g>
					<g>
						<path class="st3" d="M2861.3,2305.8c10.1,17.3,20.2,44,6.9,72.4c-4.7,9.8-13.4,17.1-24,19.9c-3,0.8-6.2,1.2-9.3,1.3
							c-7.9,0.1-15.7-2.3-22.3-6.9c-10.6-7.5-20.2-16-28.7-25.4c-1.8,7.4-6.9,13.8-14.4,17c-3,1.3-6.2,1.9-9.3,2
							c-9.1,0.1-17.8-4.9-22.2-13.4c-2.5,5.2-6.8,9.5-12.6,11.9c-3,1.3-6.1,1.9-9.2,2c-9.7,0.1-19.1-5.6-23.1-15.2l-13.5-32.1
							l-0.6,20.2c-0.4,10.9-5.3,21.2-13.7,28.3c-6.9,5.8-15.5,9-24.4,9.1c-1.9,0-3.7-0.1-5.6-0.3c-38.3-5.2-68.1-26.2-84.1-59.1
							c-10.6-21.9-9.4-47.8,3.3-69.5c17.7-30.4,43.7-50,77.1-58.4c12.4-3.1,25.3-0.3,35.4,7.9c10,8.1,15.7,20.5,15.3,33.4l-0.7,21.4
							l26.7-37.6c7.9-11.1,23.3-13.8,34.4-5.9c3.6,2.5,6.3,5.9,8,9.7l2.1-3.3c7.3-11.5,22.6-14.9,34-7.5c3.9,2.5,6.8,5.8,8.7,9.6
							c5.3-4.8,10.8-9.1,16.5-12.9c9.1-6.1,20.3-8,30.8-5.2c10.4,2.8,19.1,9.8,23.9,19.4C2874.6,2254,2879.1,2277.8,2861.3,2305.8z"
							/>
					</g>
				</g>
				<g>
					<path class="st13" d="M2639.7,2383.2c-1.1,0-2.2-0.1-3.3-0.2c-33.6-4.6-59.7-22.9-73.7-51.6c-8.6-17.7-7.6-38.9,2.8-56.7
						c15.8-27.1,38.9-44.6,68.6-52c8.3-2,16.8-0.2,23.5,5.2c6.8,5.5,10.5,13.6,10.3,22.3l-11-0.3l11,0.3l-3.4,108.8
						c-0.2,7.1-3.4,13.7-8.8,18.3C2651.2,2381.2,2645.5,2383.2,2639.7,2383.2z M2640.6,2244c-0.4,0-0.8,0-1.2,0.2
						c-24,6-42,19.6-54.9,41.7c-6.6,11.4-7.4,24.8-2,35.9c10.8,22.2,30.4,35.8,56.8,39.4c0.9,0.1,1.6-0.3,2-0.6c0.4-0.3,1-1,1-2.1
						l3.4-108.8c0.1-2.5-1.4-3.9-2.1-4.5C2643.2,2244.6,2642.1,2244,2640.6,2244z"/>
				</g>
				<g>
					<path class="st13" d="M2773.5,2316.8c-0.1,0-0.2,0-0.3,0l-118.3-3.3c-6.1-0.2-10.9-5.3-10.7-11.3c0.2-6,5.1-10.7,11-10.7
						c0.1,0,0.2,0,0.3,0l118.3,3.3c6.1,0.2,10.9,5.3,10.7,11.3C2784.4,2312,2779.5,2316.8,2773.5,2316.8z"/>
				</g>
				<g>
					<path class="st13" d="M2833.6,2385.9c-5,0-9.9-1.5-14.1-4.5c-25.5-17.9-44.4-42.1-56.3-71.9c-1.2-3-1-6.5,0.5-9.4
						c15.7-28.9,34.2-50.7,55.1-64.8c5.8-3.9,12.9-5.1,19.7-3.3c6.6,1.7,12.1,6.2,15.1,12.3c9.7,19.7,6.5,40.2-9.6,61.3
						c9.6,14.1,23.5,40.3,10.9,67c-2.9,6.2-8.4,10.8-15.2,12.6C2837.8,2385.6,2835.7,2385.9,2833.6,2385.9z M2785.7,2306.1
						c10.4,23.6,26,42.8,46.5,57.3c0.8,0.6,1.7,0.4,1.9,0.4c0.6-0.2,0.8-0.5,0.8-0.6c6.6-14,2.4-29.9-13.7-51.5
						c-3.1-4.2-2.9-10.1,0.6-14c19.4-21.6,16.1-35.2,12-43.6c-0.2-0.4-0.5-0.6-1-0.8c-0.3-0.1-1-0.2-1.7,0.3
						C2814.4,2265,2799.1,2282.7,2785.7,2306.1z"/>
				</g>
				<g>
					<path class="st13" d="M2759.1,2372.4c-4.3,0-8.4-2.5-10.2-6.8l-23.2-55.2c-1.4-3.3-1.1-7.2,0.9-10.2l37-58
						c3.3-5.1,10.1-6.6,15.2-3.4c5.1,3.3,6.6,10.1,3.4,15.2l-33.9,53.1l21,49.9c2.4,5.6-0.3,12.1-5.9,14.5
						C2762,2372.1,2760.5,2372.4,2759.1,2372.4z"/>
				</g>
				<g>
					<path class="st13" d="M2715,2372.9c-4.3,0-8.4-2.5-10.2-6.8l-25.2-59.9c-1.5-3.5-1-7.5,1.2-10.7l37.8-53.3
						c3.5-5,10.4-6.1,15.4-2.6c5,3.5,6.2,10.4,2.6,15.4l-34.2,48.3l22.8,54.3c2.4,5.6-0.3,12.1-5.9,14.4
						C2717.9,2372.7,2716.5,2372.9,2715,2372.9z"/>
				</g>
				<g>
					<circle class="st13" cx="2617.4" cy="2290.6" r="14.6"/>
				</g>
			</g>
			<g class="st4">
				<path d="M3168.4,2112.5c-65.8,141-182.9,280.6-340,390.6c-231.6,162.2-490.9,218.6-682.4,167.3c1.2,4.3,2.7,8.6,4.6,12.7
					c3.5,7.7,8.1,15.1,14.1,22.3c14.1,17.1,35.7,26.8,58.3,26.8h681.4c22.9,0,44.4-10.8,57.6-29.2c0.3-0.3,0.5-0.7,0.8-1.1
					c7.7-10.8,13.9-22.6,18.9-34.8l187.7-464c4.2-10.2,7.3-20.8,8.8-31.7c1.9-13.6,1.4-25.9-1.3-37.1
					C3175,2126.4,3172.2,2119.2,3168.4,2112.5z"/>
			</g>
		</g>
	</g>
</g>
</svg>
