<?xml version="1.0" encoding="utf-8"?>
<!-- Generator: Adobe Illustrator 22.1.0, SVG Export Plug-In . SVG Version: 6.00 Build 0)  -->
<svg version="1.1" id="Layer_1" xmlns="http://www.w3.org/2000/svg" xmlns:xlink="http://www.w3.org/1999/xlink" x="0px" y="0px"
	 viewBox="0 0 4000 2933" style="enable-background:new 0 0 4000 2933;" xml:space="preserve">
<style type="text/css">
	.st0{opacity:0.2;}
	.st1{fill:#636363;}
	.st2{fill:#ED8A13;}
	.st3{fill:#FFDDB9;}
	.st4{opacity:0.3;}
	.st5{fill:#371B45;}
	.st6{opacity:0.6;}
	.st7{fill:#FFFFFF;}
	.st8{fill:#C55603;}
	.st9{fill:#EF569C;}
	.st10{filter:url(#Adobe_OpacityMaskFilter);}
	.st11{filter:url(#Adobe_OpacityMaskFilter_1_);}
	.st12{mask:url(#SVGID_1_);fill:url(#SVGID_2_);}
	.st13{fill:url(#SVGID_3_);}
	.st14{fill:#BBC3D6;}
	.st15{fill:#FFDDBC;}
	.st16{fill:none;stroke:#371A45;stroke-width:42.4733;stroke-linecap:round;stroke-linejoin:round;stroke-miterlimit:10;}
	.st17{fill:#F1EDF4;}
</style>
<g>
	<g>
		<g class="st0">
			<ellipse class="st1" cx="1866.9" cy="2644.1" rx="1283.8" ry="164.4"/>
		</g>
		<g>
			<path class="st2" d="M2716.4,2459.7c-29.7,71.6-85.3,131.5-186.3,145.1c-68.5,9.3-133.3,14.4-192.3,16.9
				c-185.8,8.1-313.2-10-313.2-10s-72.1,22.7-178.8,22.3c-55.5-0.2-120.3-6.6-189.1-25.7c0,0-878.3,14.3-963.2-71.5
				c0,0,15-6.1,40.7-17.3c108-46.8,404.6-182.6,565-327.9c11.3-10.2,21.9-20.5,31.7-30.7c2-2,3.9-4.1,5.8-6.1c0,0,9.8-511.7,410-771
				l633.4,129.7c0,0,382.7,83.5,359,648.3C2739,2161.8,2770.3,2329.9,2716.4,2459.7z"/>
		</g>
		<g>
			<path class="st3" d="M1835.9,2290.4c0,0,32.5-652.5,361.3-668.2c400.6-19.1,316.2,715.8,316.2,715.8L1835.9,2290.4z"/>
		</g>
		<g class="st4">
			<path class="st5" d="M2259.5,1658.1c105,0,201.8-19.7,284.8-54.5c-84.5-72.7-164.3-90.2-164.3-90.2l-633.4-129.7
				c-69.8,45.2-127.7,98.2-175.8,154.7C1761.2,1640.1,2035.3,1658.1,2259.5,1658.1z"/>
		</g>
		<g class="st6">
			<g>
				<path class="st7" d="M2676.7,2061.7c21.4,3.3,42.4,8.9,62.8,16.4c-15.4-489.4-359.5-564.6-359.5-564.6l-28.7-5.9
					C2438.7,1541.5,2664.5,1667,2676.7,2061.7z"/>
			</g>
		</g>
		<g class="st6">
			<g>
				<path class="st7" d="M1278.4,2590.9c-193.1-3.1-427.3-12.3-556.7-37.8c90.2,35.2,339.3,48.7,557.7,53.5
					C1279,2601.4,1278.6,2596.1,1278.4,2590.9z"/>
			</g>
		</g>
		<g>
			<path class="st8" d="M1845.8,2634c-55.5-0.2-120.3-6.6-189.1-25.7c0,0-878.3,14.3-963.2-71.5c0,0,15-6.1,40.7-17.3
				c108-46.8,404.6-182.6,565-327.9c11.3-10.2,21.9-20.5,31.7-30.7c2-2,3.9-4.1,5.8-6.1c0,0-1.2,6.8-2.1,18.7
				c-6.3,82.3,0.5,410.3,501.4,459.5C1839.3,2633.3,1842.5,2633.6,1845.8,2634z"/>
		</g>
		<g>
			<g class="st6">
				<path class="st7" d="M1334.1,2233.3c0.2-0.2,0.4-0.3,0.6-0.5c-1.9-25-1.2-45.6-0.2-59.3c0.9-12,2.1-18.7,2.1-18.7
					c-1.9,2-3.8,4.1-5.8,6.1c-9.8,10.3-20.4,20.5-31.7,30.7c-159.2,144.3-452.6,279.1-562.5,326.8
					C907.1,2505.3,1193.1,2361.1,1334.1,2233.3z"/>
			</g>
		</g>
		<g>
			<path d="M1491.6,2513.2c51.9,35.3,110.6,59.1,171.2,74.6c37.5,9.7,76.5,16.3,114.9,20.6c15.5,1.6,31,3.1,46.6,4l23.9,1.6
				c11.1,0.7,19.5,10.3,18.8,21.4c-0.7,11.1-10.3,19.5-21.4,18.8c-0.7,0-1.5-0.1-2.1-0.3c0,0-23.3-3.6-23.3-3.6
				c-55.6-8.4-111.2-21.2-164.2-39.9c-30.4-10.7-60.1-23.4-88.5-38.5c-28.3-15.2-55.3-32.9-80.1-53
				C1483.9,2516.2,1487.7,2510.5,1491.6,2513.2L1491.6,2513.2z"/>
		</g>
		<g>
			<path d="M1356.7,2154.4c-2.8,67.6-0.9,136.6,13,203.2c1.3,5.8-7.2,8.5-9.4,2.8c-18.4-49.2-29.2-100.9-37.3-152.8
				c-2.6-17.4-4.9-34.6-6.6-52.6c-1-11.1,7.1-20.9,18.2-22C1346.9,2131.8,1357.6,2142.2,1356.7,2154.4L1356.7,2154.4z"/>
		</g>
		<g>
			<path d="M2739,2060.3c-10.8,0-19.7-8.5-20.1-19.4c-5.8-161.2-56.5-291.9-150.5-388.3c-70.2-72-139.9-97-140.6-97.3
				c-10.5-3.7-16-15.1-12.3-25.6c3.7-10.5,15.1-16,25.6-12.4c3.1,1.1,77.8,27.6,154.6,105.6c70.3,71.5,155.8,201.7,163.5,416.6
				c0.4,11.1-8.3,20.4-19.4,20.8C2739.5,2060.3,2739.2,2060.3,2739,2060.3z"/>
		</g>
		<g>
			<path d="M2441,1622.8c36.8,48.6,60.2,103.5,81.6,159.7c32.4,90.7,52.1,187.2,65.1,282.4c2.4,20.6,6.1,56.7,8.2,77.6
				c1.4,20.4,3.5,57.1,4.7,77.8c0.7,29.7,1.2,59.3,1.4,89c-0.5,27.4-40.4,28.7-42.4,1.1c-1.3-29.4-1.9-58.8-2.9-88.1
				c-1.4-20.5-3.7-56.1-4.8-76.1c-0.6-6.5-4.5-46.7-5.2-54.2c-13.2-129.2-39.1-258.9-84.4-380.8c-9.9-27-21.2-54.2-34.2-79.2
				C2422.8,1623.8,2434.5,1614.8,2441,1622.8L2441,1622.8z"/>
		</g>
		<g>
			<g>
				<circle class="st2" cx="1543.2" cy="402.8" r="218.5"/>
			</g>
			<g class="st4">
				<path class="st5" d="M1724.1,280.3c-16.1,104.8-106.6,185.1-216,185.1c-75.2,0-141.6-38-180.9-95.9c-1.7,10.9-2.5,22-2.5,33.4
					c0,120.7,97.8,218.5,218.5,218.5c120.7,0,218.5-97.8,218.5-218.5C1761.7,357.4,1747.9,315.2,1724.1,280.3z"/>
			</g>
			<g class="st6">
				<path class="st7" d="M1522.6,236.9c120.7,0,218.5,97.8,218.5,218.5c0,18.2-2.3,35.9-6.5,52.8c17.2-31.3,27.1-67.2,27.1-105.4
					c0-120.7-97.8-218.5-218.5-218.5c-102.5,0-188.4,70.5-212,165.7C1368.4,282.6,1440.2,236.9,1522.6,236.9z"/>
			</g>
			<g>
				
					<ellipse transform="matrix(0.601 -0.7992 0.7992 0.601 287.2485 1397.3625)" class="st9" cx="1543.2" cy="411" rx="85.2" ry="93.4"/>
			</g>
			<g class="st4">
				<path class="st5" d="M1480.4,410.1c28.3-37.6,84.6-43,125.9-12c11.4,8.6,20.4,19.1,26.9,30.6c3.7-31-10.1-64.3-38.7-85.8
					c-41.2-31-97.6-25.6-125.9,12c-20.5,27.2-20.5,63.8-3.5,93.7C1466.7,434.8,1471.7,421.6,1480.4,410.1z"/>
			</g>
			<g>
				<path d="M1543.2,641.4c-131.6,0-238.6-107-238.6-238.6s107-238.6,238.6-238.6s238.6,107,238.6,238.6S1674.8,641.4,1543.2,641.4z
					 M1543.2,204.4c-109.4,0-198.4,89-198.4,198.4c0,109.4,89,198.4,198.4,198.4c109.4,0,198.4-89,198.4-198.4
					C1741.6,293.4,1652.6,204.4,1543.2,204.4z"/>
			</g>
			<g>
				<path d="M1551,510.5c-23.3,0-46.3-7.8-65.8-22.4c-46.1-34.7-57.6-97.5-25.6-140c32-42.5,95.5-48.9,141.7-14.2
					c46.1,34.7,57.6,97.5,25.6,140c-15.6,20.8-39.1,33.6-66,36.2C1557.6,510.4,1554.3,510.5,1551,510.5z M1535.4,334
					c-22.6,0-44,9.4-57.7,27.6c-24.5,32.6-15,81.2,21.2,108.4c17.7,13.3,39,19.5,59.9,17.5c20.6-2,38.4-11.6,50.1-27.3
					c24.5-32.6,15-81.2-21.2-108.4C1571.7,339.9,1553.2,334,1535.4,334z"/>
			</g>
		</g>
		<g>
			<g>
				
					<ellipse transform="matrix(0.4191 -0.9079 0.9079 0.4191 1119.6931 2522.6755)" class="st2" cx="2531.3" cy="386.3" rx="219.2" ry="191.7"/>
			</g>
			<g class="st4">
				<path class="st5" d="M2723.7,319.9c-48.7,94.5-151.4,145.6-242.7,115.9c-62.9-20.5-105.5-74.5-118.8-139.8
					c-5.1,9.8-9.5,20.1-13.4,30.8c-40.6,113.9,8.2,232.8,109,265.7c100.8,32.9,215.4-32.8,256-146.7
					C2729.2,402.9,2731.8,359.4,2723.7,319.9z"/>
			</g>
			<g class="st6">
				<path class="st7" d="M2569.9,224.1c100.8,32.9,149.6,151.8,109,265.7c-6.1,17.2-14,33.3-23.2,48.1c24.9-24.8,45.2-56,58.1-92.1
					c40.6-113.9-8.2-232.8-109-265.7c-85.6-27.9-181.1,15.2-232.9,98.6C2425.7,225.2,2501.1,201.7,2569.9,224.1z"/>
			</g>
			<g>
				
					<ellipse transform="matrix(7.091114e-02 -0.9975 0.9975 7.091114e-02 1956.2937 2888.2778)" class="st9" cx="2528.6" cy="394" rx="88.9" ry="78.7"/>
			</g>
			<g class="st4">
				<path class="st5" d="M2476.4,376c36.3-27.8,85.2-17.5,109.2,23c6.6,11.2,10.6,23.6,12.2,36.2c13.5-28.2,13.2-63.4-3.5-91.5
					c-24-40.5-72.9-50.8-109.2-23c-26.2,20.1-38.6,54.6-34.4,87.4C2456.6,395.7,2465.3,384.5,2476.4,376z"/>
			</g>
			<g>
				<path d="M2511.1,621c-20,0-39.9-3-59.5-9.4c-49.5-16.1-90-51.9-113.9-100.6c-27.9-56.9-30.8-126.5-7.8-191
					c44.2-123.8,170.3-195.2,281.2-159c49.5,16.1,90,51.9,113.9,100.6c27.9,56.9,30.8,126.5,7.8,191l0,0
					C2696.4,554.6,2604.4,621,2511.1,621z M2551.3,191.8c-76.7,0-152.9,56-183.5,141.8c-19.4,54.3-17.1,112.5,6,159.7
					c19.1,38.9,51.2,67.3,90.3,80.1c90.4,29.5,194-30.8,230.9-134.3l0,0c19.4-54.3,17.1-112.5-6-159.7
					c-19.1-38.9-51.2-67.3-90.3-80.1C2583.1,194.2,2567.2,191.8,2551.3,191.8z M2713.9,445.8L2713.9,445.8L2713.9,445.8z"/>
			</g>
			<g>
				<path d="M2527.4,494.2c-5.2,0-10.4-0.5-15.6-1.5c-24.3-4.7-45.2-19.8-58.7-42.6c-26.8-45.2-15.5-107.2,25.1-138.3
					c19.8-15.2,43.6-21,67.1-16.5c24.3,4.7,45.2,19.8,58.7,42.6c26.8,45.2,15.5,107.2-25.1,138.3
					C2563.5,488,2545.6,494.2,2527.4,494.2z M2529.9,316.4c-13.3,0-26.5,4.6-37.9,13.3c-31.8,24.4-40.5,73.2-19.4,108.9
					c10.2,17.2,25.6,28.5,43.5,32c17,3.3,34.5-1,49.1-12.2l0,0c31.8-24.4,40.5-73.2,19.4-108.9c-10.2-17.2-25.6-28.5-43.5-32
					C2537.3,316.7,2533.6,316.4,2529.9,316.4z"/>
			</g>
		</g>
		<g>
			<path class="st2" d="M2720.9,911.4c0,0-76.3-628-523.8-654.6c-459.4-27.3-704.4,63.7-856.7,666.5s464.6,669.4,896.3,669.4
				C2666.8,1592.7,2960.3,1263.6,2720.9,911.4z"/>
		</g>
		<g class="st6">
			<path class="st7" d="M2720.9,911.4c0,0-76.3-628-523.8-654.6c-305.1-18.1-515.6,16-667.3,217.5
				c147-154.5,345.8-179.6,626.8-171.5c4.4,0.1,8.7,0.4,13.1,0.7c-7.8,5.2-13.1,11.7-14.9,19.5c-7.4,30.5,39.6,68.2,105,84.1
				c65.4,15.9,124.5,4.1,131.9-26.4c0,0,0-0.1,0-0.1c238.4,169.7,280.8,558.1,280.8,558.1c153.5,176.8,134.2,336.4,56.6,446.5
				C2827,1258.7,2840.9,1088,2720.9,911.4z"/>
		</g>
		<defs>
			<filter id="Adobe_OpacityMaskFilter" filterUnits="userSpaceOnUse" x="1642.1" y="784.9" width="1638.8" height="1480.4">
				<feFlood  style="flood-color:white;flood-opacity:1" result="back"/>
				<feBlend  in="SourceGraphic" in2="back" mode="normal"/>
			</filter>
		</defs>
		<mask maskUnits="userSpaceOnUse" x="1642.1" y="784.9" width="1638.8" height="1480.4" id="SVGID_1_">
			<g class="st10">
				<defs>
					<filter id="Adobe_OpacityMaskFilter_1_" filterUnits="userSpaceOnUse" x="1642.1" y="784.9" width="1638.8" height="1480.4">
						<feFlood  style="flood-color:white;flood-opacity:1" result="back"/>
						<feBlend  in="SourceGraphic" in2="back" mode="normal"/>
					</filter>
				</defs>
				<mask maskUnits="userSpaceOnUse" x="1642.1" y="784.9" width="1638.8" height="1480.4" id="SVGID_1_">
					<g class="st11">
					</g>
				</mask>
				<linearGradient id="SVGID_2_" gradientUnits="userSpaceOnUse" x1="2798.2073" y1="2079.7542" x2="2351.0063" y2="1373.7633">
					<stop  offset="0" style="stop-color:#999999"/>
					<stop  offset="0.1675" style="stop-color:#7E7E7E"/>
					<stop  offset="0.7406" style="stop-color:#242424"/>
					<stop  offset="1" style="stop-color:#000000"/>
				</linearGradient>
				<polygon class="st12" points="1642.1,1470.2 2275.7,2265.4 3280.8,1763.1 2748.1,784.9 				"/>
			</g>
		</mask>
		<linearGradient id="SVGID_3_" gradientUnits="userSpaceOnUse" x1="2798.2073" y1="2079.7542" x2="2351.0063" y2="1373.7633">
			<stop  offset="0" style="stop-color:#FBED21"/>
			<stop  offset="0.4079" style="stop-color:#FDF581"/>
			<stop  offset="0.8158" style="stop-color:#FEFCDB"/>
			<stop  offset="1" style="stop-color:#FFFFFF"/>
		</linearGradient>
		<polygon class="st13" points="1642.1,1470.2 2275.7,2265.4 3280.8,1763.1 2748.1,784.9 		"/>
		<g>
			<path class="st3" d="M2733.9,1322.2c25.5-111.6-16.3-192.7-240.8-134c0,0-199.7-193.3-461.9,0c0,0-268.5-127.6-355.9,6.7
				c-58.7,90.3,3,269.2,188,387.4c170,30.4,359.1,32.5,540.9,4.2c35.1-5.5,67.1-12.6,96.2-21.1
				C2616.2,1531.7,2707,1439.8,2733.9,1322.2z"/>
		</g>
		<g>
			<path class="st2" d="M2184.2,1961.3c-52.6-114.2-367.5-99.1-367.5-99.1l-245.4-239.9c0,0-257.5,531.3,299.2,482.3
				c0,0,73.4,28.1,98.8,61.6c25.4,33.5,77.1,10.9,82.5-28.1c0,0,59.8,23.6,81.6-30.8C2133.4,2107.2,2236.8,2075.5,2184.2,1961.3z"/>
		</g>
		<g class="st6">
			<g>
				<path class="st7" d="M2184.2,1961.3c-37.2-80.7-205.3-96.9-300.8-99.4c-0.8,3.1-1.7,6.1-2.6,9.2
					c90.5,10.8,226.7,39.3,261.1,113.8c27.2,59,12.7,95.9-7.6,117.9c0.6,1.2,1.1,2.4,1.7,3.6
					C2151.5,2100.5,2231.8,2064.7,2184.2,1961.3z"/>
			</g>
		</g>
		<g>
			<path d="M1901.6,1667.5c-14.6,44.9-23,92.7-23.3,139.8c-0.2,15.5,1.3,30.8,3.2,45.7c1.8,11.2-6.1,21.8-17.4,23.2
				c-12.2,1.7-23.3-8.4-22.8-20.7c0.6-17.3,1.8-34.4,4.8-51c5.5-33,15-64.9,27.2-95.8c6.1-15.3,12.7-30.2,20.5-44.8
				C1896.3,1659.3,1903.5,1662.5,1901.6,1667.5L1901.6,1667.5z"/>
		</g>
		<g>
			<path d="M2102.2,2018.4c4.8,1.7,8.2,3.5,12,5.7c3.6,2.3,7.1,4.7,10.3,7.6c6.4,5.7,12,12.5,16.5,19.9c4.4,7.5,7.9,15.5,10.5,23.8
				c1.4,4.1,2.1,8.3,3.2,12.6c0.7,4.2,1.3,8.4,2,12.7c1.7,11.1-6,21.5-17.2,23.1s-21.5-6-23.1-17.2c-0.3-1.9-0.3-3.9,0-5.7l0.1-0.9
				l1.3-9.4c0.1-3.1,0.5-6.3,0.4-9.4c0-6.2-0.7-12.4-2.2-18.4c-1.6-5.9-3.9-11.8-7.3-17.2c-1.6-2.8-3.6-5.2-5.7-7.7
				c-2-2.3-4.7-4.7-6.6-6.2l-1.2-0.9c-3.1-2.5-3.7-7.1-1.1-10.2C2096,2018.3,2099.3,2017.5,2102.2,2018.4z"/>
		</g>
		<g>
			<path d="M2017.6,2056.1c4.8,1.7,8.2,3.5,12,5.7c3.6,2.3,7.1,4.7,10.3,7.6c6.4,5.7,12,12.5,16.5,19.9c4.4,7.5,7.9,15.5,10.5,23.8
				c1.4,4.1,2.1,8.3,3.2,12.6c0.7,4.2,1.3,8.4,2,12.7c1.7,11.1-6,21.5-17.2,23.1c-11.1,1.7-21.5-6-23.1-17.2c-0.3-1.9-0.3-3.9,0-5.7
				l0.1-0.9l1.3-9.4c0.1-3.1,0.5-6.3,0.4-9.4c0-6.2-0.7-12.4-2.2-18.4c-1.6-5.9-3.9-11.8-7.3-17.2c-1.6-2.8-3.6-5.2-5.7-7.7
				c-2-2.3-4.7-4.7-6.6-6.2l-1.2-0.9c-3.1-2.5-3.7-7.1-1.1-10.2C2011.4,2055.9,2014.7,2055.1,2017.6,2056.1z"/>
		</g>
		<g>
			<path d="M1578.9,1625.9c-32.4,84.5-56.2,177.4-47.7,268.2c17.3,180.1,188.5,200.6,337.6,190.4c3.1-0.3,6.2,0.1,8.9,1.3
				c9.8,3.8,18.5,7.7,27.5,12c29.4,14.6,58.5,29.8,80,56.1c10.1,13.8,29.5,8.8,39.6-3.3c3.9-4.6,6.3-9.9,7.1-15.3
				c1.6-12.7,15.4-20.7,27.3-15.9c22,7.5,46.6,4.8,55.6-19.6c0,0,12.8-11.8,12.8-11.8c16.8-7,33.1-19.7,41.7-35.6
				c13.6-23.9,5.8-57.5-6.5-82.4c-46.4-83.8-256.2-85.2-345.7-98.5c-10.6-1.2-11.2-16.8-0.7-18.8c36.1-6.8,72.7-8.8,109.3-8.4
				c86.3,2.3,235.5,18.8,278.8,105.6c35.9,72.7,16.3,149.6-65,176.5c0,0,12.8-11.8,12.8-11.8c-13.2,33.1-42.5,50.9-77.7,48.3
				c-10.7-0.8-19.8-2.5-29.9-6.2c0,0,27.3-15.9,27.3-15.9c-5.8,48.4-67.7,81.3-107.7,48.4c-2.5-1.6-5.5-5-7.5-7.2
				c-23-28.3-60.1-44.7-93.2-58.7c0,0,8.9,1.3,8.9,1.3c-126.3,14.5-290.6-0.4-353.1-129.6c-42.9-91.8-24.2-196.8,6.7-288.5
				c10.8-30.2,22.7-59.5,37.8-87.9C1569.1,1609.2,1583,1615.9,1578.9,1625.9L1578.9,1625.9z"/>
		</g>
		<g>
			<path class="st14" d="M2974.8,2439.6l-1238.5-115.1c-19.7-1.8-34.1-19.3-32.3-38.9l3.4-37.1c1.8-19.7,19.3-34.1,38.9-32.3
				l1238.5,115.1c19.7,1.8,34.1,19.3,32.3,38.9l-3.4,37.1C3011.9,2426.9,2994.5,2441.4,2974.8,2439.6z"/>
		</g>
		<g class="st4">
			<path class="st5" d="M3017.1,2370.2l-3.4,37.1c-1.8,19.6-19.2,34.1-38.9,32.3l-1238.5-115.1c-19.7-1.9-34.1-19.3-32.3-39l0.7-7.8
				l451.9,42c19.7,1.8,37.1-12.6,38.9-32.3l2.7-29.3l786.7,73.1C3004.5,2333.1,3019,2350.5,3017.1,2370.2z"/>
		</g>
		<g>
			<path d="M2978.2,2459.8c-1.7,0-3.5-0.1-5.3-0.2l0,0l-1238.5-115.1c-14.9-1.4-28.3-8.5-37.8-20c-9.5-11.5-14-26-12.6-40.9
				l3.4-37.1c2.9-30.7,30.1-53.3,60.8-50.5l1238.5,115.1c14.9,1.4,28.3,8.5,37.8,20s14,26,12.6,40.9l-3.4,37.1
				c-1.4,14.9-8.5,28.3-20,37.8C3003.7,2455.4,2991.2,2459.8,2978.2,2459.8z M2976.6,2419.5c4.2,0.4,8.2-0.9,11.5-3.5
				c3.2-2.7,5.2-6.4,5.6-10.6l3.4-37.1c0.4-4.2-0.9-8.2-3.5-11.5s-6.4-5.2-10.6-5.6l-1238.5-115.1c-8.7-0.8-16.3,5.5-17.1,14.2
				l-3.4,37.1c-0.4,4.2,0.9,8.2,3.5,11.5c2.7,3.2,6.4,5.2,10.6,5.6L2976.6,2419.5z"/>
		</g>
		<g>
			<path d="M2208.8,2382.3c-1.5,0-3.1-0.1-4.7-0.2l-469.2-43.6c-13.3-1.2-25.3-7.6-33.8-17.8c-8.5-10.3-12.5-23.2-11.3-36.5
				l3.4-37.1c2.5-27.4,26.8-47.6,54.3-45.1l469.2,43.6c13.3,1.2,25.3,7.6,33.8,17.8s12.5,23.2,11.3,36.5l-3.4,37.1
				C2256,2362.9,2234.2,2382.3,2208.8,2382.3z M1743,2230.1c-11.1,0-20.5,8.4-21.6,19.7l-3.4,37.1c-0.5,5.8,1.2,11.4,4.9,15.9
				c3.7,4.5,8.9,7.2,14.7,7.7l469.2,43.6c0,0,0,0,0,0c11.9,1.1,22.5-7.7,23.6-19.6l3.4-37.1c0.5-5.8-1.2-11.4-4.9-15.9
				c-3.7-4.5-8.9-7.2-14.7-7.7l-469.2-43.6C1744.4,2230.2,1743.7,2230.1,1743,2230.1z"/>
		</g>
		<g>
			<path class="st14" d="M3323.1,1837l-177.9,529.1c-5.9,17.4-22.9,28.6-41.3,26.9l-769.9-71.5c-10.2-0.9-19.6-5.8-26.3-13.5
				l-22.4-25.8c-9.2-10.6-12.1-25.3-7.6-38.6l177.9-529c5.9-17.4,22.9-28.6,41.3-26.9l769.9,71.5c10.2,0.9,19.6,5.8,26.3,13.5
				l22.4,25.8C3324.7,1809,3327.6,1823.7,3323.1,1837z"/>
		</g>
		<g class="st4">
			<path class="st5" d="M3148.2,2357l-3,9c-5.9,17.5-22.9,28.6-41.2,26.9l-769.9-71.6c-10.2-1-19.6-5.8-26.3-13.5l-22.4-25.8
				c-9.2-10.6-12.1-25.3-7.6-38.6l177.9-529c5.9-17.4,22.9-28.5,41.2-26.9l769.9,71.5c10.2,1,19.6,5.8,26.3,13.5l22.4,25.8
				c4.9,5.6,8,12.4,9.1,19.6l-664.7-66c-57.3-5.7-107.7,37.7-110.6,95.2C2541.1,2014.8,2600.1,2327.9,3148.2,2357z"/>
		</g>
		<g>
			
				<ellipse transform="matrix(0.7332 -0.68 0.68 0.7332 -617.0756 2494.4976)" class="st7" cx="2870.3" cy="2033.6" rx="71.4" ry="61.4"/>
		</g>
		<g>
			<path d="M2513.3,1753.7c-3.9,0-7.9-1.6-10.7-4.9l-40.4-46.6c-5.1-5.9-4.5-14.8,1.4-19.9c5.9-5.1,14.8-4.5,19.9,1.4l40.4,46.6
				c5.1,5.9,4.5,14.8-1.4,19.9C2519.9,1752.6,2516.6,1753.7,2513.3,1753.7z"/>
		</g>
		<g>
			<path d="M2318.2,2334c-1.5,0-3-0.2-4.5-0.7c-7.4-2.5-11.4-10.5-8.9-17.9l184.8-549.6c8.2-24.3,31.7-39.5,57.2-37.2l784.8,72.9
				c7.8,0.7,13.5,7.6,12.7,15.3c-0.7,7.8-7.5,13.5-15.3,12.7l-784.8-72.9c-12.4-1.2-23.9,6.3-27.8,18.1l-184.8,549.6
				C2329.6,2330.3,2324.1,2334,2318.2,2334z"/>
		</g>
		<g>
			<path d="M3107.7,2413.2c-1.9,0-3.8-0.1-5.6-0.3l-769.9-71.5c-15.4-1.4-29.5-8.7-39.6-20.4l-22.4-25.8
				c-13.8-15.9-18.2-38.2-11.5-58.2l177.9-529c8.9-26.4,34.5-43,62.2-40.5l769.9,71.5c15.4,1.4,29.5,8.7,39.6,20.4l22.4,25.8
				c13.8,15.9,18.2,38.2,11.5,58.2l-177.9,529.1C3156,2397.1,3133.2,2413.2,3107.7,2413.2z M2493.2,1707.5
				c-8.3,0-15.8,5.3-18.5,13.3l-177.9,529c-2.2,6.5-0.8,13.8,3.8,19l22.4,25.8c3.3,3.8,7.9,6.2,13,6.7l769.9,71.5
				c9.1,0.8,17.4-4.6,20.3-13.2l177.9-529.1l0,0c2.2-6.5,0.8-13.8-3.8-19l-22.4-25.8c-3.3-3.8-7.9-6.2-13-6.7l-769.9-71.5
				C2494.4,1707.5,2493.8,1707.5,2493.2,1707.5z"/>
		</g>
		<g>
			<path class="st2" d="M2599.3,2515.4c-19.3,31.8-42.5,62.3-69.2,89.4c-114.2,116.1-292.4,171.2-505.4,6.9l82.1-55.6l157.3-106.4
				c0,0,106.4-287.7,328.8-258.7C2694.9,2204.2,2685.9,2373,2599.3,2515.4z"/>
		</g>
		<g>
			<path class="st2" d="M2997.8,2227.9c-215.2-39-305.6,240.5-305.6,240.5l-282.8,220.8C2949.1,2910.4,3203,2265,2997.8,2227.9z"/>
		</g>
		<g class="st4">
			<polygon class="st5" points="2643,2405.3 2643,2446.3 2692.2,2468.3 2716.3,2411.4 			"/>
		</g>
		<g>
			<g>
				
					<ellipse transform="matrix(0.5073 -0.8618 0.8618 0.5073 -963.6678 3364.8318)" class="st15" cx="2460.8" cy="2525.2" rx="92.9" ry="43.9"/>
			</g>
			<g>
				
					<ellipse transform="matrix(0.5073 -0.8618 0.8618 0.5073 -748.7742 3360.896)" class="st15" cx="2564.8" cy="2335.3" rx="50.3" ry="23.8"/>
			</g>
			<g>
				
					<ellipse transform="matrix(0.5073 -0.8618 0.8618 0.5073 -786.2612 3447.6404)" class="st15" cx="2621.9" cy="2411.4" rx="50.3" ry="23.8"/>
			</g>
			<g>
				
					<ellipse transform="matrix(0.5073 -0.8618 0.8618 0.5073 -823.4581 3277.6572)" class="st15" cx="2454.7" cy="2359" rx="50.3" ry="23.8"/>
			</g>
		</g>
		<g>
			<g>
				
					<ellipse transform="matrix(0.5073 -0.8618 0.8618 0.5073 -771.916 3705.1216)" class="st15" cx="2854.3" cy="2527.6" rx="92.9" ry="43.9"/>
			</g>
			<g>
				
					<ellipse transform="matrix(0.5073 -0.8618 0.8618 0.5073 -557.0226 3701.1853)" class="st15" cx="2958.3" cy="2337.7" rx="50.3" ry="23.8"/>
			</g>
			<g>
				
					<ellipse transform="matrix(0.5073 -0.8618 0.8618 0.5073 -594.5118 3787.9238)" class="st15" cx="3015.4" cy="2413.9" rx="50.3" ry="23.8"/>
			</g>
			<g>
				
					<ellipse transform="matrix(0.5073 -0.8618 0.8618 0.5073 -631.7048 3617.9519)" class="st15" cx="2848.2" cy="2361.4" rx="50.3" ry="23.8"/>
			</g>
		</g>
		<g>
			<g>
				<path d="M1413.5,2624.9c-410.4,0-615.9-30.3-707.1-50.3c-18.8-4.1-32.2-19.9-33.3-39.1c-1.1-19.3,10.5-36.4,28.8-42.6
					c397.6-135.4,583.2-313.7,614.7-346.3c7.4-319.4,239.3-647.3,249.3-661.2c6.5-9,19-11.1,28.1-4.7c9,6.5,11.1,19,4.7,28.1
					c-2.4,3.3-238.4,337.1-241.9,646.1c-0.1,4.8-1.8,9.4-5,13.1c-7.5,8.5-188.7,210.3-636.8,362.9c-0.7,0.2-1.7,0.6-1.6,2.3
					c0.1,1.7,1,1.9,1.8,2.1c104.6,23,363.5,59.7,921.5,46.6c0.2,0,0.3,0,0.5,0c10.9,0,19.8,8.7,20.1,19.6
					c0.3,11.1-8.5,20.3-19.6,20.6C1556.8,2624,1482.2,2624.9,1413.5,2624.9z"/>
			</g>
			<g>
				<path d="M2256.2,2446.8c43.7-126.8,138.8-262,282.2-277.5c16.2-1.8,34.7-1.8,50.9-0.1c9.1,0.6,19.1,2.5,27.8,5.6
					c57.1,19,74.6,86,71.8,139.2c-3.6,82.6-35.9,161.4-80.3,230.2c-53.7,82.3-133,152.2-228.9,180
					c-129.1,40.1-267.7-15.4-367.5-96.5c0,0,17.5,3.5,17.5,3.5c-17,4.3-32.9,7.3-49.9,10.2c-82.5,13.5-167.9,16.2-250.7,3.4
					c0,0-25-4.2-25-4.2l-24.8-5.6l-12.4-2.8l-12.2-3.6l-24.4-7.3c-10.6-3.2-16.7-14.4-13.5-25c3.2-10.6,14.4-16.7,25-13.5l1.3,0.4
					l22.6,6.8l11.3,3.4l11.5,2.6c30,7.4,63.1,12.2,93.7,14.7c78.9,5.8,159.8,0,236.8-18.3c6.3-1.6,12.7-0.1,17.5,3.5
					c93.5,70.8,214.3,119.8,330,84.2c141-43.5,241.3-183.9,271.9-324.6c7.4-40.5,10.9-85.1-10.4-119.6c-8.2-12-19.8-20-33.9-22.5
					c-13.4-2.6-27.9-3-41.5-3.1c-69.9,1.9-132.5,40.8-179.6,91.4c-20.8,21.7-39.3,45.9-56.3,71.3c-16.8,25.4-32.4,52.3-45.3,79.8
					C2267.5,2462.1,2253.2,2456.7,2256.2,2446.8L2256.2,2446.8z"/>
			</g>
		</g>
		<g>
			<path d="M2685.7,2466.2c41.6-147.2,157.9-295.3,327.5-257c83.5,23.9,87.5,127.9,69.1,196.8c-39.9,153.4-162.2,282.9-313.3,331
				c-60.5,19.3-125,24.9-187.4,18.6c-62.6-6.2-123.1-23.5-179.8-47.8c-10.2-4.4-14.9-16.2-10.6-26.4c4.3-9.9,15.6-14.7,25.6-10.9
				c54.6,20.9,111.3,36,168.7,40.4c28.6,2.3,57.3,1.8,85.7-1.3c170.7-16.8,320.9-150,366.1-314.8c12.6-48.6,19.6-129.4-40.5-144.8
				c-4.7-1.3-14.4-2.4-19.6-3.3c-56.5-6.5-108.8,12-152.5,47.7c-56.2,46-96.5,110.2-126,176.2
				C2695.7,2478.2,2683.5,2474.5,2685.7,2466.2L2685.7,2466.2z"/>
		</g>
		<g>
			<path d="M2236.8,1612.8c-283.5,0-680.6-25.9-854.6-249.4c-87-111.7-107.6-261.4-61.2-445c75.6-299.3,177.8-485.5,321.5-585.9
				c128.7-89.9,295.2-118.6,556.4-95.7c190.5,16.7,344.7,138.9,446.1,353.4c69,146,91.3,285.8,95.2,313.9
				c98.3,146.9,113.6,301,43,434.3c-43.3,81.8-116.7,150.7-212.3,199.2C2474.1,1586.8,2358.6,1612.8,2236.8,1612.8z M2041.3,269.5
				c-165.5,0-282.2,30.6-375.8,96c-135.3,94.6-232.4,273.4-305.6,562.8c-43.2,170.9-25,309,53.9,410.5
				c70.2,90.2,191,155,359.1,192.5c124.4,27.8,276.1,41.3,463.9,41.3c229,0,429.5-99.3,510.9-253c63.9-120.7,48.5-261.7-43.4-396.9
				c-1.8-2.6-2.9-5.7-3.3-8.8c-0.2-1.5-19.7-153.3-92.7-307.4c-96.3-203.2-235.2-314.1-412.8-329.6
				C2139.7,272,2088.5,269.5,2041.3,269.5z"/>
		</g>
		<g>
			<ellipse class="st5" cx="1918.2" cy="960.8" rx="113" ry="140.1"/>
		</g>
		<g>
			<ellipse class="st7" cx="1958.2" cy="923.3" rx="36.5" ry="45.3"/>
		</g>
		<g class="st4">
			
				<ellipse transform="matrix(0.9475 -0.3198 0.3198 0.9475 -233.2034 654.2831)" class="st7" cx="1875.5" cy="1037.2" rx="17.9" ry="22.2"/>
		</g>
		<g>
			<ellipse class="st5" cx="2547.4" cy="960.8" rx="113" ry="140.1"/>
		</g>
		<g>
			<ellipse class="st7" cx="2587.3" cy="923.3" rx="36.5" ry="45.3"/>
		</g>
		<g class="st4">
			<path class="st7" d="M2521.6,1031.4c3.9,11.6-0.5,23.6-9.9,26.8c-9.4,3.2-20.2-3.7-24.1-15.3c-3.9-11.6,0.5-23.6,9.9-26.8
				C2506.9,1012.9,2517.7,1019.8,2521.6,1031.4z"/>
		</g>
		<g>
			<path class="st5" d="M2387.3,1177.1c0,33-72.1,64.8-106.5,64.8c-39.9,0-106.5-31.8-106.5-64.8c0-33,47.7-42.6,106.5-42.6
				S2387.3,1144,2387.3,1177.1z"/>
		</g>
		<g class="st4">
			<ellipse class="st7" cx="2282.1" cy="1158" rx="68.8" ry="12.1"/>
		</g>
		<g>
			<path d="M2092.5,1242.9c27.9,45.4,75.3,80,130.3,67.2c16.9-3.3,33.8-9.6,50.2-17.6c6.5-4.1,15.2-4,20.6,1.4
				c10.4,5.7,21.7,11,32.9,14.7c36.6,13.7,72,6,103.1-17.8c5.4-4,12.9,2.3,10,8.3c-30.3,65.7-116.1,66.8-168.9,27.8
				c0,0,20.6,1.4,20.6,1.4c-60.7,33.5-137,33.3-184.2-22.9c-14.1-16.7-24.5-35.3-30.5-56.3c-1.2-4.6,1.5-9.3,6.1-10.6
				C2086.6,1237.4,2090.6,1239.4,2092.5,1242.9L2092.5,1242.9z"/>
		</g>
		<g class="st4">
			<path class="st5" d="M2433.6,1279.4c-2.4-5.4-9.3-8-15.5-5.9l-1.3,0.4c-6.4,2.1-12,4.4-17.5,5.9c-5.4,1.7-10.6,2.7-15.5,3.6
				c-9.8,1.4-18.3,1.6-27.1,0.6c-8.7-1-17.7-3.2-26.9-6.1c-4.6-1.5-9.2-3.2-13.8-4.9l-6.8-2.7l-3.3-1.3l-1.5-0.6
				c-0.4-0.1-1.1-0.5-0.9-0.2l0,0l-25.5-4.4c-14.5,5.7-37.9,12.8-51.6,15.3c-13.7,2.7-26.7,3.1-39.5,0.9
				c-12.7-2.3-25.5-7.4-37.8-15.1c-6.2-3.8-12.2-8.4-18.1-13.3c-2.9-2.5-5.9-5-8.6-7.7c-1.4-1.3-2.8-2.7-4.2-4
				c-1.3-1.3-2.9-2.9-3.9-3.8l-2.8-2.4c-3.3-2.8-8.2-4.2-13.1-3.3c-7.8,1.4-12.8,8.1-11.2,14.8c0.7,2.8,1.1,4.8,1.8,7.1
				c0.7,2.2,1.4,4.4,2.2,6.6c1.7,4.3,3.5,8.5,5.8,12.7c4.4,8.3,10,16.2,16.7,23.8c13.4,14.9,32.3,27.9,54.7,35.2
				c11.1,3.8,22.9,6.2,34.7,7.1c11.8,1.1,23.6,0.7,34.8-0.8c15.6-2,30.3-5.7,43.9-10.7c1.6,0.7,3.2,1.4,4.7,2.1
				c7.3,3.1,14.9,5.5,22.8,7.4c15.8,3.7,33.2,5.2,50.6,3c8.7-1.1,17.4-3,25.5-6c8.1-3.1,15.8-6.9,22.3-11.8
				c6.5-4.8,12.2-10.2,16.5-16.2c4.5-5.8,7.7-12.1,9.7-18.7C2434.7,1283.8,2434.6,1281.5,2433.6,1279.4z"/>
		</g>
		<g>
			<path d="M2282.1,1330.4c-4.4,0-8.8-1.4-12.5-4.4c-8.7-6.9-10.1-19.6-3.1-28.3c10.6-13.2,7.2-53.2,1.6-76
				c-2.6-10.8,4-21.7,14.7-24.3c10.8-2.7,21.7,3.9,24.3,14.7c3.1,12.7,17.3,77.5-9.3,110.8C2293.9,1327.9,2288,1330.4,2282.1,1330.4
				z"/>
		</g>
		<g>
			<path class="st16" d="M2434.4,1627.4"/>
		</g>
		<g class="st4">
			<path class="st5" d="M2599.3,2515.4c-19.3,31.8-42.5,62.3-69.2,89.4c-114.2,116.1-292.4,171.2-505.4,6.9
				c0,0-72.1,22.7-178.8,22.3c-55.5-0.2-120.3-6.6-189.1-25.7c0,0-878.3,14.3-963.2-71.5c0,0,15-6.1,40.7-17.3
				c84.2,15.7,203,21.5,364.5-3.4c350.5-54.2,187.7-68.5,200.4-324.5c1.7-35.3,6.9-75.2,17.1-120.5c0,0,0.2,37,14.6,89.8
				c1.1,4.1,2.3,8.3,3.7,12.6c43.9,145,193.8,387.9,705.5,342.6c0,0,24.4,19.2,66.7,40c52.9,26,133.9,54.4,230.5,50.9
				C2416.4,2604.1,2506,2579.9,2599.3,2515.4z"/>
		</g>
		<g class="st4">
			<path class="st5" d="M2260.9,2451.7c0,0-125.2-60.3-335.4-77.1c-204.8-16.3-238.7,0-238.7,0s3.8-34.6,46.9-50.6l571.3,53.2
				L2260.9,2451.7z"/>
		</g>
		<g class="st4">
			<path class="st5" d="M1545.4,1687.3c0,0-263.5,538.6,315.5,495.1c0,0,81.2,66.2,147,52.6c65.7-13.6,80.2-39,80.2-39
				s67.1,14.3,80.7-41.4c0,0,80.6-52,30.3-133.6c0,0-3.1,70.7-64.8,64.4c0,0-21.8,30.9-90.7,20.9c0,0-23.5,43.5-67.8,7.2
				c-44.3-36.3-103.6-48.4-103.6-48.4S1464.4,2124.1,1545.4,1687.3z"/>
		</g>
		<g class="st4">
			<path class="st5" d="M2092.7,1418.3c-759.4-40-752-505.1-752-505.1c-153.9,574.9,469.5,638.4,905.9,638.4
				c234.2,0,428.3-91.2,519.6-227.8C2623.3,1389.4,2410.1,1435,2092.7,1418.3z"/>
		</g>
		<g>
			<g>
				<path class="st17" d="M1498.4,1108.4c104.5-8.7,214.2,21.2,293.2,91.7c9.4,8.4-3.2,22.4-12.6,13.8c-5-4.2-16.9-14.1-21.6-18.1
					c-4.9-3.6-17.9-12.6-23-16.3c-7.7-4.8-16.5-9.8-24.3-14.4c-19.6-10-39.9-19.1-60.9-25.9c-35.8-12.2-74.1-19.3-111.9-21.6
					c-12.7-0.9-25.7-1.1-38.3-0.5C1493.6,1117.3,1492.8,1109,1498.4,1108.4L1498.4,1108.4z"/>
			</g>
			<g>
				<path class="st17" d="M1492.9,1380.7c56.8-54.3,129.1-93.3,206.5-107.7c25.9-5.5,52.6-6,79.1-5.4c5.1,0.1,9.2,4.4,9.1,9.5
					c-0.1,5.4-4.8,9.5-10.2,9.1c-6.5-0.1-22-0.3-28.2-0.4c-6.1,0.3-21.8,1.4-28.2,1.8c-9,1.1-19,2.8-28,4.1
					c-21.6,4.6-43,10.2-63.6,18.2c-29.5,10.8-58.4,25.6-84.8,42.8c-15.8,10.5-31.6,21.7-45.7,34.3
					C1495,1390.7,1488.9,1384.8,1492.9,1380.7L1492.9,1380.7z"/>
			</g>
			<g>
				<path class="st17" d="M1655.9,1592.2c10.3-79.8,66.6-151.1,147.4-167.1c12.1-2.3,15.9,15.4,3.9,18.2
					c-74.8,14-127.7,77.2-142.7,149.9C1663.7,1598.8,1655.3,1597.9,1655.9,1592.2L1655.9,1592.2z"/>
			</g>
		</g>
		<g>
			<g>
				<path class="st17" d="M3002.8,1188.5c-86.1-18.1-179.8-11.4-259.6,27c-10,4.2-23.4,12.7-33.1,17.9c-10.7,6.7-20.7-9.1-9.9-15.8
					c67.8-41.6,149-56.9,227.7-50.7c26.1,2,51.8,6.1,77.3,13.4c2.3,0.7,3.6,3.1,3,5.4C3007.5,1187.8,3005.1,1189.1,3002.8,1188.5
					L3002.8,1188.5z"/>
			</g>
			<g>
				<path class="st17" d="M2879.8,1490.5c-13.9-63.4-57.9-121.1-118.6-145.8c-19.9-8.1-41.1-13.3-62.6-16
					c-12.1-1.8-10-19.7,2.3-18.5c70.5,7.8,134.7,49.3,166.1,113.5c10.5,20.7,18,42.4,21.4,65.5c0.4,2.4-1.3,4.6-3.6,4.9
					C2882.4,1494.5,2880.2,1492.8,2879.8,1490.5L2879.8,1490.5z"/>
			</g>
			<g>
				<path class="st17" d="M2754.4,1627.2c-1.6-74.2-42.3-145.9-113.3-173.2c-11.3-4.9-4.5-21.7,7.1-17.2
					c76.6,30.3,119.2,110.5,114.9,190.9C2762.6,1633.2,2754.2,1632.9,2754.4,1627.2L2754.4,1627.2z"/>
			</g>
		</g>
		<g class="st4">
			<path class="st5" d="M2556.7,2574.1l-147.4,115.1c364.9,149.6,599.1-96.9,649.1-283.8C2965,2533.9,2792.1,2638.1,2556.7,2574.1z"
				/>
		</g>
	</g>
</g>
</svg>
