<?xml version="1.0" encoding="utf-8"?>
<!-- Generator: Adobe Illustrator 22.1.0, SVG Export Plug-In . SVG Version: 6.00 Build 0)  -->
<svg version="1.1" id="Layer_1" xmlns="http://www.w3.org/2000/svg" xmlns:xlink="http://www.w3.org/1999/xlink" x="0px" y="0px"
	 viewBox="0 0 4000 3617" style="enable-background:new 0 0 4000 3617;" xml:space="preserve">
<style type="text/css">
	.st0{opacity:0.15;}
	.st1{fill:#636363;}
	.st2{fill:#FFFFFF;}
	.st3{fill:#777782;}
	.st4{opacity:0.3;}
	.st5{fill:#FF999E;}
	.st6{fill:#F9D3B7;}
	.st7{fill:#FF8080;}
	.st8{fill:#FF5C64;}
	.st9{fill:#FFABAB;}
	.st10{opacity:0.35;}
</style>
<g>
	<g>
		<g class="st0">
			<ellipse class="st1" cx="2053.5" cy="3264.1" rx="957.6" ry="184.6"/>
		</g>
		<g>
			<g>
				<path class="st2" d="M1625.1,3009.7c0,0-21.2-125.1-90.9-136.3c-28.7-4.7-50.8,16.6-50.8,16.6s-68.9-135.1-175.3-117.5
					c-89.8,14.8-115.5,264.4,73.4,334.8c0,0-22.1,65.8,80.6,83.3c88.8,15.1,164.5-41.4,164.5-41.4L1625.1,3009.7z"/>
			</g>
			<g>
				<path class="st2" d="M1381.5,3107.4c0,0-22.1,65.8,80.6,83.3c88.8,15.1,164.5-41.4,164.5-41.4l-1.5-139.6c0,0-5.2-30.7-18.9-63
					c-14-33-36.8-67.7-72-73.4c-28.7-4.6-50.8,16.6-50.8,16.6s-68.9-135-175.3-117.4c-18.1,3-33.6,15.5-45.2,34.2l0,0.1
					C1216.7,2880.7,1230.8,3051.2,1381.5,3107.4z"/>
			</g>
			<g class="st0">
				<path d="M1381.5,3107.4c0,0-22.1,65.8,80.6,83.3c88.8,15.1,164.5-41.4,164.5-41.4l-1.5-139.6c0,0-5.2-30.7-18.9-63
					c-20.4,15.7-44.6,48-61.6,113.9c-20.3,78.4-70.5,61.1-56.1,18.9c0,0-235.5-54.7-225.6-272.8
					C1216.7,2880.7,1230.8,3051.2,1381.5,3107.4z"/>
			</g>
			<g>
				<path d="M1493.2,3208.4c-10.9,0-22.1-0.9-33.6-2.8c-42.1-7.2-70.8-23.1-85.3-47.3c-9.2-15.4-10.4-30.7-9.6-41.4
					c-107.5-46.2-147.5-152.5-139.1-239.9c6.3-65.5,37.8-112.4,80.2-119.4c94.6-15.6,160,73.7,182.6,110.4
					c11.5-6.5,28.5-12.8,48.3-9.6c79.5,12.9,102.5,143.2,103.4,148.8c1.4,8.2-4.2,16.1-12.4,17.5c-8.2,1.4-16.1-4.2-17.5-12.4
					c-5.4-31.8-30.1-116.1-78.4-123.9c-20.6-3.3-37.7,12.5-37.9,12.6c-3.5,3.3-8.3,4.8-13,3.9c-4.7-0.8-8.8-3.8-10.9-8
					c-0.6-1.2-65.2-125-159.3-109.4c-27.5,4.6-50.1,42.5-55,92.4c-7.1,73.2,23,173,131.1,213.3c7.7,2.9,11.7,11.3,9.1,19
					c-0.1,0.5-4.7,15.7,4.6,30.9c9.7,15.8,31.9,27.1,64.2,32.6c81.1,13.8,152.2-38.1,152.9-38.6c6.7-5,16.2-3.6,21.2,3.1
					c5,6.7,3.6,16.2-3.1,21.2C1632.8,3163.6,1571.8,3208.4,1493.2,3208.4z"/>
			</g>
			<g>
				<path d="M1488.5,3079.5c-24.7,33.6-69.6,46.1-110,42.7c-20.2-1.2-19.2-30.8,1.1-30.6c6.1,0.6,11.6,3.4,17.6,4.8
					c6,1.5,13.5,2.8,19.6,3.4C1442.1,3101.9,1468.4,3095.7,1488.5,3079.5L1488.5,3079.5z"/>
			</g>
			<g>
				<path d="M1493.7,2959.3c-5.6-22.8-14.2-44.8-24.9-65.4c-4-7.6-1-17,6.6-20.9c9.8-5.4,22.5,2.1,22.7,13.2
					C1499.4,2910.8,1498.2,2935.3,1493.7,2959.3L1493.7,2959.3z"/>
			</g>
		</g>
		<g>
			<path class="st3" d="M2577.1,3247.5c-33.8,4-154.1-18.9-185-20.4c-45.8-2.3-134.3,5.2-230,21.3c0,0,107.9-371.2,107.6-414.2
				c178.9-42.9,352.3,74,352.3,74S2623.6,3241.9,2577.1,3247.5z"/>
		</g>
		<g>
			<path class="st2" d="M2615.8,3092.4c-5.8,78.3-17,152.5-38.7,155c-33.8,4-154.1-18.9-185-20.4c-45.8-2.3-134.3,5.2-230,21.3
				c0,0,107.9-371.2,107.6-414.2c31.4-7.5,62.7-10.2,92.8-9.3c141.7,3.8,259.5,83.4,259.5,83.4S2622.4,3003.1,2615.8,3092.4z"/>
		</g>
		<g class="st0">
			<path d="M2615.8,3092.4c-5.8,78.3-17,152.5-38.7,155c-33.8,4-154.1-18.9-185-20.4c-45.8-2.3-134.3,5.2-230,21.3
				c0,0,107.9-371.2,107.6-414.2c31.4-7.5,62.7-10.2,92.8-9.3c7,40.4,17.9,111.9,25.6,203.1c7.4,87.7,95.8,44.5,107.3-12.9
				c12-59.4,41.7-76.7,41.7-76.7S2577.8,3016.2,2615.8,3092.4z"/>
		</g>
		<g>
			<path d="M2162.1,3263.6c-4.3,0-8.4-1.8-11.3-5.1c-3.5-3.9-4.7-9.3-3.2-14.3c43.1-148.4,107.2-380,107-409.8
				c0-7,4.8-13.2,11.6-14.8c183.3-44,357,71.3,364.3,76.2c4.2,2.8,6.7,7.5,6.7,12.5c0,0.8,0.3,84.9-5.1,168.6
				c-10.3,158.9-31.6,183.1-53.2,185.7l0,0c-23.4,2.8-78.7-5.4-127.5-12.5c-25.4-3.7-49.4-7.3-60-7.8c-47.7-2.3-136.6,6-226.7,21.2
				C2163.8,3263.5,2163,3263.6,2162.1,3263.6z M2374.3,3211.5c6.7,0,12.9,0.1,18.6,0.4c12.1,0.6,35.7,4.1,63,8.1
				c41.4,6.1,97.9,14.4,118.3,12.5c3.6-3.4,20-26.5,28.4-167.5c3.8-64,4.4-126.5,4.4-148.4c-32.2-19.7-175.8-100-323.2-70
				c-9.8,66-77.3,303-100.4,383C2256.6,3218.2,2327.3,3211.5,2374.3,3211.5z"/>
		</g>
		<g>
			<path class="st3" d="M2491.4,3171.6c17,42.3,45.7,82.5,118.1,75c105.5-10.8,198.6-183.8,174.2-317.5
				c-18.1-99.2-131.7-121.2-206-62.8c-35.1,27.5-68.3,91.7-86.3,176.4V3171.6z"/>
		</g>
		<g>
			<path class="st2" d="M2753,3119.1c-33.2,68.6-86.5,121.7-143.4,127.5c-72.5,7.4-101.1-32.7-118.1-75v-128.9
				c0.9-4.4,1.9-8.7,2.9-13l0,0c18.4-78.3,50.1-137.3,83.3-163.4c74.4-58.4,187.9-36.4,206,62.8
				C2795,2990.6,2781.3,3060.5,2753,3119.1z"/>
		</g>
		<g class="st4">
			<path class="st2" d="M2787.2,2989.7c-0.5-10.1-1.7-20.1-3.5-29.9c-18.1-99.2-131.7-121.2-206-62.8
				c-33.2,26.1-67.8,67.4-86.3,145.7c0.9-4.4,1.9-8.7,2.9-13l0,0c18.4-78.3,50.1-137.3,83.3-163.4c74.4-58.4,187.9-36.4,206,62.8
				C2787.3,2948.6,2788.4,2969.1,2787.2,2989.7z"/>
		</g>
		<g class="st0">
			<path d="M2753,3119.1c-33.2,68.6-86.5,121.7-143.4,127.5c-72.5,7.4-101.1-32.7-118.1-75v-128.9c0.9-4.4,1.9-8.7,2.9-13l7.9-21.3
				c-6.2,32.5,32,187,129.9,191.8C2678.6,3202.5,2720.4,3164.5,2753,3119.1z"/>
		</g>
		<g>
			
				<ellipse transform="matrix(0.2844 -0.9587 0.9587 0.2844 -1070.2917 4758.6592)" class="st5" cx="2652.3" cy="3096.2" rx="100.3" ry="68.2"/>
		</g>
		<g>
			
				<ellipse transform="matrix(0.2844 -0.9587 0.9587 0.2844 -896.9099 4775.9272)" class="st5" cx="2750.6" cy="2988.7" rx="36.8" ry="25.1"/>
		</g>
		<g>
			
				<ellipse transform="matrix(0.2844 -0.9587 0.9587 0.2844 -968.2473 4634.0693)" class="st5" cx="2619.9" cy="2965.6" rx="36.8" ry="25.1"/>
		</g>
		<g>
			
				<ellipse transform="matrix(0.2844 -0.9587 0.9587 0.2844 -896.5591 4687.2319)" class="st5" cx="2691.4" cy="2944.2" rx="40.9" ry="27.8"/>
		</g>
		<g>
			<path d="M2491.4,3171.6c14.4,16.8,27.3,32.6,42.5,42.9c29.6,21,70.7,21.2,103.6,7c94.4-46.6,145.3-176.9,132.3-278.2
				c-8.2-84.9-96.9-114.3-166.7-75.1c-57.8,32.6-87.1,114-111.6,174.5c4.5-71.6,30.4-162.9,95.7-201.8c50-31,119.7-33,166.9,5.3
				c38.6,29.9,50,80.2,49.3,126.4c-0.6,101.1-55.7,235.5-152.1,280.2C2582,3281.9,2496.3,3255.6,2491.4,3171.6L2491.4,3171.6z"/>
		</g>
		<g>
			<path class="st2" d="M2368.4,2906.6c0.2-251.1-131.4-341.1-143.8-587.7c-6.1-121.7-360-179.5-484.5-9
				c-52.2,71.5-284,411.1-240.8,729c24.3,178.1,110,264.3,270.6,290.8c34,5.6,70.2-4.5,135.9-9.3c87.2-6.4,353.4-27.2,413.4-159.5
				c0,0,31.2-48.1,41.9-108.5C2373.4,2982.2,2368.4,2906.6,2368.4,2906.6z"/>
		</g>
		<g class="st0">
			<path d="M2360.8,2806c-60.4,8.8-164.2,61.6-333.6,36.1c-173.9-26.2-262.8-196.9-262.8-196.9l117.9-104.2
				c0,0,255.2,50.8,430.2,98.2C2332.6,2690.2,2351,2742.9,2360.8,2806z"/>
		</g>
		<g class="st0">
			<path d="M2368.4,2906.6c0-21.2-0.9-41.3-2.6-60.4c7.6,105.2-78.6,194.6-234.4,186.4c-127.6-6.7-270.2-165.3-379.4-167.9
				c-53.4-1.3-101.9,117.7-137.5,239.7c-5.6-1.8-10.4-2.5-14.3-1.8c-25.9,4.7-45,0-63.1-8.8c-15.9-7.8-28.5-31.3-38.4-60.2
				c0.2,1.7,0.4,3.5,0.7,5.2c11.8,86.7,38.2,151.7,80.7,198.5c3.8,4.2,7.7,8.1,11.8,12c0.9,0.9,1.8,1.7,2.8,2.6
				c7.2,6.7,14.7,13,22.6,18.8c1.6,1.2,3.3,2.4,4.9,3.5c1.4,1,2.9,2,4.4,3c0.6,0.4,1.1,0.8,1.7,1.1c1.5,1,2.9,1.9,4.4,2.8
				c0.8,0.5,1.5,0.9,2.3,1.4c2,1.2,4,2.5,6.1,3.7c0.9,0.5,1.7,1,2.6,1.5c1.4,0.8,2.7,1.5,4.1,2.2c1.1,0.6,2.2,1.2,3.3,1.8
				c1.3,0.7,2.7,1.4,4,2.1c1.6,0.8,3.3,1.6,4.9,2.4c0.7,0.3,1.4,0.7,2,1c1.6,0.8,3.2,1.5,4.9,2.3c1.6,0.7,3.3,1.5,4.9,2.2
				c0.8,0.3,1.6,0.7,2.4,1c1.7,0.7,3.3,1.4,5,2.1c2,0.8,3.9,1.6,6,2.4c2.8,1.1,5.6,2,8.4,3c1.4,0.5,2.8,1,4.2,1.5c0,0,0,0,0.1,0
				c0.6,0.2,1.3,0.4,1.9,0.6c1.9,0.6,3.7,1.2,5.6,1.9c2,0.6,4,1.3,6.1,1.9c0.4,0.1,0.8,0.2,1.2,0.3c2,0.6,4.1,1.2,6.2,1.8
				c2.3,0.7,4.6,1.3,7,1.9c1.2,0.3,2.3,0.6,3.5,0.9c1.5,0.4,3,0.8,4.5,1.1c0.7,0.2,1.5,0.3,2.2,0.5c4,0.9,8.1,1.8,12.2,2.7
				c1.6,0.3,3.1,0.7,4.7,1c5.6,1.1,11.3,2.2,17.1,3.1c1.9,0.3,3.9,0.6,5.8,0.8c0.6,0.1,1.1,0.1,1.7,0.2c1.4,0.1,2.8,0.3,4.2,0.3
				c0.7,0,1.3,0.1,2,0.1c1.6,0.1,3.3,0.1,4.9,0.2c0.9,0,1.7,0,2.6,0c1.3,0,2.7,0,4,0c1,0,2-0.1,3.1-0.1c1,0,2-0.1,3-0.1
				c1.1-0.1,2.3-0.1,3.4-0.2c0.7,0,1.4-0.1,2.1-0.1c2.8-0.2,5.6-0.4,8.5-0.7c0.3,0,0.6-0.1,0.9-0.1c1.8-0.2,3.7-0.4,5.5-0.6
				c0,0,0,0,0.1,0c22.4-2.4,49-6.4,84.1-9c87.2-6.4,353.4-27.2,413.4-159.5c0,0,31.2-48,41.9-108.5
				C2373.5,2982.2,2368.4,2906.6,2368.4,2906.6z"/>
		</g>
		<g class="st0">
			<path d="M2286.7,2575.4c-69.7,8.3-142.1,12.8-176.5,9c-215.5-23.5-201.4-188.1-268.6-215.5c-23.8-9.7-73.2-12.9-122.2-29.8
				c0,0,0,0,0,0c8.3-12.2,15.3-22.1,20.6-29.2c124.6-170.5,478.4-112.7,484.6,9C2229.9,2424.9,2257.2,2502,2286.7,2575.4z"/>
		</g>
		<g>
			<path d="M2368.4,2906.6c-14.6-62.1-23.8-121.2-41.4-179.8c-26.7-87.9-73.1-172.7-97-263.2c-12.5-46.2-20.3-93.8-22.8-141.6
				c-2.6-41.7-47-64.3-82.1-78.4c-105.1-38.3-249.7-31.7-338.7,41c-17.1,13.8-30.9,31.2-43.4,49.1
				c-137.8,199.1-261.2,458.8-227.5,706.2c11.9,87.1,46.5,177.4,123.8,225.5c37,23.8,80.8,37.8,124.4,45.6c14.2,3,27.5,3.6,42.1,2.4
				c30.1-2.6,61.9-7.4,92.7-9.5c31.2-2.1,61.7-4.6,92.3-8.2c99.5-12.5,219.6-35.6,298-100.4c11.3-10,21.5-21.5,30.4-34.5
				c-44.6,142.5-291.2,166.2-417.9,176.8c-39.6,2.7-78.1,12-118.4,10.7c-24.7-2-48.6-7.8-72.5-14.4
				c-182.5-50.5-232.9-213-232.1-385.2c6.7-231.8,115-456,244.9-643.6c91.2-134.4,327.5-150.4,459.3-72.1
				c25.9,15.9,51.7,41.2,57.9,73c2.3,12.4,2,24.5,3.3,36.8c3.3,37.8,9.6,75.2,19.3,111.9C2300.8,2602.6,2404.6,2747.3,2368.4,2906.6
				L2368.4,2906.6z"/>
		</g>
		<g>
			<path class="st6" d="M1974.4,3175.2c0,0-0.1,0.1-0.2,0.4C1974.3,3175.4,1974.4,3175.2,1974.4,3175.2z"/>
		</g>
		<g>
			<path class="st2" d="M1949.2,3377.7c-13.7,1.8-165.7-4.2-254.9-106.1c0,0-76.3-70.8-94.2-169c-29.1-160,67.5-226.4,67.5-226.4
				c164-58.7,257,111.6,257,111.6s2.7,27.7,6.5,68.4C1941.3,3167.7,1959.2,3376.4,1949.2,3377.7z"/>
		</g>
		<g class="st0">
			<path d="M1949.2,3377.7c-13.7,1.8-165.7-4.2-254.9-106.1c0,0-76.3-70.8-94.2-169c0,0,32.2-6.3,71.4,31.8
				c30.8,29.9,59,56.9,77.8,12.4c18.8-44.5,15-69.2,37.2-107.9c8.8-15.4,71.8-3.1,144.6,17.3
				C1941.3,3167.7,1959.2,3376.4,1949.2,3377.7z"/>
		</g>
		<g>
			<path d="M1694.2,3271.6c45.9,32.7,93.8,55.8,146.8,71.9c32,9.7,65.4,17.9,99,19.2c1.5,0,5.6,0.1,7.1,0c-4.2,0.3-9.6,4-11,8.4
				c1.6-13.7,0.7-30.5,0.2-46c-5.4-111.8-16.3-224.2-26.8-335.8c0,0,1.8,5.8,1.8,5.8c-3-4.3-6.8-9.4-10.4-14.1
				c-39.3-51.6-92.5-96.7-158.9-105.6c-24.5-3.8-49.5-2.3-74.5,0.9c45.3-28.8,106.8-30.6,155.5-7.4c49.6,22.7,90.1,63.3,114.8,111.7
				c9,57.3,11.1,116.3,17.1,174.2c5.1,70.9,13,141.2,11.9,212.9c-0.4,5.2-0.8,11.1-3.3,16.1c-2.1,4.6-7.4,8.4-12.6,9
				c0,0-0.3,0-0.3,0l-2.2,0.2C1853,3392.8,1743.4,3359.7,1694.2,3271.6L1694.2,3271.6z"/>
		</g>
		<g>
			<path class="st2" d="M1974.7,3371.8c139.6-41.5,87.2-291.4,53-355.9c-45.3-95.5-150.7-111-215.6-72.1
				c-26.4,15.8-101.6,79.4-79.8,207.7C1755.2,3286.7,1856.8,3406.2,1974.7,3371.8z"/>
		</g>
		<g class="st4">
			<path class="st2" d="M2053.5,3093.5c-5.8-19.4-12-35.5-17.8-46.4c-45.3-95.5-150.7-111-215.6-72.1
				c-26.4,15.8-101.6,79.4-79.8,207.7c0.8,4.7,1.7,9.3,2.7,13.9c-4.6-14.7-8.1-29.8-10.8-45.1c-21.8-128.3,53.4-191.9,79.8-207.7
				c64.9-38.9,170.3-23.4,215.6,72.1C2036.2,3032.1,2046,3060,2053.5,3093.5z"/>
		</g>
		<g class="st0">
			<path d="M1974.7,3371.8c-96.6,28.1-182.4-47.1-222.7-149.7c47.8,80,124.8,127.8,208.7,101.1c84.6-27,104.4-131.3,93.4-227.4
				C2076.1,3195.1,2078.3,3341,1974.7,3371.8z"/>
		</g>
		<g>
			<path d="M1933.8,3392.9c-30.4,0-60.4-8.9-88.6-26.6c-63.4-39.7-112.4-121.1-128-212.3c-25.7-150.9,75.3-216.3,86.9-223.2
				c37.8-22.7,86.9-28.2,131.4-14.7c46.2,14,83.6,47,105.6,93c28.7,54.4,61.5,204.4,22.1,298.5c-17.1,40.7-45.4,67.2-84.3,78.8
				c0,0-0.1,0-0.1,0C1963.9,3390.7,1948.8,3392.9,1933.8,3392.9z M1974.7,3371.8L1974.7,3371.8L1974.7,3371.8z M1886.3,2939.2
				c-23.7,0-47,6-66.5,17.7c-9.8,5.9-94.9,61.1-72.6,192.2c14.1,83,57.9,156.4,114.2,191.7c35,21.9,71.7,27.5,109.1,16.6
				c29.7-8.9,51.6-29.5,64.9-61.4c35.3-84.3,4.6-224.5-21.1-272.9c-0.1-0.2-0.2-0.4-0.3-0.6c-23.3-49.1-60.3-69.2-87.1-77.3
				C1913.6,2941.1,1899.8,2939.2,1886.3,2939.2z"/>
		</g>
		<g>
			
				<ellipse transform="matrix(0.9768 -0.2142 0.2142 0.9768 -641.1749 485.6336)" class="st5" cx="1920.1" cy="3201.2" rx="86.4" ry="107.2"/>
		</g>
		<g>
			
				<ellipse transform="matrix(0.9768 -0.2142 0.2142 0.9768 -607.0335 492.4922)" class="st5" cx="1968.8" cy="3047.1" rx="31.7" ry="39.4"/>
		</g>
		<g>
			
				<ellipse transform="matrix(0.9768 -0.2142 0.2142 0.9768 -621.7645 459.4842)" class="st5" cx="1809.1" cy="3098.5" rx="31.7" ry="39.4"/>
		</g>
		<g>
			
				<ellipse transform="matrix(0.9768 -0.2142 0.2142 0.9768 -607.394 472.6119)" class="st5" cx="1877" cy="3038.9" rx="35.2" ry="43.7"/>
		</g>
		<g>
			<g>
				<path class="st2" d="M2068.8,1211.7c101.7-241.8-182.5-528-266.5-655.1c-139.2-210.6-94.3-379.7-45-393
					c53.4-14.4,81.1,55.1,234.1,157.5c89.9,60.2,454.8,248.8,432.9,633.6c-11.6,204.6-95.1,325.7-160.2,365.7"/>
			</g>
			<g>
				<path d="M2264.2,1337.8c-5.8,0-11.5-2.9-14.7-8.2c-5-8.1-2.4-18.8,5.7-23.8c68.1-41.8,141.5-166.8,152-351.9
					c19.3-339.8-270.4-521.1-394.2-598.5c-12.2-7.6-22.8-14.2-31.1-19.8c-65.5-43.9-108.5-81.9-139.9-109.6
					c-43.2-38.2-59.2-51.2-80.1-45.6c-6,1.6-15.8,11-23.8,32.2c-23.9,63.2-17.7,188.8,78.7,334.6c14.8,22.4,36.2,50.1,60.9,82.2
					c117.2,152,294.4,381.7,207.1,589.1c-3.7,8.8-13.8,12.9-22.6,9.2c-8.8-3.7-12.9-13.8-9.2-22.6c79.4-188.9-90.3-409-202.6-554.6
					c-25.1-32.6-46.9-60.7-62.4-84.2c-103.6-156.7-109-295-82.2-365.9c11-29.2,27.8-48.1,47.1-53.3c39.8-10.7,67,13.3,111.9,53
					c30.7,27.1,72.7,64.2,136.3,106.8c7.9,5.3,18.3,11.8,30.2,19.3c63.1,39.5,168.8,105.6,258.2,207.7
					c109.7,125.3,160.9,267.3,152.1,422c-12,211.1-98.2,336.3-168.4,379.4C2270.3,1337,2267.2,1337.8,2264.2,1337.8z"/>
			</g>
			<g>
				<path class="st7" d="M1802.7,269c0.2,6,0.5,12,0.8,17.8c4.5,92.6,22.9,176.3,214.4,362.3c191.2,185.6,185.7,384.4,186.3,459.3
					c0.7,80.8,67.3,117.2,90.9,75.3c63.7-113.3,84.8-316,42.8-418.7c-86.4-211.6-303.4-292.4-437.8-406.4
					C1843.1,310.2,1802.7,269,1802.7,269z"/>
			</g>
			<g>
				<path class="st7" d="M1802.7,269c0.2,6,0.5,12,0.8,17.9c0.7,14.4,1.7,28.7,3.7,43.2c0.1,0.5,0.2,1.1,0.2,1.6
					c0.3,2.4,0.7,4.8,1.1,7.1c0,0.2,0.1,0.5,0.1,0.7c12.5,75.5,54,159.1,209.2,309.8c191.2,185.7,185.7,384.4,186.3,459.3
					c0.7,80.8,67.3,117.2,90.9,75.3c35.6-63.3,57.9-154.5,63.2-240.6c0-0.5,0.1-1,0.1-1.4c0-0.3,0-0.5,0.1-0.8
					c4-67.2-2.3-131.1-20.6-176c-86.4-211.5-303.4-292.4-437.7-406.5C1843.1,310.1,1802.7,269,1802.7,269z"/>
			</g>
			<g>
				<path class="st8" d="M1808.6,339.4c12.5,75.5,54,159.1,209.2,309.8c191.2,185.7,185.7,384.4,186.3,459.3
					c0.7,80.8,67.3,117.2,90.9,75.3c35.6-63.3,57.9-154.5,63.2-240.6c-1.8,17-13.5,106.9-66.4,85.1
					c-61.8-25.4-38.1-193.5-153.8-332.9C2038.4,575.3,1836.3,501.6,1808.6,339.4z"/>
			</g>
			<g>
				<path d="M2266.9,1216.4c-4.2,0-8.6-0.6-13-1.7c-31.9-8.2-64.4-47.3-64.9-106.2l-0.1-8c-0.5-79.5-1.5-265.6-181.7-440.5
					c-195.3-189.6-214.4-277.4-219-372.5c-0.3-5.9-0.6-11.9-0.8-18c-0.2-6.2,3.4-12,9.1-14.5c5.7-2.5,12.4-1.2,16.8,3.3
					c0.4,0.4,40.6,41.3,96.4,88.6c38,32.3,82.8,61.9,130.2,93.2c116.5,76.9,248.5,164.2,311.8,319.1
					c43.9,107.4,23.1,313.2-43.6,431.9C2299.2,1207.4,2284,1216.4,2266.9,1216.4z M1819.9,306.9c6.9,81.1,36,163.8,208.5,331.4
					c189.3,183.8,190.4,378.8,190.8,462l0.1,8c0.4,43.1,22,71.9,42.1,77.1c9,2.3,15.7-0.6,20.4-9.1c61.8-110,82.2-307.1,42-405.6
					c-59.8-146.3-182.1-227.1-300.5-305.3c-48.2-31.8-93.7-61.9-133.1-95.3C1861.9,346,1837.4,323.5,1819.9,306.9z"/>
			</g>
			<g>
				<path class="st2" d="M2108.7,2327.5c338.6-8.6,513.6-148.6,564.7-261.9c55.4-122.7,18-240.2-5.2-281.1
					c1.6-220.5-85.8-568-365.1-668.1c-67.2-27-423.9-41.9-596.7,41.3c-264.1,87.8-413.9,362.9-399.7,726.6
					c2.1,276.4,186,453.8,570.5,451.6"/>
			</g>
			<g>
				<path class="st2" d="M1306.6,1884.4c2.1,276.4,186,453.8,570.5,451.6l231.6-8.6c338.6-8.6,513.6-148.6,564.7-261.9
					c16.5-36.5,24.8-72.6,27.6-106.4c6.8-79.5-16.5-145.9-32.8-174.6c0,0,0,0,0-0.1c1.6-220.5-85.8-568-365.1-668
					c-67.2-27-423.9-41.9-596.7,41.2C1442.3,1245.6,1292.4,1520.6,1306.6,1884.4z"/>
			</g>
			<g>
				<path class="st2" d="M1306.6,1884.4c0.6,72.5,13.6,138.3,39.6,195.7c72.8,161.4,247.3,257.5,530.9,255.9l231.6-8.6
					c298.1-7.6,469.4-117,541-220.4c9.7-14,17.6-28,23.8-41.5c16.5-36.5,24.8-72.6,27.6-106.4c6.8-79.5-16.5-145.9-32.8-174.6
					c0,0,0,0,0-0.1c1.6-220.5-85.8-568-365.1-668c-67.2-27-423.9-41.9-596.7,41.2C1442.3,1245.6,1292.4,1520.6,1306.6,1884.4z"/>
			</g>
			<g class="st0">
				<path d="M1346.2,2080.1c72.8,161.4,247.3,257.5,530.9,255.9l231.6-8.6c298.1-7.6,469.4-117,541-220.4c0,0-0.1,0-0.1,0.1
					C2471.5,2204,1699.1,2441.9,1346.2,2080.1z"/>
			</g>
			<g>
				<path class="st9" d="M2592.1,1869.4c-3.9,50.2,28.2,93.7,71.9,97.1c13,1,25.6-1.6,36.9-7.2c6.8-79.5-16.5-145.9-32.8-174.6
					C2628.8,1787.2,2595.8,1823.1,2592.1,1869.4z"/>
			</g>
			<g>
				<path d="M1982,2333.5c225.1-21.5,587.1-55.9,683.8-295.9c29.6-78.1,26.3-171.2-11.1-246c-1.2-2.2-1.7-4.7-1.7-7.1
					c-0.1-57.9-6.2-115.9-16.8-172.9c-35.5-193-135.3-398.1-327.8-473.1c-12.9-4.8-25.2-9.4-39.1-11.6
					c-71.1-12.3-144.1-13.6-216.5-12.5c-114.4,4.1-233,13.3-338.3,60.4c-66.3,22.2-128.1,57.1-180.2,103.9
					c-165.4,148.7-217.6,384-210.7,599.2c-1.4,131.9,44.1,260.2,153.8,339.5c55.9,41.5,122.1,66.9,189.5,83.8
					c68.1,17.4,138.6,26.6,210.2,34.8c-35.8,4.6-71.9,6.1-108.1,5c-183.8-4.1-376.4-92.3-445.7-272.6
					c-28.1-68.9-34.5-143.2-34.9-216.8c-3.8-216.9,54.8-450.6,221-600.8c51.3-48.4,130.4-92.1,188.8-110.1
					c55.7-26.1,115.2-39.5,175.2-49c133.6-18.6,269.4-22.5,403.1-1.5c45.5,9.1,88.4,31,127.4,55.7
					c202.6,133.9,280.5,407,279.5,638.7c0,0.1-2-7.6-2-7.6c44.9,83.1,50.1,184.7,17.8,273C2602.1,2303.4,2218.9,2356.4,1982,2333.5
					L1982,2333.5z"/>
			</g>
			<g>
				<path d="M2201.1,1990.1c0.7-28.8-0.2-59.4-6.6-87c0,0,34.1-1.1,34.1-1.1C2223.6,1933.4,2213.3,1961.6,2201.1,1990.1
					L2201.1,1990.1z"/>
			</g>
			<g>
				<g>
					<path d="M2283.1,1853.5c0.4,25.1-27.2,47.7-48.5,61.4c-14.7,9.5-33.6,9.8-48.7,0.8c-21.7-13-50.1-34.7-50.5-59.8
						C2134.7,1815.1,2282.4,1812.7,2283.1,1853.5z"/>
				</g>
				<g class="st10">
					<path class="st2" d="M2254.2,1846.2c0.1,4.3-9.5,8.3-16.8,10.7c-5.1,1.7-11.6,1.8-16.7,0.3c-7.4-2.2-17.1-5.8-17.1-10.1
						C2203.5,1840.1,2254.1,1839.2,2254.2,1846.2z"/>
				</g>
			</g>
			<g>
				<g>
					<path class="st2" d="M1615.5,1198.9c126.5-81.4,267.9-89.1,441.2-169.5c43.2-20.1,117.4-73.6,117.4-73.6s22.9,82.9,13.1,133
						c103.8-10,143.1,33.1,287.6,25.7c-23.6,43-75.3,101.6-155.4,101"/>
				</g>
				<g>
					<path d="M1607.3,1186.2c87.4-56.4,190.8-81,288.3-111.8c59.8-19.4,119.5-40.1,174.9-69.3c32.6-18.5,64.2-39.9,94.8-61.6
						c6.8-5,16.3-3.4,21.2,3.4c5.8,12.2,6.9,26,10.1,38.8c6.5,35,11.7,70.2,5.6,106.1c0,0-16.3-18-16.3-18
						c73.8-12.5,145.6,17,217.9,22.4c23.6,2.1,47.5,2,71.4,1.8c12.4-0.5,20.7,14.2,14.2,24.6c-17.8,29.9-41,57-71.1,75
						c-15,9-31.4,15.5-48.4,18.7c-16.9,3.2-34.2,3-50.4-0.7c16.3-3.8,31.4-8.7,45.4-15.3c41.2-19.6,74.3-53.7,95.4-93.7
						c0,0,15.4,24.6,15.4,24.6c-24.7,1.8-49.6,2-74.6,0.6c-54.6-2.2-107.7-20.3-160.9-26.4c0,0-17.1-1.4-17.1-1.4
						c-9.1-0.4-26.3-0.4-35.4,0c-9.5,0.3-17.1-8.7-15.3-18c1.8-9.5,2.2-19.8,2.1-30.3c-0.8-32-7-64.8-14.9-95.8
						c0,0,23.5,8.2,23.5,8.2c-42.6,29.6-85.4,60.2-133.3,81c-93.4,42.8-194.3,67.4-290.7,99.8c-47.4,16-93.1,36.1-135.3,62.8
						C1623.7,1211.6,1607.3,1186.2,1607.3,1186.2L1607.3,1186.2z"/>
				</g>
			</g>
			<g>
				<g>
					<path class="st2" d="M1763.1,1202.7c-24.3-144-79.5-270.6-153-350c-234.6-253.3-617.1-224.3-784-241.2
						c-101.1-10.2-222.8-41.4-237-16.1c-17.5,31,30.4,176,103.9,250.7c246.2,249.9,738.1,223.7,871.5,468.8"/>
				</g>
				<g>
					<path d="M1763.1,1202.7c-37.2-107.6-69.8-216.7-138.6-308.1c-34.2-44-76.3-81.9-122.1-113.4
						c-192.1-132.1-428.8-139.5-653.7-151c-73.1-5-142.1-22.2-213.4-28.1c-11.1-0.5-23.5-1.5-33.4,2.2c-0.3,0.1,0,0.1,0.5-0.6
						c0.1-0.1,0.3-0.3,0.4-0.5c0.1-0.1,0,0.1,0,0.1c-0.1,0.1-0.2,0.4-0.3,0.7c-3.9,20.9,3.1,43.5,8.7,64.4
						c7.9,26.4,18.6,52.4,31.2,77.2c24.6,50.3,59.8,93.3,103.7,127.7c181.2,146,420.4,171.1,628.5,265.7
						c53.1,25.2,106.4,54.6,146.4,98.6c20,22.2,35.8,48.6,43.5,77.2c-20.1-21.7-39.7-41.3-61.3-58.9
						c-64.5-54.8-141.8-88.7-221.4-117.8c-106.9-38.9-217.9-70.8-325.8-113.8c-107.5-43.7-216.8-99.3-293.4-189.4
						c-37.3-47-63.7-100.5-81.5-157.6c-6.4-22.3-12.3-45-11.3-69.1c0.8-20.2,11.1-33.6,31.3-36.9c26.9-4.4,54,0.1,80.3,3.1
						c57.6,7.7,113.8,18.5,169.9,22.2c172.4,8.2,350.4,12.9,514.3,75.3c136.5,51.1,264,145.7,331.2,278.6
						C1737.5,1028.3,1761.9,1115.2,1763.1,1202.7L1763.1,1202.7z"/>
				</g>
			</g>
			<g>
				<path class="st7" d="M668.8,683.3c3.7,43.3,115.6,156.4,210.7,208.5c199.4,109.1,428.6,89.9,656.9,282.6
					c40.8,34.5,68.9,83.1,96.1,79.2c19.3-2.7,23.1-52.3,21-78.1c-12.7-155.9-125.9-320.8-411.7-365.9
					C793.8,738.8,667.8,671.9,668.8,683.3z"/>
			</g>
			<g>
				<path class="st7" d="M668.8,683.2c3.7,43.3,115.6,156.4,210.7,208.5c184.6,101,394.6,92,605.9,243c17,12.1,34,25.3,51,39.6
					c40.9,34.5,68.9,83.1,96.2,79.2c19.3-2.7,23-52.3,20.9-78.1c-12.7-155.9-125.9-320.8-411.7-365.9
					C793.8,738.8,667.9,671.9,668.8,683.2z"/>
			</g>
			<g>
				<path class="st8" d="M668.8,683.2c54.2,56.6,607.6,168.3,732.8,226.5c125.1,58.2,188.8,200.9,177.5,230.3
					c-8.6,22.5-53.5,10.7-93.7-5.3c17,12.1,34,25.3,51,39.6c40.9,34.5,68.9,83.1,96.2,79.2c19.3-2.7,23-52.3,20.9-78.1
					c-12.7-155.9-125.9-320.8-411.7-365.9C793.8,738.8,667.9,671.9,668.8,683.2z"/>
			</g>
			<g>
				<path d="M1629.4,1268.9c-23.1,0-42.7-21.2-65.1-45.6c-11.7-12.7-23.9-25.9-37.5-37.4c-136.4-115.1-272.9-153.1-405-190
					c-87.3-24.3-169.8-47.3-249.4-90.9C780.8,855,658.4,739.1,653.7,684.6c0,0,0,0,0,0c-0.5-5.4,1.8-10.6,5.9-14
					c8.2-6.6,14.4-4.7,48.4,5.9c59.4,18.5,217.1,67.7,536.2,118.1c135.7,21.4,242.3,70.4,316.7,145.7
					c63.2,64,100.5,144.9,107.7,233.9c0.3,3.6,6.7,88.6-33.9,94.4C1632.9,1268.8,1631.1,1268.9,1629.4,1268.9z M692.6,703.4
					c26.9,45.5,111.5,129.7,194.2,175c76.6,41.9,157.4,64.5,243,88.3c135.2,37.7,275,76.7,416.4,196c15.1,12.8,28.5,27.3,40.3,40.1
					c15.5,16.8,33,35.8,43,35.8c0.1,0,0.1,0,0.2,0c5.8-5.6,11-35.1,8.8-62c-7.2-88.1-60.4-298.8-399-352.2
					C918.2,773.8,759,724.1,699,705.4C696.8,704.7,694.7,704.1,692.6,703.4z M683.9,682C683.9,682,683.9,682,683.9,682
					C683.9,682,683.9,682,683.9,682L683.9,682z"/>
			</g>
			<g>
				
					<ellipse transform="matrix(7.828816e-02 -0.9969 0.9969 7.828816e-02 -531.5059 3402.8306)" class="st9" cx="1574.5" cy="1988.9" rx="91.2" ry="117.3"/>
			</g>
			<g>
				<g>
					<path class="st2" d="M2187.2,1088.8c-35.6,6.8-76.4,28.4-105.1,30.4"/>
				</g>
				<g>
					<path d="M2190,1103.7c-34.8,1.1-72.1,16.5-107.9,15.5c37-9.8,65-33.4,102.2-45.3C2184.3,1073.9,2190,1103.7,2190,1103.7
						L2190,1103.7z"/>
				</g>
			</g>
		</g>
		<g>
			<g>
				<path class="st3" d="M2265.7,2610.9c-18.3-146.3-107.3-249-58.7-345.5c24.7-49,77.3-52.7,98.9-49.4
					c106.1,16.3,177.6,167.3,166.1,286.9C2459.1,2638.2,2341.7,2638.1,2265.7,2610.9z"/>
			</g>
			<g>
				<path class="st2" d="M2472,2502.9c-0.8,8.6-2.1,16.5-3.7,24c0,0,0,0,0,0c-23.9,111.1-131.4,109.5-202.7,84
					c-6.1-48.3-19.8-91.9-33.8-132c-28.3-81.4-57.4-148.9-24.9-213.5c24.7-49,77.3-52.7,98.9-49.4
					C2412,2232.3,2483.4,2383.3,2472,2502.9z"/>
			</g>
			<g class="st4">
				<path class="st2" d="M2393.9,2265.9c-20.7-15.7-43.7-26.3-68.5-30.1c-23.2-3.6-79.6,0.4-106.1,52.9
					c-34.9,69.3-3.6,141.6,26.7,228.9c10.5,30.2,20.8,62.1,28.4,96.3c-3-1-5.9-1.9-8.8-3c-6.1-48.3-19.8-91.9-33.8-132
					c-28.3-81.4-57.4-148.9-24.9-213.5c24.7-49,77.3-52.7,98.9-49.4C2339.1,2221.1,2369,2239.5,2393.9,2265.9z"/>
			</g>
			<g class="st0">
				<path d="M2468.3,2526.9c-23.9,111.1-131.4,109.5-202.7,84c-6.1-48.3-19.8-91.9-33.8-132c31.1,0.2,76.8,5.7,117.2,30.2
					C2399.1,2539.3,2440.1,2561.4,2468.3,2526.9z"/>
			</g>
			<g>
				<path d="M2344.5,2640.3c-37.3,0-70.4-10.2-84-15.1c-5.4-1.9-9.2-6.7-9.9-12.4c-6.9-55.2-23.9-103.4-40.4-149.9
					c-26.5-74.9-49.4-139.6-16.8-204.3c27.8-55.2,87.2-61.7,114.8-57.5c115.4,17.7,190.9,177.6,178.9,303.3
					c-5.1,53.3-25.7,91.8-61.3,114.4C2400.2,2635,2371.3,2640.3,2344.5,2640.3z M2279.4,2599.5c26.9,8.4,86.2,21.6,130.1-6.3
					c27.3-17.4,43.3-48.2,47.4-91.8c10.5-110.2-55.5-255.4-153.4-270.5c-20-3.1-63.2,1.6-83.1,41.2c-26.8,53.2-6.9,109.4,18.3,180.6
					C2254.1,2496.1,2271.4,2544.9,2279.4,2599.5z"/>
			</g>
			<g>
				<path class="st2" d="M2388,2748.9c-14.8,18.5-33.8,22-69.7,23.3c-63.5,2.3-152.8,39.9-272.6,23.8
					c-119.3-16-234.8-96.2-276.8-145.3c-1.6-1.9-3.1-3.7-4.5-5.5l77.2-276.2c9.8,4.4,23.5,13.9,40.2,26c0,0,0,0,0,0
					c54.5,39.5,141.4,107.2,232.6,120.1c69.5,9.8,155-20.4,226.3,20.7c26.2,15.1,43.7,43.2,53.8,74.5c0,0,0,0,0,0.1
					C2411.5,2663,2407.2,2724.9,2388,2748.9z"/>
			</g>
			<g class="st4">
				<path class="st2" d="M2394.5,2610.1C2394.5,2610.2,2394.5,2610.2,2394.5,2610.1c-78-107.7-173.2-55.8-293.2-73.5
					c-118.1-17.4-217.2-138.9-219.5-141.7c54.5,39.5,141.4,107.2,232.6,120.1c69.5,9.8,155-20.4,226.3,20.7
					C2366.9,2550.8,2384.4,2578.9,2394.5,2610.1z"/>
			</g>
			<g class="st0">
				<path d="M2388,2748.9c-14.8,18.5-33.8,22-69.7,23.3c-63.5,2.3-152.8,39.9-272.6,23.8c-119.3-16-234.8-96.2-276.8-145.3
					c43.4,6.1,173.5,99.9,286.2,109.2c114.1,9.4,183-22.5,269.3-18.6c63.9,2.9,75.1-77.1,70-131
					C2411.5,2663,2407.2,2724.9,2388,2748.9z"/>
			</g>
			<g>
				<path d="M1841.6,2369c29.1,9.9,54.6,28,81,43c25.9,15.6,51.8,30.7,78,44.2c26.3,13.4,52.4,26.5,79.8,35.4
					c27.9,9.1,55.4,11.6,84.9,10c68.2-3.5,152.3-14.6,207.1,39.3c44.3,47,57.6,124.6,43.3,186.3c-13.1,52-52,61.4-99.6,62.4
					c-16,1-31.8,3.7-48.3,6.8c-88.2,19.5-187.8,32.3-277.7,5c-59.9-18.2-117-45.8-165.4-85.5c-23.6-20-46.3-42.7-60.4-70.6
					c24.1,19.3,49.1,35.3,74.5,50.7c91.4,56.4,180.9,92.9,290,86.1c60.7-2.3,118.4-20.2,179.4-26.4c48.4-2.3,73.5-0.1,79.6-56.9
					c4.9-51.2-8.2-118.2-52.6-147.9c-23.6-14.7-51.3-20.3-79.1-21.6c-28.8-1.4-58.6,1.6-89.6,2.8c-31.2,1.7-64.8-1.6-94.9-10.7
					c-61.2-16.3-113.6-52.6-160.8-92.8C1887.1,2409.1,1866.2,2387.1,1841.6,2369L1841.6,2369z"/>
			</g>
			<g>
				<path d="M2270,2202.3c40.3,4.6,70,38.7,84.3,74.3c-19.7-24.7-49.3-47.7-82.4-44.3c-0.3,0.1-0.8,0.1-0.5,0.2L2270,2202.3
					L2270,2202.3z"/>
			</g>
			<g>
				<path d="M2234.1,2222.9c32.2,17.9,56.9,49.3,66,84.9c-15.9-26.6-41.7-46.6-71.3-55.3c-1.7-0.5-3.8-1-4.9-1.1L2234.1,2222.9
					L2234.1,2222.9z"/>
			</g>
		</g>
		<g>
			<path d="M2312.4,2165.3c-34.4-31.8-84.1-22.7-121.6-0.8c-24.5,14.1-45.9,32.3-67.8,50.4c14.1-25.4,33.8-48.8,57.4-66.4
				c16.8-11.8,35.5-21.4,56-24.7C2266.6,2116.8,2307.1,2131.7,2312.4,2165.3L2312.4,2165.3z"/>
		</g>
		<g>
			<path d="M1709.4,1746.6c16.7,40.2,39.2,78.2,73.5,103.3c46.3,34.7,111,39.4,162.1,15.8c35.1-16.7,56.9-49.1,70.3-86.5
				c7.6-20.9,12.8-42.7,18.2-64.7c16.5,46,17,97.9-6.4,143.1c-37.6,73.5-135.9,94.8-208.8,66.3
				C1746.5,1897.3,1702.8,1821,1709.4,1746.6L1709.4,1746.6z"/>
		</g>
		<g>
			<path d="M2548.9,1736c20.7,51.2,7.6,125.6-49.5,147.8c-38.9,15-85.4,4.4-115-24.4c-40.2-40.1-48.8-101-35.6-153.6
				c10.6,32.9,20.9,64,37,89.5c20.6,35.3,58.9,58.2,99.4,48.4C2528.1,1830.3,2540.8,1776.8,2548.9,1736L2548.9,1736z"/>
		</g>
		<g>
			<g>
				<path d="M3049.2,1423.6c-16.5-1.4-30.5,10.3-31.9,26.6c-1.3,16,10.8,30.2,27,31.6c16,1.3,30.2-10.6,31.5-26.7
					C3077.2,1439.1,3065.3,1425,3049.2,1423.6z"/>
			</g>
			<g>
				<path d="M3067.6,1223.9c-33.2-2.8-62.9,13-77.7,41.4c-2.3,4.6-2.5,9.9-0.6,14.6c1.9,4.6,5.7,8.2,10.3,9.7l11,4l0.3,0.1
					c1.3,0.4,2.6,0.6,3.9,0.7c7.6,0.6,14.8-3.2,18.3-9.7c3.5-6,11.7-15.8,27.6-14.4c18.4,1.5,25.6,16.1,24.5,29
					c-1.1,13.5-10.2,22-21.7,32.6c-13.3,12.3-29.8,27.7-35.2,55.4l-0.1,0.4c-0.7,5,0.6,10,3.7,13.9c3,3.8,7.3,6.1,12.2,6.5l13.6,1.1
					c8.6,0.7,16.6-5.2,18.6-13.7l0.1-0.3c3.3-16,13.4-25.4,25-36.4c14.4-13.5,30.7-28.9,33.2-58.6
					C3138,1261.6,3107.8,1227.3,3067.6,1223.9z"/>
			</g>
		</g>
		<g>
			<path d="M2786.6,1608.3c-6.9,0-11.3-0.3-12.1-0.4c-5.1-0.4-9.4-3.9-10.9-8.8c-1.5-4.9,0.2-10.2,4.2-13.4
				c34.6-27.7,51-82.2,58.7-124.7c-17.9-33.5-27.4-71.5-27.5-110.4v-3.9c0.3-118.8,86.4-216.1,195.9-221.5
				c44.2-2.1,88.9-2.1,133.1,0c109.6,5.4,195.7,102.7,196,221.4v3.9c-0.3,118.8-86.4,216-195.9,221.4c-44.2,2.2-89,2.2-133.1,0
				c-24.6-1.2-48.3-7-70.7-17.3C2880.3,1602.9,2813.8,1608.3,2786.6,1608.3z M3061.5,1148.5c-21.8,0-43.7,0.5-65.3,1.6
				c-96.3,4.8-171.9,91.1-172.2,196.5v3.9c0.1,36.1,9.2,71.5,26.4,102.2c1.4,2.5,1.9,5.4,1.4,8.2c-6.5,38-19.7,86.4-46.4,121.3
				c30-2.9,76.5-13.6,105.7-50.8c3.7-4.7,10.3-6.1,15.6-3.4c21.7,11.4,45,17.8,69.4,19c43.3,2.1,87.3,2.1,130.6,0
				c96.3-4.8,171.9-91.1,172.2-196.5v-3.9c-0.3-105.4-75.9-191.7-172.2-196.5C3105.1,1149.1,3083.3,1148.5,3061.5,1148.5z"/>
		</g>
	</g>
</g>
</svg>
