<?xml version="1.0" encoding="utf-8"?>
<!-- Generator: Adobe Illustrator 22.1.0, SVG Export Plug-In . SVG Version: 6.00 Build 0)  -->
<svg version="1.1" xmlns="http://www.w3.org/2000/svg" xmlns:xlink="http://www.w3.org/1999/xlink" x="0px" y="0px"
	 viewBox="0 0 500 230" style="enable-background:new 0 0 500 230;" xml:space="preserve">
<style type="text/css">
	.st0{fill:#FFD7DA;}
	.st1{fill:#D887A5;}
	.st2{fill:#F29CA6;}
	.st3{fill:#E0A9B0;}
	.st4{fill:#FFF0F3;}
	.st5{fill:#F2A0AA;}
	.st6{fill:#B56183;}
	.st7{fill:#8C3A53;}
	.st8{fill:#FFB0D0;}
</style>
<g id="BACKGROUND">
</g>
<g id="OBJECTS">
	<g>
		<g>
			<g>
				<path class="st0" d="M308.1,145.3C308.1,145.3,308.1,145.3,308.1,145.3C308.1,145.3,308.1,145.4,308.1,145.3
					C308.1,145.4,308.1,145.3,308.1,145.3z"/>
				<path class="st1" d="M110.8,65c-2.1-1.4-4-3.3-5.5-5.4c-3.3-4.7-4.6-10.6-3.5-16.3c0.9-4.6,3.9-11.8,9.4-12.2
					c6.2-0.4,8.2,7.6,9.2,12.2c1,4.6,3,10.8,7.6,12.9c-3.9,3.6-7.6,7.5-10.9,11.7C115,67.1,112.8,66.4,110.8,65z"/>
				<path class="st1" d="M97.7,84.9c-2.8-1.7-4.8-4.5-5.6-7.7c-0.6-2.6-0.5-5.9,1.6-7.7c2.8-2.5,6.8-0.5,9.2,1.6
					c2.5,2.2,4.6,5.1,7.3,7c-0.9,1.5-1.8,3-2.6,4.6c-0.7,1.4-1.4,2.9-2.1,4.3C102.9,86.9,100.1,86.3,97.7,84.9z"/>
				<path class="st1" d="M98,111.2c-1-0.1-2.1,0.2-3.1,0c-1.2-0.2-2.4-0.6-3.5-1.2c-2.2-1.2-3.9-3.3-4.5-5.8
					c-0.7-2.5-0.4-5.2,0.9-7.4c0.6-1,1.5-1.9,2.8-2c1.4-0.1,2.8,0.7,3.9,1.4c1.4,0.9,2.8,1.9,4.4,2.5c0.7,0.3,1.4,0.4,2,0.3
					c-0.6,1.9-1.1,3.9-1.6,5.9C98.8,107,98.3,109.1,98,111.2z"/>
				<path class="st0" d="M250.5,103.4C250.5,103.4,250.5,103.4,250.5,103.4c2.8,0.5,5.4,0.8,8.1,0.7c0,0.9,0.1,1.7,0.1,2.6
					c0,1.8,0,3.6-0.1,5.5c-1.7,0.1-3.4,0-5-0.3c-1.8-0.3-3.5-1-5.4-1.1c-0.4,0-0.5,0.5-0.3,0.7c1.7,2.1,5.1,2.8,7.7,3.1
					c2.8,0.3,5.7,0.1,8.5-0.6c0.3-0.1,0.5-0.2,0.8-0.2c2.6-0.8,5-2.1,7.1-3.7c2.2-1.6,4.6-3.6,7.5-2.6c2.6,0.9,4.5,3.6,4.7,6.3
					c0.2,3-1.3,5.9-3.3,8.1c-4.1,4.5-10.5,6.6-16.5,6.1c-0.7-0.1-1.4-0.2-2.2-0.3c-1-0.2-2-0.5-3-0.9c0,0-0.1-0.1-0.1-0.1
					c-1-0.5-1.9-1.1-2.7-1.9c-0.1,0.2-0.1,0.4-0.2,0.6c-0.3-0.2-0.7-0.4-1-0.6c-1.3-0.8-2.5-1.8-3.6-2.9c-0.6-0.6-1.1-1.3-1.8-1.8
					c-0.6-0.6-1.3-1-1.9-1.7c-0.9-1.1-2.3,0.3-1.8,1.4c0.4,0.8,0.5,1.6,1,2.4c0.4,0.8,1,1.4,1.6,2c1.2,1.2,2.5,2.3,3.9,3.3
					c0.7,0.5,1.5,1,2.3,1.4c-0.1,0.3-0.2,0.5-0.3,0.8c-3.3,7.2-9.1,12.6-15.6,16.8c-13.7,8.9-29.9,14.4-45.9,17.5
					c-16.4,3.1-33.5,3.5-50,0.7c-5.1-0.9-10.3-2.2-15.2-4.1c-9.9-3.9-18.8-10.2-23.6-20.1c-3.6-7.4-4.1-15.9-3.3-24
					c0.8-7.7,2.8-15.3,5.6-22.4c5.6-14.3,14.7-27.2,26.4-37.1c12-10.2,26.6-17.1,42-20.2c1.3-0.3,2.6-0.5,3.9-0.7
					c3.6-0.2,7.3-0.1,10.8,0c4.8,0.2,9.6,1,14.3,2.2c8.6,2.3,16.7,6.3,23.6,11.9c3.8,3.1,7.2,6.7,10.3,10.6c0.2,0.3,0.5,0.5,0.8,0.5
					c-1.6,1.1-3.4,1.9-5.4,2c-1,0.1-1.4,1.7-0.3,1.9c7.5,1.5,12.7-5.6,15-11.8c2.5-6.8,3.3-15.8,10.4-19.6
					c7.2-3.8,13.4,4.5,14.2,10.9c0.3,2.7,0.1,5.2-0.7,7.7c-0.1,0.6-0.3,1.2-0.6,1.8c0,0,0,0,0,0c-0.2,0.4-0.5,0.9-0.8,1.3
					c-0.4,0.8-0.8,1.6-1.4,2.3c0,0.1,0,0.1,0,0.2c0.1,0,0.2-0.1,0.3-0.1c-1.3,2-2.9,3.8-4.7,5.3c-3.3,2.8-7.2,4.7-11.3,5.8
					c-2.2,0.6-4.5,1.1-6.8,1.4c-2.4,0.3-4.8,0.2-7.2,0.8c-1.6,0.4-1.6,2.8,0,3.2c2.3,0.6,4.6,0.3,6.9,0.1c1.3-0.1,2.5-0.3,3.8-0.5
					c1.6,3,2.9,6.2,4.1,9.4c-0.7,0.4-1.4,0.8-2.2,1.1c-1.8,0.7-3.7,0.5-5.5,1.2c-0.8,0.3-1.2,1.3-0.5,2c2.4,2.1,6.1,1,8.7-0.3
					c3-1.4,5.4-3.7,7.6-6.1c3.9-4.3,8.7-11.1,15.3-10.1c5.8,0.9,8.8,7.2,7.9,12.6c-1.2,6.5-6.5,11.1-12.2,13.9
					c-2.9,1.4-6,2.5-9.2,3.2c-4.2,1-8.6,1.3-12.9,1.1c-0.2,0-0.4,0-0.6,0C249.8,101.8,249.6,103.2,250.5,103.4z"/>
				<path class="st2" d="M404.3,182c-10.2,5.7-21.6,7.9-33.2,7.9c-12.4,0-24.8-2-37.1-2.9c-10.3-0.8-21-0.9-31,1.7
					c0.4-0.2,0.8-0.4,1.3-0.6c6.8-2.8,14.1-4.5,21.3-5.4c15.8-2,31.8-0.8,47.7-1.5c14.5-0.6,29.2-2.9,41.9-10.3
					c3.1-1.8,6-3.9,8.7-6.3C418.8,171.7,412.1,177.6,404.3,182z"/>
				<path class="st0" d="M435.4,129.6c0,0.3,0,0.6,0,0.9c0,0.6,0,1.2-0.1,1.7c-0.1,1.2-0.2,2.4-0.3,3.7c-0.1,0.7-0.2,1.4-0.3,2
					c0,0,0,0.1,0,0.1c0,0.2-0.1,0.4-0.1,0.6c-0.8,4.3-2.1,8.4-4.3,12.3c-3,5.3-7.2,9.8-12.1,13.4c-11,8.1-24.5,11.8-38,13
					c-15.6,1.4-31.4,0.1-47,1.2c-7.1,0.5-14.1,1.5-21,3.3c-6.8,1.8-13,4.7-19.1,8.3c-2.3,1.4-6.5,3.8-8.6,0.8
					c-1.6-2.4-1.1-6.2-0.6-8.8c0.4-2,1-3.9,1.7-5.8c1.6-3.8,4-7.3,6.9-10.4c3.2-3.4,6.9-6.1,10.9-8.3c3-0.2,6-0.7,9-1
					c4.7-0.5,9.5-1,14.2-1.5c9.2-1,18.5-1.8,27.7-3.4c8.3-1.5,16.4-3.8,23.9-7.7c6.8-3.6,13.3-8.8,17.3-15.4
					c4.4-7.2,7.1-17.2,4.2-25.4c-0.8-2.3-4.1-1.4-3.6,1c0.4,1.9,0.7,3.8,0.8,5.7c-2.3,11.3-10.7,20.6-21,25.9
					c-13.7,7-29.5,7.9-44.4,10.2c-7,1.1-14.2,2.5-20.9,4.9c1.1-1.8,1.7-3.8,1.6-6c-0.2-3.5-1.9-7-4.7-9.2c-3.3-2.6-7.7-3.3-11.6-1.9
					c-0.1,0-0.2,0.1-0.3,0.1c-0.3-0.2-0.8-0.3-1.2-0.3c-0.8-0.1-1.5-0.2-2.3-0.1c-1.5,0.1-3,0.6-4.3,1.3c-1.2,0.7-2.2,1.6-3,2.7
					c-0.4,0.6-0.9,1.3-1.1,2c-0.1,0-0.2,0.1-0.2,0.1c-0.3,0.2-0.7,0.4-1,0.6c-0.3,0.2-0.7,0.4-1,0.5c-0.1,0-0.2,0.1-0.3,0.1
					c0,0,0,0,0,0c0,0,0,0,0,0c-0.2,0.1-0.4,0.1-0.6,0.2c-0.7,0.2-1.4,0.4-2.2,0.6c-0.1,0-0.2,0-0.3,0c0,0,0,0-0.1,0
					c-0.2,0-0.4,0-0.5,0c-0.3,0-0.7,0-1,0.2c-0.3,0.1-0.5,0.3-0.7,0.5c-0.5,0.4-0.5,1.3,0,1.7c0.5,0.4,1,0.7,1.7,0.6
					c0.5,0,1-0.1,1.5-0.2c0.9-0.2,1.8-0.5,2.6-0.8c0.8-0.3,1.5-0.7,2.1-1.2c0.2-0.2,0.4-0.3,0.6-0.5c0.3,0.1,0.6,0,0.9-0.2
					c0.4-0.4,0.6-1,0.9-1.4c0.2-0.4,0.5-0.9,0.8-1.2c0.6-0.8,1.4-1.4,2.3-1.9c0.7-0.4,1.4-0.6,2.2-0.8c-1.9,1.6-3.3,3.7-3.5,6.3
					c-0.1,1.2,1.6,1.8,2.3,1c2-2.3,3.9-4.8,6.9-5.9c2.3-0.8,4.7-0.8,6.8,0.3c-0.7,0.1-1.3,0.1-1.9,0.3c-0.9,0.3-1.7,0.7-2.4,1.2
					c-0.8,0.6-0.3,1.7,0.7,1.5c0.7-0.1,1.5-0.2,2.2-0.3c0.7-0.1,1.5-0.2,2.3-0.2c0.8,0,1.4,0.1,2.1,0.2c0,0,0,0,0.1,0
					c0.2,0.3,0.3,0.6,0.5,0.9c-0.7-0.2-1.4-0.2-2.1-0.1c-0.9,0.2-1.7,0.7-2.4,1.2c-0.3,0.3-0.3,0.8-0.1,1.1c0.3,0.3,0.7,0.4,1,0.2
					c0.6-0.3,1-0.4,1.7-0.4c0,0,0.1,0,0.1,0c0.1,0,0.2,0,0.2,0c0,0,0.2,0,0.2,0c0.1,0,0.1,0,0.2,0c0.2,0,0.3,0.1,0.5,0.1
					c0,0,0,0,0,0c0,0,0,0,0,0c0,0,0,0,0,0c0,0,0,0,0,0c0,0,0.1,0,0.1,0.1c0.1,0.1,0.2,0.1,0.4,0.2c0.1,0,0.1,0.1,0.2,0.1
					c0,0,0,0,0,0c0.1,0.1,0.2,0.2,0.4,0.3c0.1,0.1,0.1,0.1,0.2,0.2c0,0,0,0,0,0c0,0,0,0,0,0c0,0,0,0.1,0,0.1c0,0,0,0,0,0.1
					c0,0.2,0,0.4,0,0.6c-0.2,3.1-2.7,5.3-5.2,6.7c-3.2,1.7-6.8,2.6-10.2,3.5c-3.9,1-7.8,1.8-11.8,2.3c-8.1,1.2-16.4,1.4-24.6,0.7
					c-4.7-0.4-9.4-1-14-1.9c-3.7-0.7-7.2-1.7-10.9-2.6c7.2-3.6,14.3-7.8,19.8-13.7c3-3.2,5.3-6.9,7-10.8c1.1,0.4,2.3,0.7,3.4,0.9
					c1.8,0.3,3.5,0.4,5.3,0.3v0c0,0.3,0,0.6,0,0.9c0,0.3,0,0.6,0.1,0.9c0,0.1,0,0.1,0,0.2c0,0.2,0.1,0.4,0.2,0.6
					c0.1,0.2,0.3,0.3,0.5,0.3c0.2,0,0.4-0.1,0.5-0.3c0.1-0.2,0.2-0.3,0.2-0.6c0-0.1,0-0.1,0-0.2c0-0.3,0.1-0.6,0.1-0.9
					c0-0.3,0-0.6,0-0.9c0-0.1,0-0.1,0-0.2c0.6-0.1,1.2-0.2,1.7-0.3c0,0.4,0,0.8,0,1.2c0,0.2,0,0.4,0,0.6c0,0.2,0,0.4,0.1,0.5
					c0,0.1,0.1,0.2,0.1,0.2c0.2,0.3,0.6,0.3,0.8,0c0-0.1,0.1-0.1,0.1-0.2c0.1-0.2,0.1-0.3,0.1-0.5c0-0.2,0-0.4,0-0.6
					c0-0.4,0-0.8,0-1.2c0-0.1,0-0.2-0.1-0.3c3.3-0.9,6.5-2.5,9.2-4.7c1.5-1.2,2.8-2.7,3.9-4.4c0.1,0.1,0.2,0.1,0.2,0.2
					c0.3,0.2,0.5,0.4,0.8,0.6c0.1,0.1,0.2,0.2,0.4,0.2c0.1,0.1,0.2,0.1,0.3,0.1c0.1,0,0.2,0,0.2,0c0.1,0,0.1,0,0.1,0
					c0.3,0.1,0.7-0.1,0.8-0.3c0.2-0.3,0.1-0.6-0.1-0.9c0,0-0.1-0.1-0.1-0.1c0,0,0,0-0.1-0.1c0,0,0-0.1-0.1-0.2
					c-0.1-0.1-0.1-0.1-0.2-0.2c-0.1-0.1-0.2-0.2-0.4-0.2c-0.3-0.2-0.5-0.3-0.8-0.5c-0.1-0.1-0.2-0.1-0.3-0.2c0.3-0.7,0.6-1.4,0.8-2
					c0.3,0.1,0.5,0.2,0.8,0.3c0.2,0.1,0.4,0.1,0.6,0.2c0.2,0.1,0.4,0.1,0.6,0.1c0.3,0,0.5,0,0.6-0.3c0.1-0.3,0-0.5-0.2-0.7
					c-0.2-0.1-0.3-0.2-0.5-0.3c-0.2-0.1-0.4-0.2-0.6-0.3c-0.3-0.2-0.6-0.3-0.9-0.4c0.6-2.6,0.3-5.2-1.2-7.6
					c-1.5-2.6-4.2-4.5-7.2-4.7c-3.5-0.2-6,2.2-8.6,4c-2.2,1.5-4.7,2.6-7.3,3.2c0.1-2.6,0.1-5.2,0-7.8c3.6-0.5,7-1.3,10.4-2.7
					c5.6-2.3,10.8-5.8,13.9-11.1c0.2,0.2,0.4,0.4,0.5,0.6c0.2,0.2,0.4,0.4,0.6,0.6c0.1,0.1,0.2,0.2,0.3,0.3c0.2,0.1,0.3,0.2,0.5,0.3
					c0.2,0.1,0.5,0.1,0.7-0.1c0.2-0.2,0.2-0.5,0.1-0.7c-0.1-0.2-0.2-0.3-0.3-0.4c-0.1-0.1-0.2-0.2-0.3-0.3c-0.2-0.2-0.4-0.4-0.7-0.6
					c-0.3-0.2-0.6-0.5-0.9-0.7c0.2-0.5,0.5-0.9,0.6-1.4c0-0.1,0.1-0.2,0.1-0.3c0.3,0.1,0.6,0.1,0.9,0.2c0.4,0.1,0.7,0.2,1.1,0.2
					c0.3,0,0.6-0.2,0.6-0.5c0-0.3-0.1-0.6-0.4-0.7c-0.3-0.1-0.6-0.1-1-0.2c-0.3,0-0.6-0.1-0.9-0.1c0.4-1.4,0.7-2.9,0.7-4.3
					c0.2,0,0.4-0.1,0.7-0.1c0.3-0.1,0.4-0.4,0.4-0.6c-0.1-0.3-0.3-0.4-0.6-0.4c-0.1,0-0.3,0.1-0.4,0.1c-0.1-4.2-1.8-8.1-5.3-10.8
					c-5.8-4.4-12.9-2.1-17.9,2.3c-3,2.7-5.4,6.1-8.4,8.8c-1-2.7-2.2-5.4-3.5-7.9c3.9-1.1,7.7-2.7,11-5c2.5-1.8,4.8-3.9,6.6-6.3
					c0.1,0.1,0.1,0.1,0.2,0.2l0.5,0.5c0.2,0.2,0.5,0.5,0.8,0.6c0.4,0.1,0.8-0.3,0.7-0.7c-0.1-0.3-0.4-0.5-0.6-0.8
					c-0.2-0.2-0.4-0.3-0.5-0.5c-0.1-0.1-0.2-0.2-0.3-0.3c0.2-0.3,0.4-0.7,0.7-1c0.2,0.1,0.4,0.2,0.7,0.3c0.2,0.1,0.5,0.2,0.7,0.3
					c0.3,0.1,0.5,0.1,0.8,0.1c0.3,0,0.5-0.4,0.3-0.7c-0.1-0.1-0.2-0.2-0.2-0.2c-0.1-0.1-0.2-0.2-0.3-0.3c-0.1-0.1-0.3-0.2-0.4-0.2
					c-0.1,0-0.2-0.1-0.3-0.1c-0.2-0.1-0.4-0.1-0.5-0.2c0.5-0.8,0.9-1.7,1.3-2.6c1.8-0.5,3.6-1,5.4-1.5c11-3.2,22-6.9,33.2-9.5
					c19.6-4.5,42.8-5.8,59.3,7.8c3.9,3.2,7.2,7,9.7,11.4c1.2,2.1,2.2,4.3,3,6.6c0.8,2.4,1.1,4.9,1.9,7.3c0.4,1.4,2.9,1.7,3.1,0
					c0.4-2.9-0.2-5.9-1.1-8.8c0.1,0,0.2,0,0.3,0.1C418,73.3,435.4,102.7,435.4,129.6z"/>
				<path class="st2" d="M308.7,155.2c6.8-2.9,14.1-4.6,21.4-5.8c14.4-2.4,29.2-3.4,42.8-9.1c8.9-3.8,17.2-10.1,22.1-18.5
					c-0.5,1.3-1.1,2.5-1.7,3.7c-3.6,6.8-9.1,12-15.6,15.8c-14.8,8.7-32.7,9.7-49.4,11.6c-5.1,0.6-10.2,1.2-15.3,1.8
					C311.6,154.9,310.1,155,308.7,155.2z"/>
				<path class="st0" d="M126.7,116.4c-0.4-0.3-1.1-0.3-1.5,0c-0.5-0.3-1-0.3-1.6,0c-0.4,0.3-0.8,0.6-1.2,0.8
					c-0.5,0.3-0.8,0.4-1.1,0.5c-1,0.3-1.8,0.5-2.7,0.5c-2,0.1-3.6-0.5-5.6-0.8c0,0-0.1,0-0.1,0c-0.3-0.3-0.6-0.6-1-0.9
					c-0.5-0.4-1.4,0-1.5,0.6c-0.3,1.9,1.1,3.7,2.5,4.9c1.6,1.3,3.5,2,5.5,2.2c3.7,0.3,8.4-2.2,9.1-6
					C127.5,117.5,127.3,116.8,126.7,116.4z"/>
				<path class="st0" d="M196.4,119.3c-0.5,0.1-0.8,0.4-1.2,0.7c-0.1,0-0.2,0-0.2,0c-0.9,0-1.4,0.5-2,1.1c-0.4,0.4-0.9,0.7-1.3,1
					c-1,0.6-2.1,1-3.3,1.2c-1.2,0.2-2.5,0-3.6-0.3c-0.6-0.2-1.2-0.4-1.8-0.6c-0.6-0.2-1.3-0.4-1.8-0.7c-0.3-0.2-0.7,0-0.8,0.3
					c-0.4-0.3-0.8-0.6-1.3-0.8c-0.4-0.1-0.9,0.1-1,0.6c-0.5,2.1,2,4.3,3.6,5.3c2.1,1.2,4.4,1.9,6.8,1.7c2.5-0.2,4.7-1.2,6.6-2.8
					c1.6-1.3,3.8-4.1,2.5-6.2C197.2,119.4,196.8,119.2,196.4,119.3z"/>
				<path class="st0" d="M157.2,132.6c-0.8-0.5-1.7-0.2-2.5,0.1c-0.7,0.2-1.4,0.4-2.1,0.6c-1.4,0.3-2.8,0.4-4.2,0.2
					c-1.4-0.1-2.7-0.4-4-0.8c-1.4-0.4-2.7-1.1-4-1.4c-0.7-0.2-1.3,0.6-1,1.3c1.7,2.9,5.6,4.1,8.8,4.5c1.7,0.2,3.4,0.1,5-0.2
					c1.5-0.3,4.4-0.8,4.7-2.5C158.1,133.6,157.9,133,157.2,132.6z"/>
			</g>
			<path class="st1" d="M273.1,53.5C273.1,53.5,273.1,53.5,273.1,53.5c-1,2.9-2.6,5.5-4.5,7.8c-0.8,0.9-1.6,1.8-2.5,2.6
				c0,0.1-0.1,0.1-0.1,0.1c-3.8,3.5-8.5,6-13.4,7.8c-3.2,1.2-6.7,2-10,1.4c-0.4-0.1-0.8-0.2-1.3-0.3c-2.5-0.7-4.9-2.7-5.8-5.2
				c-0.4-1.3-0.3-2.1,0.2-2.7c0,0,0,0,0,0c0.3-0.4,0.8-0.8,1.4-1.2c0.2-0.1,0.5-0.3,0.7-0.4c0.3-0.2,0.6-0.3,0.8-0.5
				c4.6-3,7.9-7.7,9.9-12.8c1.5-3.7,2.5-7.7,4.4-11.2c1.9-3.5,5.1-6.7,9.1-7.1c3.1-0.4,6.3,1,8.4,3.2c2.2,2.2,3.4,5.2,3.9,8.3
				C274.8,46.8,274.3,50.3,273.1,53.5z"/>
			<path class="st1" d="M286,87.1c-0.7,1.7-1.6,3.3-2.8,4.7c0,0,0,0.1-0.1,0.1c-2.9,3.7-6.9,6.5-11.2,8.3c-5.3,2.2-11.1,2.9-16.8,3
				c0,0,0,0-0.1,0c-0.8,0-1.7,0-2.5,0c-1.7,0-3.4-0.1-4.8-1.1c-2.4-1.7-2.6-5-2.7-7.7c-0.1-2.5,0.2-5.4,2.2-7.3
				c1.3-1.2,3.2-1.5,4.7-2.2c1.3-0.6,2.6-1.3,3.9-2c4.2-2.4,8.3-5.3,12-8.3c2.7-2.2,5.6-4.8,9.2-5.1c3.9-0.3,7.7,2.4,9.3,6
				C287.9,79.3,287.5,83.5,286,87.1z"/>
			<path class="st1" d="M248.7,112.4C248.7,112.4,248.7,112.4,248.7,112.4c-0.5-0.1-0.9-0.3-1.4-0.5l1.9,0.1
				C249.1,112.1,248.9,112.2,248.7,112.4z"/>
			<path class="st1" d="M250.9,112.2l-1.6-0.1C249.9,111.9,250.5,111.9,250.9,112.2z"/>
			<path class="st1" d="M284.3,117.7c-1.5,4.1-5.2,7.2-9.3,8.8c-1.3,0.5-2.7,0.9-4.1,1.1c-2.9,0.5-5.9,0.6-8.9,0.3
				c-3.8-0.4-7.7-1.2-10.7-3.6c-3-2.3-5-6.4-3.9-10c0.1-0.2,0.1-0.4,0.2-0.7c0.2-0.5,0.5-1,0.9-1.3c0.3,0.1,0.6,0.2,0.9,0.3
				c3.7,1.2,7.8,1.4,11.6,0.6c2.6-0.5,5-1.4,7.3-2.7c1.8-1.1,3.4-2.3,5.2-3.3c1.8-0.9,4-1.5,6-1.1c2.3,0.5,4.1,2.4,4.9,4.6
				C285.4,113.1,285.2,115.6,284.3,117.7z"/>
			<path class="st3" d="M248.8,124.3c-0.6-0.6-1.2-1.3-1.6-2c-0.4-0.8-0.6-1.6-1-2.4c-0.5-1.1,0.9-2.5,1.8-1.4c0,0,0,0,0,0
				c0.5-1.9,1.6-3.6,2.9-5c-1.2-0.5-2.3-1.1-3-2c-0.2-0.3-0.1-0.7,0.3-0.7c1.7,0,3.2,0.6,4.8,0.9c0.2-0.1,0.5,0,0.8,0.1c0,0,0,0,0,0
				c1.6,0.3,3.2,0.4,4.7,0.3c0.1-1.8,0.2-3.7,0.1-5.5c0-0.9-0.1-1.7-0.1-2.6c-2.7,0.1-5.4-0.2-8.1-0.7
				c-7.1,13.4-14.2,26.9-25.5,36.8c-11.9,10.4-27.3,15.8-42.8,18.9c-17.8,3.6-36.4,4.3-54.3,1.5c4.9,1.9,10.1,3.2,15.2,4.1
				c16.5,2.9,33.6,2.5,50-0.7c16-3.1,32.1-8.6,45.9-17.5c6.6-4.2,12.3-9.7,15.6-16.8c0.1-0.3,0.2-0.5,0.3-0.8
				c-0.8-0.4-1.5-0.9-2.3-1.4C251.3,126.6,249.9,125.5,248.8,124.3z"/>
			<path class="st3" d="M397.3,103.1c-0.9-1.2-3-1.3-3.4,0.4c-2.5,12.1-12.7,20.6-23.6,25.4c-12.6,5.5-26.3,6.9-39.5,10.4
				c-7.2,0.6-14.4,1.2-21.6,1.8c-0.3,0-0.6,0.1-0.9,0.3c-0.4-0.4-0.8-0.8-1.3-1.2c-1.9-1.2-4.2-1.3-6.1,0c-1.9,1.3-3.4,3-5.4,4.2
				c-4,2.5-8.7,3.9-13.4,4.6c-6.3,0.9-12.6,0.3-18.9-0.3c-4.3-0.5-9.5-0.8-13.2-3.2c-0.1-0.5-0.3-1-0.9-1.2
				c-0.4-0.2-0.7-0.3-1.1-0.5c-0.2-0.2-0.4-0.5-0.6-0.8c-0.5-0.6-1.2-0.5-1.5,0c-0.7-0.1-1.3,0.2-1.7,0.9c-0.4,0.7-0.3,1.8,0.3,2.3
				c-4.2,2.8-8.6,5-13.4,6.5c-1.7,0.6-1.8,3,0,3.6c20,6.3,41.8,6.8,62.1,1.3c2.5-0.7,5.1-1.5,7.6-2.4c2.2-0.8,4.4-1.8,6.2-3.4
				c0.8-0.7,1.4-1.6,1.9-2.6c0.1,0.1,0.1,0.1,0.2,0.2c0,0,0,0-0.1,0.1c-0.7,0.6,0.2,1.5,0.9,1.2c0.2-0.1,0.4-0.2,0.6-0.3
				c0.8,0.3,1.6,0.3,2.4,0c13.3-2.2,26.7-4.4,39.9-6.9c11.9-2.3,23.8-5.7,33.2-13.6c4.6-3.8,8.8-8.8,10-14.8c0-0.1,0-0.1,0-0.2
				c0.3-0.5,0.5-0.9,0.7-1.4C398.3,110.3,399.6,106.3,397.3,103.1z"/>
			<path class="st3" d="M435.4,129.6c0,0.3,0,0.6,0,0.9c0,0.6,0,1.2-0.1,1.7c-0.1,1.2-0.2,2.4-0.3,3.7c-0.1,0.7-0.2,1.4-0.3,2
				c0,0,0,0.1,0,0.1c0,0.2-0.1,0.4-0.1,0.6c-0.8,4.3-2.1,8.4-4.3,12.3c-3,5.3-7.2,9.8-12.1,13.4c-11,8.1-24.5,11.8-38,13
				c-15.6,1.4-31.4,0.1-47,1.2c-7.1,0.5-14.1,1.5-21,3.3c-6.8,1.8-13,4.7-19.1,8.3c-2.3,1.4-6.5,3.8-8.6,0.8
				c-1.6-2.4-1.1-6.2-0.6-8.8c0.4-2,1-3.9,1.7-5.8c2.1,2.8,5.7,4.8,9.2,5.2c6,0.7,12-1.7,17.7-3.8c15.2-5.5,31-9.1,47.1-10.7
				c19.5-1.9,40.7-1.3,56.7-12.6c8-5.7,13.9-14,18.1-22.9C434.8,131,435.1,130.3,435.4,129.6z"/>
			<path class="st4" d="M403.4,73.6c-3.5-1.5-7.3-2.8-11.1-3.3c-0.9-0.3-1.8-0.7-2.8-1c-0.8-0.3-1.4-0.1-1.9,0.3
				c-4.3-14-17.6-23.2-31.5-26.3c-8.6-1.9-17.4-2-26.1-1.3c-8.9,0.7-17.8,2.2-26.5,4.4c-9.7,2.4-19.2,5.8-28.4,10
				c-0.7,0.3-1,0.8-1,1.3c-0.1,0-0.1,0.1-0.2,0.1c-0.7,0.3-0.2,1.3,0.5,1.2c0,0,0,0,0,0c0.5,0.9,1.6,1.4,2.8,0.9
				c4.4-2,8.8-3.7,13.3-5.3c2.8-0.7,5.6-1.4,8.5-2.1c8.3-1.8,16.7-3.1,25.2-3.8c15.5-1.2,31.6-0.2,45.1,8.1
				c6.5,3.9,11.9,9.4,15.4,16.1c0.7,1.4,2.4,1.1,3.2,0.1c0.2,0.1,0.4,0.2,0.6,0.3c8.3,3.1,16.8,6.3,24,11.5
				c6.9,5.1,11.8,12.3,15.2,20c2,4.5,3.7,9.1,4.8,13.9c0.4,1.7,3.1,1.3,3-0.4C434.3,98.9,421.2,81.2,403.4,73.6z"/>
			<path class="st4" d="M340.9,57.4c0-0.5,0-0.9-0.2-1.4c-0.6-2-2.4-3.1-4.3-3.8c-1.9-0.7-3.8-1.4-5.8-1.7c-1.9-0.3-3.9-0.3-5.8,0.3
				c-0.8,0.3-1.5,0.7-2.2,1.1c-0.5,0.2-1,0.5-1.4,0.8c-1.5,1.1-2.4,3-2,4.9c0.4,1.8,1.9,3,3.5,3.7c3.5,1.4,7.6,1.5,11.3,0.9
				c1.6-0.2,3.5-0.6,4.9-1.5c0.7-0.4,1.2-1,1.5-1.7C340.8,58.5,341,58,340.9,57.4z"/>
			<path class="st4" d="M316.3,56.5c-0.1-0.3-0.2-0.4-0.5-0.7c-0.1-0.2-0.3-0.3-0.5-0.4c-0.1-0.1-0.3-0.2-0.4-0.2c0,0,0,0-0.1,0
				c-0.2,0-0.4-0.1-0.6-0.1c-0.1,0-0.3,0-0.5,0c-0.2,0-0.3,0-0.5,0c-0.4,0.1-0.7,0.3-1,0.5c-0.3,0.3-0.5,0.7-0.6,1.1
				c0,0.1,0,0.3-0.1,0.4c0,0,0,0,0,0.1c0,0,0,0.1,0,0.1c0,0,0,0,0,0c0,0.1,0,0.2,0,0.2c0,0.2,0,0.5,0.1,0.7c0.2,0.4,0.3,0.6,0.6,0.9
				c0,0,0.1,0.1,0.1,0.1c0.1,0.1,0.3,0.2,0.4,0.3c0,0,0,0,0.1,0c0.2,0.1,0.3,0.2,0.5,0.2c0,0,0.1,0,0.1,0c0.4,0.1,0.5,0.1,0.9,0
				c0.4,0,0.5-0.1,0.9-0.3c0.4-0.2,0.7-0.6,1-0.9c0.1-0.2,0.2-0.4,0.3-0.6c0,0,0-0.1,0-0.1c0-0.2,0.1-0.3,0.1-0.5c0,0,0,0,0-0.1
				C316.5,57.1,316.4,56.9,316.3,56.5z"/>
			<path class="st4" d="M319.4,61.8c0-0.1-0.1-0.2-0.1-0.3c-0.1-0.2-0.2-0.3-0.4-0.4c-0.1,0-0.2-0.1-0.3-0.1c-0.2-0.1-0.4-0.1-0.6,0
				c0,0,0,0,0,0c0,0,0,0,0,0c0,0,0,0,0,0c-0.2,0-0.3,0.1-0.4,0.3c-0.1,0.1-0.2,0.2-0.2,0.3c-0.1,0.1-0.1,0.2-0.1,0.4
				c0,0.2,0,0.3,0.1,0.5c0,0,0,0,0,0l0,0c0.1,0.1,0.2,0.3,0.4,0.4c0.1,0.1,0.3,0.1,0.4,0.1c0.1,0,0.3,0,0.4,0c0.1,0,0.3-0.1,0.4-0.2
				c0.1-0.1,0.2-0.2,0.3-0.3c0-0.1,0.1-0.2,0.1-0.3C319.5,62.2,319.5,62,319.4,61.8z"/>
			<path class="st4" d="M349.4,58.4c-0.8-0.9-2-1-3.1-1c-0.8,0-1.5,0.2-2.1,0.7c-0.4,0.4-0.6,0.9-0.7,1.4c0,0.3,0,0.5,0.1,0.8
				c0,0.1,0,0.3,0.1,0.4c0.2,0.6,0.6,1.1,1.1,1.5c0.5,0.3,1.1,0.4,1.6,0.5c1,0.1,2.2,0,3-0.8c0.3-0.3,0.4-0.6,0.6-0.9
				c0-0.1,0-0.1,0.1-0.2c0-0.2,0.1-0.4,0.1-0.6C350.1,59.5,349.9,58.9,349.4,58.4z"/>
			<path class="st4" d="M345.9,54.4c0-0.2-0.1-0.3-0.2-0.4c-0.1,0-0.1-0.1-0.2-0.1c-0.1-0.1-0.3-0.1-0.5-0.1c-0.1,0-0.2,0-0.3,0.1
				c-0.1,0-0.2,0.1-0.3,0.2c-0.1,0.1-0.2,0.2-0.2,0.3c-0.1,0.1-0.1,0.2-0.1,0.3l0,0.2c0,0.2,0.1,0.3,0.2,0.4c0.1,0,0.1,0.1,0.2,0.1
				c0.1,0.1,0.3,0.1,0.5,0.1c0.1,0,0.2,0,0.3-0.1c0.1,0,0.2-0.1,0.3-0.2c0.1-0.1,0.2-0.2,0.2-0.3c0.1-0.1,0.1-0.2,0.1-0.3
				C345.9,54.6,345.9,54.5,345.9,54.4z"/>
			<path class="st4" d="M341.6,64.4c0-0.3-0.1-0.5-0.3-0.8c0,0,0-0.1-0.1-0.1c-0.1-0.1-0.2-0.3-0.3-0.4c-0.1-0.1-0.3-0.2-0.4-0.3
				c0,0-0.1-0.1-0.1-0.1c-0.6-0.3-1.3-0.4-2-0.4c-0.3,0-0.7,0-1,0.2c-0.4,0.1-0.5,0.2-0.8,0.4c-0.1,0.1-0.2,0.1-0.3,0.2
				c-0.1,0.1-0.2,0.3-0.3,0.4c-0.1,0.1-0.1,0.2-0.2,0.3c-0.1,0.1-0.1,0.2-0.1,0.3c-0.1,0.4-0.1,0.7,0,1.2c0,0,0,0,0,0.1
				c0,0.1,0.1,0.3,0.2,0.5c0.1,0.1,0.2,0.3,0.3,0.4c0,0,0,0,0.1,0.1c0.1,0.1,0.3,0.2,0.4,0.3c0,0,0,0,0,0c0.1,0.1,0.3,0.2,0.4,0.2
				c0.1,0,0.2,0,0.3,0c0.1,0,0.2,0,0.3,0c0.1,0,0.2,0,0.3,0c0.2,0,0.3,0.1,0.5,0.1c0.1,0,0.2,0,0.3,0c0.3,0,0.6,0,0.9-0.1
				c0.8-0.1,1.5-0.8,1.8-1.6c0,0,0,0,0-0.1c0-0.1,0.1-0.3,0.1-0.5C341.7,64.7,341.6,64.5,341.6,64.4z"/>
			<path class="st3" d="M423.4,141.8c-0.6-1.2-1.9-1.8-3.2-1.9c-1.3-0.1-2.4,0.5-3.4,1.3c-0.2,0.2-0.3,0.3-0.5,0.5
				c-0.3,0.1-0.5,0.2-0.8,0.3c-1,0.6-1.8,1.5-2.1,2.6c-0.3,1.1-0.2,2.4,0.5,3.4c0.7,1.1,2.1,1.9,3.4,1.8c1.4-0.1,2.5-0.8,3.5-1.6
				c0.8-0.7,1.6-1.5,2.2-2.4C423.8,144.7,424,143.2,423.4,141.8z"/>
			<path class="st3" d="M428.8,136.6c0,0,0-0.1,0-0.1c-0.2-0.4-0.1-0.3-0.3-0.6c0-0.1-0.1-0.1-0.2-0.2c-0.1-0.1-0.3-0.3-0.5-0.4
				c-0.2-0.1-0.4-0.2-0.6-0.2c-0.1,0-0.4-0.1-0.5-0.1c-0.2,0-0.4,0-0.5,0.1c-0.4,0.1-0.8,0.3-1.1,0.6c-0.2,0.1-0.3,0.3-0.4,0.5
				c-0.1,0.2-0.2,0.4-0.3,0.6c0,0,0,0.1,0,0.1c0,0.2-0.1,0.4-0.1,0.5c0,0.3,0.1,0.6,0.2,0.9c0.1,0.1,0.1,0.2,0.2,0.3
				c0,0.1,0.1,0.2,0.1,0.3c0.1,0.2,0.2,0.3,0.3,0.5c0.2,0.2,0.4,0.3,0.6,0.4c0.4,0.1,0.8,0.1,1.2,0c0.4-0.1,0.7-0.3,1-0.6
				c0.1,0,0.1-0.1,0.1-0.2c0.1-0.1,0.3-0.3,0.4-0.5c0.1-0.2,0.2-0.4,0.2-0.5c0.1-0.2,0.1-0.4,0.1-0.6c0-0.1,0-0.1,0-0.2
				C428.9,137,428.8,136.8,428.8,136.6z"/>
			<path class="st3" d="M422.5,135.1c0-0.1,0-0.1,0-0.2c0,0,0-0.1,0-0.1c0-0.1-0.1-0.2-0.1-0.3c-0.1-0.2-0.2-0.3-0.3-0.4
				c-0.1-0.1-0.2-0.1-0.3-0.2c-0.2-0.1-0.3-0.1-0.5-0.1c-0.1,0-0.2,0-0.4,0c-0.1,0-0.2,0.1-0.3,0.1c-0.2,0.1-0.3,0.2-0.4,0.3
				c-0.1,0.1-0.2,0.3-0.2,0.5c0,0,0,0.1,0,0.1c0,0,0,0,0,0c0,0.1,0,0.3-0.1,0.4c0,0.2,0.1,0.5,0.2,0.7c0.1,0.1,0.1,0.2,0.2,0.3
				c0,0,0,0,0,0c0,0,0,0,0,0c0.1,0.1,0.3,0.2,0.4,0.3c0.2,0.1,0.3,0.1,0.5,0.1c0.1,0,0.2,0,0.4,0c0.2-0.1,0.4-0.2,0.6-0.3
				c0.1-0.1,0.2-0.2,0.3-0.3c0.1-0.2,0.2-0.4,0.2-0.7C422.5,135.2,422.5,135.2,422.5,135.1z"/>
			<path class="st3" d="M389.8,160.3c0-1.2-0.8-2.1-1.9-2.5c-0.7-0.3-1.6-0.3-2.3-0.2c-0.9,0-1.9,0.1-2.8,0.3
				c-1.7,0.3-3.6,1-4.1,2.8c-0.3,1,0.1,2.2,0.9,2.9c0.8,0.7,1.9,1,2.9,0.8c1.1-0.1,2.1-0.4,3.1-0.6c1-0.2,2-0.4,2.8-1.1
				c0.1-0.1,0.3-0.3,0.4-0.4C389.4,161.8,389.8,161.1,389.8,160.3z"/>
			<path class="st3" d="M394.9,160.1c-0.1-0.2-0.1-0.4-0.2-0.5c-0.1-0.2-0.2-0.3-0.3-0.5c-0.2-0.2-0.4-0.3-0.7-0.4
				c-0.2-0.1-0.4-0.2-0.6-0.3c-0.2,0-0.3-0.1-0.5-0.1c0,0-0.1,0-0.1,0c-0.2,0-0.4,0-0.6,0.1c-0.8,0.3-1.4,0.9-1.7,1.7
				c-0.1,0.4-0.1,0.8,0,1.2c0,0.2,0.1,0.4,0.2,0.5c0.1,0.2,0.2,0.3,0.3,0.5c0.2,0.2,0.4,0.4,0.6,0.5c0.1,0.1,0.2,0.1,0.4,0.2
				c0.1,0.1,0.3,0.1,0.4,0.1c0.4,0.1,0.8,0.1,1.2,0c0.4-0.1,0.7-0.3,1-0.6c0.3-0.3,0.5-0.6,0.6-1c0.1-0.2,0.1-0.4,0.1-0.6
				c0-0.1,0-0.2,0-0.3C395,160.5,395,160.3,394.9,160.1z"/>
			<path class="st3" d="M390.8,154.9c-1.5,0-1.5,2.4,0,2.4C392.3,157.3,392.3,154.9,390.8,154.9z"/>
			<path class="st3" d="M427.9,120.2c0-0.1,0-0.1-0.1-0.2c0-0.4-0.1-0.7-0.1-1.1c-0.1-0.8-0.4-1.5-0.9-2.2c-0.2-0.3-0.5-0.5-0.8-0.7
				c0,0-0.1,0-0.1-0.1c-0.1-0.1-0.3-0.1-0.4-0.2c0.1,0,0.2,0.1,0.2,0.1c-0.4-0.2-0.7-0.3-1.1-0.3c-0.8,0-1.6,0.3-2.1,0.9
				c-0.9,1.1-1.1,2.4-1.2,3.8c-0.1,1.5,0.5,3.3,2,4.1c0.9,0.4,1.9,0.4,2.8,0c0.6-0.3,1.2-0.9,1.5-1.5
				C428,122,428.1,121.1,427.9,120.2z"/>
			<path class="st3" d="M430.6,125.7c-0.1-0.3-0.2-0.5-0.4-0.7c-0.1-0.1-0.2-0.2-0.3-0.3c-0.3-0.1-0.5-0.2-0.8-0.2
				c-0.2,0-0.4,0-0.6,0.1c-0.2,0.1-0.4,0.2-0.5,0.3c-0.2,0.2-0.3,0.3-0.3,0.5c-0.1,0.2-0.2,0.4-0.1,0.6c0,0.1,0,0.3,0.1,0.4
				c0.1,0.3,0.2,0.5,0.4,0.7c0.1,0.1,0.2,0.2,0.3,0.3c0.3,0.2,0.5,0.2,0.8,0.2c0.2,0,0.4,0,0.6-0.1c0.2-0.1,0.4-0.2,0.5-0.3
				c0.2-0.2,0.3-0.3,0.3-0.5c0.1-0.2,0.2-0.4,0.1-0.6C430.6,126,430.6,125.9,430.6,125.7z"/>
			<g>
				<path class="st3" d="M356.7,121.6c-1.4-0.5-3.1-0.3-4.5,0c-0.5,0.1-1,0.3-1.5,0.5c0,0,0,0,0,0c-1.2,0-2.3,0.5-3.2,1.3
					c-0.5,0.3-0.9,0.7-1.2,1.2c-0.9,1.4-0.6,3.2,0.6,4.3c1.1,1.1,2.8,1.3,4.3,1.3c1.4,0,2.8-0.3,4.2-0.9c1.6-0.7,3.2-1.6,3.7-3.4
					C359.6,124.1,358.5,122.3,356.7,121.6z"/>
				<path class="st3" d="M349.4,126.5C349.4,126.5,349.4,126.5,349.4,126.5C349.4,126.5,349.4,126.5,349.4,126.5
					C349.4,126.5,349.4,126.5,349.4,126.5C349.4,126.5,349.4,126.5,349.4,126.5z"/>
			</g>
			<path class="st3" d="M369.4,123.1c-0.2-0.7-0.7-1.4-1.3-1.7c-0.7-0.4-1.4-0.4-2.2-0.3c-0.7,0.1-1.3,0.5-1.8,1
				c0,0-0.1,0.1-0.1,0.1c-0.3,0.1-0.6,0.3-0.9,0.5c-0.6,0.5-0.9,1.1-1,1.8c-0.1,0.6,0.1,1.2,0.5,1.7c0.4,0.6,1,1,1.6,1.2
				c1.2,0.4,2.5,0,3.5-0.8C368.8,125.8,369.7,124.5,369.4,123.1z"/>
			<path class="st3" d="M367.5,116.6c0-0.3-0.2-0.5-0.3-0.7c-0.2-0.4-0.7-0.9-1.1-1.1c-0.2-0.1-0.3-0.1-0.4-0.2
				c-0.1,0-0.2-0.1-0.3-0.1c-0.4-0.1-0.9-0.2-1.3,0c-0.9,0.2-1.5,1-1.8,1.8c-0.2,0.5-0.1,0.9-0.1,1.4c0.1,0.5,0.3,0.9,0.6,1.2
				c0.6,0.8,1.7,1.1,2.7,0.8c0.5-0.1,0.9-0.4,1.2-0.7c0.2-0.2,0.3-0.4,0.4-0.6c0.1-0.2,0.2-0.4,0.3-0.7
				C367.6,117.3,367.6,117,367.5,116.6z"/>
			<path class="st3" d="M344.2,129.9c-0.1-0.2-0.3-0.5-0.5-0.6c-0.3-0.3-0.6-0.5-1-0.6c-0.4-0.1-0.7-0.1-1.1-0.1
				c-0.4,0.1-0.7,0.2-1.1,0.4c-0.3,0.2-0.6,0.4-0.8,0.7c-0.1,0.1-0.2,0.2-0.3,0.4c-0.1,0.2-0.2,0.4-0.2,0.6c-0.1,0.2-0.1,0.4,0,0.6
				c0,0.2,0.1,0.4,0.2,0.6c0.1,0.1,0.2,0.2,0.3,0.3c0.2,0.2,0.4,0.3,0.7,0.4c0,0,0,0,0,0c0.1,0.1,0.1,0.1,0.2,0.2
				c0.3,0.3,0.5,0.4,0.9,0.5c0.2,0.1,0.5,0.1,0.8,0.1c0.2,0,0.5,0,0.7-0.1c0.2-0.1,0.3-0.1,0.5-0.2c0.1-0.1,0.3-0.2,0.4-0.3
				c0.1-0.1,0.2-0.3,0.3-0.4c0,0,0-0.1,0-0.1c0.1-0.1,0.1-0.3,0.2-0.4c0.1-0.3,0.1-0.5,0.1-0.8C344.5,130.6,344.4,130.3,344.2,129.9
				z"/>
			<path class="st4" d="M219,58.4c-0.3-1.1-0.7-2.1-1.3-3c0,0,0-0.1-0.1-0.1c0-0.1-0.1-0.2-0.1-0.3c-1.3-2.2-3.1-4.1-5.2-5.6
				c-2.3-1.6-5.4-2.8-8.2-1.5c-0.8,0.4-1.5,1-2,1.8c-1.3,1.2-1.9,3-1.6,4.9c0.2,1.4,0.8,2.7,1.6,3.9c0.6,1.2,1.4,2.3,2.6,3
				c0.2,0.1,0.4,0.2,0.6,0.3c1.9,1.6,4.1,2.8,6.5,3.5c2.9,0.8,6.3,0.3,7.4-2.9C219.5,61.2,219.4,59.8,219,58.4z"/>
			<path class="st4" d="M218.3,70.5c-0.3-1-0.9-1.7-1.7-2.3c-0.7-0.5-1.6-0.7-2.4-0.6c-0.6,0.1-1.1,0.2-1.6,0.5
				c-0.4,0.2-0.7,0.5-1,0.8c-1.4,1.4-1.5,3.6-0.5,5.2c0.6,0.9,1.4,1.5,2.4,1.8c1,0.3,2.3,0.2,3.2-0.4c0.8-0.5,1.3-1.3,1.6-2.2
				C218.5,72.3,218.6,71.4,218.3,70.5z"/>
			<path class="st4" d="M226.1,67.9c0-0.1,0-0.2,0-0.3c0-0.4,0-0.8-0.2-1.1c-0.1-0.2-0.2-0.5-0.3-0.7c-0.1-0.2-0.3-0.4-0.4-0.6
				c-0.1-0.1-0.2-0.2-0.3-0.2c-0.2-0.1-0.4-0.2-0.6-0.2c-0.3,0-0.7,0-1,0.2c-0.2,0.2-0.4,0.3-0.6,0.5c-0.1,0.1-0.2,0.3-0.3,0.5
				c-0.1,0.2-0.2,0.4-0.2,0.5c-0.2,0.5-0.2,1.1-0.1,1.6c0,0.1,0,0.1,0.1,0.2c0.1,0.2,0.1,0.4,0.2,0.6c0.1,0.1,0.1,0.2,0.2,0.3
				c0.1,0.3,0.3,0.6,0.6,0.9c0.2,0.3,0.7,0.4,1,0.4c0.2,0,0.4-0.1,0.6-0.2c0.2,0,0.5-0.1,0.7-0.2c0.3-0.2,0.6-0.6,0.7-0.9
				C226.3,68.7,226.3,68.2,226.1,67.9z"/>
			<path class="st4" d="M207,67.1C207,67.1,207,67.1,207,67.1c0-0.1,0-0.1,0-0.1c0-0.4,0-0.6-0.2-0.9c0,0,0,0,0,0
				c-0.2-0.3-0.3-0.4-0.6-0.6l-0.1-0.1c-0.2-0.1-0.5-0.2-0.8-0.2c-0.2,0-0.4,0-0.6,0.1c-0.2,0.1-0.4,0.2-0.5,0.3
				c-0.2,0.2-0.3,0.4-0.4,0.7c0,0,0,0.1,0,0.1c0,0,0,0,0,0c0,0.1,0,0.3-0.1,0.4c0,0,0,0,0,0c0,0.1,0,0.2,0,0.3c0,0.1,0,0.3,0.1,0.4
				c0,0.1,0.1,0.1,0.1,0.2c0,0,0,0,0,0c0,0,0,0,0,0c0,0,0,0,0,0c0,0,0,0,0,0c0.1,0.1,0.2,0.2,0.3,0.3c0.1,0.1,0.2,0.2,0.3,0.3
				c0.2,0.1,0.4,0.2,0.6,0.2c0.2,0,0.4,0,0.6,0c0.1-0.1,0.3-0.1,0.4-0.2c0.2-0.1,0.4-0.3,0.6-0.6c0-0.1,0.1-0.1,0.1-0.2
				C207,67.6,207,67.4,207,67.1C207,67.2,207,67.1,207,67.1z"/>
			<path class="st4" d="M194.1,52.8c0-0.1-0.1-0.3-0.2-0.4c-0.1,0-0.1-0.1-0.2-0.1c-0.1-0.1-0.3-0.1-0.4-0.1c-0.1,0-0.2,0-0.3,0.1
				c-0.1,0-0.2,0.1-0.3,0.2c-0.1,0.1-0.1,0.2-0.2,0.3c0,0.1-0.1,0.2-0.1,0.3c0,0.1,0,0.1,0,0.2c0,0.1,0.1,0.3,0.2,0.4
				c0.1,0,0.1,0.1,0.2,0.1c0.1,0.1,0.3,0.1,0.4,0.1c0.1,0,0.2,0,0.3-0.1c0.1,0,0.2-0.1,0.3-0.2c0.1-0.1,0.1-0.2,0.2-0.3
				c0-0.1,0.1-0.2,0.1-0.3C194.1,53,194.1,52.9,194.1,52.8z"/>
			<path class="st4" d="M225.7,54.4C225.7,54.4,225.7,54.4,225.7,54.4c0-0.3-0.1-0.6-0.2-0.8c0-0.1-0.1-0.1-0.2-0.2
				c-0.1-0.2-0.2-0.3-0.2-0.5c-0.2-0.3-0.4-0.5-0.6-0.7l0.2,0.3c-0.1-0.1-0.2-0.3-0.3-0.4c-0.2-0.3-0.7-0.4-1-0.4
				c-0.4,0-0.8,0.1-1,0.4c-0.1,0.2-0.3,0.3-0.3,0.5c-0.1,0.2-0.2,0.4-0.2,0.5c-0.1,0.1-0.1,0.3-0.1,0.5c0,0.3-0.1,0.6-0.1,0.8
				c0,0.3,0.1,0.6,0.1,0.8c0.1,0.4,0.3,0.8,0.5,1.2c0.3,0.5,0.7,0.8,1.2,1.2c0.4,0.3,1.1,0.3,1.6,0c0.5-0.3,0.8-0.8,0.8-1.4
				C225.7,55.6,225.8,55,225.7,54.4z"/>
			<path class="st4" d="M239.8,94.6c0-0.2,0-0.4,0-0.6c-0.1-0.9-0.3-1.6-0.9-2.3c-0.3-0.3-0.6-0.5-0.9-0.7c-0.1,0-0.1-0.1-0.2-0.2
				c-1.2-0.8-2.8-0.6-3.8,0.3c-0.7,0.6-1,1.4-1.2,2.3c-0.2,0.6-0.4,1.2-0.4,1.9c0,1.1,0.3,2.3,0.9,3.2c0.9,1.2,2.2,2,3.7,1.7
				c1.3-0.2,2.3-1.3,2.7-2.5C240.1,96.7,240,95.6,239.8,94.6z"/>
			<path class="st4" d="M240.7,104.8c0-0.1,0-0.1,0-0.2c0-0.1-0.1-0.2-0.1-0.4c-0.1-0.1-0.2-0.2-0.2-0.3c0,0-0.3-0.2-0.3-0.2l0,0
				c0,0,0,0,0,0c-0.1,0-0.1-0.1-0.2-0.1c-0.2-0.1-0.4-0.1-0.6-0.1c-0.1,0-0.3,0-0.4,0.1c-0.1,0-0.2,0.1-0.3,0.1c0,0,0,0,0,0l0,0
				c-0.1,0-0.1,0-0.2,0.1c-0.1,0.1-0.2,0.2-0.3,0.3c-0.1,0.1-0.2,0.3-0.3,0.5c0,0,0,0,0,0c0,0.1,0,0.3-0.1,0.4v0.1
				c0,0.2,0,0.4,0.1,0.6c0.1,0.2,0.2,0.3,0.3,0.5c0.1,0.1,0.3,0.2,0.5,0.3c0.2,0.1,0.4,0.1,0.6,0.1c0.1,0,0.3,0,0.4-0.1
				c0.2-0.1,0.5-0.2,0.6-0.4c0.1-0.1,0.2-0.2,0.2-0.3c0.1-0.2,0.2-0.5,0.2-0.7V105c0,0,0,0,0,0C240.8,104.9,240.8,104.8,240.7,104.8
				z"/>
			<path class="st5" d="M211.2,130.1c-2.3-4.7-9.5-4.2-13.6-2.6c-2.4,0.9-4.8,2.3-6.2,4.5c-1.5,2.2-1.3,5,0.7,6.8
				c2.1,1.9,4.9,1.9,7.5,1.9c2.6-0.1,5.4-0.3,7.6-1.9c0.5-0.4,1-0.8,1.4-1.2c0.1-0.1,0.3-0.2,0.4-0.3
				C211.2,135.7,212.5,132.8,211.2,130.1z"/>
			<path class="st5" d="M119.7,132.9c-0.6-0.8-1.3-1.6-2-2.3c-1.1-1.7-2.5-3.3-3.9-4.5c-2.2-1.9-5.4-4.3-8.3-2.4
				c-2.8,1.8-2,5.5-0.9,8.1c1,2.3,2.6,4.3,4.6,5.9c2.1,1.6,5,3,7.7,2.8c1.6-0.2,3.2-1,3.8-2.6C121.3,136,120.7,134.2,119.7,132.9z"
				/>
			<path class="st5" d="M188.5,135.2c-0.1-0.3-0.2-0.6-0.4-0.9c-0.1-0.1-0.2-0.2-0.4-0.3c-0.1,0-0.1-0.1-0.2-0.1
				c-0.3-0.1-0.6-0.2-0.9-0.2c-0.2,0-0.4,0-0.5,0.1c-0.1,0-0.1,0-0.2,0.1c-0.3,0.1-0.6,0.3-0.8,0.5c-0.1,0.1-0.2,0.3-0.3,0.4
				c-0.1,0.1-0.1,0.2-0.2,0.4c0,0,0,0.1,0,0.1c-0.1,0.4-0.1,0.7,0,1c0,0.2,0.1,0.3,0.2,0.5c0,0.1,0.1,0.1,0.1,0.2
				c0.1,0.1,0.2,0.3,0.3,0.4c0.1,0.1,0.3,0.2,0.4,0.3c0.2,0.1,0.3,0.2,0.5,0.2c0,0,0.2,0,0.4,0c0.2,0,0.5-0.1,0.7-0.2
				c0.2-0.1,0.4-0.3,0.5-0.5c0,0,0,0,0,0c0.1-0.1,0.3-0.2,0.4-0.3c0.1-0.1,0.2-0.2,0.2-0.3c0.1-0.1,0.1-0.2,0.2-0.3
				c0-0.1,0.1-0.2,0.1-0.4c0-0.1,0-0.2,0-0.2C188.6,135.4,188.5,135.3,188.5,135.2z"/>
			<path class="st5" d="M189.8,139.4c-1.4,0-1.4,2.1,0,2.1C191.1,141.5,191.1,139.4,189.8,139.4z"/>
			<path class="st5" d="M204.8,122.8c-1.1,0-1.1,1.7,0,1.7C205.9,124.6,205.9,122.8,204.8,122.8z"/>
			<path class="st5" d="M123,129.2c-0.1-0.2-0.1-0.3-0.3-0.4c-0.2-0.2-0.4-0.3-0.6-0.3c-0.1-0.1-0.2-0.1-0.3-0.2c-0.1,0-0.1,0-0.2,0
				c0,0-0.1,0-0.1,0c0,0-0.1,0-0.1,0c0,0-0.1,0-0.1,0c0,0,0,0-0.1,0c-0.1,0-0.3,0-0.4,0.1c0,0,0,0,0,0c-0.1,0-0.2,0.1-0.3,0.1
				c-0.2,0.1-0.3,0.2-0.4,0.4c-0.1,0.1-0.2,0.3-0.3,0.5l-0.1,0.4c0,0.3,0.1,0.5,0.2,0.7c0.1,0.1,0.2,0.2,0.2,0.3
				c0.2,0.2,0.4,0.3,0.6,0.4c0,0,0,0,0.1,0c0,0,0,0,0,0c0.1,0.1,0.2,0.2,0.4,0.2l0.3,0l0.3,0c0.2,0,0.3-0.1,0.4-0.2
				c0.1-0.1,0.2-0.2,0.3-0.3c0.1-0.1,0.2-0.3,0.2-0.4c0.1-0.2,0.2-0.4,0.2-0.7C123.1,129.6,123.1,129.4,123,129.2z"/>
			<path class="st5" d="M127,129.3c0-0.1-0.1-0.2-0.2-0.3c-0.1-0.1-0.2-0.2-0.3-0.2c-0.1-0.1-0.3-0.1-0.4-0.1c-0.1,0-0.2,0-0.3,0
				c-0.2,0-0.3,0.1-0.5,0.3c-0.1,0.1-0.1,0.1-0.2,0.2c-0.1,0.2-0.1,0.3-0.1,0.5c0,0,0,0.1,0,0.1c0,0,0,0,0,0c0,0,0,0.1,0,0.1
				c0,0.1,0,0.3,0.1,0.4c0,0,0,0.1,0.1,0.1c0,0,0.1,0.1,0.1,0.1c0,0,0.1,0.1,0.1,0.1c0.1,0.1,0.2,0.1,0.3,0.2
				c0.1,0.1,0.2,0.1,0.3,0.1c0.1,0,0.2,0,0.2,0c0.1,0,0.3-0.1,0.4-0.2c0,0,0.1-0.1,0.1-0.1c0.1-0.1,0.1-0.1,0.2-0.2
				c0-0.1,0.1-0.2,0.1-0.2c0-0.1,0-0.2,0-0.3c0,0,0,0,0,0c0,0,0-0.1,0-0.1C127.1,129.6,127.1,129.4,127,129.3z"/>
			<path class="st5" d="M124.9,134.2c0-0.1-0.1-0.3-0.2-0.4c-0.1,0-0.1-0.1-0.2-0.1c-0.1-0.1-0.3-0.1-0.4-0.1c-0.1,0-0.2,0-0.3,0.1
				c-0.1,0-0.2,0.1-0.3,0.2c-0.1,0.1-0.1,0.2-0.2,0.3c-0.1,0.1-0.1,0.2-0.1,0.3c0,0.1,0,0.2,0,0.2c0,0.1,0.1,0.3,0.2,0.4
				c0.1,0,0.1,0.1,0.2,0.1c0.1,0.1,0.3,0.1,0.4,0.1c0.1,0,0.2,0,0.3-0.1c0.1,0,0.2-0.1,0.3-0.2c0.1-0.1,0.1-0.2,0.2-0.3
				c0.1-0.1,0.1-0.2,0.1-0.3C124.9,134.4,124.9,134.3,124.9,134.2z"/>
			<path class="st5" d="M185,140.2c-0.1-0.2-0.1-0.3-0.3-0.5c-0.1-0.1-0.1-0.1-0.2-0.2c-0.2-0.1-0.3-0.1-0.5-0.1
				c-0.1,0-0.3,0-0.4,0.1c-0.1,0-0.2,0.1-0.3,0.2c-0.1,0.1-0.2,0.2-0.2,0.3c-0.1,0.1-0.1,0.3-0.1,0.4c0,0.1,0,0.2,0,0.3
				c0.1,0.2,0.1,0.3,0.3,0.5c0.1,0.1,0.1,0.1,0.2,0.2c0.2,0.1,0.3,0.1,0.5,0.1c0.1,0,0.3,0,0.4-0.1c0.1,0,0.2-0.1,0.3-0.2
				c0.1-0.1,0.2-0.2,0.2-0.3c0.1-0.1,0.1-0.3,0.1-0.4C185,140.4,185,140.3,185,140.2z"/>
			<path class="st6" d="M93.5,104.9c3.2-0.1,6.4-2,8-4.7c-1.2,4.3-2.3,8.6-3.5,12.9c-3.3,0.4-6.8-0.7-9.4-2.9
				c-1.2-1-5.5-5.9-3.5-7.5c1.2-0.9,2.6,0.8,3.6,1.2C90.3,104.6,91.9,105,93.5,104.9z"/>
			<path class="st6" d="M100.2,81.1c3.8,0.2,7.6-1.7,9.8-4.8c0.7,0.2,1.1,1.1,1.1,1.8c0,0.8-0.4,1.5-0.8,2.1
				c-0.7,1.4-1.5,2.8-2.2,4.2c-0.5,1-1.1,2-1.9,2.7c-1.4,1.1-3.3,1.2-5,0.9c-2.9-0.5-5.5-2-7.4-4.3c-0.9-1-4.2-6.5-2.3-7.5
				C93.9,78.9,96.5,80.9,100.2,81.1z"/>
			<path class="st6" d="M110.5,56c5,0.6,10.2-2,12.6-6.4c1.9,1.2,3.5,2.8,4.8,4.5c0.4,0.5,0.7,1,0.7,1.6c0,0.8-0.6,1.6-1.2,2.2
				c-2.1,2.3-4.3,4.6-6.4,6.9c-1.5,1.6-3.1,3.2-5.2,3.5c-2.5,0.4-4.8-1.2-6.6-3c-2.3-2.2-4.3-4.8-5.8-7.7c-1-1.9-3.5-6.2-2.6-8.3
				C103.5,52.7,106.1,55.4,110.5,56z"/>
			<path class="st6" d="M273.1,53.5C273.1,53.5,273.1,53.5,273.1,53.5c-0.2,2.6-1.8,5.2-3.7,7.2c-1.1,1.2-2.2,2.3-3.4,3.2
				c0,0.1-0.1,0.1-0.1,0.1c-6.5,5.4-15,8.4-23.5,9.2c-0.4-0.1-0.8-0.2-1.3-0.3c-2.5-0.7-4.9-2.7-5.8-5.2c-0.4-1.3-0.3-2.1,0.2-2.7
				c0,0,0,0,0,0c0.1-0.1,0.2-0.2,0.3-0.3c0.3-0.3,0.7-0.6,1.1-0.9c0.2-0.1,0.5-0.3,0.7-0.4c1.1-0.6,2.3-1.1,3.4-1.5l4.1-5.5
				c4,3.8,9.8,5.6,15.2,4.6c5.4-1,10.2-4.8,12.5-9.8C273.1,52,273.2,52.8,273.1,53.5z"/>
			<path class="st6" d="M283.4,91.8c-0.1,0-0.1,0.1-0.2,0.1c-8,6.4-17.9,10.3-28,11.3c0,0,0,0-0.1,0c-0.8,0-1.7,0-2.5,0
				c-1.7,0-3.4-0.1-4.8-1.1c-2.4-1.7-2.6-5-2.7-7.7c-0.1-2.5,0.2-5.4,2.2-7.3c1.3-1.2,3.2-1.5,4.7-2.2c1.3-0.6,2.6-1.3,3.9-2l0.8,0
				c-0.5,1.8,0.1,3.8,1.2,5.3c1.1,1.5,2.6,2.6,4.3,3.5c6.5,3.5,14.7,3.4,21.1-0.1C283.3,91.8,283.3,91.8,283.4,91.8z"/>
			<path class="st6" d="M271,127.7c-2.9,0.5-5.9,0.6-8.9,0.3c-3.8-0.4-7.7-1.2-10.7-3.6c-3-2.3-5-6.4-3.9-10
				c0.1-0.2,0.1-0.4,0.2-0.7c0.5-0.5,1.1-0.8,1.8-1c1.2-0.3,2.5-0.3,3.7-0.3c1.8,0.1,5.9-0.2,8,0.9c0.5,0.3,0.9,0.7,1.1,1.1
				c0.6,1.2,0.2,2.9,0.4,4.1c0.3,1.7,0.9,3.3,1.9,4.7C266.2,125.5,268.5,127,271,127.7z"/>
			<g>
				<path class="st7" d="M308.1,145.3C308.1,145.3,308.1,145.3,308.1,145.3C308.1,145.3,308.1,145.4,308.1,145.3
					C308.1,145.4,308.1,145.3,308.1,145.3z"/>
				<path class="st7" d="M430.6,95.4c-6.7-12.5-17.7-22.7-31.2-27.3c-3.2-1.1-6.6-1.8-10-2.3c-0.6-0.1-1.2,0.3-1.5,0.7
					c-0.3-0.6-0.5-1.2-0.8-1.7c-2-4.2-4.9-8-8.2-11.2c-7.2-7.1-16.7-11.6-26.6-13.5c-23.1-4.4-45.7,3.3-67.6,10.1
					c-3,0.9-5.9,1.8-8.9,2.7c0.3-1.3,0.6-2.7,0.6-4.2c0.4-6.2-2.2-13.4-7.4-17c0-0.4,0.1-0.8,0.1-1.2c0-0.6,0-1.1,0-1.7
					c0-0.3-0.2-0.5-0.5-0.6c-0.3,0-0.6,0.1-0.6,0.4c-0.1,0.5-0.3,1.1-0.4,1.6c0,0.2-0.1,0.3-0.1,0.5c-0.7-0.4-1.5-0.7-2.3-0.9
					c-0.5-0.1-0.9-0.2-1.3-0.3l0-0.5c0-0.5-0.1-1-0.2-1.5c0-0.3-0.2-0.5-0.5-0.5c-0.3,0-0.5,0.2-0.5,0.5c-0.1,0.5-0.1,1-0.2,1.5
					c0,0.1,0,0.2,0,0.3c-1.6-0.1-3.2,0.3-4.6,0.9l-0.1-0.3c-0.2-0.6-0.4-1.2-0.7-1.8c-0.1-0.3-0.4-0.5-0.8-0.4
					c-0.3,0.1-0.5,0.4-0.4,0.8c0.1,0.6,0.2,1.2,0.4,1.9c0,0.2,0.1,0.4,0.1,0.6c-3.7,2.3-6.6,6.4-8.1,10.5c-0.1-0.1-0.1-0.1-0.2-0.2
					c-0.1-0.1-0.2-0.1-0.3-0.1c-0.1-0.1-0.3-0.1-0.5,0c-0.1,0.1-0.2,0.2-0.2,0.4c0,0.1,0,0.2,0,0.3c0,0.2,0.1,0.4,0.2,0.6
					c0,0.1,0.1,0.2,0.2,0.3c0.1,0.1,0.1,0.2,0.2,0.3c0,0,0,0,0,0c-0.3,0.9-0.6,1.9-0.9,2.9c0,0-0.1,0-0.1-0.1
					c-0.2-0.1-0.3-0.2-0.5-0.2c-0.1-0.1-0.3-0.1-0.4-0.2c0,0-0.1,0-0.1,0c-0.2,0-0.3,0-0.5,0c-0.5,0.1-0.7,0.7-0.5,1.1
					c0.2,0.3,0.5,0.5,0.9,0.6c0.2,0.1,0.3,0.1,0.5,0.2l0.3,0.1c-0.8,3-1.7,5.9-3.1,8.6c-0.2,0.3-0.3,0.5-0.5,0.8
					c-5.9-6.7-13-12.4-20.9-16.6c-13.9-7.4-30-10.5-45.6-8.6c-3.8,0.5-7.6,1.3-11.3,2.4c-0.2,0.1-0.4,0.2-0.5,0.3
					c-1,0.3-2.1,0.6-3.1,1c-3.3,1.2-6.5,2.6-9.7,4.1c-6.4,3.1-12.5,6.8-18,11.4c-0.2,0.1-0.2,0.3-0.2,0.5c-1.1,0.9-2.3,1.8-3.4,2.7
					c-5.9-2.9-6.2-10.2-7.9-15.9c-1.2-4.2-4.1-8.6-8.2-10c0.1-0.1,0.1-0.2,0.2-0.2c0.1-0.1,0.2-0.3,0.2-0.4c0-0.1,0.1-0.2,0.1-0.3
					c0-0.1,0.1-0.2,0.1-0.4c0-0.2,0-0.3,0-0.5c0-0.2-0.3-0.3-0.4-0.2c-0.2,0.1-0.3,0.1-0.4,0.2c-0.1,0.1-0.2,0.2-0.3,0.3
					c-0.1,0.1-0.1,0.2-0.2,0.3c-0.1,0.1-0.2,0.3-0.3,0.4c-0.1,0.2-0.2,0.4-0.4,0.6c-0.5-0.1-1-0.1-1.6-0.1c0-0.1,0.1-0.1,0.1-0.2
					c0.1-0.2,0.2-0.4,0.2-0.6c0-0.2,0-0.4-0.1-0.6c-0.1-0.2-0.3-0.3-0.5-0.3c-0.1,0-0.3,0-0.4,0.1c-0.1,0.1-0.2,0.1-0.2,0.2
					c-0.2,0.1-0.2,0.3-0.3,0.5c-0.1,0.2-0.2,0.4-0.2,0.6c0,0.1-0.1,0.2-0.1,0.4c-5.8,1.3-9.3,7.8-10.6,13.2
					c-0.4-0.1-0.9-0.1-1.3-0.1c-0.2,0-0.5,0.1-0.6,0.3c0,0,0,0-0.1,0c-0.2,0.1-0.3,0.1-0.4,0.3c0,0.1-0.1,0.2-0.1,0.3
					c0,0.1,0,0.2,0.1,0.3c0.1,0.2,0.2,0.2,0.4,0.3c0,0,0,0,0.1,0c0.2,0.2,0.4,0.3,0.6,0.3c0.3,0,0.6,0,1-0.1
					c-0.1,0.4-0.1,0.8-0.2,1.3c-0.1,0-0.2,0-0.4-0.1c-0.2,0-0.4,0-0.6-0.1c-0.2,0-0.4,0-0.6,0.1c-0.3,0.1-0.5,0.4-0.5,0.7
					c0,0.3,0.1,0.5,0.3,0.7c0.2,0.2,0.5,0.3,0.8,0.3c0.2,0,0.4,0,0.6,0c0.1,0,0.2,0,0.3,0c-0.3,4.8,0.8,9.7,3.3,13.9
					c1.7,2.8,3.9,5.2,6.5,7.1c2,1.5,4.4,3,7,3.7c-1.2,1.6-2.3,3.3-3.4,5c-2.9-2.3-5.1-5.3-8-7.5c-1.8-1.4-4.1-2.5-6.5-2.6
					c0-0.1,0-0.2,0.1-0.2c0-0.1,0.1-0.3,0-0.5c0,0,0-0.1,0-0.1c0-0.1,0-0.2,0-0.3c0-0.2-0.1-0.3-0.1-0.4c-0.1-0.1-0.3-0.2-0.4-0.1
					c-0.1,0.1-0.2,0.2-0.3,0.3c0,0-0.1,0.1-0.1,0.1c0,0,0,0.1-0.1,0.1c0,0,0,0-0.1,0c-0.1,0.1-0.2,0.2-0.2,0.4c0,0.1,0,0.2-0.1,0.3
					c0,0.1,0,0.2-0.1,0.3c-0.3,0-0.6,0.1-0.9,0.1c0-0.2,0.1-0.3,0.1-0.5c0-0.1,0.1-0.3,0.1-0.5c0-0.2,0-0.3-0.1-0.4
					c-0.1-0.3-0.3-0.5-0.6-0.5c-0.3,0-0.5,0.1-0.7,0.3c-0.1,0.1-0.2,0.2-0.2,0.4c0,0.1,0,0.3-0.1,0.4c0,0.2,0,0.4-0.1,0.6
					c0,0.2,0,0.5-0.1,0.7c-0.4,0.2-0.8,0.4-1.2,0.7c-2.9,2.2-3.9,6.1-3.4,9.6c0,0.2,0.1,0.4,0.1,0.7c-0.1,0-0.1,0.1-0.2,0.1
					c-0.1,0-0.2,0.1-0.3,0.1c-0.2,0.1-0.4,0.2-0.6,0.3c-0.2,0.1-0.3,0.2-0.4,0.4c0,0-0.1,0.1-0.1,0.1c-0.1,0.1-0.2,0.2-0.2,0.4
					c0,0.1,0,0.2,0,0.3c0,0.1,0,0.1,0,0.2c0,0.1,0.1,0.2,0.1,0.3c0.1,0.2,0.2,0.2,0.4,0.3c0.2,0.1,0.5,0,0.7,0
					c0.2,0,0.4-0.1,0.5-0.2c0.2-0.1,0.4-0.2,0.6-0.3c0.2,0.5,0.4,1,0.6,1.5l-0.4,0.4c-0.1,0.1-0.2,0.2-0.3,0.2
					c-0.1,0.1-0.2,0.2-0.2,0.3c0,0.1-0.1,0.1-0.1,0.2c0,0.1-0.1,0.2-0.1,0.3c0,0.1,0,0.3,0.1,0.4c0.1,0.2,0.4,0.3,0.6,0.2
					c0.1,0,0.1,0,0.2,0c0.1,0,0.1,0,0.2-0.1c0.1,0,0.1,0,0.2-0.1c0,0,0.1,0,0.1-0.1c0,0,0,0,0,0c0.1-0.1,0.2-0.2,0.3-0.2
					c0,0,0.1-0.1,0.1-0.1c1,1.7,2.3,3.3,3.8,4.5c1.8,1.4,4,2.5,6.3,2.9c1.1,0.2,2.3,0.4,3.5,0.3c0,0,0,0,0.1,0c-1,2.4-2,4.8-2.8,7.3
					c-1.2-0.2-2.5-0.8-3.5-1.4c-1.5-0.9-2.9-2.1-4.5-2.8c-3.3-1.4-6.6-0.1-8.4,2.9c-0.1,0.2-0.2,0.3-0.3,0.5c-0.3,0-0.6,0-0.9,0
					c-0.3,0-0.5,0-0.8,0.1c0,0-0.1,0-0.1,0c-0.2,0-0.3,0.1-0.4,0.2c-0.1,0.1-0.2,0.2-0.2,0.3c-0.1,0.2-0.1,0.4,0.1,0.6
					c0.3,0.4,1,0.4,1.4,0.3c0.1,0,0.1,0,0.2,0c-0.2,0.6-0.4,1.2-0.5,1.8c-0.1,0-0.3-0.1-0.4-0.1c-0.1,0-0.2,0-0.3-0.1
					c-0.1,0-0.2,0-0.3,0c-0.2,0-0.3,0-0.4,0c-0.3,0.1-0.6,0.4-0.6,0.7c0,0.3,0.1,0.6,0.4,0.8c0.2,0.1,0.5,0.2,0.8,0.2
					c0.2,0,0.4,0.1,0.7,0.1c-0.2,4,1.7,8.1,4.9,10.6c-0.2,0.4-0.4,0.9-0.6,1.4c0,0.1-0.1,0.3-0.1,0.4c0,0.1,0,0.3-0.1,0.4
					c0,0.1,0,0.3-0.1,0.4c0,0.1,0,0.3,0,0.4c0,0.1,0,0.1,0.1,0.2c0.1,0.3,0.4,0.4,0.6,0.3c0.2-0.1,0.3-0.2,0.4-0.3
					c0.1-0.1,0.1-0.2,0.2-0.3c0.1-0.1,0.2-0.2,0.2-0.3c0.1-0.2,0.2-0.4,0.2-0.5c0.1-0.3,0.2-0.7,0.3-1c1.3,0.8,2.8,1.3,4.3,1.5
					c1,0.2,2.3,0.3,3.5,0.1c-0.7,5.4-0.8,10.9-0.1,16.3c1.2,8.2,4.7,15.6,10.4,21.6c5.7,6,13,10.2,20.8,12.9c8.4,3,17.5,4.3,26.4,5
					c8.8,0.7,17.6,0.5,26.3-0.4c16.5-1.8,32.5-6.3,47.5-13.3c3.9,1.9,8.1,3,12.3,4c4.6,1.1,9.3,1.9,14,2.3
					c9.4,0.9,18.9,0.7,28.3-0.7c3.7-0.5,7.5-1.3,11.1-2.2c-1,0.8-1.9,1.6-2.8,2.5c-4.6,4.5-8.4,10-10.2,16.2c-1.5,5.1-3,14.7,3.6,17
					c3.4,1.2,6.9-0.6,9.8-2.3c0.3-0.2,0.6-0.4,0.9-0.5c11.8-3.8,24.1-4.2,36.3-3.2c12.6,1,25.1,3.3,37.8,3.4
					c11.9,0.1,23.7-1.9,34.4-7.4c9.5-4.9,17.7-12.3,23.6-21.2c2.7-4,4.8-8.4,6.5-12.9c2-3.8,3.4-7.9,4.1-12.4
					C440.9,124.2,437.6,108.4,430.6,95.4z M110.8,65c-2.1-1.4-4-3.3-5.5-5.4c-3.3-4.7-4.6-10.6-3.5-16.3c0.9-4.6,3.9-11.8,9.4-12.2
					c6.2-0.4,8.2,7.6,9.2,12.2c1,4.6,3,10.8,7.6,12.9c-3.9,3.6-7.6,7.5-10.9,11.7C115,67.1,112.8,66.4,110.8,65z M97.7,84.9
					c-2.8-1.7-4.8-4.5-5.6-7.7c-0.6-2.6-0.5-5.9,1.6-7.7c2.8-2.5,6.8-0.5,9.2,1.6c2.5,2.2,4.6,5.1,7.3,7c-0.9,1.5-1.8,3-2.6,4.6
					c-0.7,1.4-1.4,2.9-2.1,4.3C102.9,86.9,100.1,86.3,97.7,84.9z M98,111.2c-1-0.1-2.1,0.2-3.1,0c-1.2-0.2-2.4-0.6-3.5-1.2
					c-2.2-1.2-3.9-3.3-4.5-5.8c-0.7-2.5-0.4-5.2,0.9-7.4c0.6-1,1.5-1.9,2.8-2c1.4-0.1,2.8,0.7,3.9,1.4c1.4,0.9,2.8,1.9,4.4,2.5
					c0.7,0.3,1.4,0.4,2,0.3c-0.6,1.9-1.1,3.9-1.6,5.9C98.8,107,98.3,109.1,98,111.2z M193.1,164c-16.4,3.1-33.5,3.5-50,0.7
					c-15.3-2.7-31.6-9.4-38.8-24.2c-3.6-7.4-4.1-15.9-3.3-24c0.8-7.7,2.8-15.3,5.6-22.4c5.6-14.3,14.7-27.2,26.4-37.1
					c12-10.2,26.6-17.1,42-20.2c1.3-0.3,2.6-0.5,3.9-0.7c3.6-0.2,7.3-0.1,10.8,0c4.8,0.2,9.6,1,14.3,2.2c8.6,2.3,16.7,6.3,23.6,11.9
					c3.8,3.1,7.2,6.7,10.3,10.6c0.2,0.3,0.5,0.5,0.8,0.5c-1.6,1.1-3.4,1.9-5.4,2c-1,0.1-1.4,1.7-0.3,1.9c7.5,1.5,12.7-5.6,15-11.8
					c2.5-6.8,3.3-15.8,10.4-19.6c7.2-3.8,13.4,4.5,14.2,10.9c0.3,2.7,0.1,5.2-0.7,7.7c-0.1,0.6-0.3,1.2-0.6,1.8c0,0,0,0,0,0
					c0,0,0,0,0,0c-0.2,0.4-0.5,0.9-0.8,1.3c-0.4,0.8-0.8,1.6-1.4,2.3c0,0.1,0,0.1,0,0.2c0.1,0,0.2-0.1,0.3-0.1
					c-1.3,2-2.9,3.8-4.7,5.3c-3.3,2.8-7.2,4.7-11.3,5.8c-2.2,0.6-4.5,1.1-6.8,1.4c-2.4,0.3-4.8,0.2-7.2,0.8c-1.6,0.4-1.6,2.8,0,3.2
					c2.3,0.6,4.6,0.3,6.9,0.1c1.3-0.1,2.5-0.3,3.8-0.5c1.6,3,2.9,6.2,4.1,9.4c-0.7,0.4-1.4,0.8-2.2,1.1c-1.8,0.7-3.7,0.5-5.5,1.2
					c-0.8,0.3-1.2,1.3-0.5,2c2.4,2.1,6.1,1,8.7-0.3c3-1.4,5.4-3.7,7.6-6.1c3.9-4.3,8.7-11.1,15.3-10.1c5.8,0.9,8.8,7.2,7.9,12.6
					c-1.2,6.5-6.5,11.1-12.2,13.9c-6.9,3.4-15.1,4.7-22.7,4.3c-0.9-0.1-1.1,1.4-0.2,1.5c2.7,0.5,5.4,0.8,8.1,0.7
					c0.1,0.9,0.1,1.7,0.1,2.6c0,1.8,0,3.6-0.1,5.5c-1.7,0.1-3.4,0-5-0.3c-1.8-0.3-3.5-1-5.4-1.1c-0.4,0-0.5,0.5-0.3,0.7
					c1.7,2.1,5.1,2.8,7.7,3.1c2.8,0.3,5.7,0.1,8.5-0.6c2.9-0.8,5.6-2.2,8-3.9c2.2-1.6,4.6-3.6,7.5-2.6c2.6,0.9,4.5,3.6,4.7,6.3
					c0.2,3-1.3,5.9-3.3,8.1c-4.1,4.5-10.5,6.6-16.5,6.1c-1.8-0.1-3.5-0.5-5.1-1.2c0,0-0.1-0.1-0.1-0.1c-1-0.5-1.9-1.1-2.7-1.9
					c-0.1,0.2-0.1,0.4-0.2,0.6c-0.3-0.2-0.7-0.4-1-0.6c-1.3-0.8-2.5-1.8-3.6-2.9c-0.6-0.6-1.1-1.3-1.8-1.8c-0.6-0.6-1.3-1-1.9-1.7
					c-0.9-1.1-2.3,0.3-1.8,1.4c0.3,0.8,0.5,1.6,1,2.4c0.4,0.7,1,1.4,1.6,2c1.2,1.2,2.5,2.3,3.9,3.3c0.7,0.5,1.5,0.9,2.3,1.4
					c-0.1,0.3-0.2,0.5-0.3,0.8c-3.3,7.2-9.1,12.6-15.6,16.8C225.2,155.4,209.1,161,193.1,164z M404.3,182
					c-10.2,5.7-21.6,7.9-33.2,7.9c-12.4,0-24.8-2-37.1-2.9c-10.3-0.8-21-0.9-31,1.7c0.4-0.2,0.8-0.4,1.3-0.6
					c6.8-2.8,14.1-4.5,21.3-5.4c15.8-2,31.8-0.8,47.7-1.5c14.5-0.6,29.2-2.9,41.9-10.3c3.1-1.8,6-3.9,8.7-6.3
					C418.8,171.7,412.1,177.6,404.3,182z M435.3,132.3c-0.1,1.2-0.2,2.4-0.3,3.7c-0.1,0.7-0.2,1.4-0.3,2.1c0,0,0,0.1,0,0.1
					c0,0.2-0.1,0.4-0.1,0.6c-0.8,4.3-2.2,8.4-4.3,12.3c-3,5.3-7.2,9.8-12.1,13.4c-11,8.1-24.5,11.7-38,13c-15.6,1.4-31.4,0.1-47,1.2
					c-7,0.5-14.1,1.5-20.9,3.3c-6.8,1.8-13,4.7-19.1,8.3c-2.3,1.4-6.5,3.8-8.6,0.7c-1.6-2.4-1.1-6.1-0.6-8.8
					c1.1-6.1,4.4-11.7,8.6-16.2c3.2-3.4,6.9-6.1,10.9-8.3c3-0.2,6-0.7,9-1c4.7-0.5,9.5-1,14.2-1.5c9.2-1,18.5-1.8,27.7-3.4
					c8.3-1.5,16.4-3.8,23.9-7.7c6.8-3.6,13.3-8.8,17.3-15.4c4.4-7.2,7.1-17.2,4.2-25.4c-0.8-2.3-4.1-1.4-3.6,1
					c0.4,1.9,0.7,3.8,0.8,5.7c-2.3,11.3-10.7,20.6-21,25.9c-13.7,7-29.5,7.9-44.4,10.2c-7,1.1-14.2,2.5-20.9,4.9
					c1.1-1.8,1.7-3.8,1.6-6c-0.2-3.5-1.9-7-4.7-9.2c-3.3-2.6-7.7-3.3-11.6-1.9c-0.1,0-0.2,0.1-0.3,0.1c-0.3-0.2-0.7-0.3-1.2-0.3
					c-0.8-0.1-1.5-0.2-2.3-0.1c-1.5,0.1-3,0.6-4.3,1.3c-1.2,0.7-2.2,1.6-3,2.7c-0.4,0.6-0.9,1.3-1.1,2c-0.1,0-0.2,0.1-0.2,0.1
					c-0.3,0.2-0.7,0.4-1,0.6c-0.3,0.2-0.7,0.4-1,0.5c-0.1,0-0.2,0.1-0.2,0.1c0,0,0,0,0,0c0,0,0,0,0,0c-0.2,0.1-0.4,0.1-0.6,0.2
					c-0.7,0.2-1.4,0.4-2.2,0.6c-0.1,0-0.2,0-0.3,0c0,0,0,0-0.1,0c-0.2,0-0.4,0-0.5,0c-0.3,0-0.7,0-1,0.2c-0.3,0.1-0.5,0.3-0.7,0.5
					c-0.5,0.4-0.5,1.3,0,1.7c0.5,0.4,1,0.7,1.7,0.6c0.5,0,1-0.1,1.5-0.2c0.9-0.2,1.8-0.5,2.6-0.8c0.8-0.3,1.5-0.7,2.1-1.2
					c0.2-0.2,0.4-0.3,0.6-0.5c0.3,0.1,0.6,0,0.9-0.2c0.4-0.4,0.6-1,0.9-1.4c0.2-0.4,0.5-0.9,0.8-1.2c0.6-0.8,1.4-1.5,2.3-1.9
					c0.7-0.4,1.4-0.6,2.2-0.8c-1.9,1.6-3.3,3.7-3.5,6.3c-0.1,1.1,1.6,1.8,2.3,1c2-2.3,3.9-4.8,6.8-5.9c2.3-0.8,4.8-0.8,6.8,0.3
					c-0.7,0-1.3,0.1-1.9,0.3c-0.9,0.3-1.7,0.7-2.4,1.2c-0.8,0.6-0.3,1.7,0.7,1.5c0.7-0.1,1.5-0.2,2.3-0.3c0.7-0.1,1.5-0.2,2.3-0.2
					c0.8,0,1.4,0.1,2.1,0.2c0,0,0,0,0.1,0c0.2,0.3,0.3,0.6,0.5,0.9c-0.7-0.2-1.4-0.2-2.1-0.1c-0.9,0.2-1.7,0.6-2.4,1.2
					c-0.3,0.3-0.3,0.8-0.1,1c0.2,0.3,0.7,0.4,1,0.2c0.6-0.3,1-0.4,1.7-0.4c0,0,0.1,0,0.1,0c0.1,0,0.2,0,0.2,0c0,0,0.2,0,0.2,0
					c0.1,0,0.1,0,0.2,0c0.2,0,0.3,0.1,0.5,0.1c0.1,0,0.3,0.1,0,0c0.1,0,0.1,0.1,0.2,0.1c0.1,0.1,0.2,0.1,0.4,0.2
					c0.1,0,0.1,0.1,0.2,0.1c0,0,0,0,0,0c0.1,0.1,0.2,0.2,0.3,0.3c0.1,0.1,0.1,0.1,0.2,0.2c0,0,0,0,0,0c0,0,0,0,0,0c0,0,0,0,0,0
					c0,0,0.1,0.1,0,0.1c0,0,0,0,0,0.1c0,0.2,0,0.4,0,0.6c-0.2,3.1-2.7,5.3-5.2,6.7c-3.2,1.7-6.8,2.6-10.2,3.5
					c-3.9,1-7.8,1.8-11.8,2.3c-8.1,1.2-16.4,1.4-24.6,0.7c-4.7-0.4-9.4-1-14-1.9c-3.7-0.7-7.2-1.7-10.9-2.6
					c7.2-3.6,14.3-7.8,19.8-13.7c3-3.2,5.3-6.9,7-10.8c1.1,0.4,2.3,0.7,3.4,0.9c1.8,0.3,3.5,0.4,5.3,0.3c0,0,0,0,0,0
					c0,0.3,0,0.6,0,0.9c0,0.3,0,0.6,0.1,0.9c0,0.1,0,0.1,0,0.2c0,0.2,0.1,0.4,0.2,0.6c0.1,0.2,0.3,0.3,0.5,0.3
					c0.2,0,0.4-0.1,0.5-0.3c0.1-0.2,0.2-0.3,0.2-0.6c0-0.1,0-0.1,0-0.2c0-0.3,0.1-0.6,0.1-0.9c0-0.3,0-0.6,0-0.9c0-0.1,0-0.1,0-0.2
					c0.6-0.1,1.2-0.2,1.7-0.3c0,0.4,0,0.8,0,1.2c0,0.2,0,0.4,0,0.6c0,0.2,0,0.3,0.1,0.5c0,0.1,0.1,0.2,0.1,0.2
					c0.2,0.3,0.6,0.3,0.8,0c0-0.1,0.1-0.1,0.1-0.2c0.1-0.2,0.1-0.3,0.1-0.5c0-0.2,0-0.4,0-0.6c0-0.4,0-0.8,0-1.2
					c0-0.1,0-0.2-0.1-0.3c3.3-0.9,6.5-2.5,9.2-4.7c1.5-1.2,2.8-2.7,3.9-4.4c0.1,0.1,0.2,0.1,0.2,0.2c0.3,0.2,0.5,0.4,0.8,0.6
					c0.1,0.1,0.2,0.2,0.4,0.2c0.1,0.1,0.2,0.1,0.3,0.1c0.1,0,0.2,0,0.2,0c0.1,0,0.1,0,0.1,0c0.3,0.1,0.7-0.1,0.8-0.3
					c0.2-0.3,0.1-0.6-0.1-0.9c0,0-0.1-0.1-0.1-0.1c0,0,0,0,0-0.1c0-0.1,0-0.1-0.1-0.2c-0.1-0.1-0.2-0.1-0.2-0.2
					c-0.1-0.1-0.2-0.2-0.4-0.2c-0.3-0.2-0.5-0.3-0.8-0.5c-0.1-0.1-0.2-0.1-0.3-0.2c0.3-0.7,0.6-1.4,0.8-2c0.2,0.1,0.5,0.2,0.8,0.3
					c0.2,0.1,0.4,0.1,0.6,0.2c0.2,0.1,0.4,0.1,0.6,0.1c0.3,0,0.5,0,0.6-0.3c0.1-0.3,0-0.5-0.2-0.6c-0.2-0.1-0.3-0.2-0.5-0.3
					c-0.2-0.1-0.4-0.2-0.6-0.3c-0.3-0.1-0.6-0.3-0.9-0.4c0.5-2.6,0.3-5.2-1.2-7.6c-1.6-2.6-4.2-4.5-7.2-4.7c-3.5-0.2-6,2.2-8.6,4
					c-2.2,1.5-4.7,2.6-7.3,3.2c0.1-2.6,0.1-5.2,0-7.8c3.6-0.5,7-1.3,10.4-2.7c5.6-2.3,10.8-5.8,13.9-11.1c0.2,0.2,0.4,0.4,0.5,0.6
					c0.2,0.2,0.4,0.4,0.6,0.6c0.1,0.1,0.2,0.2,0.3,0.3c0.2,0.1,0.3,0.2,0.5,0.3c0.2,0.1,0.5,0.1,0.7-0.1c0.2-0.2,0.2-0.5,0.1-0.7
					c-0.1-0.2-0.2-0.3-0.3-0.4c-0.1-0.1-0.2-0.2-0.3-0.3c-0.2-0.2-0.4-0.4-0.7-0.6c-0.3-0.2-0.6-0.5-0.9-0.7
					c0.2-0.5,0.4-0.9,0.6-1.4c0-0.1,0.1-0.2,0.1-0.3c0.3,0.1,0.6,0.1,0.9,0.2c0.4,0.1,0.7,0.2,1.1,0.2c0.3,0,0.6-0.2,0.6-0.5
					c0-0.3-0.1-0.6-0.4-0.7c-0.3-0.1-0.6-0.1-1-0.2c-0.3,0-0.6-0.1-0.9-0.1c0.4-1.4,0.7-2.9,0.7-4.3c0.2,0,0.4-0.1,0.7-0.1
					c0.3-0.1,0.4-0.4,0.4-0.6c-0.1-0.3-0.3-0.4-0.6-0.4c-0.1,0-0.3,0.1-0.4,0.1c-0.1-4.1-1.8-8.1-5.3-10.8
					c-5.8-4.4-12.9-2.1-17.9,2.3c-3,2.7-5.4,6.1-8.4,8.8c-1-2.7-2.2-5.4-3.5-7.9c3.9-1.1,7.7-2.7,11-5c2.5-1.8,4.8-3.9,6.6-6.3
					c0.1,0.1,0.1,0.1,0.2,0.2l0.5,0.5c0.2,0.2,0.5,0.5,0.8,0.6c0.4,0.1,0.8-0.3,0.7-0.7c-0.1-0.3-0.3-0.5-0.6-0.8
					c-0.2-0.2-0.4-0.3-0.5-0.5c-0.1-0.1-0.2-0.2-0.3-0.3c0.2-0.3,0.4-0.7,0.7-1c0.2,0.1,0.4,0.2,0.6,0.3c0.2,0.1,0.5,0.2,0.7,0.3
					c0.3,0.1,0.5,0.1,0.8,0.1c0.3,0,0.5-0.4,0.3-0.7c-0.1-0.1-0.1-0.2-0.2-0.2c-0.1-0.1-0.2-0.2-0.3-0.3c-0.1-0.1-0.3-0.2-0.4-0.2
					c-0.1,0-0.2-0.1-0.3-0.1c-0.2-0.1-0.4-0.1-0.5-0.2c0.5-0.8,0.9-1.7,1.3-2.6c1.8-0.5,3.6-1,5.4-1.5c11-3.2,22-6.9,33.2-9.5
					c19.6-4.6,42.8-5.8,59.3,7.8c3.9,3.2,7.2,7,9.7,11.4c1.2,2.1,2.2,4.3,3,6.6c0.8,2.4,1.1,4.9,1.9,7.3c0.4,1.4,2.9,1.7,3.2,0
					c0.4-2.9-0.2-5.9-1.1-8.8c0.1,0,0.2,0,0.3,0.1c28.9,3.6,46.4,33.6,46,60.8C435.4,131.1,435.3,131.7,435.3,132.3z M308.7,155.2
					c6.8-2.9,14.1-4.6,21.4-5.8c14.4-2.4,29.2-3.4,42.8-9.1c8.9-3.8,17.2-10.1,22.1-18.5c-0.5,1.3-1.1,2.5-1.7,3.7
					c-3.6,6.8-9.1,12-15.6,15.8c-14.8,8.7-32.7,9.7-49.4,11.6c-5.1,0.6-10.2,1.2-15.3,1.8C311.6,154.9,310.1,155,308.7,155.2z"/>
				<path class="st7" d="M126.7,116.4c-0.4-0.3-1.1-0.3-1.5,0c-0.5-0.3-1-0.3-1.6,0c-0.4,0.3-0.8,0.6-1.2,0.8
					c-0.5,0.3-0.8,0.4-1.1,0.5c-1,0.3-1.8,0.5-2.7,0.5c-2,0.1-3.6-0.5-5.6-0.8c0,0-0.1,0-0.1,0c-0.3-0.3-0.6-0.6-1-0.9
					c-0.5-0.4-1.4,0-1.5,0.6c-0.3,1.9,1.1,3.7,2.5,4.9c1.6,1.3,3.5,2,5.5,2.2c3.7,0.3,8.4-2.2,9.1-6
					C127.5,117.5,127.3,116.8,126.7,116.4z"/>
				<path class="st7" d="M196.4,119.3c-0.5,0.1-0.8,0.4-1.2,0.7c-0.1,0-0.2,0-0.2,0c-0.9,0-1.4,0.5-2,1.1c-0.4,0.4-0.9,0.7-1.3,1
					c-1,0.6-2.1,1-3.3,1.2c-1.2,0.2-2.5,0-3.6-0.3c-0.6-0.2-1.2-0.4-1.8-0.6c-0.6-0.2-1.3-0.4-1.8-0.7c-0.3-0.2-0.7,0-0.8,0.3
					c-0.4-0.3-0.8-0.6-1.3-0.8c-0.4-0.1-0.9,0.1-1,0.6c-0.5,2.1,2,4.3,3.6,5.3c2.1,1.2,4.4,1.9,6.8,1.7c2.5-0.2,4.7-1.2,6.6-2.8
					c1.6-1.3,3.8-4.1,2.5-6.2C197.2,119.4,196.8,119.2,196.4,119.3z"/>
				<path class="st7" d="M157.2,132.6c-0.8-0.5-1.7-0.2-2.5,0.1c-0.7,0.2-1.4,0.4-2.1,0.6c-1.4,0.3-2.8,0.4-4.2,0.2
					c-1.4-0.1-2.7-0.4-4-0.8c-1.4-0.4-2.7-1.1-4-1.4c-0.7-0.2-1.3,0.6-1,1.3c1.7,2.9,5.6,4.1,8.8,4.5c1.7,0.2,3.4,0.1,5-0.2
					c1.5-0.3,4.4-0.8,4.7-2.5C158.1,133.6,157.9,133,157.2,132.6z"/>
			</g>
			<path class="st8" d="M114.3,35.8c-0.5-0.5-1.2-0.8-1.8-0.8c-0.3-0.1-0.5-0.1-0.8,0c-0.6,0.1-1.1,0.4-1.5,1
				c-0.4,0.6-0.5,1.4-0.4,2.1c0.1,1,0.3,2,1,2.7c0.5,0.5,1,0.7,1.7,0.8c0.6,0,1.2-0.2,1.7-0.6c0.7-0.6,1-1.5,1-2.4
				C115.3,37.5,115,36.4,114.3,35.8z"/>
			<path class="st8" d="M118.2,41.5c-0.1-0.2-0.2-0.4-0.4-0.6c-0.1-0.1-0.2-0.1-0.3-0.2c-0.2-0.1-0.4-0.2-0.7-0.2
				c-0.2,0-0.4,0-0.5,0.1c-0.2,0.1-0.3,0.2-0.4,0.3c-0.1,0.1-0.2,0.3-0.3,0.4c-0.1,0.2-0.1,0.3-0.1,0.5c0,0.1,0,0.2,0,0.4
				c0.1,0.2,0.2,0.4,0.4,0.6l0.3,0.2c0.2,0.1,0.4,0.2,0.7,0.2c0.2,0,0.4,0,0.5-0.1c0.2-0.1,0.3-0.2,0.4-0.3c0.1-0.1,0.2-0.3,0.3-0.4
				c0.1-0.2,0.1-0.3,0.1-0.5C118.3,41.7,118.2,41.6,118.2,41.5z"/>
			<path class="st8" d="M116.5,44.4c-0.9,0-0.9,1.5,0,1.5C117.4,45.8,117.4,44.4,116.5,44.4z"/>
			<path class="st8" d="M101,72c-0.1-0.5-0.3-0.9-0.5-1.3c-0.3-0.5-0.7-0.9-1.3-1.2c-0.3-0.1-0.6-0.2-0.9-0.2c-0.4,0-0.7,0.1-1,0.3
				c-0.2,0.1-0.3,0.2-0.4,0.3c-0.1,0.1-0.1,0.1-0.2,0.2c-0.2,0.3-0.4,0.6-0.5,0.9c-0.1,0.2-0.1,0.3-0.1,0.5c0,0.1,0,0.2,0,0.2
				c0,0.4,0.1,0.7,0.3,1c0.3,0.6,0.8,0.9,1.4,1.1c0.6,0.2,1.3,0.1,1.8-0.2c0.1-0.1,0.2-0.2,0.3-0.3c0.3,0,0.6-0.2,0.8-0.5
				C101,72.8,101.1,72.4,101,72z"/>
			<path class="st8" d="M104.9,74.7c0-0.1-0.1-0.2-0.2-0.3c-0.1-0.1-0.2-0.2-0.4-0.2c-0.2,0-0.3,0-0.5,0l-0.1,0
				c-0.1,0-0.1,0.1-0.2,0.1c-0.1,0.1-0.2,0.1-0.2,0.2c-0.1,0.1-0.1,0.1-0.1,0.2c-0.1,0.1-0.1,0.2-0.1,0.3c0,0.1,0,0.2,0,0.2
				c0,0.1,0.1,0.1,0.1,0.2c0.1,0.1,0.1,0.2,0.2,0.2c0.1,0.1,0.2,0.1,0.3,0.2l0.1,0c0.2,0,0.3,0,0.5,0c0.2,0,0.3-0.1,0.4-0.2
				c0-0.1,0.1-0.1,0.1-0.2c0.1-0.1,0.1-0.3,0.1-0.4C104.9,74.9,104.9,74.8,104.9,74.7z"/>
			<path class="st8" d="M261,37.6c-0.2-0.6-0.5-1.1-1.1-1.4c0,0,0,0,0,0c-0.1-0.1-0.1-0.1-0.2-0.2c-0.5-0.3-1-0.3-1.5-0.2
				c-0.8,0.2-1.4,0.9-1.8,1.6c-0.4,0.6-0.7,1.3-0.6,2.1c0,0.6,0.2,1.1,0.7,1.5c0.4,0.4,1,0.6,1.5,0.6c0.9-0.1,1.7-0.5,2.3-1.1
				C260.8,39.6,261.3,38.6,261,37.6z"/>
			<path class="st8" d="M266.2,38.4c0,0,0-0.1,0-0.1c0-0.1-0.1-0.2-0.2-0.4c-0.1-0.1-0.1-0.2-0.2-0.3c-0.1-0.1-0.3-0.2-0.4-0.3
				c-0.1-0.1-0.2-0.1-0.4-0.2c-0.1,0-0.3,0-0.4-0.1c0,0-0.1,0-0.1,0c-0.1,0-0.2,0-0.3,0c0,0,0,0-0.1,0c-0.3,0.1-0.5,0.2-0.7,0.4
				c0,0,0,0,0,0c-0.1,0.1-0.1,0.2-0.2,0.3c-0.1,0.1-0.1,0.3-0.2,0.4c0,0.1-0.1,0.3-0.1,0.4c0,0.1,0,0.3,0,0.4c0,0.1,0,0.1,0,0.2
				c0.1,0.1,0.1,0.3,0.2,0.4c0.2,0.3,0.4,0.4,0.6,0.6c0.1,0.1,0.3,0.1,0.4,0.2c0.1,0,0.2,0,0.4,0.1c0.2,0,0.5,0,0.6-0.2
				c0.1-0.1,0.2-0.2,0.3-0.3c0.1-0.1,0.2-0.1,0.3-0.2c0.1-0.1,0.2-0.2,0.3-0.3c0.2-0.2,0.2-0.5,0.2-0.8
				C266.3,38.7,266.2,38.6,266.2,38.4z"/>
			<path class="st8" d="M262.6,42.6c0-0.1-0.1-0.3-0.2-0.4c-0.1,0-0.1-0.1-0.2-0.1c-0.1-0.1-0.3-0.1-0.4-0.1c-0.1,0-0.2,0-0.3,0.1
				c-0.1,0-0.2,0.1-0.3,0.2c-0.1,0.1-0.1,0.2-0.2,0.3c-0.1,0.1-0.1,0.2-0.1,0.3c0,0.1,0,0.1,0,0.2c0,0.1,0.1,0.3,0.2,0.4
				c0.1,0,0.1,0.1,0.2,0.1c0.1,0.1,0.3,0.1,0.4,0.1c0.1,0,0.2,0,0.3-0.1c0.1,0,0.2-0.1,0.3-0.2c0.1-0.1,0.1-0.2,0.2-0.3
				c0.1-0.1,0.1-0.2,0.1-0.3C262.7,42.8,262.6,42.7,262.6,42.6z"/>
			<path class="st8" d="M275.3,77.1c0-0.2-0.1-0.4-0.2-0.6c0,0,0,0,0,0c0.2-0.5-0.1-1-0.5-1.3c0,0,0.1,0.1,0.1,0.1
				c0,0-0.1-0.1-0.1-0.1c0,0,0,0,0,0c0,0,0,0-0.1,0c-0.3-0.2-0.5-0.4-0.9-0.4c-0.5-0.1-0.9-0.1-1.3,0c-0.8,0.1-1.4,0.7-1.9,1.3
				c-0.1,0.1-0.1,0.2-0.2,0.3c-0.1,0.2-0.2,0.4-0.2,0.6c-0.1,0.3-0.1,0.6-0.1,0.9c0,0.4,0,0.8,0.3,1.2c0,0.1,0.1,0.1,0.1,0.1
				c0.3,0.4,0.6,0.7,1,1c0.7,0.4,1.6,0.5,2.4,0.2c0.8-0.3,1.3-1,1.6-1.8C275.4,78,275.4,77.5,275.3,77.1z"/>
			<path class="st8" d="M280.7,75.8c0-0.2-0.1-0.4-0.2-0.5c-0.1-0.2-0.2-0.3-0.4-0.5c-0.3-0.3-0.7-0.5-1-0.6c-0.2,0-0.4-0.1-0.6-0.1
				c-0.4,0-0.6,0.1-0.9,0.2c-0.3,0.2-0.6,0.5-0.8,0.8c-0.2,0.3-0.3,0.7-0.3,1.1c0,0.1,0,0.1,0,0.2c0,0,0,0,0,0c0,0,0,0.1,0,0.1
				c0,0.1,0,0.2,0.1,0.3c0.1,0.2,0.1,0.4,0.2,0.6c0.4,0.6,1.1,1,1.8,0.9c0.4,0,0.8-0.1,1.1-0.4c0.3-0.2,0.6-0.5,0.7-0.8
				c0.1-0.2,0.2-0.3,0.2-0.5C280.7,76.4,280.7,76.2,280.7,75.8z"/>
			<path class="st8" d="M279.1,79.5c-1.5,0-1.5,2.4,0,2.4C280.6,81.9,280.6,79.5,279.1,79.5z"/>
			<path class="st8" d="M276.5,112.8c0-0.1,0-0.1,0-0.2c-0.1-0.2-0.1-0.3-0.2-0.5c-0.1-0.2-0.2-0.3-0.3-0.4c0,0-0.1-0.1-0.1-0.1
				c-0.1-0.1-0.3-0.2-0.4-0.3c0,0,0,0,0,0c-0.1-0.1-0.2-0.1-0.3-0.2c-0.2-0.1-0.3-0.1-0.5-0.2c-0.2-0.1-0.5-0.1-0.7-0.1
				c-0.2,0-0.5,0-0.7,0.1c-0.2,0-0.3,0.1-0.5,0.2c-0.1,0-0.1,0.1-0.2,0.1c-0.1,0.1-0.3,0.2-0.4,0.3c-0.1,0.1-0.2,0.3-0.3,0.4
				c-0.1,0.2-0.2,0.5-0.3,0.7c0,0.1,0,0.1,0,0.2c0,0.2-0.1,0.4-0.1,0.6c0,0.1,0,0.1,0,0.2c0,0.2,0,0.4,0.1,0.6
				c0.1,0.2,0.2,0.5,0.3,0.7c0.1,0.2,0.3,0.4,0.5,0.6c0.2,0.2,0.4,0.3,0.6,0.4c0.2,0.1,0.5,0.2,0.7,0.3c0.2,0,0.5,0.1,0.7,0.1
				c0.2,0,0.4,0,0.5-0.1c0.2,0,0.3-0.1,0.5-0.2c0.2-0.1,0.4-0.3,0.6-0.4c0.2-0.2,0.3-0.4,0.4-0.6c0.1-0.2,0.1-0.3,0.2-0.5
				c0-0.1,0-0.1,0.1-0.2c0-0.2,0.1-0.4,0.1-0.5c0-0.1,0-0.1,0-0.2C276.5,113.1,276.5,113,276.5,112.8z"/>
			<path class="st8" d="M280.8,110.3c-0.1-0.1-0.2-0.2-0.4-0.3c-0.3-0.1-0.6-0.2-0.9-0.2c-0.3,0-0.6,0.1-0.9,0.2
				c-0.6,0.3-0.9,0.9-0.9,1.6c0,0.3,0.1,0.7,0.3,1c0.1,0.2,0.3,0.4,0.5,0.5c0.1,0.1,0.3,0.1,0.5,0.2c0.1,0,0.2,0,0.3,0
				c0.1,0,0.3,0,0.4-0.1c0.2-0.1,0.4-0.2,0.5-0.4c0-0.1,0-0.1,0.1-0.2c0,0,0.1,0,0.1,0c0.1-0.1,0.3-0.2,0.4-0.3
				c0.1-0.1,0.2-0.2,0.3-0.4c0.1-0.3,0.2-0.4,0.2-0.7c0,0,0-0.1,0-0.1C281,110.8,281,110.5,280.8,110.3z"/>
			<path class="st8" d="M280.4,115.6c0-0.2-0.1-0.3-0.2-0.4c-0.1,0-0.1-0.1-0.2-0.1c-0.1-0.1-0.3-0.1-0.5-0.1c-0.1,0-0.2,0-0.4,0.1
				c-0.1,0-0.2,0.1-0.3,0.2c-0.1,0.1-0.2,0.2-0.2,0.4c0,0.2,0,0.3,0,0.5c0,0,0,0.1,0.1,0.1c0,0.1,0.1,0.1,0.1,0.2
				c0.1,0.1,0.1,0.2,0.2,0.2c0.1,0.1,0.1,0.1,0.2,0.1c0.1,0.1,0.2,0.1,0.3,0.1c0.1,0,0.2,0,0.2,0c0.1,0,0.1-0.1,0.2-0.1
				c0.1-0.1,0.2-0.1,0.2-0.2c0.1-0.1,0.1-0.2,0.2-0.3c0,0,0-0.1,0.1-0.1C280.5,116,280.5,115.8,280.4,115.6z"/>
			<g>
				<path class="st8" d="M92.5,97.4c0-0.1,0-0.2-0.1-0.3c0-0.1-0.1-0.2-0.1-0.3c0,0,0,0,0-0.1c-0.1-0.1-0.1-0.2-0.2-0.2c0,0,0,0,0,0
					c-0.1-0.1-0.2-0.1-0.2-0.2c0,0,0,0,0,0c-0.1-0.1-0.2-0.1-0.3-0.1c-0.1,0-0.1,0-0.2,0c-0.1,0-0.1,0-0.2,0c0,0,0,0,0,0
					c-0.1,0-0.2,0-0.3,0c0,0,0,0,0,0c-0.1,0-0.1,0-0.2,0.1c-0.1,0-0.1,0-0.2,0.1c-0.1,0.1-0.2,0.2-0.3,0.2c0,0-0.1,0-0.1,0.1
					c-0.1,0.1-0.1,0.2-0.2,0.2c0,0,0,0,0,0c0,0,0,0,0,0c0,0,0,0,0,0c0,0.1-0.1,0.2-0.1,0.3c0,0,0,0,0,0c0,0.1,0,0.2,0,0.3
					c0,0.1,0,0.1,0,0.2c0,0,0,0.1,0,0.2c0,0.1,0.1,0.3,0.2,0.4c0.1,0.1,0.2,0.2,0.3,0.3c0.1,0,0.2,0.1,0.3,0.1c0,0,0.1,0,0.1,0
					c0.1,0.1,0.2,0.1,0.3,0.1c0,0,0,0,0,0c0.1,0,0.2,0,0.3,0c0,0,0.1,0,0.1,0c0.1,0,0.2,0,0.3,0c0,0,0.1,0,0.1-0.1
					c0.1,0,0.2-0.1,0.2-0.1c0,0,0.1-0.1,0.1-0.1c0,0,0.1-0.1,0.1-0.1c0.1-0.1,0.1-0.1,0.2-0.2c0,0,0,0,0-0.1c0-0.1,0.1-0.2,0.1-0.3
					c0,0,0,0,0,0C92.5,97.7,92.5,97.6,92.5,97.4C92.5,97.4,92.5,97.4,92.5,97.4z"/>
				<path class="st8" d="M91.8,98.6c-0.1,0-0.1,0-0.2,0.1c0,0,0,0-0.1,0C91.7,98.7,91.7,98.6,91.8,98.6z"/>
			</g>
			<path class="st8" d="M94.9,98.1c0-0.1-0.1-0.3-0.2-0.4c-0.1,0-0.1-0.1-0.2-0.1c-0.1-0.1-0.3-0.1-0.4-0.1c-0.1,0-0.2,0-0.3,0.1
				c-0.1,0-0.2,0.1-0.3,0.2c-0.1,0.1-0.1,0.2-0.2,0.3c-0.1,0.1-0.1,0.2-0.1,0.3c0,0.1,0,0.1,0,0.2c0,0.1,0.1,0.3,0.2,0.4
				c0.1,0,0.1,0.1,0.2,0.1c0.1,0.1,0.3,0.1,0.4,0.1c0.1,0,0.2,0,0.3-0.1c0.1,0,0.2-0.1,0.3-0.2c0.1-0.1,0.1-0.2,0.2-0.3
				c0.1-0.1,0.1-0.2,0.1-0.3C94.9,98.3,94.9,98.2,94.9,98.1z"/>
		</g>
	</g>
</g>
</svg>
