<?xml version="1.0" encoding="utf-8"?>
<!-- Generator: Adobe Illustrator 22.1.0, SVG Export Plug-In . SVG Version: 6.00 Build 0)  -->
<svg version="1.1" id="Layer_1" xmlns="http://www.w3.org/2000/svg" xmlns:xlink="http://www.w3.org/1999/xlink" x="0px" y="0px"
	 viewBox="0 0 4000 2213.6" style="enable-background:new 0 0 4000 2213.6;" xml:space="preserve">
<style type="text/css">
	.st0{opacity:0.3;}
	.st1{fill:#636363;}
	.st2{fill:#726789;}
	.st3{fill:#504563;}
	.st4{opacity:0.6;}
	.st5{fill:#FFFFFF;}
	.st6{opacity:0.5;}
	.st7{fill:#D0CFE5;}
	.st8{fill:#FF8DC1;}
	.st9{fill:#FF459A;}
</style>
<g>
	<g>
		<g>
		</g>
	</g>
	<g>
		<g>
			<g>
				<g>
					<path d="M3457.5,2001.6c-62,9.5-124,11.8-186,12.9c-62,1.3-124,0.6-186-0.1l-93-0.6l-93,0h-186h-743.8H1226H854.1l-93,0
						l-46.5,0.4l-46.5,0.8c-31,0.4-62-0.2-93-1.8c-15.5-0.9-31-2.1-46.5-4c-15.5-1.9-31-4.1-46.5-7.7c-3.4-0.8-5.5-4.2-4.7-7.5
						c0.6-2.4,2.4-4.2,4.7-4.7c15.5-3.6,31-5.8,46.5-7.7c15.5-1.9,31-3.1,46.5-4c31-1.5,62-2.2,93-1.8l46.5,0.8l46.5,0.4l93,0H1226
						h743.8h743.8h186l93,0l93-0.6c62-0.7,124-1.4,186-0.1c62,1.2,124,3.4,186,12.9c3.4,0.5,5.7,3.7,5.2,7.1
						C3462.3,1999.2,3460.1,2001.2,3457.5,2001.6z"/>
				</g>
			</g>
			<g class="st0">
				<g>
					<ellipse class="st1" cx="1982.5" cy="2019.5" rx="1362.5" ry="67.8"/>
				</g>
			</g>
			<g>
				<g>
					<path class="st2" d="M3648.8,997.5c-11.1,77.2-35.6,161.7-76.2,246.4c-22.5,46.9-49.8,93.8-82.6,139.6
						c-41.4,58-91.4,114-150.9,165.8c-12.1,10.5-24.5,20.8-37.3,30.9c-45.4,35.8-112.2,20.4-138.2-31.2c-8-15.8-11-33.1-9.3-50
						c1.9-19.8,10.2-38.9,24.5-54.1c30.2-32,70.8-83.2,108.6-157.2c24.1-47.1,47.1-103.5,65.4-170.1
						c17.7-64.1,31.3-137.6,37.4-221.4c2.1-27.8,3.4-56.8,3.7-87c0,0-1.8-156.7,147.6-141C3627.8,677.3,3674.8,817.4,3648.8,997.5z"
						/>
				</g>
			</g>
			<g>
				<g>
					<path class="st3" d="M3648.8,997.5c-11.1,77.2-35.6,161.7-76.2,246.4c-40.9-65.7-97.5-105.2-172.3-120.4
						c-16.7-3.4-32.8-5.2-47.5-6c17.7-64.1,31.3-137.6,37.4-221.4c13.8,1.4,28.2,3.3,43,6C3515.1,916.8,3587.6,949.1,3648.8,997.5z"
						/>
				</g>
			</g>
			<g>
				<g>
					<path class="st3" d="M3490.1,1383.4c-41.4,58-91.4,114-150.9,165.8c-53.8-43.6-132.4-51-184.9-50.3
						c1.9-19.8,10.2-38.9,24.5-54.1c30.2-32,70.8-83.2,108.6-157.2C3367.6,1303.9,3436.1,1336.6,3490.1,1383.4z"/>
				</g>
			</g>
			<g class="st0">
				<g>
					<path d="M3541.5,668.2c-13.2-1.4-25.2-1.4-36.2-0.3c54.2,47.3,79.3,164.7,58.8,307.2c-11.1,77.2-35.6,161.7-76.2,246.4
						c-22.5,46.9-49.8,93.8-82.6,139.6c-41.4,58-91.4,114-150.9,165.8c-12.1,10.5-24.5,20.8-37.3,30.9
						c-10.5,8.3-22.3,13.8-34.3,16.8c31.8,30,82.5,34.4,119.1,5.5c12.8-10.1,25.3-20.4,37.3-30.9c59.5-51.7,109.5-107.8,150.9-165.8
						c32.8-45.7,60.1-92.7,82.6-139.6c40.6-84.7,65.1-169.2,76.2-246.4C3674.8,817.4,3627.8,677.3,3541.5,668.2z"/>
				</g>
			</g>
			<g class="st4">
				<g>
					<path class="st5" d="M3212.1,1544.9c-8-15.8-11-33.1-9.3-50c1.9-19.8,10.2-38.9,24.5-54.1c30.2-32,70.8-83.2,108.6-157.2
						c24.1-47.1,47.1-103.5,65.4-170.1c17.7-64.1,31.3-137.6,37.4-221.4c2.1-27.8,3.4-56.8,3.7-87c0,0-1.2-113.7,90.7-137.6
						c-140.8-9-139.2,141.6-139.2,141.6c-0.3,30.2-1.6,59.1-3.7,87c-6.1,83.8-19.6,157.3-37.4,221.4
						c-18.4,66.6-41.3,122.9-65.4,170.1c-37.8,74-78.4,125.2-108.6,157.2c-14.3,15.2-22.6,34.3-24.5,54.1c-1.7,16.8,1.4,34.1,9.3,50
						c21.6,42.9,71.3,60.7,113.5,45.1C3250.3,1588.8,3225.7,1571.8,3212.1,1544.9z"/>
				</g>
			</g>
			<g>
				<g>
					<path d="M3245.9,1613.8c-7.7,0-15.4-0.8-23.1-2.5c-31.3-6.9-57.4-27.3-71.8-55.9c0,0,0,0,0,0c-19.9-39.6-12.9-87.9,17.5-120.2
						c77.2-81.9,207.3-272.2,211.2-626.1c0-2.9-0.3-78.2,49.4-123.5c28.4-25.8,66.7-36.4,113.8-31.4c50.7,5.3,90.2,48.4,111.2,121.1
						c53.3,184.5-18.1,559.7-343.5,816C3292,1606,3269.2,1613.8,3245.9,1613.8z M3176.3,1542.5c10.5,20.9,29.7,35.9,52.6,41
						c22.6,5,46-0.3,64.1-14.5c177.5-139.8,262.8-304.9,303.1-418.8c47.1-133.2,58.6-270.4,30.7-367.1
						c-17.6-60.9-48.5-96.7-86.9-100.8c-38.7-4.1-69.5,4-91.6,24.1c-40.3,36.6-40.3,102-40.3,102.6c-4,363.8-138.9,560.6-219,645.5
						C3166.9,1478.2,3161.7,1513.5,3176.3,1542.5L3176.3,1542.5z"/>
				</g>
			</g>
			<g>
				<g>
					<path class="st2" d="M3327.3,1787.4c-5.2,156.4-118.7,203.3-118.7,203.3s-316.7,0-645,0h-233c-392.1,0-389.5-107.2-389.5-107.2
						h-275.3c-90.7-60-108.2-145.3-95.9-226.9c2.3-14.9,5.5-29.6,9.4-44c15-54.8,40.3-105.3,61.8-141.8c1.8-3,3.7-5.9,5.8-8.6
						c18.8-25,49.3-38.5,80.4-35.8c4.7,0.4,9.4,1.2,14,2.4c591.8,147.1,895.7-121.8,1014-272.3c0,0,0,0,0.1-0.1
						c4.2-5.4,8.2-10.7,12-15.7c23.7-31.9,71.2-34.2,96.8-3.8c1.6,2,3.3,3.9,5,5.8c1.4,1.6,2.8,3.2,4.2,4.7
						c16.6,18.4,34.1,34.5,52.2,49.2c35.5,28.8,73.4,52.5,111.8,78.9c18.1,12.4,36.3,25.3,54.4,39.8c38.3,30.3,76.3,66.8,112.1,117
						c11,15.5,21.8,32.2,32.3,50.5c15.4,26.6,30.2,56.4,44.2,90c2.9,6.8,5.5,13.5,8.1,20.1c13.5,34.9,23,67,29.2,96.3
						c3.4,15.8,5.8,30.9,7.4,45.2C3327.1,1753.4,3327.8,1771,3327.3,1787.4z"/>
				</g>
			</g>
			<g>
				<g>
					<path class="st5" d="M3327.3,1787.4c-5.2,156.4-118.7,203.3-118.7,203.3s-316.7,0-645,0h-233c-392.1,0-389.5-107.2-389.5-107.2
						h-275.3c-90.7-60-108.2-145.3-95.9-226.9c0,0,177,230.3,348.8,61.8c0,0-73.1-61.2-147.4-86.1c-6.8-2.3-6.4-12,0.6-13.8
						c17.3-4.6,34.5-12.9,31.6-27.4c-5.2-26.4-107.5-38.1-156.5-128.9c18.8-25,49.3-38.5,80.4-35.8
						c144.8,38.9,408.8,164.7,408.8,164.7s-212.9,123-58.6,167.4c91.1,26.2,163,16,194.4,6c11.4-3.6,23.5-4.1,35.2-1.5
						c71.6,15.6,326.7,60,436.3-70.8c0,0,331.2,227.9,574.4-3c3.4,15.8,5.8,30.9,7.4,45.2C3327.1,1753.4,3327.8,1771,3327.3,1787.4z
						"/>
				</g>
			</g>
			<g>
				<g>
					<path class="st3" d="M1902,1708.4c0,0-61-10.8-118.7,5.6c-3.9,1.1-6.3-4-3-6.3c17.9-12.4,50.2-29,92.6-25.9L1902,1708.4z"/>
				</g>
			</g>
			<g>
				<g>
					<path class="st3" d="M1828.5,1660.6c0,0-54.5-9.6-105.1,5.5c-2.8,0.9-4.7-3-2.3-4.7c15-10.8,43.9-26.6,82.3-23.9L1828.5,1660.6
						z"/>
				</g>
			</g>
			<g>
				<g>
					<path class="st3" d="M2020.5,1654.6c0,0,82.6,8,138.3,54.5c2.3,2,5.7-0.7,4.2-3.3c-11.3-20.9-39.6-62.4-94.7-83.1
						L2020.5,1654.6z"/>
				</g>
			</g>
			<g>
				<g>
					<path class="st3" d="M2925.5,1196.7c-2.3,3.4-4.7,6.8-7.1,10.1c-17.3,23.8-35.9,46.4-57.3,66.7c-20.9,20.5-44.2,38.8-69.6,53.9
						c-1.3,0.8-3.1,0.4-3.9-0.9c-0.5-0.8-0.5-1.7-0.2-2.5l0.1-0.1c2.7-7,5.6-13.6,8.6-20.3c3-6.5,6.1-12.8,8.9-19.5l17.7-38.2
						c11.8-25.1,23.1-50.1,34.2-74.7c4.3-9.4,8.4-18.9,12.4-28.3C2887,1163.2,2905.9,1180.7,2925.5,1196.7z"/>
				</g>
			</g>
			<g>
				<g>
					<path class="st3" d="M3091.8,1315.3c-13.5,17.3-27.9,33.8-43.8,48.9c-20.9,20.5-44.2,38.8-69.7,53.8c-1.3,0.8-3.1,0.3-3.9-1
						c-0.4-0.7-0.5-1.6-0.2-2.4l0-0.1c2.6-7,5.6-13.6,8.6-20.2c3-6.6,6.1-12.9,8.9-19.5l17.7-38.3c9.6-20.4,18.9-40.7,27.9-60.9
						C3055.5,1287.9,3073.6,1300.9,3091.8,1315.3z"/>
				</g>
			</g>
			<g>
				<g>
					<path class="st3" d="M3236.1,1482.8c-2.6,2.6-5.2,5.2-7.9,7.7c-20.9,20.5-44.1,38.8-69.7,53.9c-1.3,0.8-3.1,0.3-3.9-1
						c-0.4-0.8-0.5-1.7-0.2-2.4l0-0.2c2.7-7,5.7-13.6,8.6-20.2c3-6.5,6.2-12.9,8.9-19.5l17.7-38.2c4.8-10.2,9.5-20.3,14.2-30.5
						C3214.8,1447.8,3225.6,1464.5,3236.1,1482.8z"/>
				</g>
			</g>
			<g>
				<g>
					<path class="st3" d="M2109.5,1591.9c0,0,82.6,8,138.3,54.5c2.3,2,5.7-0.7,4.2-3.3c-11.3-20.9-39.6-62.4-94.7-83.1
						L2109.5,1591.9z"/>
				</g>
			</g>
			<g class="st0">
				<g>
					<path d="M1641.5,1442.1c0,0,1.2,65.7,143.1,129.8c19.2,8.7,16.2,36.7-4.3,41.2c-0.6,0.1-1.2,0.3-1.8,0.4
						c-9.8,2.2-10.3,16-0.7,18.9c46.1,13.8,122.1,49.5,169.6,140.1c0,0,37.7-130.9,188.7-181.3
						C2136.2,1591.1,1839.7,1603.9,1641.5,1442.1z"/>
				</g>
			</g>
			<g class="st0">
				<g>
					<path d="M2889.7,1280.6c-72.4,174.9-357.2,239.7-357.2,239.7c-192.9,118.9-428,83.2-428,83.2
						c463.2-136.7,609.1-357.2,650.8-447.1c0,0,0,0,0.1-0.1c4.2-5.4,8.2-10.7,12-15.7c23.7-31.9,71.2-34.2,96.8-3.8
						c1.6,2,3.3,3.9,5,5.8c1.4,1.6,2.8,3.2,4.2,4.7c-6.5,44.1,8.3,88.8,16.4,109C2892.9,1264.2,2892.9,1272.9,2889.7,1280.6z"/>
				</g>
			</g>
			<g class="st0">
				<g>
					<path d="M3327.3,1787.4c-5.2,156.4-118.7,203.3-118.7,203.3s-316.7,0-645,0h-233c-392.1,0-389.5-107.2-389.5-107.2h-275.3
						c-90.7-60-108.2-145.3-95.9-226.9c2.3-14.9,5.5-29.6,9.4-44l1.8-0.2c0,0,25.7,293.6,366.4,189.6c0,0,86.1,60.8,326.9,7
						c9.4-2.1,19-2.5,28.6-1.3c48.6,5.7,212.5,18.1,340-56.4c25-14.5,42.1-39.3,48.6-67.4c17.3-74.3,84.8-230.3,345.9-208.9
						c-14.2-0.4-240.8-3.4-304.4,251.9c0,0,58.6-5.3,161.4,59.9c-3.9-0.8-131.5-27.3-227.3,29.2c-16.8,9.9-17,34.4-0.4,44.6
						c35.4,21.9,101.1,51.3,192.4,46.2c127.6-7.2,437.1-26.8,429.2-314.2c20.8,53.7,32.1,100.7,36.6,141.5
						C3327.1,1753.4,3327.8,1771,3327.3,1787.4z"/>
				</g>
			</g>
			<g class="st6">
				<g>
					<path class="st5" d="M2764.4,1783.9c0,0-0.9-237,273.1-308.7c0,0-181.5-4.6-257,138.6c-75.5,143.3-52.4,176.6-52.4,176.6
						L2764.4,1783.9z"/>
				</g>
			</g>
			<g>
				<g>
					<g>
						<path d="M1899.6,1866.7c-0.1-0.1-0.4-0.1-0.4-0.1l0.2,0c0.1,0,0.2,0.1,0.5,0.1c0.5,0,0.8,0.2,1.3,0.1c1,0.1,2,0.1,3,0
							c1,0,1.9-0.4,3-0.5c0.9-0.4,1.9-0.6,2.8-1c3.7-1.6,7.3-4.8,10.4-9.5c6.4-9.2,10.2-22.9,12.1-36.9c0.4-3.6,1.1-7,1.3-10.7
							l0.6-11c0.1-1.8,0.3-3.7,0.2-5.4l-0.1-4.9c0.1-3.3-0.7-6.5-1-9.8c-2.1-13-7.6-25.7-15.2-37.4c-15.7-23.4-38.7-43.4-63.9-59.7
							c-25.2-16.6-52.2-31.3-79.8-45.9l0,0c-0.6-0.3-0.8-1-0.5-1.6c0.2-0.5,0.7-0.7,1.2-0.6c15.7,2.2,31,6.4,45.9,11.7
							c7.5,2.5,14.8,5.6,22.1,8.7c7.2,3.3,14.4,6.7,21.4,10.5c14,7.7,27.6,16.3,40.5,26.4c12.8,10.1,25,21.5,35,35.3
							c10,13.7,18.2,29.6,21.9,47.2c0.7,4.4,1.8,8.8,1.9,13.3l0.5,6.7c0.1,2.2,0,4.1,0,6.2l-0.2,12.3c-0.1,4.1-0.7,8.3-1,12.5
							c-1.8,16.6-4.8,34.1-15.1,51.2c-2.3,4.3-6,8.3-9.5,12.2c-2,1.8-4.1,3.6-6.3,5.4c-2.3,1.6-4.8,3-7.2,4.5
							c-2.5,1.3-5.3,2.3-7.9,3.3c-2.8,0.7-5.6,1.6-8.4,1.9c-2.8,0.4-5.7,0.7-8.6,0.6c-1.4,0-3-0.2-4.5-0.3c-0.7-0.1-1.6-0.2-2.4-0.3
							l-1.2-0.2l-1.8-0.4c-9.3-2.6-14.8-12.2-12.2-21.5C1880.7,1869.6,1890.3,1864.1,1899.6,1866.7z"/>
					</g>
				</g>
				<g>
					<g>
						<g>
							<path d="M2056.5,1911c-113.9,0-135-28.6-138.8-40.9l33.4-10.3c-0.6-2-1.3-2.8-1.3-2.9c0.1,0.2,15.7,19,106.7,19
								c110.4,0,230.8-20.2,232-20.4c1.5-0.2,3-0.3,4.5-0.2c2.8,0.2,277.4,23.4,422.4-114l24.1,25.4
								c-151,143.1-417.8,126-447.4,123.6C2274.6,1893.4,2163,1911,2056.5,1911z"/>
						</g>
					</g>
					<g>
						<g>
							<path d="M1933.7,1769.9c0.4-2.2,0.8-3.6,1.2-5.3c0.4-1.7,0.9-3.2,1.3-4.8c0.9-3.2,1.9-6.2,3-9.2c1-3.1,2.2-6,3.4-8.9
								c1.3-2.9,2.3-5.9,3.8-8.7c2.7-5.7,5.4-11.4,8.7-16.8l4.7-8.2l5.2-7.9c13.9-20.9,31-39.6,49.8-56c9.8-7.7,19.3-15.8,29.9-22.4
								l7.8-5.2c2.6-1.8,5.2-3.4,7.9-4.9l16.3-9c5.4-3.2,11.1-5.6,16.7-8.1l16.9-7.6c11.5-4.4,23.2-8.3,34.8-12.5l10.1,33.5
								c-10.7,3.6-21.6,7-32.3,10.8l-15.6,6.6c-5.2,2.2-10.5,4.2-15.4,7l-15,7.8c-2.5,1.2-5,2.7-7.3,4.2l-7.1,4.5
								c-9.7,5.7-18.4,12.7-27.4,19.4c-17.1,14.3-32.7,30.5-45.4,48.7l-4.8,6.8l-4.3,7.1c-3,4.7-5.4,9.6-7.9,14.5
								c-1.3,2.4-2.3,5-3.4,7.5c-1.1,2.5-2.2,5-3.1,7.6c-1,2.5-1.9,5.1-2.7,7.6c-0.4,1.3-0.9,2.6-1.1,3.8l-0.9,3.3L1933.7,1769.9z"
								/>
						</g>
					</g>
					<g>
						<g>
							<path d="M3038.2,1475.3c-20.7,2.6-40.9,7-60.5,12.6c-19.6,5.6-38.7,12.4-56.9,20.8c-36.5,16.6-69.7,39.2-95.9,68.4
								c-13.2,14.4-25.1,30-34.7,47.1l-3.8,6.3l-3.4,6.5c-2.2,4.4-4.6,8.6-6.6,13.1c-3.8,9.1-8,17.9-11,27.3
								c-1.6,4.7-3.4,9.2-4.9,13.9l-4.1,14.3l-2,7.1l-1.7,7.3l-3.3,14.5c-2.1,9.7-3.4,19.6-5.1,29.5l-3.6,29.9l-0.1,1.1
								c-0.8,6.5-5.2,11.7-11,13.9l0,0c-4.2,1.7-9.3,4.1-14,6.3c-4.8,2.3-9.5,4.8-14.2,7.4c-9.3,5.2-18.4,10.8-27.2,16.8
								c-17.6,12-33.7,25.9-47.8,41.3c-13.9,15.5-25.6,32.7-33.4,51.3c-8,18.6-11.8,38.6-12,58.7l0,0.3c-0.1,9.7-8,17.4-17.7,17.3
								c-9.7-0.1-17.4-8-17.3-17.6c0.2-24.7,5-49.7,14.8-72.4c9.6-22.8,23.6-43.2,39.6-61.1c16.2-17.8,34.4-33.3,53.9-46.7
								c9.7-6.7,19.8-12.9,30.1-18.6c5.2-2.8,10.4-5.6,15.7-8.2c5.4-2.6,10.5-5,16.7-7.5l0,0l-11.1,15c2.4-42.7,10.5-85.6,26-126.3
								c15.3-40.7,39.2-78.9,70.5-109.6c15.7-15.3,33-28.8,51.6-40.2c18.6-11.3,38.4-20.3,58.8-27.1c20.4-6.8,41.4-11.2,62.5-13.4
								c10.5-1.1,21.1-1.7,31.7-1.6C3017.3,1473,3027.9,1473.6,3038.2,1475.3z"/>
						</g>
					</g>
					<g>
						<g>
							<path d="M2715.7,1776.7c2.7-1.2,4.4-1.8,6.4-2.6c2-0.8,3.9-1.3,5.8-1.9c3.9-1.1,7.7-2.2,11.5-3c3.8-1,7.7-1.6,11.5-2.3
								c3.8-0.7,7.7-1.1,11.5-1.6c15.3-1.7,30.6-1.9,45.7-1c7.5,0.6,15.1,1.1,22.5,2.4c7.5,0.9,14.8,2.5,22.1,4.1
								c7.3,1.5,14.4,3.8,21.6,5.8c7.1,2.4,14,4.9,20.9,7.6c1.5,0.6,2.3,2.3,1.7,3.8c-0.5,1.2-1.6,1.9-2.8,1.9l-0.2,0
								c-7.4-0.1-14.6-0.6-21.8-0.8c-7.2,0-14.3-0.5-21.5-0.3c-14.2-0.1-28.3,0.6-42.2,1.7c-13.9,1.4-27.6,3.4-40.9,6.3
								c-6.6,1.5-13.2,3.1-19.5,5.1c-3.2,0.9-6.3,2-9.3,3.1l-4.4,1.7c-1.3,0.5-3.1,1.2-3.7,1.5l-0.4,0.2c-8.7,4.1-19.2,0.4-23.3-8.4
								c-4.1-8.7-0.4-19.2,8.4-23.3C2715.5,1776.8,2715.6,1776.7,2715.7,1776.7z"/>
						</g>
					</g>
					<g>
						<g>
							<path d="M2625.8,1992.8c-0.6-4.4-0.6-7.5-0.4-11.2c0.2-3.6,0.6-7.1,1.3-10.6c1.4-7,3.5-14,7.1-20.7
								c3.4-6.6,8.2-12.9,14.4-17.5c6.4-4.4,13.9-6.8,21-5.9c-4.1,6-6.6,11.1-8,16.2c-1.3,5.1-1.8,10.1-2.1,15.1
								c-0.2,5,0,10.2,0.4,15.4l0.6,7.8c0.1,1.3,0.3,2.6,0.3,3.8c0.1,1.2,0.2,2.7,0.2,3.3L2625.8,1992.8z"/>
						</g>
					</g>
					<g>
						<g>
							<path d="M2712.7,1994.9c-1.1-2.7-1.5-4.3-1.8-6.4c-0.3-2-0.4-4-0.3-5.9c0.2-4,1-7.9,1.8-11.7c1.8-7.7,4.6-15.3,8.7-22.2
								c4.1-6.9,10.1-12.6,16.4-16.7c6.4-4.2,13.6-6,20.3-7l1.5,3.9c-4.9,4.3-9.3,8.4-11.8,13.5c-2.7,4.8-4.2,9.8-4.5,14.9
								c-0.5,5-0.1,10.1,1,15.2c0.5,2.5,1.4,5,2,7.4c0.3,1.2,0.6,2.4,0.7,3.6c0.1,1.1,0.2,2.6-0.2,3L2712.7,1994.9z"/>
						</g>
					</g>
					<g>
						<g>
							<path d="M2079.7,1895.4c-1-5.3-1.1-9.3-1.2-13.8c0-4.4,0.3-8.8,0.9-13.2c1.1-8.8,3.4-17.5,6.8-25.9
								c3.5-8.3,8.4-16.3,14.5-22.9c6.3-6.6,14.2-11.5,22.4-13.7c-4.1,7.7-6.9,14.7-8.6,21.7c-1.5,7.2-2.3,14.1-2.6,21.1
								c-0.3,7,0.1,14,0.6,21l1.8,20.2L2079.7,1895.4z"/>
						</g>
					</g>
					<g>
						<g>
							<path d="M1998.5,1894.4c-1-5.9-1.2-10.6-1.2-15.8c-0.1-2.6,0-5.1,0.2-7.7c0.1-2.5,0.3-5.1,0.6-7.6c0.5-5.1,1.3-10.1,2.5-15.2
								c0.6-2.5,1.1-5,1.8-7.5l2.4-7.4c3.3-9.8,8.1-19.3,14.4-27.7c6.6-8.2,14.8-15.2,24.3-18.9c-3.9,9.5-6.7,17.9-8.4,26.6
								c-1.7,8.6-2.5,17.2-3.1,25.7c-0.4,8.6-0.3,17.2,0.1,25.8c0.2,4.3,0.4,8.6,0.7,12.9l0.7,12.3L1998.5,1894.4z"/>
						</g>
					</g>
					<g>
						<g>
							<path d="M1746.2,1880.2c0,0.2,0.1-0.2,0.2-0.4c0.1-0.2,0.2-0.5,0.3-0.8l0.6-1.9c0.4-1.3,0.8-2.7,1.1-4.1
								c0.6-2.8,1.3-5.7,1.8-8.7c0.5-3,0.8-6,1-9.1c0.3-3.1,0.5-6.2,0.4-9.4c-0.1-6.3-0.6-12.8-1.6-19.4c-0.8-6.7-2.2-13.4-3.5-20.6
								c5.7,4.5,11,9.7,15.2,15.8c4.5,6,7.8,12.7,10.8,19.6c3,7,5.2,14.4,6.6,22.1c0.7,3.8,1.3,7.8,1.5,11.8c0.1,2,0.2,4,0.1,6.1
								c0,1,0,2.1-0.1,3.2l-0.1,1.7c-0.1,0.6-0.1,1.1-0.3,2.1L1746.2,1880.2z"/>
						</g>
					</g>
					<g>
						<g>
							<path d="M1840.3,1880.1c0.8-2.4,1.9-5.8,2.7-8.8c0.8-3.1,1.8-6.2,2.6-9.4c0.8-3.2,1.6-6.3,2.2-9.6c0.8-3.2,1.4-6.4,2-9.7
								c1.1-6.5,1.7-13,2.1-19.7c0.3-6.7,0.3-13.4-0.4-20.9c5.5,5,9.7,11.5,12.8,18.3c3.1,6.9,5.1,14.1,6.8,21.4
								c1.7,7.3,2.7,14.7,3.3,22.2c0.3,3.7,0.6,7.5,0.5,11.2c0,3.9,0,7.3-0.4,11.7L1840.3,1880.1z"/>
						</g>
					</g>
				</g>
			</g>
			<g>
				<g>
					<path d="M3208.6,2008h-878c-252.6,0-349-44.4-385.3-81.7c-9.2-9.4-14.5-18.2-17.5-25.5h-262c-3.4,0-6.7-1-9.6-2.9
						c-79.9-52.9-115.5-129.5-105.5-227.5c8.1-79.9,45.5-157.4,75.5-208.4l0,0c24.1-41,73.2-61.6,119.4-50.1
						c608.2,151.2,907.5-146.6,1008-281.7c14.7-19.8,37.3-31.5,61.9-32.3c24-0.6,46.7,9.4,62.1,27.7
						c41.5,49.4,89.7,81.7,140.7,115.9c92.9,62.3,198.2,132.8,278.2,324.5c53.6,128.4,62.9,236.9,27.6,322.4
						c-36.1,87.3-105.8,117-108.7,118.2C3213.1,2007.6,3210.8,2008,3208.6,2008z M1958.5,1883.5c1.3,6.7,24.8,89.9,372.1,89.9h874.3
						c24.5-11.9,181.7-101.3,59.5-393.8c-76-182-172.4-246.6-265.5-309.1c-53.1-35.6-103.3-69.3-148-122.4
						c-8.5-10.1-21.1-15.7-34.5-15.3c-13.9,0.4-26.7,7.1-35,18.3c-58.8,79-163.8,188.5-330.8,261.7c-203.3,89-443.3,100.1-713.4,33
						c-31.4-7.8-64.8,6.2-81.1,34l0,0c-59,100.3-134.7,283.1,15,386.5h270c5,0,9.8,1.2,13.1,5
						C1957.4,1874.8,1959,1878.8,1958.5,1883.5z M1958.4,1884L1958.4,1884L1958.4,1884z"/>
				</g>
			</g>
			<g>
				<g>
					<path class="st7" d="M1651.8,1892h-955l-140.2-310.5l-117.1-259.3c-21.5-47.7,13.4-101.8,65.7-101.8h761.9
						c49.6,0,94.6,29.1,114.9,74.2l190,420.8L1651.8,1892z"/>
				</g>
			</g>
			<g class="st0">
				<g>
					<path d="M1651.8,1892h-955l-140.2-310.5c174.8,172.6,595,271.4,1015.4,133.9L1651.8,1892z"/>
				</g>
			</g>
			<g class="st6">
				<g>
					<path class="st5" d="M470.2,1270.3h761.9c49.6,0,94.6,29.1,114.9,74.2l190,420.8l57.2,126.7h57.6l-79.8-176.7l-190-420.8
						c-20.3-45.1-65.3-74.2-114.9-74.2H505.2c-37,0-65.2,27-71.1,59.6C444.6,1273.9,456.9,1270.3,470.2,1270.3z"/>
				</g>
			</g>
			<g>
				<g>
					<g>
						<path d="M998.2,1598.5c-50.5-3.7-135.1,111.6,5.9,105.2C1145.1,1697.2,1064.6,1603.4,998.2,1598.5z"/>
					</g>
				</g>
				<g>
					<g>
						<circle cx="910.4" cy="1582.6" r="32"/>
					</g>
				</g>
				<g>
					<g>
						<circle cx="1077.9" cy="1578.1" r="32"/>
					</g>
				</g>
				<g>
					<g>
						<ellipse transform="matrix(0.9239 -0.3827 0.3827 0.9239 -510.9212 494.1314)" cx="986.6" cy="1531.4" rx="41" ry="41"/>
					</g>
				</g>
			</g>
			<g>
				<g>
					<path d="M1651.8,1910.4h-955c-7.2,0-13.8-4.2-16.7-10.8l-257.3-569.9c-12.7-28.1-10.3-60.4,6.5-86.3
						c16.7-25.9,45.1-41.4,76-41.4h761.9c56.7,0,108.3,33.4,131.6,85l269.7,597.5c2.6,5.7,2.1,12.3-1.3,17.5
						C1663.8,1907.2,1658,1910.4,1651.8,1910.4z M708.6,1873.7h914.7l-258-571.6c-17.4-38.5-55.9-63.4-98.2-63.4H505.2
						c-18.6,0-35.1,9-45.2,24.6c-10.1,15.6-11.5,34.3-3.8,51.3L708.6,1873.7z"/>
				</g>
			</g>
			<g>
				<g>
					<path class="st7" d="M2261.6,1984.9H704c-25.7,0-46.5-20.8-46.5-46.5l0,0c0-25.7,20.8-46.5,46.5-46.5h1557.6
						c25.7,0,46.5,20.8,46.5,46.5l0,0C2308,1964.1,2287.2,1984.9,2261.6,1984.9z"/>
				</g>
			</g>
			<g class="st0">
				<g>
					<path d="M2261.6,1944.9H704c-18.5,0-34.4-10.8-41.9-26.5c-2.9,6.1-4.6,12.8-4.6,20c0,25.7,20.8,46.5,46.5,46.5h1557.6
						c25.7,0,46.5-20.8,46.5-46.5c0-7.2-1.7-13.9-4.6-20C2296,1934.1,2280.1,1944.9,2261.6,1944.9z"/>
				</g>
			</g>
			<g>
				<g>
					<path d="M2261.6,2003.3H704c-35.7,0-64.8-29.1-64.8-64.8s29.1-64.8,64.8-64.8h1557.6c35.7,0,64.8,29.1,64.8,64.8
						S2297.3,2003.3,2261.6,2003.3z M704,1910.4c-15.5,0-28.1,12.6-28.1,28.1c0,15.5,12.6,28.1,28.1,28.1h1557.6
						c15.5,0,28.1-12.6,28.1-28.1c0-15.5-12.6-28.1-28.1-28.1H704z"/>
				</g>
			</g>
			<g>
				<g>
					<path d="M1638.8,1997.9c-46.6-47-20.4-98.2,0-118.8l26.1,25.8c-5.5,5.7-31.3,35.6-0.1,67.2L1638.8,1997.9z"/>
				</g>
			</g>
			<g>
				<g>
					<g>
						<path class="st2" d="M2813.2,225.1l-207.4,405.8c-23.6-29.1-48-54.2-72.5-75.9c-157.3-139.2-319.9-138.9-319.9-138.9
							c96.4-99.9,239.7-179.8,239.7-179.8c244-125.1,322.7-82.4,348.1-44.3C2812.5,209.1,2813.2,225.1,2813.2,225.1z"/>
					</g>
				</g>
				<g class="st0">
					<g>
						<path d="M2411.1,323.5c-34.8,25.9-31.1,78.5,6.5,100.3c84.3,48.8,115.6,130.4,115.6,130.4l0.1,0.9
							c-157.3-139.2-319.9-138.9-319.9-138.9c96.4-99.9,239.7-179.8,239.7-179.8c244-125.1,322.7-82.4,348.1-44.3
							C2669.9,154.3,2507.5,251.7,2411.1,323.5z"/>
					</g>
				</g>
				<g>
					<g>
						<path d="M2605.8,647.9c-5.1,0-10-2.3-13.2-6.3c-167.2-205.8-377.1-208.5-379.2-208.5c-6.8,0-13-4.1-15.7-10.4
							c-2.7-6.3-1.3-13.5,3.4-18.5c97.1-100.6,237.8-179.5,243.7-182.9c0.2-0.1,0.3-0.2,0.5-0.3c160.5-82.3,274.3-105.2,338.4-68
							c43.9,25.5,46.4,69.3,46.5,71.1c0.1,2.9-0.5,5.9-1.8,8.5L2621,638.7c-2.6,5.1-7.6,8.6-13.4,9.2
							C2607,647.9,2606.4,647.9,2605.8,647.9z M2251.8,402.3c69.1,9.5,218.6,47.5,350.5,198l193.3-378.3
							c-1.6-8.2-7.7-27.4-29.6-39.8c-30.2-17.1-109.9-30.8-304.8,69.1C2455.2,254.7,2341.3,319.3,2251.8,402.3z"/>
					</g>
				</g>
			</g>
			<g>
				<g>
					<path class="st8" d="M2783.6,839.7c-11.5,25-24.5,50.5-39,76.4l-211.3-361.9c0,0,43.5-238,215.3-344.5
						c24.6-15.3,57.2-4.3,68.4,22.5c4.6,11.2,9.6,24.3,14.5,39.2c0.1,0.1,0.1,0.1,0.1,0.1C2867.5,380.1,2901.1,584.4,2783.6,839.7z"
						/>
				</g>
			</g>
			<g class="st0">
				<g>
					<path d="M2831.5,271.4c-1.8-2.2-49.5-57.9-109.1,15.3c-30.6,37.6-46.7,59.1-55.1,71.2c-3.8,5.4,1,12.7,7.5,11.4l29.1-5.8
						c15.4-3.1,30.2,6.7,33.6,22c6.5,29.2,11.3,81-9.1,150.2c-4.1,13.8-3.1,28.7,3.5,41.5c12,23.3,26.2,67.9,3.6,125.4
						c-4.6,11.7-5,24.7-1.2,36.6c7.5,23.8,22.8,64.2,49.3,100.4c-11.5,25-24.5,50.5-39,76.4l-211.3-361.9c0,0,43.5-238,215.3-344.5
						c24.6-15.3,57.2-4.3,68.4,22.5C2821.6,243.4,2826.6,256.5,2831.5,271.4z"/>
				</g>
			</g>
			<g>
				<g>
					<path d="M2744.6,933.1c-6,0-11.6-3.2-14.7-8.4l-211.3-362c-2-3.5-2.8-7.6-2-11.6c1.8-10,46.8-246.7,223.1-355.8
						c15.9-9.8,35.2-12.2,53.1-6.4c18.1,5.8,32.7,19.3,40,36.8c40.7,98.2,115.1,362.8-73.3,698.8c-3,5.3-8.6,8.6-14.7,8.7
						C2744.7,933.1,2744.6,933.1,2744.6,933.1z M2551.2,551.2L2744,881.4c162.9-310.3,95-551.7,57.2-642.7
						c-3.5-8.3-10.4-14.7-19-17.5c-8.5-2.7-17.3-1.7-24.7,2.9C2609.1,316.1,2559.4,514.2,2551.2,551.2z"/>
				</g>
			</g>
			<g>
				<g>
					<g>
						<path class="st2" d="M2568.5,440.6l114.9-23c0,0,18.2,85.4-23.5,135.8c0,0,97.9,118.7-21,181.7l-105.6-181
							C2533.3,554.1,2548.4,484.9,2568.5,440.6z"/>
					</g>
				</g>
				<g>
					<g>
						<path d="M2638.9,752.1c-5.9,0-11.6-3-14.7-8.4l-105.6-181c-2.2-3.7-2.8-8.1-1.9-12.2c0.6-2.9,15.8-71.5,36.3-116.9
							c2.3-5,6.8-8.6,12.2-9.7l114.9-23c9.1-1.8,18,4,20,13.1c0.8,3.6,17.2,83.1-19,139.3c14.2,20.8,41.5,68.5,31.8,117.1
							c-6.6,33.3-28.8,60.1-65.9,79.7C2644.3,751.5,2641.6,752.1,2638.9,752.1z M2551.3,551.4l93.6,160.2
							c19.2-13.2,30.8-29.3,34.5-47.9c7.9-39.6-20.9-85.3-32.6-99.5c-5.2-6.3-5.2-15.4,0-21.7c25.7-31,24.9-79.4,22.3-104.7
							l-88.5,17.7C2566.5,489.6,2555.3,534.8,2551.3,551.4z"/>
					</g>
				</g>
			</g>
			<g>
				<g>
					<g>
						<path class="st2" d="M2039,463.8c0,0-162.6-5-323.8,129.7c-11.2,9.3-22.3,19.3-33.4,30c-13.9,13.4-27.7,27.9-41.3,43.8
							l-195.7-411.6c0,0,0-0.6,0.2-1.6c0.6-4.5,3.2-17.6,12.8-31.1c26.5-37.3,106.4-77.8,346.7,54.2
							C1804.5,277.2,1945.5,361.2,2039,463.8z"/>
					</g>
				</g>
				<g class="st0">
					<g>
						<path d="M2039,463.8c0,0-162.6-5-323.8,129.7c-11.2,9.3-22.3,19.3-33.4,30c-6-9.2-9.3-19.9-9.3-32.1
							c0-81,75.8-140.8,129.2-172.8c23.9-14.4,26-48.2,4-65.4c-268.4-209.7-360.8-97.5-360.8-97.5s0-0.6,0.2-1.6
							c0.6-4.5,3.2-17.6,12.8-31.1c26.5-37.3,106.4-77.8,346.7,54.2C1804.5,277.2,1945.5,361.2,2039,463.8z"/>
					</g>
				</g>
				<g>
					<g>
						<path d="M1640.6,684.3c-0.8,0-1.5-0.1-2.3-0.2c-5.7-0.8-10.6-4.4-13.1-9.6L1429.5,263c-1.3-2.7-1.8-5.6-1.6-8.6
							c0.1-1.8,3.9-45.5,48.5-69.8c65.1-35.3,178.2-9.2,336.3,77.6c0.2,0.1,0.3,0.2,0.5,0.3c5.8,3.5,144.2,86.5,238.4,189.8
							c4.6,5,5.7,12.4,2.9,18.6c-2.9,6.2-9.2,10.1-16,9.9c-2.1-0.1-212-3.4-385,197.5C1650.2,682.1,1645.5,684.3,1640.6,684.3z
							 M1462.5,253.2L1645,636.8c136.1-146.7,286.7-180.4,356-187.9c-87.2-85.6-199-153.3-205-156.9
							c-192.9-105.9-272.9-94-303.4-77.4C1470.9,226.4,1464.4,245.2,1462.5,253.2z"/>
					</g>
				</g>
			</g>
			<g>
				<g>
					<path class="st8" d="M1457,870.8c10.8,25.3,23,51.2,36.8,77.5l221.5-355.7c0,0-36.6-239.2-205.4-350.5c-24.2-16-57.1-6-69,20.5
						c-5,11.1-10.3,24-15.7,38.8c-0.1,0.1-0.1,0.1-0.1,0.1C1386.2,409,1346.8,612.3,1457,870.8z"/>
				</g>
			</g>
			<g class="st0">
				<g>
					<path d="M1425.3,301.5c1.8-2.1,51.1-56.5,108.6,18.4c29.5,38.4,45,60.4,53.1,72.8c3.6,5.6-1.4,12.7-7.9,11.2l-28.9-6.6
						c-15.3-3.5-30.4,5.9-34.3,21c-7.3,29-13.6,80.6,4.9,150.4c3.7,13.9,2.2,28.8-4.7,41.4c-12.6,22.9-32.2,54.7-11.2,112.8
						c4.3,11.8-5.6,31.8-9.7,43.7c-8.2,23.6-16.6,63.2-38.3,104.4c10.8,25.3,23,51.2,36.8,77.5l221.5-355.7
						c0,0-36.6-239.2-205.4-350.5c-24.2-16-57.1-6-69,20.5C1436,273.7,1430.6,286.7,1425.3,301.5z"/>
				</g>
			</g>
			<g>
				<g>
					<path d="M1493.8,965.4c-0.2,0-0.4,0-0.6,0c-6.1-0.2-11.6-3.7-14.4-9.1c-178.7-341.2-96.8-603.6-53.3-700.6
						c7.8-17.4,22.7-30.4,41-35.7c18-5.2,37.3-2.4,52.9,7.9c173.1,114.1,211.3,352,212.8,362.1c0.6,4-0.2,8.1-2.4,11.6l-221.6,355.8
						C1505.1,962.4,1499.6,965.4,1493.8,965.4z M1484.5,251.5c-2.8,0-5.7,0.4-8.5,1.2c-8.7,2.5-15.8,8.7-19.5,16.9
						c-40.3,89.9-115.2,329.3,38.8,644.1l202.1-324.6c-7.1-37.2-51.2-236.7-196.9-332.8C1495.7,253.1,1490.1,251.5,1484.5,251.5z"/>
				</g>
			</g>
			<g>
				<g>
					<g>
						<path class="st2" d="M1683.4,478.1l-114.2-26.3c0,0-20.7,84.9,19.6,136.4c0,0-101.3,115.9,15.8,182.2l110.8-177.9
							C1715.3,592.6,1702.1,523,1683.4,478.1z"/>
					</g>
				</g>
				<g>
					<g>
						<path d="M1604.5,787.5c-2.8,0-5.7-0.7-8.4-2.2c-36.5-20.7-57.9-48.1-63.6-81.6c-8.3-48.8,20.3-95.7,35.1-116.1
							c-34.6-57.2-15.9-136.2-15-139.8c2.2-9.1,11.3-14.6,20.3-12.6l114.2,26.3c5.3,1.2,9.8,5,11.9,10c19.2,46,32.4,115,33,117.9
							c0.8,4.2,0,8.5-2.3,12.2L1619,779.5C1615.8,784.6,1610.2,787.5,1604.5,787.5z M1582.9,472.4c-3.3,25.2-5.5,73.6,19.3,105.3
							c5,6.4,4.8,15.5-0.6,21.7c-0.4,0.5-43.6,51-35.4,98.7c3.2,18.7,14.3,35,33.1,48.7l98.1-157.5c-3.4-16.7-13.4-62.3-26.5-96.7
							L1582.9,472.4z"/>
					</g>
				</g>
			</g>
			<g>
				<g>
					<path class="st2" d="M2770.4,1176.7c0,0,21.5,28.9,57.8,51.9c19.3,12.3,23.2,38.9,7.9,55.9c-54.7,60.7-175.3,176.2-309.7,187.7
						c-1.1,0.1-2.3,0.2-3.5,0.3c0,0-479.9,310.4-886-32.8c0,0-127.7-22.6-209.3-166.7c-5.4-9.7-5.2-20.9-0.5-30.1
						c2.7-5.3,6.9-9.9,12.4-13.1c9.7-5.5,22.1-11,37.3-14.3c0,0-34.7-19.5-62.1-78.2c-6.6-14-1.8-30.9,11-39.5
						c14.2-9.5,31.9-24.4,42.6-44.7c4.8-9,8.1-19.1,9.2-30.3c0.8-8,2-24.5,5.1-47.3c1.1-8.6,2.6-18,4.3-28.3
						c3.2-18.8,7.4-40.3,13.3-63.6c32.1-129.1,110.9-314.1,308.8-422.2c4.9-2.7,10-5.4,15-8c51.2-26.2,105.4-45,160.8-56.3
						c4.3-0.9,8.7-1.7,13.1-2.6c67.2-12.2,136.1-13.5,203.9-3.8c8.1,1.1,16.2,2.5,24.3,4c35.7,6.6,71.1,16.2,105.6,29.1
						c10.5,3.9,21.1,8.1,31.7,12.7c37.5,16.1,76.1,36.7,114,63.1c98.7,68.7,192.9,176.4,252.2,345.2c6.8,19.3,13.1,39.4,18.9,60.4
						c0,0,0.3,4.8,1.6,12.7c0.9,5.7,2.3,13,4.3,21.4c7.2,28.8,22.7,69.9,56,100.2l0,0c6.8,6.3,14.4,12,22.9,17.1
						c15.7,9.5,22.2,29.1,14.8,45.9C2835.4,1131.7,2811.1,1170.5,2770.4,1176.7z"/>
				</g>
			</g>
			<g>
				<g>
					<path class="st5" d="M2554.9,1444.2l-28.5,27.9c-1.1,0.1-2.3,0.2-3.5,0.3c0,0-479.9,310.4-886-32.8c0,0,46.2-189.6,211.8-232.4
						c8.4-2.2,16.3-5.7,23.4-10.7c29.2-20.6,123.9-72.1,266-1.4c10.8,5.4,22.8,8.1,34.9,7.6C2238,1200,2461.2,1208.6,2554.9,1444.2z
						"/>
				</g>
			</g>
			<g class="st0">
				<g>
					<path d="M1956.2,1190.3c0,0-2.5,98.5-111.9,50.1c0,0-22.6,37.4,29.5,74.3c0,0,116.4,129,251.3,16.9c0,0,56.5-29.6,50.6-88
						c0,0-23.9,5.2-73.8,8.4c-32.8,2.1-63.6-15.9-78.1-45.4c-4.3-8.8-8.7-19.3-13.1-31.8L1956.2,1190.3z"/>
				</g>
			</g>
			<g>
				<g>
					<path class="st5" d="M1830,902c5,19.8-18.3,34.1-34,21.1c-12.6-10.5-28.1-19.9-46.4-24.7C1702.4,885.7,1804.8,803.4,1830,902z"
						/>
				</g>
			</g>
			<g>
				<g>
					<path class="st5" d="M2223.7,907.3c-5.7,16,12.8,29.6,26.7,19.7c19.4-13.7,45.9-25.6,80.6-26.9
						C2408.7,897.1,2278.5,752.8,2223.7,907.3z"/>
				</g>
			</g>
			<g>
				<g>
					<g>
						<path class="st3" d="M2201.9,390.6c-1.2,1.4-2.5,2.8-3.8,4.3c-2,2.8-4.3,5.4-6.6,8c-9,11.6-19.8,23.7-30.2,38.5
							c-2.6,3.7-5.4,7.3-8.3,10.9c-1.5,1.7-2.8,3.7-4,5.8l-3.8,6.1c-5,8.3-10.8,16.1-15.2,25.3c-4.7,9-9.6,18-14.3,27.3l-12.7,29.2
							l-3.3,7.4c-1.2,2.5-2.2,5-3,7.6l-5.6,15.4l-11.4,31.4c-3.1,10.8-6.4,21.6-9.7,32.5l-5.1,16.4l-2.6,8.3l-2.1,8.4l-8.6,33.9
							l-4.6,17.1l-2.3,8.6l-1.8,8.6c-1.7,8.3-3.5,16.5-5.4,24.8c-3.1,13.6-22.1,14.5-26.5,1.4c-2.8-8.3-5.4-16.5-8-24.9
							c-7-23.4-12.3-47.3-17.8-71.5l-2-9.1l-1.5-9.1l-2.8-18.4c-1.9-12.3-3.7-24.7-5.3-37.2c-1.1-12.5-1.8-25.2-2.6-37.9
							c-0.6-12.7-1.7-25.6-0.9-38.5l1.2-39.3c1.2-13.2,3-26.5,4.7-40l1.3-10.1c0.4-3.4,1.4-6.7,2-10.1l3.4-15.3l1.1-5.1l1-4.3
							c4.3-0.9,8.7-1.7,13.1-2.6C2065.2,382.1,2134.1,380.8,2201.9,390.6z"/>
					</g>
				</g>
				<g>
					<g>
						<path class="st3" d="M1982.8,406.3c-2.1,1.1-4.3,2.3-6.5,3.2c1-0.3,2-0.6,3-1l0.3,0.3c0.2,0.2,0.4,0.2,0.6,0.3
							c-0.3,0.7-0.5,1.3-0.8,1.8l-0.7,1.1l-0.8,1.1c-0.3,0.3-0.6,0.7-0.9,1.1c-0.3,0.3-0.6,0.7-1,1.2c-1.3,1.9-2.8,3.4-4.3,5.2
							c-1.5,2-3.1,4-4.9,5.8c-6.5,8.5-14.4,17.3-22,28.1c-2,2.6-4,5.3-6,8c-1.1,1.3-2,2.8-2.9,4.3l-2.8,4.4
							c-3.7,6-7.9,11.7-11.1,18.5c-3.4,6.6-7,13.1-10.4,19.9l-9.3,21.3l-2.3,5.4c-0.9,1.8-1.6,3.6-2.2,5.5l-4.1,11.3l-8.3,22.9
							c-2.3,7.9-4.7,15.8-7.1,23.7l-3.7,12l-1.9,6.1l-1.5,6.1l-6.3,24.7l-3.3,12.5l-1.7,6.3l-1.3,6.3c-1.3,6-2.6,12-4,18.1
							c-2.2,9.9-16.1,10.6-19.3,1c-2-6-4-12.1-5.9-18.2c-5.1-17.1-8.9-34.5-13-52.2l-1.4-6.6l-1.1-6.7l-2-13.4
							c-1.3-9-2.6-18.1-3.8-27.2c-0.8-9.1-1.3-18.4-1.8-27.7c-0.5-9.3-1.3-18.6-0.7-28.1l0.9-28.7c0.7-7.6,1.7-15.3,2.7-23
							c4.9-2.7,10-5.4,15-8c51.2-26.2,105.4-45,160.8-56.3c4.3-0.9,8.7-1.7,13.1-2.6C1993.6,399,1988.5,403,1982.8,406.3z"/>
					</g>
				</g>
				<g>
					<g>
						<path class="st3" d="M2363.5,436.3c-5.6,4.7-11.5,9.8-17.5,15.7c-2.4,2.3-4.8,4.6-7.4,6.8c-1.3,1.1-2.5,2.3-3.7,3.7l-3.5,3.9
							c-4.7,5.3-9.9,10.1-14.2,16.2c-4.5,5.8-9.3,11.7-13.8,17.7l-13,19.3l-3.3,4.9c-1.1,1.6-2.2,3.3-3.2,5l-6,10.4l-12.3,21
							c-3.7,7.3-7.4,14.7-11.3,22.1l-5.7,11.1l-2.9,5.6l-2.6,5.7l-10.6,23.2l-5.5,11.7l-2.8,5.9l-2.4,6c-2.3,5.7-4.7,11.4-7.1,17.1
							c-4,9.3-17.7,7.5-19.1-2.5c-0.9-6.3-1.7-12.6-2.5-18.9c-2-17.7-2.6-35.6-3.4-53.6l-0.3-6.8l0.1-6.8l0.4-13.6
							c0.3-9.1,0.6-18.2,1.1-27.4c0.9-9.1,2-18.3,3.1-27.6c1.2-9.2,2.1-18.6,4.4-27.8l6-28c2.6-9.3,5.7-18.6,8.6-28.1l2.2-7.1
							c0.8-2.4,1.9-4.7,2.8-7l5.9-14l2.3-5.4c35.7,6.6,71.1,16.2,105.6,29.1C2342.2,427.5,2352.8,431.7,2363.5,436.3z"/>
					</g>
				</g>
				<g>
					<g>
						<path class="st3" d="M2810.4,1039.3l-17.6-6.2c-9.4-3.2-18.8-6.3-28.4-9.4c-19.1-6.2-38.8-11.8-58.7-16.7
							c-10-2.7-20.1-4.5-30.4-6.9c-10.2-1.8-20.6-4.3-31.1-6c-21.2-4.4-42.8-6.8-66.4-11.4c4.8-3.5,9.7-6.6,14.8-9.7
							c5.1-3,10.3-6.1,15.6-8.4c5.3-2.5,10.7-4.8,16.2-7.1c5.5-2.2,11.1-3.8,16.8-5.7l8.5-2.6c2.8-0.8,5.7-1.4,8.6-2.1
							c5.7-1.3,11.5-2.5,17.4-3.7c11.7-1.6,23.5-3.4,35.3-3.9c14.5-1,29-1.1,43.5-0.3C2761.7,967.9,2777.2,1009,2810.4,1039.3z"/>
					</g>
				</g>
				<g>
					<g>
						<path class="st3" d="M2750.1,917.7c-7.3-2-14.6-3.9-22-5.7c-10-2.7-20.1-4.5-30.3-6.9c-10.2-1.8-20.6-4.3-31.1-6
							c-21.2-4.4-42.8-6.8-66.4-11.4c4.8-3.5,9.8-6.6,14.8-9.7c5.1-3,10.2-6.1,15.6-8.4c5.4-2.5,10.8-4.8,16.2-7.1
							c5.5-2.2,11.1-3.9,16.7-5.7l8.5-2.6c2.8-0.8,5.7-1.4,8.6-2.1c5.7-1.3,11.6-2.5,17.4-3.7c10.4-1.4,20.9-3,31.5-3.7
							c6.8,19.3,13.1,39.4,18.9,60.4C2748.6,905,2748.8,909.8,2750.1,917.7z"/>
					</g>
				</g>
				<g>
					<g>
						<path class="st3" d="M1631.2,1019.2c-23.6,4.6-45.1,7-66.4,11.4c-10.5,1.7-20.9,4.2-31.1,6c-10.3,2.5-20.4,4.2-30.4,6.9
							c-11.8,2.9-23.4,6-34.9,9.4c4.8-9,8.1-19.1,9.2-30.3c0.8-8,2-24.5,5.1-47.3c5.1,0.1,10.3,0.3,15.4,0.7
							c11.8,0.6,23.6,2.3,35.3,3.9c5.8,1.2,11.6,2.3,17.4,3.7c2.9,0.7,5.7,1.2,8.6,2.1l8.5,2.6c5.7,1.8,11.2,3.5,16.7,5.7
							c5.5,2.3,10.9,4.6,16.2,7.1c5.4,2.3,10.5,5.4,15.6,8.4C1621.5,1012.6,1626.5,1015.7,1631.2,1019.2z"/>
					</g>
				</g>
				<g>
					<g>
						<path class="st3" d="M1608.8,924.2c-23.6,4.7-45.2,7-66.4,11.4c-10.5,1.7-20.9,4.2-31.1,6c-8.2,2-16.3,3.5-24.3,5.4
							c3.2-18.8,7.4-40.3,13.3-63.6c3.6,0.5,7.1,1,10.7,1.5c5.8,1.2,11.7,2.3,17.4,3.7c2.8,0.7,5.7,1.3,8.6,2.1l8.5,2.6
							c5.6,1.9,11.2,3.5,16.7,5.7c5.5,2.3,10.9,4.7,16.2,7.1c5.4,2.3,10.5,5.4,15.6,8.4C1599.1,917.6,1604,920.7,1608.8,924.2z"/>
					</g>
				</g>
			</g>
			<g class="st0">
				<g>
					<path d="M2777.6,1175.2c-3.3,0.8-4.6,4.7-2.4,7.3c8.2,9.6,26.8,29.4,53.1,46.1c19.3,12.3,23.2,38.9,7.9,55.9
						c-54.7,60.7-175.3,176.2-309.7,187.7c-1.1,0.1-2.3,0.2-3.5,0.3c0,0-479.2,309.9-885.1-32c-0.6-0.5-1.2-0.8-2-1
						c-12.5-2.6-131-30.1-208.2-166.5c-3.9-6.9-4.9-14.5-3.4-21.7c0.8-3.7,5.7-4.7,8-1.7c21.1,27.4,59.6,67.1,119,92.5
						c3.2,1.4,6.8-1.2,6.3-4.7c-1-7.5-1.9-20,0-36.4c0.5-4,5.4-5.5,7.9-2.5c35.4,41.9,216.6,235.3,530.5,210.8
						c351.8-27.4,797.8-574.7,413.5-974.4c-0.1-0.1-0.2-0.3-0.4-0.4c-3.9-4.1,1.8-10.2,6.2-6.6c84.6,68.9,162.7,169.6,214.4,316.7
						c6.8,19.2,13,39.1,18.8,59.9c0.1,0.3,0.1,0.6,0.2,0.9c0.1,1.3,0.5,5.7,1.5,12.3c0.9,5.7,2.3,13,4.3,21.4
						c7.2,28.8,22.7,69.9,56,100.2l0,0c6.8,6.3,14.4,12,22.9,17.1c15.7,9.5,22.2,29.1,14.8,45.9
						C2836.2,1129.9,2814,1165.9,2777.6,1175.2z"/>
				</g>
			</g>
			<g class="st6">
				<g>
					<path class="st5" d="M2363.5,436.3c-10.6-4.6-21.2-8.8-31.7-12.7c-34.5-12.8-69.8-22.5-105.6-29.1c-8.1-1.5-16.2-2.9-24.3-4
						c-67.8-9.7-136.7-8.4-203.9,3.8c-4.3,0.8-8.7,1.7-13.1,2.6c-55.5,11.3-109.6,30.1-160.8,56.3c-5.1,2.6-10.1,5.2-15,8
						c-197.8,108.1-276.7,293.1-308.8,422.2c-5.8,23.3-10.1,44.7-13.3,63.6c-1.7,10.3-3.1,19.7-4.3,28.3
						c-3.1,22.8-4.3,39.3-5.1,47.3c-1.1,11.2-4.4,21.3-9.2,30.3c-10.7,20.3-28.5,35.3-42.6,44.7c-12.8,8.6-17.6,25.5-11,39.5
						c27.4,58.7,62.1,78.2,62.1,78.2s7.6,2.4-19.8-56.4c-6.6-14-10.1-23,2.7-31.6c14.2-9.5,31.9-24.4,42.6-44.7
						c4.8-9,8.1-19.1,9.2-30.3c0.8-8,2-24.5,5.1-47.3c1.1-8.6,2.6-18,4.3-28.3c3.2-18.8,7.4-40.3,13.3-63.6
						c9.1-36.7,22-77.9,40.3-120.5c5.6-13,17.6-21.7,31.5-24.3c27.3-5.1,67.7-36.8,102.6-83.1c32.8-43.6,51.8-88.4,51.6-116.5
						c-0.1-14.4,6.2-28.2,17.9-36.7c20.1-14.6,41.6-28.4,64.8-41.1c4.9-2.7,10-5.4,15-8c51.2-26.2,105.4-45,160.8-56.3
						c4.3-0.9,8.7-1.7,13.1-2.6c67.2-12.2,136.1-13.5,203.9-3.8c8.1,1.1,16.2,2.5,24.3,4c35.7,6.6,71.1,16.2,105.6,29.1
						c10.5,3.9,21.1,8.1,31.7,12.7c49.7,21.4,101.4,50.7,150.8,90.9C2488.9,501.1,2424.8,462.7,2363.5,436.3z"/>
				</g>
			</g>
			<g>
				<g>
					<path d="M2075.3,1617.9c-136.6,0-296.1-37.2-446-162.5c-24.9-5.7-139.7-38.7-216.4-174.1c-13.2-23.3-4.9-53,18.3-66.3
						c3.8-2.2,7.7-4.2,11.7-6c-13.2-13.5-29.3-34.3-43.5-64.6c-10-21.5-2.7-47.6,17-60.8c18.7-12.5,41.6-33.6,44.3-62.5l0.4-4.6
						c3-33.5,12.1-135.5,60.1-251.5c61.4-148.2,160.7-258.2,295-326.9c161.3-82.5,351.3-93.5,521.4-30.4
						c147.6,54.8,341.6,184.9,427.2,492.8c0.3,1.1,0.5,2.3,0.6,3.5c0.1,0.9,7.3,96,76.6,138c23,13.9,32.3,42.9,21.6,67.3
						c-11.9,27.2-31.8,59.5-63.3,75.4c9.1,8.9,21.6,19.9,36.9,29.6c13.5,8.6,22.5,22.6,24.7,38.5c2.1,15.7-2.7,31.4-13.3,43.1
						c-60.6,67.3-182.3,181.2-320.3,193.2c-22,13.6-135.5,80.4-292.8,112.3C2188.1,1611.1,2133.7,1617.9,2075.3,1617.9z
						 M2111.7,401.2c-96.4,0-192.6,22.6-279.9,67.2c-262.3,134.1-323.6,402.9-336.8,551.1l-0.4,4.7c-4,42.2-34.4,71-59.3,87.6
						c-5.9,3.9-8.1,11.8-5.1,18.2c24.4,52.3,54.9,70.5,55.2,70.6c6,3.5,9.4,10.4,8.3,17.4c-1.1,6.9-6.2,12.5-13.1,14
						c-11.6,2.6-22.6,6.8-32.6,12.5c-7,4-9.6,13-5.6,20c76.3,134.8,196.3,158.1,197.5,158.3c2.9,0.5,5.7,1.8,8,3.8
						c124.3,105,266.4,157.8,424.1,157.8c50.4,0,102.3-5.4,155.7-16.2c165.9-33.5,284.8-109.4,286-110.1c2.4-1.6,5.2-2.5,8-2.7
						c127.8-9.2,243.9-118.2,301.8-182.4c3.9-4.4,5.6-9.9,4.8-15.7c-0.8-5.9-4.2-11.1-9.3-14.4c-38.5-24.5-61.3-54.9-62.3-56.1
						c-3.6-4.8-4.4-11.1-2.1-16.6c2.3-5.5,7.3-9.5,13.2-10.4c32.5-4.9,53.1-37.6,64.7-64.2c3.9-8.9,0.4-19.5-8.1-24.6
						c-79.7-48.2-91.5-147.6-92.8-163c-82-293-265.9-416.4-405.9-468.4C2256.7,413.9,2184.1,401.2,2111.7,401.2z"/>
				</g>
			</g>
			<g>
				<g>
					<path d="M1624.4,1451.1c-4.4-5.7-8.1-11.3-11.6-17.4c-3.5-6-6.8-12.2-9.8-18.5c-2.9-6.4-5.7-12.8-7.8-19.7
						c-2.1-6.8-4-13.7-4.2-20.9c1.2,1.3,2.4,2.6,3.4,3.9l3.6,3.6c2.4,2.4,4.7,4.7,7.3,6.9c5,4.5,9.9,8.9,14.9,13.2l14.9,12.9
						c4.9,4.2,9.9,8.7,14.4,12.9L1624.4,1451.1z"/>
				</g>
			</g>
			<g>
				<g>
					<path d="M2512.1,1459.3l33.8-27.7c11.3-9.3,22.5-18.8,33.7-28.3c11.2-9.6,22.2-19.3,33.1-29.3c11-9.8,22.1-19.7,34.7-28.7
						c-5.5,14.5-13.4,27.6-22.1,39.9c-8.9,12.2-18.3,24.1-28.1,35.5c-9.8,11.5-19.9,22.7-30.4,33.5c-5.2,5.4-10.6,10.7-16.1,15.9
						c-5.5,5.2-10.9,10.3-16.8,15.4L2512.1,1459.3z"/>
				</g>
			</g>
			<g>
				<g>
					<path d="M2759,1189.3c-3-2.9-5.5-6.3-8-9.7c-2.4-3.5-4.7-7.1-6.9-10.9c-2.2-3.8-4.2-7.7-5.9-11.9c-1.7-4.2-3.1-8.8-3.7-13.9
						c5,0.9,9.5,2,13.7,3.5c4.3,1.4,8.2,3.2,12.1,5c3.9,1.8,7.6,3.8,11.3,5.9c3.6,2.1,7.1,4.3,10.2,6.9L2759,1189.3z"/>
				</g>
			</g>
			<g>
				<g>
					<path d="M2128.1,1323.6c-8.2,39.1-33.7,92.1-111.7,101c-39.1,4.5-67.7-7.5-88.5-26.1c-46.1-41.3-54-115.1-54-115.1
						c104.6,39,115-79.3,115-79.3c11.9,126.6,142.8,76.9,142.8,76.9S2133.1,1299.6,2128.1,1323.6z"/>
				</g>
			</g>
			<g>
				<g>
					<path class="st9" d="M2128.1,1323.6c-8.2,39.1-33.7,92.1-111.7,101c-39.1,4.5-67.7-7.5-88.5-26.1
						C1952.2,1359.5,2015.1,1286,2128.1,1323.6z"/>
				</g>
			</g>
			<g>
				<g>
					<path d="M2000.3,1442.5c-29.8,0-56-9-78.3-26.8c-55.2-44.2-64.7-127.1-65.1-130.6c-0.6-5.9,1.8-11.6,6.5-15.3
						c4.7-3.6,10.9-4.6,16.4-2.5c24.5,9.1,44.3,9.1,59.1-0.2c28.4-17.8,33-64.3,33-64.7c0.8-8.8,8.1-15.5,16.9-15.5c0,0,0,0,0,0
						c8.8,0,16.1,6.7,16.9,15.4c2.8,29.7,13,50.2,30.4,61c34.4,21.5,88.9,1.7,89.4,1.5c5-1.9,10.6-1.3,15.1,1.5
						c4.5,2.9,7.4,7.7,7.9,13c4.1,50.4-17.7,149.2-130.2,162C2012.2,1442.2,2006.1,1442.5,2000.3,1442.5z M1895.8,1306.9
						c6.4,24.3,20,60.5,47.5,82.4c19.6,15.6,42.8,21.6,71.1,18.4c79.6-9.1,96.4-70.9,99.6-104.3c-24.7,5.2-64.2,8.8-96-11.1
						c-12.3-7.7-22.2-17.9-29.8-30.8c-7.2,12.9-17.2,25.5-31.3,34.4C1939.6,1307,1919.1,1310.6,1895.8,1306.9z"/>
				</g>
			</g>
			<g>
				<g>
					<path d="M2004.4,1190.9l0.7,6.7c0.3,2.4,0.7,4.8,1.1,7.3c0.8,4.8,1.9,9.6,3.2,14.2c2.4,9.3,6.2,17.9,10.7,25.4
						c9.3,14.8,22.5,24.1,40.4,26.9c2.2,0.4,4.4,0.7,6.8,0.9l3.5,0.3l3.8,0.1c5.1,0,10.3,0.4,15.3-0.1l7.6-0.3l7.4-0.9l3.7-0.5
						l3.6-0.8c2.4-0.5,4.9-0.9,7.2-1.5c9.6-2.3,18.1-6.5,26.9-10.4c2.3-0.9,4.3-2.2,6.7-3.1c2.1-1.2,4.6-2.2,6.8-3.5
						c4.7-2.4,9.5-5,14.8-8.3l0.2-0.1c0.6-0.4,1.4-0.2,1.8,0.4c0.1,0.2,0.2,0.4,0.2,0.6c0.7,6.8-1.1,13.4-3.9,19.2
						c-1.3,3-3.1,5.7-4.9,8.4c-2,2.5-4,5.2-6.3,7.4c-9.2,9.2-21,14.9-32.7,19.4c-2.9,1.1-5.9,2-8.9,2.9l-4.5,1.4l-4.5,1l-9.1,2
						l-9.1,1.2c-6.1,1-12.1,1.1-18.2,1.4l-4.5,0.2l-4.9-0.1c-3.3,0-6.6-0.3-9.9-0.7c-13.3-1.3-26.9-5.9-39-13.5
						c-12.1-7.5-21.9-18.4-28.9-30c-7.1-11.6-11.4-24.1-14.1-36.5c-1.3-6.2-2.2-12.4-2.8-18.7c-0.3-3.1-0.4-6.2-0.5-9.4
						c0-3.3,0-6,0.3-10c0.7-9.4,8.8-16.4,18.1-15.8c8.3,0.6,14.9,7.1,15.7,15.1L2004.4,1190.9z"/>
				</g>
			</g>
			<g>
				<g>
					<path d="M2004.5,1194.6c0.3,3.5,0.4,5.8,0.5,8.6c0,2.7,0,5.4-0.1,8c-0.3,5.3-0.9,10.6-1.8,16c-2,10.6-5.2,21.3-10.7,31.5
						c-5.4,10.1-13.1,19.8-22.9,26.9c-9.7,7.3-21,12-32.2,14.1c-5.6,1.1-11.1,1.6-16.6,1.8c-5.3,0-10.4-0.1-15.6-0.3
						c-10.5-1.3-21.1-2.6-31.6-7.1c-2.6-0.8-5.1-2.4-7.7-3.6c-1.3-0.7-2.5-1.3-3.7-2.1l-3.6-2.5c-1.2-0.9-2.3-1.7-3.5-2.6
						c-1.1-1-2.1-2.1-3.1-3.2c-2.1-2-3.8-4.5-5.4-7c-1.7-2.4-2.7-5.2-3.8-7.8c-0.8-2.8-1.6-5.5-1.9-8.4c-0.6-5.6,0-11.3,2.5-16.3
						c0.2-0.5,0.9-0.7,1.4-0.5c0.2,0.1,0.3,0.2,0.4,0.3l0.1,0.1c3,4.3,5.9,7.9,8.9,10.9c1.4,1.6,3,2.8,4.4,4.2l2.3,1.8
						c0.7,0.6,1.4,1.2,2.2,1.7c6,4.1,12.1,7.4,19.4,9.3c7.2,2.1,15.5,2.2,23.6,2.2l12.5-0.9c3.9-0.5,7.6-1.2,11.1-2.3
						c7-2.2,13.3-5.1,18.3-9.4c5.1-4.3,9.2-9.7,12.6-16c3.2-6.4,5.8-13.7,7.3-21.5c0.8-3.9,1.5-7.8,1.9-11.9c0.2-2,0.4-4,0.5-6
						l0.3-5.4l0.1-1.7c0.5-9.4,8.4-16.6,17.8-16.1C1996.9,1179.7,2003.7,1186.4,2004.5,1194.6z"/>
				</g>
			</g>
			<g>
				<g>
					<g>
						
							<ellipse transform="matrix(5.902659e-02 -0.9983 0.9983 5.902659e-02 604.5637 2789.459)" cx="1781.9" cy="1074" rx="106.6" ry="81.2"/>
					</g>
				</g>
				<g>
					<g>
						
							<ellipse transform="matrix(5.902735e-02 -0.9983 0.9983 5.902735e-02 642.6995 2793.0725)" class="st5" cx="1802.9" cy="1055.6" rx="31.1" ry="23.7"/>
					</g>
				</g>
			</g>
			<g>
				<g>
					<g>
						
							<ellipse transform="matrix(0.9983 -5.902659e-02 5.902659e-02 0.9983 -59.497 133.9103)" cx="2236.9" cy="1074" rx="81.2" ry="106.6"/>
					</g>
				</g>
				<g>
					<g>
						
							<ellipse transform="matrix(0.9983 -5.902045e-02 5.902045e-02 0.9983 -58.4405 132.6255)" class="st5" cx="2215.9" cy="1055.6" rx="23.7" ry="31.1"/>
					</g>
				</g>
			</g>
			<g>
				<g>
					<g>
						<path d="M1998.2,1221.8c57.6,1.7,98.4-59.4,79.4-77.6c-7.6-7.3-21.3-12.4-35.1-15.9c-27.1-7-55.5-7.8-83-2.5
							c-13.9,2.7-28,7-36,13.8C1903.5,1156.6,1940.6,1220,1998.2,1221.8z"/>
					</g>
				</g>
				<g class="st0">
					<g>
						<path class="st5" d="M2003.5,1148c0.2,6-12.3,11.3-27.9,11.7c-15.6,0.5-28.4-4-28.6-10c-0.2-6,12.3-11.3,27.9-11.7
							C1990.5,1137.5,2003.3,1142,2003.5,1148z"/>
					</g>
				</g>
			</g>
		</g>
	</g>
</g>
</svg>
