<?xml version="1.0" encoding="utf-8"?>
<!-- Generator: Adobe Illustrator 22.1.0, SVG Export Plug-In . SVG Version: 6.00 Build 0)  -->
<svg version="1.1" id="Layer_1" xmlns="http://www.w3.org/2000/svg" xmlns:xlink="http://www.w3.org/1999/xlink" x="0px" y="0px"
	 viewBox="0 0 4000 2855.4" style="enable-background:new 0 0 4000 2855.4;" xml:space="preserve">
<style type="text/css">
	.st0{opacity:0.3;}
	.st1{fill:#636363;}
	.st2{fill:#FF761A;}
	.st3{fill:#FFFFFF;}
	.st4{opacity:0.7;}
	.st5{fill:#D0CFE5;}
</style>
<g>
	<g>
		<g class="st0">
			
				<ellipse transform="matrix(0.9997 -2.424315e-02 2.424315e-02 0.9997 -61.6786 49.39)" class="st1" cx="2006.1" cy="2568.5" rx="1406.1" ry="134.1"/>
		</g>
		<g>
			<path class="st2" d="M2907.3,2430.9c76.6,61.1,200,118.8,323.1,4.5c127.8-118.7,159.6-277.8,166-376.7
				c1.5-23.1,4.6-45.9,9.4-68.4c11.4-54,32.2-105.7,62.1-152.5c35.5-55.6,80.7-115.4,127.1-148.8c0,0-247.3-64.8-482.8,163.3
				c-90.4,87.5-179,218.2-251.2,412.2C2838.8,2324.2,2857.6,2391.3,2907.3,2430.9z"/>
		</g>
		<g>
			<path class="st3" d="M3118.5,1910.7c3.9-4.1,8.1-7.9,12.3-11.3c6.5-5.3,15.8,1.5,12.6,9.3c-11.8,28.9-14.7,54.4-14.9,72
				c-0.1,7.8,10,11,14.6,4.7c11.4-15.7,23.2-27.1,33.2-35.2c6.6-5.3,16,2,12.4,9.7c-27.4,59-25,106.5-19.9,132.6
				c1.5,7.7,11.9,8.9,15.2,1.8c23-48.8,52.4-84,71.3-103.6c5.5-5.7,15-0.8,13.7,7c-3.9,23.6-4.4,43.3-3.6,58
				c0.4,8.2,11.4,10.5,15.2,3.3c10.6-20,25.9-42.4,37.7-58.7c4.7-6.4,14.9-2.9,14.6,5c-0.9,22.1,0.9,43.3,2.8,58.9
				c1,7.7,11.3,9.8,15,2.9c15.9-28.8,36.4-55.2,53.8-75.3c0.9-1,1.5-2.2,1.7-3.5c11.5-53.3,32.1-104.3,61.7-150.5
				c32-50.1,71.8-103.6,113.4-138.1c5.3-4.4,2.9-13-3.9-14.1c-60.4-9.7-265.8-25-463.3,165c-1.2,1.1-2,2.6-2.3,4.2
				c-4.1,18.8-6.1,36.3-7,49.9C3104.2,1912.1,3113.3,1916.1,3118.5,1910.7z"/>
		</g>
		<g class="st0">
			<path d="M3111.1,2368c144.1-98.2,199.5-250.7,220.7-347.5c4.9-22.6,11.5-44.7,19.5-66.2c19.4-51.7,47.7-99.7,84.3-141.5
				c42.8-48.8,95.3-100.2,145.5-126.7c9.1,1.6,13.9,2.8,13.9,2.8c-46.4,33.4-91.6,93.2-127.1,148.8c-29.9,46.8-50.7,98.5-62.1,152.5
				c-4.7,22.5-7.9,45.3-9.4,68.4c-6.4,98.9-38.2,258-166,376.7c-123.1,114.4-246.5,56.6-323.1-4.5c-18.7-14.9-33-33.7-42.4-54.4
				C2929.7,2417.1,3014.2,2434.1,3111.1,2368z"/>
		</g>
		<g>
			<path d="M3079,2516.5c-58.9,0-120.4-24.4-181.6-73.1c-55.3-44.1-75.9-118.2-51.3-184.4l0,0c60.1-161.5,136.8-292.9,227.8-390.3
				c73.4-78.6,156.2-135.4,246.1-169.1c153.9-57.5,273.9-27.2,278.9-25.9c5.9,1.6,10.5,6.4,11.6,12.4c1.1,6-1.3,12.2-6.3,15.8
				c-37.1,26.7-79.6,76.6-123,144.5c-40.2,62.8-64,136.6-69,213.4c-7.1,110.8-42.6,267.9-171,387.3
				C3191.4,2493.3,3136.4,2516.5,3079,2516.5z M2875.8,2270c-19.8,53.3-3.2,113,41.4,148.5c75.6,60.3,189.5,110.2,302.4,5.3
				c120.8-112.2,154.2-261,161-366.1c5.3-82.2,30.9-161.2,73.9-228.5c35.9-56.1,70.6-99.8,103.5-130.2c-44.5-4.8-129.8-6.4-228.6,31
				C3137.1,1802.6,2980.3,1989.4,2875.8,2270L2875.8,2270z"/>
		</g>
		<g>
			<path class="st2" d="M2147.8,1590.9c-9-10.9-25.2-12.1-35.8-2.7c-43.6,38.7-151.9,130-221.4,161.6
				c-87.1,39.6-249.2,106.9-210.7,237.5c38.5,130.6,272,146.5,341.3,21.8c43.1-77.6,142.9-149.8,212.2-193.3
				c36.7-23.1,43.1-73.9,13.6-105.6L2147.8,1590.9z"/>
		</g>
		<g class="st0">
			<path d="M2247,1710.1l-12.1-14.6c-1.3,21.2-12.2,41.6-32,54c-69.3,43.5-169.1,115.7-212.2,193.3
				c-59.7,107.4-241.3,110.5-315,25.7c1,6.1,2.3,12.3,4.2,18.7c38.5,130.6,272,146.5,341.3,21.8c43.1-77.6,142.9-149.8,212.2-193.3
				C2270.1,1792.6,2276.6,1741.7,2247,1710.1z"/>
		</g>
		<g class="st4">
			<path class="st3" d="M1715.5,2002.5c-38.5-130.6,123.6-197.9,210.7-237.5c69.5-31.6,177.8-122.8,221.4-161.6
				c2.1-1.9,4.6-3.3,7.1-4.3l-6.9-8.3c-9-10.9-25.2-12.1-35.8-2.7c-43.6,38.7-151.9,130-221.4,161.6
				c-87.1,39.6-249.2,106.9-210.7,237.5c14.2,48.1,54.8,80.6,104,96.3C1751.4,2065.5,1726.1,2038.3,1715.5,2002.5z"/>
		</g>
		<g>
			<path d="M1869.6,2097.6c-2.8-6.1-4.4-11.3-5.9-17c-1.4-5.7-2.5-11.4-3.1-17.2c-1.3-11.6-1.2-23.5,0.5-35.2
				c1.9-11.8,5.4-23.4,10.8-34.1c5.6-10.7,13.5-20.1,22.9-26.7c1.1-0.8,2.6-0.5,3.4,0.6c0.5,0.6,0.6,1.4,0.3,2.1l-0.1,0.2
				c-3.4,10.6-5.8,20.3-6.8,30.1c-0.8,9.9-0.8,19.6-0.2,29.3c0.9,9.7,2.1,19.4,3.6,29.1c0.4,2.4,0.7,4.9,1.2,7.3
				c0.3,2.4,0.7,4.9,1.2,7.3c0.7,4.8,1.7,10,2.1,14.2l0.2,1.8c0.8,8.7-5.6,16.5-14.3,17.4
				C1878.6,2107.3,1872.3,2103.5,1869.6,2097.6z"/>
		</g>
		<g>
			<path d="M1721.4,2061.3c-1.5-6.5-1.9-11.9-2.1-17.9c-0.2-5.8,0-11.7,0.7-17.5c1.3-11.6,3.8-23.2,8.1-34.3
				c4.4-11.1,10.3-21.7,17.9-31c7.7-9.2,17.5-16.7,28.1-21.2c1.2-0.5,2.7,0.1,3.2,1.3c0.3,0.7,0.2,1.5-0.1,2.2l-0.1,0.2
				c-5.6,9.6-10,18.6-13.1,28c-2.9,9.5-5,18.9-6.4,28.6c-1.2,9.7-2.1,19.4-2.7,29.2c-0.2,2.4-0.4,4.9-0.4,7.4
				c-0.2,2.5-0.3,4.9-0.4,7.4c-0.4,4.8-0.4,10.1-0.9,14.3l-0.2,1.8c-1.1,8.7-9,14.9-17.7,13.9
				C1728.2,2072.8,1722.9,2067.7,1721.4,2061.3z"/>
		</g>
		<g>
			<path d="M1856,2110.3c-9.7,0-19.6-0.5-29.5-1.6c-81.2-9-143.2-53.8-161.8-117c-40.9-138.8,121.6-212.3,209-251.7l10.4-4.7
				c58-26.4,153.4-102.1,217.4-159c8.3-7.4,19.1-11,30.2-10.2c11.1,0.8,21.2,6,28.3,14.6l98.9,118.9c17.2,18.6,25.1,43.6,21.9,68.7
				c-3.3,25.2-17.5,47.3-38.9,60.8c-71.9,45.1-166,114.3-206.8,187.6C2002.5,2075.3,1934.1,2110.3,1856,2110.3z M2128.5,1597.7
				c-2.2,0-4.3,0.8-6,2.3c-23.8,21.1-146.4,128.3-225.3,164.1l-10.4,4.7c-113.7,51.4-222.1,110.2-191.6,213.8
				c17.9,60.6,81.4,88.5,134.8,94.4c63.4,7,142.9-13.7,177.4-75.8c44-79.2,142.6-152,217.6-199c13.4-8.4,22.3-22.3,24.3-38
				c2.1-15.9-3-31.6-13.9-43.3c-0.2-0.2-0.4-0.4-0.6-0.7l-99.2-119.2l0,0c-1.6-1.9-3.9-3.1-6.3-3.3
				C2129,1597.7,2128.8,1597.7,2128.5,1597.7z"/>
		</g>
		<g>
			<path class="st2" d="M2499.1,2092.4c-22,465.7-390,459.1-556.5,431.9c-78.6-12.8-142.2-72.3-157.1-150.6
				c-1-5.3-1.8-10.6-2.4-15.8c-12.5-104.1,46.1-202.8,123.4-200.8c81.8,2,115.1,65.2,115.1,65.2c21.6-29,43.2-52.2,64.3-70.5
				c172-148.9,318.6,26.3,318.6,26.3l41-103.7l50.1-126.5C2500.1,2000.5,2501.1,2048.5,2499.1,2092.4z"/>
		</g>
		<g>
			<path d="M2035.2,2214.2c1.3,2.3,2.1,3.8,3,5.7c0.9,1.8,1.6,3.6,2.4,5.3c1.6,3.5,2.7,7.1,4,10.7c2.4,7.2,4.4,14.4,5.9,21.7
				c3.1,14.6,4.6,29.4,4.9,44.1c0.2,14.7-0.4,29.3-2.8,43.6c-1.9,14.3-5.6,28.3-9.8,41.9c-0.4,1.3-1.8,2-3.1,1.6
				c-1.1-0.3-1.8-1.4-1.7-2.5l0-0.2c0.3-7,1.1-14,1.2-20.9c-0.1-7,0.3-13.9-0.2-20.7l-0.5-10.3l-1.1-10.2c-0.3-3.4-0.8-6.8-1.4-10.1
				c-0.6-3.4-0.9-6.7-1.7-10c-2.5-13.3-6.5-26.2-10.8-38.7c-2.2-6.3-4.8-12.3-7.3-18.3c-1.3-2.9-2.7-5.9-4.1-8.7
				c-0.7-1.4-1.4-2.9-2.1-4.2l-1.9-3.6l-0.5-0.9c-4.1-7.7-1.2-17.3,6.5-21.4C2021.6,2204,2031,2206.7,2035.2,2214.2z"/>
		</g>
		<g>
			<g>
				
					<ellipse transform="matrix(1.833540e-02 -0.9998 0.9998 1.833540e-02 -520.4694 4247.9106)" class="st3" cx="1903" cy="2389" rx="61.6" ry="43.1"/>
			</g>
			<g>
				
					<ellipse transform="matrix(1.834054e-02 -0.9998 0.9998 1.834054e-02 -450.7518 4093.2712)" class="st3" cx="1859.1" cy="2276.2" rx="34.3" ry="24"/>
			</g>
			<g>
				
					<ellipse transform="matrix(1.833531e-02 -0.9998 0.9998 1.833531e-02 -359.3387 4231.4146)" class="st3" cx="1975.2" cy="2298.7" rx="34.3" ry="24"/>
			</g>
			<g>
				
					<ellipse transform="matrix(1.834048e-02 -0.9998 0.9998 1.834048e-02 -366.8854 4130.0034)" class="st3" cx="1919.8" cy="2251.8" rx="34.3" ry="24"/>
			</g>
		</g>
		<g class="st0">
			<path d="M2499.1,2092.4c-22,465.7-390,459.1-556.5,431.9c-78.6-12.8-142.2-72.3-157.1-150.6c-1-5.3-1.8-10.6-2.4-15.8
				c13.7,19.6,136.7,181,257.6,35.9c0,0,188.7,124.4,45.2-241.9c172-148.9,318.6,26.3,318.6,26.3l41-103.7
				C2465.9,2081,2484.2,2087.2,2499.1,2092.4z"/>
		</g>
		<g>
			<path d="M2402.4,2179.7c-29.3-23.7-60.7-43.9-94-57.7c-16.7-6.8-33.9-11.9-51.3-14.2c-17.5-2.3-35.1-1.9-52.2,1
				c-17.2,3-33.8,8.6-49.7,16l-11.7,6.2c-1.9,1.1-3.9,2-5.8,3.2l-5.6,3.6c-3.7,2.5-7.5,4.7-11.2,7.3l-10.7,8.1
				c-1.8,1.4-3.6,2.7-5.4,4.1l-5.1,4.5l-10.2,8.9c-6.6,6.2-13,12.6-19.5,19c-6.1,6.8-12.3,13.6-18.3,20.5
				c-5.7,7.2-11.6,14.3-17.4,21.4l-0.3,0.4c-5.6,6.8-15.6,7.9-22.4,2.3c-1.7-1.3-3-3-4-4.8h0c-0.4-0.8-1.6-2.6-2.5-4
				c-1-1.5-2.1-3-3.2-4.4c-2.2-2.9-4.6-5.8-7.1-8.6c-5.1-5.5-10.6-10.5-16.5-15.1c-11.9-9-25.4-15.7-39.7-19.7
				c-3.6-0.9-7.2-2.1-10.9-2.6c-3.7-0.5-7.3-1.6-11.1-1.6c-3.7-0.2-7.6-0.6-11.2-0.8l-5.2,0.1l-5.2,0.5c-13.7,1.8-27,7.5-38.5,16.4
				c-23.4,17.6-39.9,45.6-49.3,75.2c-9.5,29.8-12,62-8,93.1c3.8,31.1,15.7,60.2,34.6,84.8c19,24.3,44.6,43.4,73.3,55.1l10.9,4
				c3.7,1.2,7.4,2.1,11.2,3.2c3.7,1.2,7.6,1.6,11.3,2.5c3.7,0.8,7.8,1.5,11.9,2.1c16.3,2.6,32.7,4.4,49.2,6
				c32.9,2.9,65.9,3.7,98.7,1.8c65.4-3.6,130.6-18.1,187.5-48.7c56.8-30.3,104.4-77.1,134.8-134.3l5.9-10.6c1.8-3.6,3.4-7.4,5.1-11
				c3.3-7.4,7-14.6,9.9-22.2l8.5-22.9l2.1-5.7l1.7-5.9l3.4-11.8l3.4-11.8l1.7-5.9l1.3-6l5.2-24.1c2-8,2.9-16.2,4.2-24.3l3.7-24.4
				c7.6-65.6,6.7-132.3,1.2-198.7l0-0.1c-0.7-8.7,5.8-16.4,14.5-17.1c8.7-0.7,16.4,5.8,17.1,14.5c5.6,68,6.6,136.7-1.3,205.1
				l-3.8,25.6c-1.3,8.5-2.3,17.1-4.4,25.5l-5.5,25.4l-1.4,6.3l-1.8,6.3l-3.6,12.5l-3.6,12.5l-1.8,6.2l-2.3,6.1l-9.1,24.5
				c-3.1,8.1-7.1,15.9-10.7,23.9c-1.9,4-3.6,8-5.5,11.9l-6.4,11.5c-32.9,61.9-85.5,114-147.6,146.9
				c-62.2,33.4-131.9,48.6-200.7,52.4c-34.5,1.9-69,1.1-103.3-1.9c-17.1-1.7-34.2-3.6-51.2-6.3c-4.2-0.6-8.5-1.2-13-2.2
				c-4.4-1-9-1.6-13.3-3c-4.4-1.3-8.8-2.4-13.1-3.8l-12.8-4.7c-33.8-13.7-64-36.2-86.5-65c-22.4-28.8-36.7-64.3-41-100.1
				c-4.6-35.7-1.7-72.3,9.2-106.8c5.4-17.3,13-34,22.9-49.5c9.9-15.5,22.2-29.9,37.6-41.4c15.1-11.6,33.8-19.9,53.5-22.5l7.4-0.7
				l7.4-0.1c4.8,0.1,9.3,0.6,14,0.9c4.6,0.2,9.2,1.4,13.8,2c4.6,0.6,9.1,2,13.7,3.2c18.1,5.1,35.3,13.6,50.3,25
				c7.4,5.8,14.4,12.1,20.8,19c3.1,3.5,6.2,7.1,9,10.9c1.4,1.9,2.8,3.9,4.2,5.9c1.4,2.1,2.5,3.9,4.1,6.8l0,0l-26.7-2.1
				c5.9-7.7,11.8-15.6,17.8-23.3c6.3-7.5,12.9-14.8,19.4-22.2c6.9-7,13.8-14.1,21-20.9l11.3-9.7l5.7-4.9c1.9-1.6,4-3,6-4.5l12.1-8.9
				c4.1-2.9,8.5-5.4,12.8-8.1l6.4-4c2.2-1.3,4.5-2.4,6.7-3.5c4.5-2.3,9-4.6,13.6-6.8c18.6-8.3,38.5-14.1,58.8-16.9
				c40.8-5.9,82.7,3,118.3,20.6c17.9,8.9,34.4,20.1,49.1,33c14.8,12.9,28.1,27.2,38.7,43.8c0.8,1.2,0.4,2.9-0.8,3.6
				c-1,0.6-2.2,0.5-3.1-0.2L2402.4,2179.7z"/>
		</g>
		<g>
			<path class="st2" d="M3035.5,1946.4c0.1,1.6,0.2,3.3,0.2,4.9C3059.4,2543.1,2639,2530,2639,2530c-160.1,0-276.2-29.3-359.4-76.5
				h-0.1c0,0-0.1,0-0.1-0.1c-21.5-12.2-40.8-25.6-58.1-40c-89.5-74.4-125.7-175.4-135.6-276.1c-0.1-0.5-0.2-1.1-0.2-1.6
				c-1.7-17.9-2.6-35.8-2.9-53.6c-1.7-142,40.1-273.1,47.1-314.6c18.8-111.3,0-183.3,0-183.3c155.1,77,421.2,51.8,654.1-6.9
				c189.4-47.8,356.8-117.9,424.7-173.2c69.7-56.8,126.9-70.7,168.3-69.2c42.6,1.6,78.7,29.5,93.2,68.3c2.6,7,4.5,14.3,5.7,21.9
				C3512,1668.3,3035.5,1946.4,3035.5,1946.4z"/>
		</g>
		<g>
			<path class="st3" d="M2857.3,1870.2c0,281.9-181.6,510.5-405.6,510.5c-163.9,0-305.1-122.4-369-298.5
				c-1.7-142,40.1-273.1,47.1-314.6c18.8-111.3,0-183.3,0-183.3c155.1,77,421.2,51.8,654.1-6.9
				C2830.2,1660.2,2857.3,1761.2,2857.3,1870.2z"/>
		</g>
		<g>
			<path d="M3043.1,1960.4c-6.5,2.8-13.4,4.8-20.5,6.6c-3.6,0.8-7.1,1.6-10.8,2.2c-3.7,0.6-7.4,1.2-11.2,1.5
				c-2.8,0.2-5.2-1.9-5.4-4.7c-0.1-1.3,0.3-2.5,1-3.4c2.3-3.1,4.8-5.9,7.3-8.6c2.5-2.8,5.1-5.3,7.7-7.9c5.3-5,10.7-9.7,16.6-13.6
				c7.3-4.8,17.2-2.8,22,4.5c4.8,7.3,2.8,17.2-4.5,22C3044.7,1959.6,3043.9,1960,3043.1,1960.4z"/>
		</g>
		<g class="st0">
			<path d="M3035.5,1946.4c0.1,1.6,0.2,3.3,0.2,4.9c-16.5,3.5-27.9,7.7-33.1,13c0,0-120.3,69.3-54.3,263.6
				c0,0-156.6,407.7-668.7,225.7h-0.1c0,0-0.1,0-0.1-0.1c-1.9-0.9-26.7-12.6-58.1-40c-50.8-44.3-118.9-129.6-135.6-276.1
				c-0.1-0.6-0.2-1.1-0.2-1.7c0,0,0,0.1,0.1,0.1c4.6,5.9,274.5,348.9,629.3,15.8c0,0,138.9-143.6,89.1-487.5
				c0,0,89.7-30.6,156.3-94.5c0,0,12.3,34.3,27.3,84.9c33.2,112.3,170.8,155.2,260.8,80.2c93.6-77.9,189.5-188.9,221.8-331.4
				c2.6,7,4.5,14.3,5.7,21.9C3512,1668.3,3035.5,1946.4,3035.5,1946.4z"/>
		</g>
		<g>
			
				<ellipse transform="matrix(0.5426 -0.84 0.84 0.5426 217.6283 3482.4519)" class="st3" cx="3306.3" cy="1541.4" rx="61.6" ry="43.1"/>
		</g>
		<g>
			
				<ellipse transform="matrix(0.5426 -0.84 0.84 0.5426 327.7365 3446.6328)" class="st3" cx="3328.5" cy="1422.4" rx="34.3" ry="24"/>
		</g>
		<g>
			
				<ellipse transform="matrix(0.5426 -0.84 0.84 0.5426 299.9719 3556.2451)" class="st3" cx="3415.2" cy="1502.7" rx="34.3" ry="24"/>
		</g>
		<g>
			
				<ellipse transform="matrix(0.5426 -0.84 0.84 0.5426 347.7057 3505.8496)" class="st3" cx="3392.8" cy="1433.7" rx="34.3" ry="24"/>
		</g>
		<g class="st0">
			<path d="M2136.6,1630.2c0,0,90.1,165.1,420.1,142.2s453.1-231,453.1-231S2631.8,1861.7,2136.6,1630.2z"/>
		</g>
		<g>
			<path d="M2641.7,2546c-1.7,0-2.8,0-3.2,0c-227.5,0-389.9-59.3-482.1-176.3c-143.2-181.7-78.6-450.7-51-565.5
				c4.1-17.1,7.3-30.5,8.8-39.3c17.9-106.1,0.5-176,0.3-176.7c-1.5-6,0.5-12.4,5.4-16.3c4.8-3.9,11.5-4.7,17-1.9
				c162.3,80.6,431.6,39.2,577.7,7.3c203-44.3,406.6-122.3,484-185.5c61.8-50.4,122-74.8,178.8-72.7
				c57.4,2.1,105.3,45.7,113.9,103.7c35.2,235.8-373.8,492.7-439.6,532.4c7.7,211.8-39.8,371.2-141.3,474
				C2800.2,2541,2664.9,2546,2641.7,2546z M2150.6,1610.8c4,32.1,7,87.8-5.1,159.4c-1.7,9.8-5,23.7-9.2,41.4
				c-26.5,110.4-88.6,368.8,45.1,538.5c85.9,109,239.8,164.2,457.6,164.2c1.9,0,140.8,2.6,249.3-107.6
				c96.3-97.9,140.5-252.4,131.4-459.4c-0.3-5.9,2.8-11.4,7.8-14.4c4.7-2.7,466.8-275.5,432.5-505.3c-6.4-42.9-41.6-75.1-83.7-76.6
				c-49.1-1.8-102,20.3-157.6,65.6c-82.2,67-286.7,145.9-497.3,191.9C2579.1,1639.4,2322.5,1678.9,2150.6,1610.8z"/>
		</g>
		<g>
			<path class="st2" d="M2359.3,533.7c0,0-324.8,50.7-512,453.6c0,0-15.3-63.1-22.4-163.6c-10.6-150.9-2.7-385.9,103.5-617.6
				c12.1-26.2,34.9-44.2,61-51c19.2-5,40.2-3.9,59.8,4.4C2151.2,203,2315.9,306.9,2359.3,533.7z"/>
		</g>
		<g class="st0">
			<path d="M2359.3,533.7c0,0-324.8,50.7-512,453.6c0,0-15.3-63.1-22.4-163.6c51.3-88.8,153.8-234.5,315.3-328.2
				c62.5-36.3,83-117.4,42.7-177.4c-39.1-58.3-100.5-123-193.5-163c19.2-5,40.2-3.9,59.8,4.4C2151.2,203,2315.9,306.9,2359.3,533.7z
				"/>
		</g>
		<g class="st4">
			<path class="st3" d="M1861.2,823.6c-10.6-150.9-2.7-385.9,103.5-617.6c12.1-26.2,34.9-44.2,61-51c1.7-0.4,3.5-0.8,5.2-1.1
				c-14-2.8-28.1-2.3-41.5,1.1c-26.1,6.8-48.9,24.7-61,51c-106.2,231.7-114.1,466.8-103.5,617.6c7.1,100.5,22.4,163.6,22.4,163.6
				c8.5-18.3,17.3-35.8,26.3-52.7C1869.3,906.7,1864.4,869,1861.2,823.6z"/>
		</g>
		<g>
			<path d="M1847.4,1003.1c-0.5,0-1,0-1.6-0.1c-6.7-0.7-12.3-5.5-13.9-12c-1-4.1-24.4-102.2-26.2-249.4
				c-1.7-135.8,15.7-340.1,108.3-542.2c24.3-53,87.7-77.4,141.4-54.5c99.9,42.6,274.3,149.5,319.5,385.8c0.8,4.2-0.1,8.6-2.6,12.1
				c-2.5,3.5-6.3,5.9-10.5,6.5c-0.8,0.1-80.5,13.3-181.4,74.4c-93.1,56.4-223.9,166.4-318.6,370.1
				C1859.1,999.5,1853.5,1003.1,1847.4,1003.1z M2013.1,167.9c-29.3,0-57.5,16.7-70.2,44.6c-137.9,301-107.1,610.8-88.7,725
				c96.1-184.5,220.7-287.3,311.2-341.8c79.7-48,145.8-67.5,175.2-74.4c-46.9-211.3-205.7-308.1-297.6-347.3
				C2033.2,169.9,2023.1,167.9,2013.1,167.9z"/>
		</g>
		<g>
			<path class="st3" d="M1928.8,843.8c0,0-24.9-474.2,101.4-561.6c0,0,108.6,52.1,199,297C2229.1,579.1,2076,642.1,1928.8,843.8z"/>
		</g>
		<g class="st0">
			<path d="M2073.6,380.4c32.7,27.8,87.5,87.6,140.6,205.8c9.6-4.9,14.9-7.1,14.9-7.1c-90.4-244.9-199-297-199-297
				c-126.2,87.4-101.4,561.6-101.4,561.6c3.9-5.3,7.7-10.4,11.6-15.6c-0.1-126.4,9.8-348,75.4-440.4
				C2029.2,368.9,2055.9,365.3,2073.6,380.4z"/>
		</g>
		<g>
			<path d="M1928.8,859.6c-1.5,0-3-0.2-4.5-0.7c-6.4-1.9-11-7.7-11.3-14.4c-1-19.7-23.8-484.1,108.2-575.5
				c4.7-3.2,10.7-3.7,15.9-1.3c4.7,2.2,115.5,57.8,207,305.8c3,8-1,16.9-8.8,20.2c-1.5,0.6-151.1,64.2-293.6,259.3
				C1938.5,857.3,1933.7,859.6,1928.8,859.6z M2031.4,301.4c-80.9,72.3-91.8,350.6-88.4,497.6c115.1-144.8,227.4-208.8,266.1-228
				C2137.4,383.8,2056.8,318.3,2031.4,301.4z"/>
		</g>
		<g>
			<path d="M2021.2,295.3c-2.2-1.6-4.5-3.7-6.6-5.7c-2.2-2.1-4.3-4.3-6.4-6.6c-4.2-4.6-8.2-9.5-11.8-16l-0.1-0.1
				c-1.2-2.2-0.4-5,1.9-6.2c0.5-0.3,1-0.4,1.5-0.5c7.6-1.1,14.4,0,20.9,1.6c3.3,0.8,6.4,1.8,9.5,3c3.1,1.2,6,2.5,8.9,4.4
				c7.4,4.7,9.6,14.5,4.9,21.9c-4.7,7.4-14.5,9.6-21.9,4.9C2021.8,295.7,2021.5,295.5,2021.2,295.3L2021.2,295.3z"/>
		</g>
		<g>
			<path class="st2" d="M2653.9,533.7c0,0,324.8,50.7,512,453.6c0,0,15.3-63.1,22.4-163.6c10.6-150.9,2.7-385.9-103.5-617.6
				c-12.1-26.2-34.9-44.2-61-51c-19.2-5-40.2-3.9-59.8,4.4C2862,203,2697.2,306.9,2653.9,533.7z"/>
		</g>
		<g class="st0">
			<path d="M2653.9,533.7c0,0,324.8,50.7,512,453.6c0,0,15.3-63.1,22.4-163.6c-51.3-88.8-153.8-234.5-315.3-328.2
				c-62.5-36.3-83-117.4-42.7-177.4c39.1-58.3,100.5-123,193.5-163c-19.2-5-40.2-3.9-59.8,4.4C2862,203,2697.2,306.9,2653.9,533.7z"
				/>
		</g>
		<g class="st4">
			<path class="st3" d="M3152,823.6c10.6-150.9,2.7-385.9-103.5-617.6c-12.1-26.2-34.9-44.2-61-51c-1.7-0.4-3.5-0.8-5.2-1.1
				c14-2.8,28.1-2.3,41.5,1.1c26.1,6.8,48.9,24.7,61,51c106.2,231.7,114.1,466.8,103.5,617.6c-7.1,100.5-22.4,163.6-22.4,163.6
				c-8.5-18.3-17.3-35.8-26.3-52.7C3143.9,906.7,3148.8,869,3152,823.6z"/>
		</g>
		<g>
			<path d="M3165.8,1003.1c-6.1,0-11.8-3.5-14.4-9.2c-94.7-203.8-225.5-313.7-318.6-370.1c-101-61.2-180.7-74.3-181.5-74.4
				c-4.2-0.7-8-3-10.5-6.6c-2.5-3.5-3.4-7.9-2.6-12.1c45.2-236.3,219.6-343.2,319.5-385.8c53.7-22.9,117.1,1.5,141.4,54.5
				c92.6,202.1,110,406.4,108.3,542.2c-1.8,147.2-25.2,245.3-26.2,249.4c-1.6,6.6-7.1,11.4-13.9,12
				C3166.9,1003,3166.3,1003.1,3165.8,1003.1z M2672.6,521.3c29.4,6.9,95.6,26.4,175.2,74.4c90.5,54.5,215.1,157.3,311.2,341.8
				c18.4-114.4,49.1-424.3-88.7-725c-17.2-37.5-62.1-54.8-100.1-38.5C2878.3,213.3,2719.5,310.1,2672.6,521.3z"/>
		</g>
		<g>
			<path class="st3" d="M3084.4,843.8c0,0,24.9-474.2-101.4-561.6c0,0-108.6,52.1-199,297C2784,579.1,2937.2,642.1,3084.4,843.8z"/>
		</g>
		<g class="st0">
			<path d="M2939.6,380.4c-32.7,27.8-87.5,87.6-140.6,205.8c-9.6-4.9-14.9-7.1-14.9-7.1c90.4-244.9,199-297,199-297
				c126.2,87.4,101.4,561.6,101.4,561.6c-3.9-5.3-7.7-10.4-11.6-15.6c0.1-126.4-9.8-348-75.4-440.4
				C2983.9,368.9,2957.3,365.3,2939.6,380.4z"/>
		</g>
		<g>
			<path d="M3084.4,859.6c-5,0-9.8-2.3-12.8-6.5C2929.1,658,2779.5,594.4,2778,593.8c-7.9-3.3-11.8-12.2-8.8-20.2
				c91.5-248,202.3-303.5,207-305.8c5.1-2.5,11.2-2,15.9,1.3c132,91.4,109.2,555.8,108.2,575.5c-0.3,6.7-4.9,12.5-11.3,14.4
				C3087.4,859.4,3085.9,859.6,3084.4,859.6z M2804.1,571c38.7,19.2,151,83.1,266.1,228c3.4-146.9-7.5-425.2-88.3-497.5
				C2956.4,318.6,2875.3,385.2,2804.1,571z"/>
		</g>
		<g>
			<path d="M2974.1,269.1c3-1.9,5.8-3.1,8.9-4.4c3.1-1.2,6.2-2.2,9.5-3c6.5-1.7,13.3-2.8,20.9-1.6c2.5,0.4,4.2,2.7,3.9,5.2
				c-0.1,0.5-0.2,1-0.5,1.5l-0.1,0.1c-3.5,6.6-7.6,11.4-11.8,16c-2.1,2.3-4.2,4.5-6.4,6.6c-2.1,2.1-4.5,4.2-6.6,5.7l0,0
				c-7.1,5.1-17,3.6-22.2-3.5c-5.1-7.1-3.6-17,3.5-22.2C2973.6,269.4,2973.9,269.2,2974.1,269.1z"/>
		</g>
		<g>
			<path class="st2" d="M3254,1335.7c-93.2,176.7-274.8,214.6-274.8,214.6c-157.3,172.8-472.6,167-472.6,167s-315.3,5.8-472.6-167
				c0,0-181.6-37.9-274.8-214.6c0,0,5.5-26.5,47-40.6c0,0-48.4-37.5-51.3-126.3c0,0,47.6-10.6,68.5-79.7c1-3.4,1.9-6.9,2.9-10.6
				c18.9-78.7,96.4-617.6,680.4-617.6s661.4,538.9,680.4,617.6c18.9,78.6,71.4,90.3,71.4,90.3c-2.9,88.8-51.3,126.3-51.3,126.3
				C3248.5,1309.3,3254,1335.7,3254,1335.7z"/>
		</g>
		<g>
			<path class="st3" d="M3254,1335.7c-93.2,176.7-274.8,214.6-274.8,214.6c-157.3,172.8-472.6,167-472.6,167s-315.3,5.8-472.6-167
				c0,0-181.6-37.9-274.8-214.6c0,0,5.5-26.5,47-40.6c0,0-48.4-37.5-51.3-126.3c0,0,2.9-0.6,7.5-2.7c14.3-6.1,45.2-24.9,61-77
				c4.5-2.1,151.5-70.5,344.7,76.7c196.1,149.5,247.9,149.5,338.5,149.5c90.6,0,142.4,0,338.5-149.5
				c193.1-147.2,340.2-78.8,344.7-76.7c20.9,69.1,68.5,79.7,68.5,79.7c-2.9,88.8-51.3,126.3-51.3,126.3
				C3248.5,1309.3,3254,1335.7,3254,1335.7z"/>
		</g>
		<g>
			<path class="st3" d="M2247.4,1037.1c-17.6-10.5-43-24.1-66.8-31.1c-12.6-3.7-21.5-15.2-21.3-28.3c0.2-18.2,6.7-40.4,35.9-42.6
				c42.9-3.3,79.5,34.1,78.8,87C2273.8,1035.7,2259,1044.1,2247.4,1037.1z"/>
		</g>
		<g>
			<path class="st3" d="M2765.8,1037.1c17.6-10.5,43-24.1,66.8-31.1c12.6-3.7,21.5-15.2,21.3-28.3c-0.2-18.2-6.7-40.4-35.9-42.6
				c-42.9-3.3-79.5,34.1-78.8,87C2739.3,1035.7,2754.1,1044.1,2765.8,1037.1z"/>
		</g>
		<g class="st4">
			<path class="st3" d="M3186.9,1078.4c-18.9-78.7-96.4-617.6-680.4-617.6s-661.4,538.9-680.4,617.6c-0.9,3.7-1.9,7.3-2.9,10.6
				c-20.9,69.1-68.5,79.7-68.5,79.7c0.5,14.4,2.2,27.5,4.6,39.3c12.5-4.7,46.9-22.2,63.9-78.2c1-3.4,1.9-6.9,2.9-10.6
				c15.9-66.1,73.2-456.8,437.1-580.2c10.8,13.5,55.2,17.7,106.3,9.1c53.3-9,95.1-28.8,98-45.5c12.8-0.5,25.7-0.9,39-0.9
				c583.9,0,661.4,538.9,680.4,617.6c15.5,64.4,53.5,83.9,66.7,88.8c2.5-11.8,4.2-24.9,4.6-39.3
				C3258.3,1168.7,3205.9,1157.1,3186.9,1078.4z"/>
		</g>
		<g class="st0">
			<path d="M2506.3,1426.5c0,0-51.6,75-135.4,0c0,0,23.1,99,135.4,61.2c112.2,37.9,135.4-61.2,135.4-61.2
				C2558,1501.5,2506.3,1426.5,2506.3,1426.5z"/>
		</g>
		<g class="st0">
			<path d="M3207,1295.1c0,0,48.4-37.5,51.3-126.3c0,0-2.9-0.6-7.5-2.7c-23.7,38.4-42.9,99-130.4,123.5c0,0,20.3,36.4,72.3,53.9
				c0,0-52.6,52-114.1,36.7c-13.4-3.3-27.4,1.3-35.6,12.4c-44.2,60.1-199.5,230.5-536.5,230.5s-492.3-170.4-536.5-230.5
				c-8.2-11.1-22.2-15.7-35.6-12.4c-61.5,15.4-114.1-36.7-114.1-36.7c52.1-17.5,72.3-53.9,72.3-53.9
				c-87.4-24.5-106.6-85.1-130.4-123.5c-4.6,2-7.5,2.7-7.5,2.7c2.9,88.8,51.3,126.3,51.3,126.3c-41.5,14.2-47,40.6-47,40.6
				c93.2,176.7,274.8,214.6,274.8,214.6c157.3,172.8,472.6,167,472.6,167s315.3,5.8,472.6-167c0,0,181.6-37.9,274.8-214.6
				C3254,1335.7,3248.5,1309.3,3207,1295.1z"/>
		</g>
		<g>
			<path d="M3053.1,1126.6c-0.3-4.2-2.7-8-6.4-10c-22.3-12.2-45.7-20.5-67.5-26.2c-14-3.6-27.5-8.9-40.7-14.7
				c-148.1-65.7-259.8-16.3-313.5,19.4c-9.3,6.2-21.3,6.9-31.3,1.8c-62.2-31.5-130.2-18.2-168.4-5.9c-9.4,3-19.6,1.5-27.7-4.1
				c-47.9-33.7-162.5-92.4-315.7-25.4c-18.8,8.2-37.9,16-57.5,22c-19.4,5.9-39.9,14-59.3,25.2c-3.6,2.1-6,5.9-6.2,10.1l-2.6,40.5
				c-0.4,5.7,3.1,10.9,8.6,12.7c9.9,3.3,26.9,10.8,47.8,28.1c1.2,37.4,9.5,79.5,33.6,116c32.4,49.2,86.5,78.3,160.6,86.3
				c4.8,0.5,9.6,0.9,14.3,1.2c63.8,4.1,114.4-12.9,150.6-50.5c58.4-60.8,61.6-158.5,59-206.6c27.5-10.4,97.1-30.6,151.8,6.4
				c-2.6,43.2-1.8,151.4,62.3,215.6c36.9,36.9,87.8,53,151.5,47.7c4.7-0.4,9.4-0.9,14.2-1.5c74-9.5,127.5-39.5,159-89.3
				c23.4-37,30.9-79.2,31.4-116.6c20.5-17.6,37.5-25.5,47.3-29c5.4-1.9,8.8-7.2,8.3-12.9L3053.1,1126.6z M2342.2,1325.1
				c-29.6,30.8-73.7,43.2-131,36.9c-61.5-6.7-105.6-29.7-131.1-68.3c-35.8-54.3-28-127.1-21.2-162.9c1.8-9.1,7.8-16.8,16-21.1
				c156.2-80.8,266.9-15.3,304.6,13.7c5.9,4.5,9.5,11.3,10,18.7C2392.1,1181.2,2392.3,1273.1,2342.2,1325.1z M2935.1,1303.8
				c-24.7,39.1-68.4,62.9-129.8,70.7c-57.2,7.3-101.5-4.3-131.7-34.5c-51-51.1-52.6-143-50.7-182c0.4-7.4,3.8-14.3,9.6-18.9
				c37.1-29.7,146.6-97.2,304.3-19.4c8.3,4.1,14.5,11.7,16.4,20.8C2960.8,1176.2,2969.9,1248.9,2935.1,1303.8z"/>
		</g>
		<g>
			<path d="M2511.8,1733.3c-2.5,0-4.3,0-5.2,0c-16.8,0.3-320.7,2.7-480.9-168.5c-31.4-7.7-192.6-54.9-280.5-221.5
				c-1.7-3.3-2.2-7-1.5-10.6c0.6-3,6.2-25.6,35.7-42.7c-16.2-20.5-38.4-59.5-40.4-120.6c-0.2-7.6,5-14.3,12.4-16
				c1.6-0.4,43.2-11.5,59.4-78.5c1.1-4.5,2.4-10.6,4-18.1c13.6-64,45.3-213.9,144.4-351.2C2084,532.6,2268.1,445,2506.6,445
				c238.4,0,422.6,87.6,547.4,260.5c99.1,137.3,130.9,287.2,144.4,351.2c1.6,7.4,2.9,13.5,4,18.1c16.1,67.1,57.8,78.1,59.6,78.6
				c7.3,1.8,12.5,8.5,12.2,16c-2,61.1-24.2,100-40.4,120.6c29.5,17.1,35.1,39.7,35.7,42.7c0.7,3.6,0.2,7.4-1.5,10.6
				c-87.9,166.7-249.1,213.8-280.5,221.5C2836,1726.7,2555.8,1733.3,2511.8,1733.3z M2506.6,1701.5c0.2,0,0.3,0,2.7,0
				c29.2,0,314.7-4.2,458.2-161.9c2.2-2.5,5.2-4.2,8.5-4.9c1.7-0.4,171.1-37.8,260.6-200.1c-3.4-6-12.5-17.1-34.6-24.6
				c-5.5-1.9-9.6-6.7-10.5-12.4c-1-5.8,1.3-11.6,5.9-15.1c1.6-1.3,38.7-31.7,44.6-103.1c-19.4-9.1-55.1-34-70.3-97.3
				c-1.1-4.7-2.5-11.1-4.1-18.9C3085,674,2862.7,476.7,2506.6,476.7c-356.1,0-578.4,197.3-660.8,586.5c-1.7,7.8-3,14.2-4.1,18.9
				c-15.2,63.3-50.9,88.2-70.3,97.3c5.8,71.4,43,101.9,44.6,103.2c4.5,3.6,6.8,9.4,5.8,15.1c-1,5.7-5,10.5-10.4,12.3
				c-22,7.5-31.1,18.5-34.6,24.7c89.4,162.2,258.8,199.7,260.6,200c3.3,0.7,6.2,2.4,8.5,4.8c150.6,165.4,457.5,162,460.6,161.8
				C2506.4,1701.5,2506.5,1701.5,2506.6,1701.5z"/>
		</g>
		<g>
			<path d="M2023.4,1562.1c-8.4-7.4-14.8-14.9-21.3-23.1c-6.3-8.1-12-16.7-17.1-25.6c-5.2-8.8-9.7-18.1-13.3-27.7
				c-3.7-9.6-6.3-19.6-7.6-29.8c-0.2-1.2,0.7-2.4,1.9-2.5c0.7-0.1,1.5,0.2,1.9,0.7l0.1,0.1c6.9,7.6,12.8,15.3,19.2,22.5
				c3,3.8,6.3,7.3,9.3,11c3.3,3.5,6.2,7.2,9.4,10.7c6.4,7,12.8,14,19.3,20.6c6.4,6.7,13.4,13.5,19.4,19.5l0.5,0.5
				c6.2,6.2,6.2,16.2,0,22.4C2039.2,1567.4,2029.6,1567.6,2023.4,1562.1z"/>
		</g>
		<g>
			<path d="M2968.6,1538.5c6-6,12.9-12.8,19.4-19.5c6.6-6.7,13-13.6,19.3-20.6c3.2-3.5,6.2-7.2,9.4-10.7c3-3.7,6.3-7.2,9.3-11
				c6.4-7.3,12.3-15,19.2-22.5l0.1-0.1c0.8-0.9,2.3-1,3.2-0.1c0.6,0.5,0.8,1.2,0.7,1.9c-1.3,10.2-4,20.3-7.6,29.8
				c-3.6,9.6-8.2,18.9-13.3,27.7c-5.1,8.9-10.8,17.4-17.1,25.6c-6.4,8.2-12.9,15.7-21.3,23.1c-6.6,5.8-16.6,5.2-22.4-1.4
				c-5.6-6.3-5.2-15.8,0.6-21.7L2968.6,1538.5z"/>
		</g>
		<g>
			<path d="M2506.6,1298.8c0,0-33.9-0.3-55.9,8c-6.7,2.6-10.7,9.6-9.5,16.7c3.5,20.1,16.7,60.2,65.4,60.2
				c48.7,0,61.9-40.2,65.4-60.2c1.3-7.1-2.7-14.2-9.5-16.7C2540.5,1298.5,2506.6,1298.8,2506.6,1298.8z"/>
		</g>
		<g>
			<path d="M2518.8,1416.4c0.4,0.4,1.5,1.6,2.4,2.4l2.8,2.8c1.9,1.9,4,3.6,6.1,5.3c4.2,3.4,8.6,6.5,13.2,9.2
				c9.2,5.4,19.1,8.8,29.4,9.8c10.3,0.9,21.2-0.8,31.9-4.9c10.7-4,21.4-10,31.8-17.1l0,0c1.7-1.1,4-0.7,5.1,1c0.9,1.3,0.8,2.9,0,4.1
				c-7.3,10.9-16.6,20.9-28.2,28.7c-5.8,3.9-12.1,7.3-19,9.6c-6.8,2.5-14.2,4-21.6,4.4c-15,1-30.1-2.5-43.3-8.7
				c-6.6-3.1-12.8-6.9-18.6-11.2c-2.9-2.2-5.7-4.5-8.3-6.9c-1.3-1.2-2.7-2.4-4-3.8c-1.4-1.4-2.4-2.5-4.1-4.5
				c-5.6-6.7-4.8-16.7,1.9-22.3c6.5-5.5,16.3-4.8,22,1.5L2518.8,1416.4z"/>
		</g>
		<g>
			<path d="M2518.8,1436.7c-1.7,2-2.7,3.1-4.1,4.5c-1.3,1.3-2.6,2.6-4,3.8c-2.7,2.4-5.5,4.7-8.3,6.9c-5.8,4.3-12,8.1-18.6,11.2
				c-13.2,6.3-28.3,9.7-43.3,8.7c-7.5-0.4-14.8-1.9-21.6-4.4c-6.9-2.3-13.3-5.7-19-9.6c-11.6-7.8-20.9-17.8-28.2-28.7
				c-1.1-1.7-0.7-4,1-5.1c1.3-0.9,2.9-0.8,4.1,0l0,0c10.4,7.1,21.1,13.1,31.8,17.1c10.7,4.1,21.6,5.8,31.9,4.9
				c10.3-1,20.2-4.4,29.4-9.8c4.6-2.7,9-5.8,13.2-9.2c2.1-1.7,4.2-3.5,6.1-5.3l2.8-2.8c0.9-0.8,2-2,2.4-2.4l0.5-0.6
				c5.9-6.5,15.9-7,22.4-1.1C2523.6,1420.4,2524.2,1430.2,2518.8,1436.7z"/>
		</g>
		<g>
			<path d="M2340.8,1287.9c-19.2-11.7-37.7-23.2-56.1-34c-18.4-10.8-36.5-21.2-54.8-30.8c-9-5-18.4-9.2-27.4-13.9
				c-9.3-4.1-18.3-8.9-27.6-12.6c-18.3-8.6-37-15.3-55.3-23.5l-1.9-0.9c-17.1-7.7-24.8-27.9-17-45c6.9-15.3,23.6-23,39.3-19
				c23,5.8,45.4,14.2,66,25.6c10.5,5.3,20.3,11.9,30.2,18.2c4.8,3.3,9.5,6.8,14.2,10.3c2.3,1.8,4.7,3.4,7,5.3l6.7,5.6
				c17.9,14.9,34.3,31.4,48.4,49.7c14.2,18.2,26.7,37.7,35.2,59.8c0.9,2.3-0.3,4.9-2.6,5.8c-1.4,0.5-2.8,0.3-4-0.3L2340.8,1287.9z"
				/>
		</g>
		<g>
			<path d="M2665.5,1282.6c8.5-22.1,21-41.5,35.2-59.8c14.2-18.3,30.5-34.8,48.4-49.7l6.7-5.6c2.3-1.8,4.6-3.5,7-5.3
				c4.7-3.5,9.4-7,14.2-10.3c9.9-6.3,19.6-12.9,30.2-18.2c20.6-11.4,43-19.8,66-25.6c18.2-4.6,36.7,6.5,41.3,24.7
				c4.1,16.2-4.3,32.7-19,39.3l-1.9,0.9c-18.3,8.3-37.1,14.9-55.3,23.5c-9.3,3.8-18.3,8.6-27.6,12.6c-9,4.7-18.4,9-27.4,13.9
				c-18.3,9.6-36.4,19.9-54.8,30.8c-18.4,10.8-36.9,22.3-56.1,34l-0.3,0.2c-2.1,1.3-4.9,0.6-6.2-1.5
				C2665.1,1285.3,2665.1,1283.8,2665.5,1282.6z"/>
		</g>
		<g>
			<path class="st2" d="M3016.6,2192.7c-40,417.9-372.2,408.7-533,382.5c-69.3-11.3-127-58.9-149.8-123.7
				c-3.1-8.7-5.5-17.7-7.3-26.9c-20.8-109.7,39.7-218.7,121-216.6c81.8,2,115.1,65.2,115.1,65.2c198-265.1,382.9-44.2,382.9-44.2
				l70.4-227.5C3022.1,2073.5,3022,2136.9,3016.6,2192.7z"/>
		</g>
		<g class="st0">
			<path d="M2581.5,2437.6c0,0,72.3-53.7,15.5-213c0,0-15.3,27.3-40.4,44.7C2556.6,2269.3,2595.4,2316.8,2581.5,2437.6z"/>
		</g>
		<g class="st0">
			<path d="M3016.6,2192.7c-40,417.9-372.2,408.7-533,382.5c-69.3-11.3-127-58.9-149.8-123.7c12.5,19.6,85.4,118.6,233.3,30.2
				c13-7.8,28.3-10.6,43.1-7.5C2686.4,2490.2,2933.8,2515.4,3016.6,2192.7z"/>
		</g>
		<g>
			<path d="M2576.3,2265.1c1.3,2.3,2.1,3.8,3,5.7c0.9,1.8,1.6,3.6,2.4,5.3c1.6,3.5,2.7,7.1,4,10.7c2.4,7.2,4.4,14.4,5.9,21.7
				c3.1,14.6,4.6,29.4,4.9,44.1c0.2,14.7-0.4,29.3-2.8,43.6c-1.9,14.3-5.6,28.3-9.8,41.9c-0.4,1.3-1.8,2-3.1,1.6
				c-1.1-0.3-1.8-1.4-1.7-2.5l0-0.2c0.3-7,1.1-14,1.2-20.9c-0.1-7,0.3-13.9-0.2-20.7l-0.5-10.3l-1.1-10.2c-0.3-3.4-0.8-6.8-1.4-10.1
				c-0.6-3.3-0.9-6.7-1.7-10c-2.5-13.3-6.5-26.2-10.8-38.7c-2.2-6.3-4.8-12.3-7.3-18.3c-1.3-2.9-2.7-5.9-4.1-8.7
				c-0.7-1.4-1.4-2.9-2.1-4.2l-1.9-3.6l-0.5-0.9c-4.1-7.7-1.2-17.3,6.5-21.4C2562.6,2254.9,2572.1,2257.6,2576.3,2265.1z"/>
		</g>
		<g>
			<g>
				
					<ellipse transform="matrix(1.833591e-02 -0.9998 0.9998 1.833591e-02 -40.2049 4838.8809)" class="st3" cx="2444.1" cy="2439.9" rx="61.6" ry="43.1"/>
			</g>
			<g>
				
					<ellipse transform="matrix(1.833533e-02 -0.9998 0.9998 1.833533e-02 29.5235 4684.2544)" class="st3" cx="2400.2" cy="2327.1" rx="34.3" ry="24"/>
			</g>
			<g>
				
					<ellipse transform="matrix(1.833524e-02 -0.9998 0.9998 1.833524e-02 120.9274 4822.3862)" class="st3" cx="2516.3" cy="2349.6" rx="34.3" ry="24"/>
			</g>
			<g>
				
					<ellipse transform="matrix(1.833633e-02 -0.9998 0.9998 1.833633e-02 113.3876 4720.9839)" class="st3" cx="2460.9" cy="2302.7" rx="34.3" ry="24"/>
			</g>
		</g>
		<g>
			<path d="M2943.5,2230.7c-29.3-23.7-60.7-43.9-94-57.7c-16.7-6.8-33.9-11.9-51.4-14.2c-17.5-2.3-35.1-1.9-52.2,1
				c-17.2,3-33.8,8.6-49.7,16l-11.7,6.2c-1.9,1.1-3.9,2-5.8,3.2l-5.6,3.6c-3.7,2.5-7.5,4.7-11.2,7.3l-10.7,8.1
				c-1.8,1.4-3.6,2.7-5.4,4.1l-5.1,4.5l-10.2,8.9c-6.6,6.2-13,12.6-19.5,19c-6.1,6.8-12.3,13.5-18.3,20.5
				c-5.7,7.2-11.6,14.3-17.4,21.4l-0.3,0.4c-5.6,6.8-15.6,7.9-22.4,2.3c-1.7-1.3-3-3-4-4.8l0,0c-0.4-0.8-1.6-2.6-2.5-4
				c-1-1.5-2.1-3-3.2-4.4c-2.2-2.9-4.6-5.8-7.1-8.6c-5.1-5.5-10.6-10.5-16.5-15.1c-11.9-9-25.4-15.7-39.7-19.7
				c-3.6-0.9-7.2-2.1-10.9-2.6c-3.7-0.5-7.3-1.6-11.1-1.6c-3.7-0.2-7.6-0.6-11.2-0.8l-5.2,0.1l-5.2,0.5c-13.7,1.8-27,7.5-38.5,16.4
				c-23.4,17.6-39.9,45.6-49.3,75.2c-9.5,29.8-12,62-8,93.1c3.8,31.1,15.7,60.2,34.6,84.8c19,24.3,44.6,43.4,73.3,55.1l10.9,4
				c3.7,1.2,7.4,2.1,11.2,3.2c3.7,1.2,7.6,1.6,11.3,2.5c3.7,0.8,7.8,1.5,11.9,2.1c16.3,2.6,32.7,4.4,49.2,6
				c32.9,2.9,65.9,3.7,98.7,1.8c65.4-3.6,130.6-18.1,187.5-48.7c56.8-30.3,104.4-77.1,134.8-134.3l5.9-10.6c1.8-3.6,3.4-7.4,5.1-11
				c3.3-7.4,7-14.6,9.9-22.2l8.5-22.9l2.1-5.7l1.7-5.9l3.4-11.8l3.4-11.8l1.7-5.9l1.3-6l5.2-24.1c2-8,2.9-16.2,4.2-24.3l3.7-24.4
				c7.6-65.6,6.7-132.3,1.2-198.7l0-0.1c-0.7-8.7,5.8-16.4,14.5-17.1c8.7-0.7,16.4,5.8,17.1,14.5c5.6,68,6.6,136.7-1.3,205.1
				l-3.8,25.6c-1.3,8.5-2.3,17.1-4.4,25.5l-5.5,25.4l-1.4,6.3l-1.8,6.3l-3.6,12.5l-3.6,12.5l-1.8,6.2l-2.3,6.1l-9.1,24.5
				c-3.1,8.1-7.1,15.9-10.7,23.9c-1.9,4-3.6,8-5.5,11.9l-6.4,11.5c-32.9,61.9-85.5,113.9-147.6,146.9
				c-62.2,33.4-131.9,48.6-200.7,52.4c-34.5,1.9-69,1.1-103.3-1.9c-17.1-1.7-34.2-3.6-51.2-6.3c-4.2-0.6-8.5-1.3-13-2.2
				c-4.4-1-9-1.6-13.3-3c-4.4-1.3-8.8-2.4-13.1-3.8l-12.8-4.7c-33.8-13.7-64-36.2-86.5-65c-22.4-28.8-36.7-64.3-41-100.1
				c-4.6-35.7-1.7-72.3,9.2-106.8c5.4-17.3,13-34,22.9-49.5c9.9-15.5,22.2-29.9,37.6-41.4c15.1-11.6,33.8-19.9,53.5-22.5l7.4-0.7
				l7.4-0.1c4.8,0.1,9.3,0.6,14,0.9c4.6,0.2,9.2,1.4,13.8,2c4.6,0.6,9.1,2,13.7,3.2c18.1,5.1,35.3,13.6,50.3,25
				c7.4,5.8,14.4,12.1,20.8,19c3.1,3.5,6.2,7.1,9,10.9c1.4,1.9,2.8,3.9,4.2,5.9c1.4,2.1,2.5,3.9,4.1,6.8l0,0l-26.7-2.1
				c5.9-7.7,11.8-15.6,17.8-23.3c6.3-7.5,12.9-14.8,19.4-22.2c6.9-7,13.8-14.1,21-20.9l11.3-9.7l5.7-4.9c1.9-1.6,4-3,6-4.5l12.1-8.9
				c4.1-2.9,8.5-5.4,12.8-8.1l6.4-4c2.2-1.3,4.5-2.4,6.7-3.5c4.5-2.3,9-4.6,13.6-6.8c18.6-8.3,38.5-14.1,58.8-16.9
				c40.8-5.9,82.7,3,118.3,20.6c17.9,8.9,34.4,20.1,49.1,33c14.8,12.9,28.1,27.2,38.7,43.8c0.8,1.2,0.4,2.9-0.8,3.6
				c-1,0.6-2.2,0.5-3.1-0.2L2943.5,2230.7z"/>
		</g>
		<g>
			<g>
				<path class="st5" d="M1946.3,2529.6l-167.1-775.3c-10.7-49.6-54.5-85-105.3-85H630.8c-46,0-79.8,43-69.1,87.7l186.1,772.6
					H1946.3z"/>
			</g>
			<g>
				<g>
					<path d="M1193.5,2141.8c-66.8-4.9-178.7,147.7,7.8,139.2C1387.9,2272.4,1281.3,2148.3,1193.5,2141.8z"/>
				</g>
				<g>
					
						<ellipse transform="matrix(0.1602 -0.9871 0.9871 0.1602 -1188.7062 2844.4529)" cx="1077.3" cy="2120.8" rx="42.4" ry="42.4"/>
				</g>
				<g>
					<circle cx="1299" cy="2114.9" r="42.4"/>
				</g>
				<g>
					<ellipse transform="matrix(0.2298 -0.9732 0.9732 0.2298 -1090.5793 2727.9487)" cx="1178.2" cy="2053" rx="54.3" ry="54.3"/>
				</g>
			</g>
			<g class="st0">
				<path d="M1723.2,1693.3c-1-4.8-2.5-9.5-4.1-14c0,0,0,0,0,0c-13.8-6.4-29.2-9.9-45.2-9.9h-21.7l0,0
					c163.6,641.2-0.6,773.7-624.8,773.7H727l6.1,25.5h1157.2L1723.2,1693.3z"/>
			</g>
			<g class="st4">
				<path class="st3" d="M1763.5,1717.3c-19.5-29.2-52.7-48-89.5-48H630.8c-46,0-79.8,43-69.1,87.7l186.1,772.6h41.1l-186.2-773
					c-5.7-23.8,12.3-46.6,36.7-46.6h59.7c10.7,0,20.9,3.6,29.9,9.4c17,11.1,51.5,18.6,91.2,18.6c39.7,0,74.2-7.6,91.2-18.6
					c9-5.8,19.2-9.4,29.9-9.4h783.5C1738.4,1710.1,1751.4,1712.7,1763.5,1717.3z"/>
			</g>
			<g>
				<path d="M1946.3,2545.5H747.8c-7.3,0-13.7-5-15.4-12.1l-186.1-772.6c-6.3-26.1-0.4-53.1,16.2-74.1
					c16.6-21.1,41.5-33.1,68.3-33.1h1043.2c57.8,0,108.6,41,120.8,97.5l167.1,775.3c1,4.7-0.2,9.6-3.2,13.3
					C1955.6,2543.3,1951.1,2545.5,1946.3,2545.5z M760.3,2513.8h1166.4l-162.9-756.1c-9.1-42-46.8-72.5-89.8-72.5H630.8
					c-17,0-32.8,7.7-43.4,21c-10.5,13.4-14.3,30.5-10.3,47.1L760.3,2513.8z"/>
			</g>
			<g>
				<g>
					<path class="st5" d="M2551.8,2588.8H751.5c-22.9,0-41.4-18.5-41.4-41.4l0,0c0-22.9,18.5-41.4,41.4-41.4h1800.3
						c22.9,0,41.4,18.5,41.4,41.4l0,0C2593.2,2570.3,2574.7,2588.8,2551.8,2588.8z"/>
				</g>
				<g class="st0">
					<path d="M2540.2,2553.2H763.1c-21.1,0-39.3-9.6-47.8-23.6c-3.3,5.4-5.2,11.4-5.2,17.8c0,22.9,23.7,41.4,53,41.4h1777.1
						c29.3,0,53-18.5,53-41.4c0-6.4-1.9-12.4-5.2-17.8C2579.5,2543.6,2561.3,2553.2,2540.2,2553.2z"/>
				</g>
				<g>
					<path d="M2551.8,2604.7H751.5c-31.6,0-57.2-25.7-57.2-57.2c0-31.6,25.7-57.2,57.2-57.2h1800.3c31.6,0,57.2,25.7,57.2,57.2
						C2609.1,2579,2583.4,2604.7,2551.8,2604.7z M751.5,2521.9c-14.1,0-25.5,11.5-25.5,25.5c0,14.1,11.5,25.5,25.5,25.5h1800.3
						c14.1,0,25.5-11.5,25.5-25.5c0-14.1-11.5-25.5-25.5-25.5H751.5z"/>
				</g>
				<g>
					<path d="M1946.3,2604.7c-3.4,0-6.9-1.1-9.8-3.4c-19.5-15.4-29.4-33-29.4-52.3c0-31.3,26.4-53,29.4-55.4
						c6.9-5.4,16.9-4.2,22.3,2.7c5.4,6.9,4.2,16.8-2.6,22.2c-4.9,3.9-17.4,17-17.4,30.6c0,9.1,5.9,18.3,17.3,27.3
						c6.9,5.4,8.1,15.4,2.6,22.3C1955.7,2602.6,1951,2604.7,1946.3,2604.7z"/>
				</g>
			</g>
		</g>
	</g>
</g>
</svg>
