<?xml version="1.0" encoding="utf-8"?>
<!-- Generator: Adobe Illustrator 22.1.0, SVG Export Plug-In . SVG Version: 6.00 Build 0)  -->
<svg version="1.1" id="Layer_1" xmlns="http://www.w3.org/2000/svg" xmlns:xlink="http://www.w3.org/1999/xlink" x="0px" y="0px"
	 viewBox="0 0 3520 1788" style="enable-background:new 0 0 3520 1788;" xml:space="preserve">
<style type="text/css">
	.st0{opacity:0.3;}
	.st1{fill:#D8D8D8;}
	.st2{opacity:0.6;}
	.st3{fill:#FFFFFF;}
	.st4{fill:#2B2B2B;}
	.st5{opacity:0.15;}
	.st6{fill:#FF9F06;}
	.st7{fill:#FC4F8B;}
	.st8{fill:#BA5320;}
	.st9{fill:#FF67A0;}
</style>
<g>
	<g>
		<g>
			<g>
				<path d="M220.9,1378.3c32.7-5.5,65.4-8.2,98.1-10.5c32.7-2.3,65.4-3,98.1-3.7c65.4-1.4,130.8-0.7,196.2,0.1l98.1,0.6l98.1,0
					h196.2h784.6h784.6h392.3l98.1,0c32.7,0,65.4-0.9,98.1-1.3c32.7-0.4,65.4,0.2,98.1,1.9c16.3,1,32.7,2.3,49,4.4
					c16.3,2.1,32.7,4.5,49,8.4v13.4c-16.3,3.9-32.7,6.4-49,8.4c-16.3,2.1-32.7,3.4-49,4.4c-32.7,1.7-65.4,2.4-98.1,1.9
					c-32.7-0.4-65.4-1.3-98.1-1.3l-98.1,0h-392.3h-784.6h-784.6H809.4l-98.1,0l-98.1,0.6c-65.4,0.8-130.8,1.5-196.2,0.1
					c-32.7-0.7-65.4-1.4-98.1-3.7c-32.7-2.3-65.4-5-98.1-10.5V1378.3z"/>
			</g>
			<g>
				<g class="st0">
					<g>
						<path d="M3283.4,1385H221.6C121.2,1397.3,65,1410.9,65,1425.3c0,52.8,755.5,95.6,1687.5,95.6S3440,1478,3440,1425.3
							C3440,1410.9,3383.8,1397.3,3283.4,1385z"/>
					</g>
				</g>
			</g>
			<g>
				<g>
					<path class="st1" d="M2149.9,1274.9H946.8c-71.4,0-135.5-36.7-170.6-93.4c-10.1-16.3-17.8-34.1-22.5-53.2L563.9,370.1
						C533.7,249.5,628.5,133.5,757,133.5h1203.1c58.3,0,111.7,24.4,148.5,64.3c21.2,22.9,36.9,51,44.7,82.4l189.8,758.2
						C2373.2,1158.9,2278.5,1274.9,2149.9,1274.9z"/>
				</g>
				<g class="st2">
					<path class="st3" d="M611.7,400.1l189.8,758.2c4.8,19.1,12.5,37,22.5,53.2c8.1,13.1,17.7,25.1,28.6,35.8
						c-33.9-16.3-62.4-41.7-82-73.3c-10.1-16.3-17.8-34.1-22.5-53.2L558.3,362.6C528.1,242,622.9,126,751.5,126h1203.1
						c55,0,105.6,21.7,142,57.6c-26.9-12.9-57.1-20.1-88.7-20.1H804.8C676.2,163.5,581.5,279.5,611.7,400.1z"/>
				</g>
				<g>
					<path d="M2149.9,1283H946.8c-99.3,0-184.9-65.2-208.3-158.5L548.8,366.4c-15.2-60.6-1.6-123.8,37.2-173.5
						c40.9-52.4,103.2-82.4,171.1-82.4h1203.1c99.3,0,184.9,65.2,208.3,158.4l189.8,758.2c15.1,60.6,1.6,123.9-37.3,173.6
						C2280,1253,2217.7,1283,2149.9,1283z M757,141.6c-58.2,0-111.6,25.7-146.5,70.4c-32.9,42.1-44.3,95.6-31.5,146.8L768.8,1117
						c19.9,79.4,93.1,134.8,178,134.8h1203.1c58.2,0,111.6-25.7,146.5-70.4c32.9-42.1,44.4-95.6,31.6-146.8l-189.8-758.2
						c-19.9-79.4-93.1-134.9-178.1-134.9H757z"/>
				</g>
				<g>
					<path d="M2149.9,1283H1040.3c-99.3,0-184.9-65.2-208.3-158.5L642.3,366.4c-15.2-60.6-1.6-123.8,37.2-173.5
						c40.9-52.4,103.2-82.4,171.1-82.4h1109.6c99.3,0,184.9,65.2,208.3,158.4l189.8,758.2c15.1,60.6,1.6,123.9-37.3,173.6
						C2280,1253,2217.7,1283,2149.9,1283z M850.5,141.6c-58.2,0-111.6,25.7-146.5,70.4c-32.9,42.1-44.3,95.6-31.5,146.8L862.3,1117
						c19.9,79.4,93.1,134.8,178,134.8h1109.6c58.2,0,111.6-25.7,146.5-70.4c32.9-42.1,44.4-95.6,31.6-146.8l-189.8-758.2
						c-19.9-79.4-93.1-134.9-178.1-134.9H850.5z"/>
				</g>
				<g>
					<path class="st4" d="M2076.1,1172.6h-983.5c-34.1,0-66.3-8.9-93.6-24.6c-38-21.7-66.5-56.4-77.6-98.3L753.1,398.3
						c-26.8-101.1,5.7-182.8,171.2-182.8h983.5c22.8,0,44.7,4,64.8,11.3c52.1,18.8,92.7,59.6,106.4,111.6l168.2,635.7
						C2274,1075.3,2190.1,1172.6,2076.1,1172.6z"/>
				</g>
				<g class="st5">
					<path class="st3" d="M1563.1,215.6l-390.3,957h-80.3c-34.1,0-66.3-8.9-93.6-24.6l380.3-932.4H1563.1z"/>
				</g>
				<g class="st5">
					<path class="st3" d="M1972.7,226.9l-399.9,945.7h-337.2l404.7-957h267.5C1930.6,215.6,1952.6,219.6,1972.7,226.9z"/>
				</g>
				<g>
					<path d="M2076.1,1193.3h-983.5c-91.1,0-169.8-56.9-191.3-138.4L733,403.5c-16.3-61.6-10.6-111.2,17.1-147.1
						c31.5-40.9,90.1-61.6,174.2-61.6h983.5c91.1,0,169.8,56.9,191.4,138.4l168.2,635.7c13.5,51.2,2.3,105.1-30.7,148
						C2199.8,1164.7,2139.8,1193.3,2076.1,1193.3z M924.4,236.3c-70.6,0-118.1,15.3-141.3,45.4c-19.4,25.2-22.7,62.7-9.9,111.3
						l168.2,651.4c16.7,63.2,78.8,107.4,151.1,107.4h983.5c50.9,0,98.6-22.5,127.7-60.3c25.5-33,33.8-72.8,23.5-112l-168.2-635.7
						c-16.8-63.3-78.9-107.5-151.2-107.5H924.4z"/>
				</g>
				<g class="st0">
					<g>
						<path d="M2149.9,1274.9H946.8c-71.4,0-135.5-36.7-170.6-93.4c832.9-145.8,1216.8-757.5,1332.4-983.7
							c21.2,22.9,36.9,51,44.7,82.4l189.8,758.2C2373.2,1158.9,2278.5,1274.9,2149.9,1274.9z"/>
					</g>
				</g>
				<g>
					<path class="st6" d="M1778.9,703c-10.9,21.9-25.6,41.4-42.5,58.6c-62.1,63.6-153,96.4-184.7,106.3c-7.3,2.3-11.4,3.4-11.4,3.4
						s-1.9-6.2-4.8-16.9c-2.9-10.3-6.6-24.7-10.4-41.8c-17.9-79.2-37.9-214.8,22.6-253.2c55-34.9,132.4,31.2,182.3,84.8
						c12.2,13.1,22.8,25.6,30.9,35.5C1772.2,693.7,1778.9,703,1778.9,703z"/>
				</g>
				<g class="st2">
					<path class="st3" d="M1760.8,679.8c-31.1,8.2-50.4,16.9-50.4,16.9s-8.6-14.9-22.4-33.6c-27.5-37.4-75.3-90.2-116.2-72.8
						c-42.1,17.9-34.4,125.8-25.4,191.8c4.2,30.2,8.5,51.6,8.5,51.6l-19.5,20.7c-2.9-10.3-6.6-24.7-10.4-41.8
						c-17.9-79.2-37.9-214.8,22.6-253.2c55-34.9,132.4,31.2,182.3,84.8C1742.1,657.4,1752.6,669.8,1760.8,679.8z"/>
				</g>
				<g>
					<path d="M1528.9,889.4l-4.4-14.2c-8.5-27.4-80.7-269.8,13.9-329.7c96.9-61.4,236.6,126,252.2,147.6l5.5,7.6l-4.2,8.4
						c-10.9,21.9-26.1,43-45.3,62.6c-63.9,65.3-155,98.9-191.2,110.3c-7.7,2.4-12.1,3.6-12.1,3.6L1528.9,889.4z M1581.3,564.4
						c-9.4,0-18.2,2.3-26.2,7.3c-59.1,37.5-27,202.3-5.2,279.3c30.5-9.9,116.5-41.8,174.5-101.2c14.4-14.7,26.3-30.3,35.3-46.3
						C1723.2,655.4,1640.7,564.4,1581.3,564.4z"/>
				</g>
				<g>
					<path class="st7" d="M1735.9,745c-74.8,103.4-165.8,124.6-165.8,124.6s-66.8-201-1.8-245.7
						C1607.7,596.8,1691.9,687.7,1735.9,745z"/>
				</g>
				<g>
					<path class="st6" d="M3354.3,1586.4c-1.1,22.1-9.7,44.5-24.3,60.8c-8.5,9.5-19.1,16.9-31.4,20.9c-30.6,10-64.6-2.8-90.1-22.4
						c-37-28.6-61.2-70.1-79-113.8c-3.7-8.9-7.1-17.9-10.2-27c-14-39.7-24.9-80.4-33.1-121.7c-18.3-91.7-23.8-186.2-22.6-279.9
						c0.7-54.2,3.5-108.7-5-162.2c-5.4-33.4-15.6-66.6-34.3-97.1c-0.4-0.7-0.8-1.4-1.3-2.1c-9.2-14.6-20.4-28.6-34-41.5
						c-2.9-2.8-5.8-5.5-8.9-8.1c0.8,0.1,1.6,0.2,2.3,0.4c12.7,1.7,25.3,4.3,37.6,7.8c86.8,24.7,161.5,91.4,193.4,176
						c46.4,122.9,6,266.5,46.6,389.4c0.1,0.1,0.1,0.1,0.1,0.1c3.4,10.2,7.3,20.3,11.9,30.2c14.8,31.8,35.7,60.3,53,90.8
						c12.7,22.6,23.6,47,27.6,72.4C3354.2,1568.2,3354.8,1577.2,3354.3,1586.4z"/>
				</g>
				<g>
					<path class="st8" d="M3354.3,1592.9c-1.8,35-22.3,70.9-55.7,81.7c-30.6,10-64.6-2.8-90.1-22.4c-37-28.6-61.2-70.1-79-113.8
						c-2.5-23.1-3.1-46.5-2.2-69.7c0.9-26,3.7-52.7,15.5-75.9c11.7-23.2,34.3-42.5,60.4-43.6c21-1,40.2,9.5,56.9,23.1
						c0.1,0.1,0.1,0.1,0.1,0.1c3.4,10.2,7.3,20.3,11.9,30.2c14.8,31.8,35.7,60.3,53,90.8C3342.2,1523.9,3356.1,1557.9,3354.3,1592.9
						z"/>
				</g>
				<g class="st2">
					<path class="st3" d="M3354.3,1586.4c-1.1,22.1-9.7,44.5-24.3,60.8c8.9-52.1-22.3-125.5-78-187.9
						c-71.3-79.9-58.1-315.8-72.3-425.1c-12.5-95.8-112.3-157.1-121-157.9c-0.4-0.1,11.3,40.8,11.3,40.8
						c-10.6-23.5-26.3-48.2-45.8-73.1c-11.1-14.3-22.9-28.9-35.3-43.6c-2.1-2.6-4.3-5.1-6.5-7.7c12.7,1.7,25.3,4.3,37.6,7.8
						c86.8,24.7,161.5,91.4,193.4,176c46.4,122.9,6,266.5,46.6,389.4c0.1,0.1,0.1,0.1,0.1,0.1c3.4,10.2,7.3,20.3,11.9,30.2
						c14.8,31.8,35.7,60.3,53,90.8c12.7,22.6,23.6,47,27.6,72.4C3354.2,1568.2,3354.8,1577.2,3354.3,1586.4z"/>
				</g>
				<g class="st0">
					<g>
						<path d="M3354.3,1592.9c-1.8,35-22.3,70.9-55.7,81.7c-30.6,10-64.6-2.8-90.1-22.4c-37-28.6-61.2-70.1-79-113.8
							c-3.7-8.9-7.1-17.9-10.2-27c-45.2-128.1-57.5-265.8-55.7-401.6c0.7-54.2,3.5-108.7-5-162.2c-5.5-34.1-16.1-68.2-35.6-99.3
							c56,35,128.3,119,125,274.2c-8.4,402.7,110.2,492.6,204.6,443.3C3354.2,1574.7,3354.8,1583.8,3354.3,1592.9z"/>
					</g>
				</g>
				<g>
					<path d="M3276,1693.7c-25.2,0-52.1-10-77-29.2c-34.3-26.5-61.7-65.8-83.9-120.2c-3.5-8.3-6.9-17.4-10.5-27.7
						c-40.2-113.9-58.7-247-56.6-407c0.1-8.7,0.3-17.5,0.4-26.2c0.8-44.2,1.7-89.8-5.2-133.4c-9.6-59.7-33.5-105.3-73.3-139.5
						c-5.2-4.5-6.9-11.9-4.1-18.1c2.8-6.3,9.4-10,16.2-9.1c108.5,13.9,207.3,91.9,245.9,194.2c25,66.1,25.8,137.7,26.6,206.9
						c0.7,64.5,1.4,125.5,20,182.3c0.1,0.3,0.2,0.6,0.3,0.9c3.2,9.8,7,19.4,11.3,28.6c8.8,18.9,19.8,36.6,31.6,55.3
						c7,11.1,14.2,22.6,20.8,34.4c23,40.8,32.9,75.1,31.3,108c0,0,0,0,0,0c-2.2,44.4-29.6,83.8-66.4,95.8
						C3294.7,1692.3,3285.5,1693.7,3276,1693.7z M3026,825.1c24.6,33,40.4,72.7,48,120.1c7.4,46.3,6.5,93.3,5.6,138.9
						c-0.2,8.7-0.3,17.4-0.4,26c-2,156.2,15.9,285.8,54.9,396.2c3.4,9.7,6.7,18.3,9.9,26.2c20,49.3,44.3,84.4,74.1,107.4
						c25.5,19.6,53.8,27.1,75.7,20c29-9.4,43.6-41.7,45-67.7c1.3-26.7-7.4-55.7-27.3-91.1c-6.3-11.1-13.3-22.3-20.1-33.1
						c-11.7-18.7-23.8-38-33.4-58.7c-4.6-10-8.7-20.4-12.2-30.9c-0.1-0.3-0.3-0.6-0.4-1c-20.4-61.6-21.1-128.2-21.9-192.6
						c-0.8-66.5-1.5-135.3-24.6-196.2C3170,912,3103.7,850.6,3026,825.1z M3354.3,1592.9L3354.3,1592.9L3354.3,1592.9z"/>
				</g>
				<g>
					<path class="st1" d="M2942.1,1321.2c0,14.9-6,28.3-15.7,38c-9.7,9.7-23.2,15.7-38,15.7H829.7c-29.7-0.1-53.8-24.1-53.8-53.8
						c0-29.7,24.1-53.8,53.8-53.8h2058.7C2918.1,1267.5,2942.1,1291.5,2942.1,1321.2z"/>
				</g>
				<g class="st0">
					<g>
						<path d="M2942.1,1321.2c0,14.9-6,28.3-15.7,38c-9.7,9.7-23.2,15.7-38,15.7H829.7c-29.7-0.1-53.8-24.1-53.8-53.8H2942.1z"/>
					</g>
				</g>
				<g>
					<path d="M2888.4,1390.6H829.7c-38.3-0.1-69.4-31.2-69.4-69.4c0-38.2,31.1-69.4,69.4-69.4h2058.7c38.2,0,69.4,31.1,69.4,69.4
						C2957.7,1359.5,2926.6,1390.6,2888.4,1390.6z M829.7,1283c-21.1,0-38.2,17.1-38.2,38.2c0,21,17.1,38.1,38.2,38.2h2058.7
						c21.1,0,38.2-17.1,38.2-38.2s-17.1-38.2-38.2-38.2H829.7z"/>
				</g>
				<g>
					<path class="st6" d="M3099.4,1244.2c-4.2,37.1-7.3,90.9-13.2,145.6c-5.4,50.9-13.3,102.6-26.6,142.6
						c-13.6,40.9-33,69.7-61.5,72.7c-125.9,13.5-89.6-194.3-100.8-266.9c-5.7-36.8-24.8-86.5-62-86.5c-144.5,0-250.4-4.6-369.4-2.4
						c-6.1,114.7-3.6,209.5-2.6,317.1c0.1,9.2,0.2,18.6,0.3,28.1c0.1,14.3,0.2,29,0.2,43.9c0,87-127.5,104.8-162.1,27.6
						c-45-100.9-33.9-273.6-42-407.5c-233.6,1.8-465.7,5.1-697.8,8.5c-50.4-30.2-82.4-95.5-93.8-157.7
						c-13.9-66.6-9.6-132.2,8.6-192.6l0.1-0.1c3.1-10.5,6.7-20.8,10.7-31c10.1-25.6,22.7-50.1,37.6-73.2
						c6.6-10.5,13.9-20.7,21.5-30.5c38.1-49.4,86.7-90.4,141.6-119c12.1-6.3,24.4-11.9,37-17c1.6-0.6,3.2-1.3,4.9-1.9
						c71.8-27.6,151.7-34.2,231.4-12.2c9.8,2.6,19.5,5.8,29.2,9.4c68.7-138.6,177-196.5,268.9-15.9
						C2476.7,409,2852.6,506,3020.1,806.9c20.1,36.1,37.1,75,50.6,116.7C3100.9,1017.4,3112.9,1125,3099.4,1244.2z"/>
				</g>
				<g class="st2">
					<path class="st3" d="M3070.7,923.7c-0.4-0.1-0.6-0.1-0.6-0.1c-10.6-23.5-26.3-48.2-45.8-73.1
						c-100.8-129.9-254.6-284.3-423-292.8c-174.6-8.8-289.6,79-289.6,79c25.3,80.2-7.2,179.8-7.2,179.8
						c-25.4-84.1-101.6-248.3-173.4-258.3c-71.8-10-135.3,135.9-135.3,135.9c-87.2-41.7-179.8-28.9-235.1-14.3
						c-31.1,8.2-50.4,16.9-50.4,16.9s-8.6-14.9-22.4-33.6c12.1-6.3,24.4-11.9,37-17c1.6-0.6,3.2-1.3,4.9-1.9
						c71.8-27.6,151.7-34.2,231.4-12.2c9.8,2.6,19.5,5.8,29.2,9.4c68.7-138.6,177-196.5,268.9-15.9
						C2476.7,409,2852.6,506,3020.1,806.9C3040.2,843,3057.2,882,3070.7,923.7z"/>
				</g>
				<g>
					<path class="st8" d="M1960.5,631.3c-25.8,48.3-51.4,96.8-76.9,145.2c-1.7,3.1-3.5,6.3-6.8,7.6c-4.8,1.9-10.2-1.9-12.1-6.7
						c-1.9-4.8-1.1-10.1-0.3-15.2c3.2-21,6.5-42.1,9.8-63.2c1-6.2,1.2-14.1-4.3-17.3c-4-2.3-9.4-0.6-12.6,2.6
						c-3.3,3.3-4.9,7.7-6.5,12.1c-18.8,51.8-37.6,103.6-56.4,155.4c-3,8.4-7.9,18.2-16.9,18.6c-6.1,0.3-11.6-4.6-13.9-10.3
						c-2.3-5.7-2.1-12.1-1.8-18.3c2.3-43.7,10.6-87,24.6-128.5c2-6,3.7-13.5-0.9-17.7c-5-4.5-13-1-18.1,3.4
						c-23.5,20.5-28.6,55.7-49.6,78.8c-6.5,7.2-17.5,13.2-25.5,7.8c-7.5-5-7.1-15.9-5.6-24.7c6.9-40.2,19.5-79.3,37.4-115.8
						C1797.2,616.1,1879,608.7,1960.5,631.3z"/>
				</g>
				<g>
					<path d="M2380.1,1729.7c-35.8,0-75.1-16.7-93.6-58.1c-34.7-77.8-37.2-192.8-39.7-304.1c-0.7-32.9-1.4-64.2-2.9-94.1
						c-228.5,1.8-459.3,5.1-682.5,8.3c-2.8,0.2-6.1-0.7-8.6-2.2c-49.4-29.7-87.2-92.5-101.1-168.2
						c-41.2-196.8,73.4-403.6,266.5-480.6c80.2-32,165.3-37,246.2-14.6c5.7,1.5,11.5,3.3,17.4,5.2c42.8-80.9,95.4-125.3,148.9-125.6
						c0.2,0,0.4,0,0.6,0c48.3,0,92.4,34.8,131.2,103.5c133.1-120.5,324.4-141.9,504.5-54.9c111.4,53.8,206.8,146,268.6,259.6
						c69.4,127.5,96.4,280,78.2,441.2v0c-2,17.5-3.8,39.3-5.6,62.4c-11,135.1-24.7,303.2-109.4,312.3c-28.5,3-52.1-3.7-70.3-20
						c-44.3-39.7-44.7-126.3-45-195.9c-0.1-25.1-0.2-48.8-2.6-64.1c-5.5-35.3-22.4-73.4-46.6-73.4c-62,0-116.2-0.8-168.6-1.6
						c-63.3-1-123.4-1.9-186-1c-4.3,91.2-3.4,170.8-2.4,254.8c0.4,38,0.9,77.2,0.9,119.1c0,44.7-29.5,79.9-75.3,89.7
						C2395.9,1728.9,2388.1,1729.7,2380.1,1729.7z M2258.8,1242.2c8.2,0,15.1,6.4,15.6,14.6c2.1,34.8,2.9,71.4,3.8,110
						c2.4,108.2,4.8,220,36.9,292c15.5,34.7,53.2,44,81.7,38c24.5-5.2,50.6-23.5,50.6-59.2c0-41.7-0.5-80.8-0.9-118.7
						c-1-89-2-173,3.2-271.3c0.4-8.2,7.1-14.6,15.3-14.8c68.3-1.2,133-0.2,201.6,0.8c52.3,0.8,106.4,1.6,168.1,1.6
						c45.7,0,69.9,51.5,77.4,99.7c2.7,17.7,2.8,41.4,3,68.8c0.2,60.1,0.6,142.4,34.6,172.8c11.5,10.3,26.6,14.3,46.2,12.2
						c59.1-6.3,73.2-180,81.7-283.8c1.9-23.4,3.7-45.4,5.7-63.4c40.3-357.1-152.2-583.6-329.4-669.1
						c-174.8-84.4-360.3-60.2-484.1,63.2c-3.5,3.5-8.5,5.2-13.5,4.4c-4.9-0.8-9.2-3.9-11.4-8.3c-34.9-68.6-74.1-104.8-113.3-104.8
						c-0.1,0-0.2,0-0.3,0c-43.1,0.2-89.6,44.2-127.4,120.5c-3.5,7.1-11.9,10.5-19.3,7.7c-9.4-3.4-18.8-6.5-27.9-8.9
						c-74.4-20.6-152.7-16-226.5,13.5c-179.3,71.5-285.7,263-247.5,445.6c9.3,50.8,35.9,114.6,82.9,145.2
						c227.1-3.3,461.4-6.6,693.3-8.4C2258.7,1242.2,2258.7,1242.2,2258.8,1242.2z M3098.6,1243.4L3098.6,1243.4L3098.6,1243.4z"/>
				</g>
				<g>
					<path d="M2449.8,1249.2l15.5-154.4l0-0.2c0.5-4.9,4.9-8.5,9.8-8c4.7,0.5,8.1,4.5,8.1,9.1l-2.3,155.1l0,0.3
						c-0.1,8.6-7.2,15.5-15.8,15.4c-8.6-0.1-15.5-7.2-15.4-15.8C2449.7,1250.1,2449.7,1249.6,2449.8,1249.2z"/>
				</g>
				<g>
					<path d="M2852.5,1273.6c-29.6-19.4-55.5-43.5-77.2-70.9c-21.6-27.4-39.3-58.5-49.1-92.6c-19.1-67.9-7.6-142.4,29.5-200.9
						c2.1-3.3,6.5-4.3,9.8-2.2c3.2,2.1,4.2,6.3,2.3,9.6c-32.6,56.3-39.9,126.3-20,186.8c10,30.1,27.3,57.8,48.1,82.1
						c21,24.3,45.8,45.4,73,61.6c7.4,4.4,9.8,14,5.4,21.4s-14,9.8-21.4,5.4C2852.9,1273.9,2852.6,1273.7,2852.5,1273.6z"/>
				</g>
				<g>
					<path d="M2243.5,1267.5l6.4-69.8c0.4-4.8,4.7-8.4,9.5-7.9c4.2,0.4,7.5,3.7,7.9,7.8l0,0.1l7.3,69.8c0.9,8.6-5.4,16.3-14,17.2
						c-8.6,0.9-16.3-5.4-17.2-14c-0.1-1-0.1-2,0-3L2243.5,1267.5z"/>
				</g>
				<g>
					<path d="M2267.9,607.5c2.4,4.9,4,8.9,5.8,13.2c1.8,4.3,3.3,8.6,4.9,12.9c3,8.6,5.9,17.2,8.4,25.8c5.3,17.3,9.5,34.7,13.4,52.2
						c7.5,35,12.5,70.4,15.9,105.8l2.2,26.6c0.6,8.9,0.9,17.7,1.4,26.6c1.1,17.7,0.9,35.5,1.2,53.2c0.1,17.7-0.7,35.4-1,53.1
						l-3.2,53c-0.3,4.2-3.9,7.4-8,7.1c-4.1-0.2-7.2-3.7-7.2-7.7l0-0.3l1.2-52.5c-0.4-17.5-0.2-35-0.9-52.4
						c-0.9-17.4-1.4-34.9-3.2-52.2c-0.8-8.7-1.4-17.4-2.3-26l-3.2-25.9c-4.7-34.5-10.8-68.7-19.3-102.2c-4.4-16.7-9-33.3-14.7-49.5
						c-2.7-8.2-5.8-16.1-8.8-24c-1.7-3.9-3.2-7.9-4.9-11.6c-1.7-3.7-3.6-7.8-5.1-10.8l-0.2-0.4c-4-7.6-1.1-17,6.5-21.1
						c7.6-4,17-1.1,21.1,6.5C2267.7,607.1,2267.8,607.3,2267.9,607.5z"/>
				</g>
				<g>
					<path class="st7" d="M2121.9,593.6c-30.6-1.5-88.3,83.2-81.6,110.2c6.2,24.9,94.3,74.9,140.5,51.1
						C2213,738.3,2152.6,595.1,2121.9,593.6z"/>
				</g>
				<g>
					<path d="M2121.6,599.4c-4.2,0.7-8.9,3.4-13.2,7c-4.4,3.5-8.6,7.7-12.5,12.2c-4,4.4-7.7,9.1-11.3,14c-3.6,4.8-7,9.9-10.2,15
						c-6.4,10.3-12.3,20.9-16.6,31.6c-2.2,5.3-4,10.7-4.8,15.4c-0.5,2.4-0.4,4.4-0.3,5.5c0.1,0.5,0.2,0.7,0.3,1.1
						c0.2,0.3,0.3,0.6,0.5,1l0.8,1.2c2.2,3.5,6.3,7.5,10.6,11c4.3,3.6,9.1,7,14,10.3c9.9,6.5,20.6,11.9,31.6,16.7
						c11,4.4,22.4,8.3,33.9,10c11.5,1.8,23.1,1.8,33.6-2l0.2-0.1c3.2-1.1,6.8,0.5,7.9,3.7c1,2.8-0.1,5.8-2.5,7.3
						c-12.3,7.9-27.1,10-40.8,9.8c-13.9-0.4-27.3-3.2-40.2-7.4c-12.9-4.2-25.2-9.8-36.9-16.8c-5.9-3.4-11.6-7.3-17.1-11.8
						c-5.5-4.6-10.9-9.3-15.8-16.4c-0.6-0.9-1.2-1.8-1.8-2.8l-1.7-3.3c-1.1-2.5-2-5.4-2.2-8.1c-0.6-5.2-0.1-9.6,0.6-13.5
						c1.5-7.9,4-14.5,6.8-20.9c5.8-12.6,12.9-24,20.9-34.7c8-10.7,17-20.7,27.3-29.5c5.2-4.4,10.8-8.5,17.1-11.9
						c3.1-1.7,6.6-3.1,10.2-4.3c3.8-1,7.8-1.6,12.1-1.1c3.2,0.4,5.5,3.3,5.1,6.5c-0.3,2.6-2.3,4.7-4.8,5.1L2121.6,599.4z"/>
				</g>
				<g>
					<path d="M2030.9,1013c-0.2,0-0.3,0-0.5,0l-104.9-2.5c-11.5-0.3-20.5-9.8-20.3-21.3c0.3-11.5,10-20.6,21.3-20.3l104.9,2.5
						c11.5,0.3,20.5,9.8,20.3,21.3C2051.4,1004,2042.1,1013,2030.9,1013z"/>
				</g>
				<g>
					<ellipse class="st3" cx="1777.8" cy="1097.4" rx="148.2" ry="105.2"/>
				</g>
				<g>
					<path d="M1581.1,1005.3c-10.8,0-20-8.4-20.7-19.4c-0.8-11.4,7.9-21.4,19.3-22.2l86-5.9c11.4-0.7,21.4,7.9,22.2,19.3
						c0.8,11.4-7.9,21.4-19.3,22.2l-86,5.9C1582.1,1005.3,1581.6,1005.3,1581.1,1005.3z"/>
				</g>
				<g>
					<path d="M1855,1083.7c-0.8,5.5-2.6,10.2-5.2,15c-2.6,4.7-6.1,9.1-10.5,13c-4.5,3.7-9.9,6.8-15.8,8.5
						c-5.8,1.9-12.1,2.4-18.4,1.9c-12.3-1.1-23.1-6.3-31.9-12.5c-4.4-3.1-8.4-6.6-12.1-10.3c-1.8-1.9-3.6-3.8-5.2-5.8
						c-1.7-2.1-3.1-3.9-4.9-6.7l0,0l26-1.2c-2.1,2.9-3.6,4.7-5.4,6.8c-1.8,2-3.7,3.9-5.6,5.8c-3.9,3.7-8.1,7-12.7,10
						c-4.6,3-9.7,5.5-15,7.3c-5.4,1.9-11.2,2.8-17,3l-0.8,0l-0.1,0l0.8,0c-5.1-0.2-10.3-0.7-15.3-2.6c-4.9-1.8-9.4-4.4-13.1-7.7
						c-3.7-3.3-6.7-7-9.2-10.9c-2.4-4.1-4.3-7.8-5.8-12.7c-1.1-3.5,0.9-7.2,4.4-8.3c3.1-1,6.4,0.5,7.8,3.2l0.4,0.7
						c1.3,2.5,3.5,5.7,5.7,8.1c2.2,2.5,4.7,4.5,7.3,6.1c2.6,1.6,5.3,2.5,8,2.9c2.7,0.6,5.5,0.2,8.2-0.2l0.8,0l0.1,0l-0.8,0
						c3.3-0.8,6.4-1.8,9.3-3.6c3-1.7,5.8-3.8,8.4-6.3c2.6-2.5,5.1-5.3,7.3-8.3c1.1-1.5,2.2-3.1,3.1-4.7c0.9-1.5,2-3.5,2.4-4.4
						c2.4-6.5,9.7-9.9,16.2-7.4c1,0.4,1.9,0.8,2.7,1.4l7.1,4.9l0,0l3.7,3.9c1.3,1.4,2.7,2.8,4.1,4.1c2.7,2.7,5.6,5.2,8.4,7.6
						c2.9,2.2,5.7,4.3,8.6,6c2.9,1.5,5.6,3,8.5,3.8c1.5,0.4,2.6,0.7,4.2,0.9l2.3,0.3c0.7,0,1.5,0,2.2,0c3-0.2,6.1-0.5,9.2-1.7
						c6.3-2.2,13-7.3,18.8-13.1l0.6-0.6c1.9-1.9,4.9-1.9,6.8-0.1C1854.8,1080.6,1855.3,1082.2,1855,1083.7z"/>
				</g>
				<g>
					<path d="M1757.2,1080.4c-11-5.3-20.8-13-28.6-22.5c-5.9-7.2-10.6-17.1-6.5-25.4c2.8-5.8,9.1-8.9,15.2-11
						c15.4-5.1,32.5-5.2,47.9-0.4c7.5,2.3,15.5,6.8,17.3,14.5c1.6,6.9-2.5,13.8-7.2,19.2C1785.5,1066.4,1772.8,1075.4,1757.2,1080.4
						z"/>
				</g>
				<g>
					<path d="M1808.4,1108.2c-5.5,30.7-23.1,53.1-43.9,53.1c-20.9,0-38.6-22.7-43.9-53.7c26.5-2,43.2-30,43.2-30
						S1783.5,1105.1,1808.4,1108.2z"/>
				</g>
				<g>
					<path class="st9" d="M1807.2,1114.2c-6.5,27.6-23.2,47.2-42.7,47.2c-11.8,0-22.6-7.3-30.8-19.2c7.8-19.7,27.1-33.7,49.6-33.7
						C1791.8,1108.5,1800,1110.5,1807.2,1114.2z"/>
				</g>
				<g>
					<path d="M1818.7,1100.6c1.2,3.5,2,8.3,1.5,12.7c-0.1,1.1-0.3,2.2-0.5,3.2l-0.2,1l-0.2,0.6l-0.7,2.5c-0.9,3.4-2,6.8-3.3,10.1
						c-2.5,6.6-5.8,13.2-10.1,19.3c-4.3,6.1-9.6,11.9-16.5,16.5c-6.9,4.5-15.7,7.6-24.7,7.6c-9.1,0-17.8-3.3-24.5-7.9
						c-6.8-4.7-12.1-10.5-16.4-16.6c-8.4-12.4-12.9-26-15.3-39.7l0,0l-2.2-12l13.9-2.9c3-0.6,6-1.4,8.9-3c2.9-1.5,5.7-3.4,8.4-5.7
						c2.7-2.3,5.2-5,7.5-7.9c1.2-1.4,2.3-2.9,3.3-4.5c1-1.4,2.1-3.3,2.6-4.2l0,0l2.5-39.6l23.6,38.4c0.7,1.1,2,3,3.2,4.4
						c1.2,1.6,2.5,3.1,3.8,4.6c2.7,3,5.5,5.7,8.4,8.2c2.9,2.4,6,4.5,9.1,6.3c1.5,0.7,3.1,1.6,4.6,2.1l1.2,0.5l0.3,0.1l1,0.3
						c0.8,0.2,1.6,0.5,2.4,0.8C1813.4,1096.9,1816.4,1098.7,1818.7,1100.6z M1798.1,1115.8c0,1.5,0.7,2.9,1.6,3.6
						c0.2,0.2,0.5,0.3,0.7,0.5c0,0,0.4,0.1,0.2,0.1l-0.5-0.1l-2.2-0.6c-3-0.7-5.6-1.7-8.4-2.7c-5.3-2.2-10.2-5-14.7-8
						c-4.5-3.1-8.6-6.4-12.5-9.9c-2-1.8-3.8-3.6-5.7-5.5c-1.9-2-3.5-3.7-5.6-6.3l26-1.2l0,0c-2,3-3.4,4.7-5.2,6.9
						c-1.7,2.1-3.5,4-5.4,5.9c-3.8,3.8-7.9,7.3-12.5,10.5c-4.5,3.2-9.6,5.8-15.1,7.9c-5.4,2.1-11.4,3.2-17.4,3.6l11.6-14.9l0,0
						c1.8,10.7,5.6,21.3,11.2,29.5c2.8,4,6.1,7.6,9.6,9.9c3.5,2.4,7,3.5,10.4,3.6c3.5,0,6.9-1.1,10.4-3.4c3.5-2.3,6.8-5.8,9.6-9.8
						c2.8-4.1,5.2-8.8,7.1-13.7c1-2.5,1.8-5,2.5-7.7l0.5-2l0.1-0.5l0.1-0.2l0,0.1c0,0.2-0.1,0.5,0,0.9
						C1794.8,1113.6,1796.3,1115.3,1798.1,1115.8z"/>
				</g>
				<g>
					<path d="M2349.4,1712.4c-1.1-5.3-2-10.2-2.8-15.3c-0.8-5.1-1.6-10.1-2.2-15.3c-1.2-10.2-2.2-20.5-1.8-31.2
						c0.1-3.5,3-6.2,6.5-6.1c2.8,0.1,5.1,2,5.8,4.6l0.1,0.3c2.5,8.9,6.3,17.8,10.4,26.5c2,4.4,4.2,8.7,6.4,13
						c2.2,4.3,4.5,8.7,6.8,12.6c4.4,7.6,1.8,17.2-5.7,21.6c-7.6,4.4-17.2,1.8-21.6-5.7c-0.8-1.5-1.4-3-1.8-4.6L2349.4,1712.4z"/>
				</g>
				<g>
					<path d="M2412.3,1639.6c3.9,8.5,8.1,16.8,12.7,24.9c2.3,4.1,4.6,8.1,7,12c2.4,3.9,4.9,8,7.4,11.5c5,7.2,3.2,17.1-4,22.1
						c-7.2,5-17.1,3.2-22.1-4c-1.2-1.7-1.9-3.5-2.4-5.3l-0.1-0.5c-1.2-5.1-2.1-9.8-3-14.7c-0.9-4.8-1.7-9.7-2.4-14.5
						c-1.4-9.7-2.4-19.4-3-29.1c-0.2-2.9,2-5.3,4.9-5.5C2409.4,1636.4,2411.4,1637.6,2412.3,1639.6L2412.3,1639.6z"/>
				</g>
				<g>
					<path d="M1452.2,1390.6H829.7c-38.3-0.1-69.4-31.2-69.4-69.4c0-38.2,31.1-69.4,69.4-69.4h622.5c38.2,0,69.4,31.1,69.4,69.4
						C1521.6,1359.5,1490.4,1390.6,1452.2,1390.6z M829.7,1283c-21.1,0-38.2,17.1-38.2,38.2c0,21,17.1,38.1,38.2,38.2h622.5
						c21.1,0,38.2-17.1,38.2-38.2s-17.1-38.2-38.2-38.2H829.7z"/>
				</g>
				<g>
					<path d="M1659.4,678.3c-6.5-8-14.3-16.3-22.2-23.6c-8-7.4-16.5-14.2-25.6-19.6c-9-5.3-18.9-9.3-28.5-9.3
						c-4.8,0-9.5,1.2-13.7,3.7c-4.2,2.5-8,6.1-11.3,10.3l-0.1,0.2c-1.3,1.7-3.7,2-5.4,0.6c-1.5-1.2-1.9-3.3-0.9-5
						c3.1-5.3,6.9-10.3,12.1-14.4c5.1-4.1,11.6-6.8,18.1-7.7c13.3-1.9,26,1.7,37.2,6.4c11.3,4.8,21.7,11.1,31.5,18
						c9.9,7,18.9,14.2,28,22.9c5.2,4.9,5.5,13.2,0.5,18.4c-4.9,5.2-13.2,5.5-18.4,0.5c-0.4-0.4-0.8-0.8-1.1-1.2L1659.4,678.3z"/>
				</g>
				<g>
					<path d="M2950.3,1599.1c-0.6-5.5-0.8-10.6-1.1-15.9c-0.2-5.2-0.4-10.4-0.4-15.7c0-10.5,0.4-21,2-31.5c0.5-2.9,3.2-4.9,6-4.4
						c2.3,0.4,4,2.1,4.4,4.2l0,0.2c1.8,9.5,4.7,18.8,8,28c1.7,4.6,3.4,9.2,5.3,13.7c1.8,4.5,3.8,9.1,5.8,13.2
						c3.8,7.9,0.5,17.4-7.4,21.1c-7.9,3.8-17.4,0.5-21.1-7.4c-0.8-1.7-1.3-3.4-1.5-5.2L2950.3,1599.1z"/>
				</g>
				<g>
					<path d="M3017.7,1584.8c-2.6-4.6-4.7-8.8-6.8-13.2c-2.1-4.4-4-8.8-5.8-13.4c-3.5-9.1-6.6-18.5-7.5-28.6
						c-0.2-2.3,1.5-4.4,3.9-4.6c1.7-0.1,3.3,0.8,4,2.2l0.2,0.3c4,7.3,9.9,13.8,16,20c3.1,3.1,6.3,6,9.6,8.9c3.3,2.8,6.8,5.8,10,8.1
						c7.2,5.2,8.8,15.2,3.6,22.4c-5.2,7.2-15.2,8.8-22.4,3.6c-1.9-1.4-3.4-3.1-4.5-5L3017.7,1584.8z"/>
				</g>
				<g class="st0">
					<g>
						<path d="M2462.9,1641.1c0,87-127.5,104.8-162.1,27.6c-45-100.9-33.9-273.6-42-407.5c-233.6,1.8-465.7,5.1-697.8,8.5
							c-50.4-30.2-82.4-95.5-93.8-157.7c-16.4-78.2-7.6-154.9,19.4-223.6c-8.1,94.6-4.7,240.9,82.4,300.5
							c127.2,86.9,690.1,62.9,739.2-183.4c-9.7,131.8-39,692.1,154.5,591.6C2462.8,1611.5,2462.9,1626.2,2462.9,1641.1z"/>
					</g>
				</g>
				<g class="st0">
					<g>
						<path d="M3058.8,1531.2c-13.6,40.9-33,69.7-61.5,72.7c-125.9,13.5-89.6-194.3-100.8-266.9c-5.7-36.8-24.8-86.5-62-86.5
							c-144.5,0-250.4-4.6-369.4-2.4c-6.1,114.7-3.6,209.5-2.6,317.1c0,0-12.5-258.8,11.8-446.1c0,0,185.6,156.1,252.7-117.5
							c0,0,46.1,125.4,147.8,164.5C3019.6,1221.7,2887,1531.2,3058.8,1531.2z"/>
					</g>
				</g>
				<g>
					<circle cx="1461.2" cy="171.5" r="15.8"/>
				</g>
			</g>
		</g>
	</g>
	<g>
		<g>
			<g>
				<path class="st3" d="M1291.6,382.4l-90,31.8l-6.4-18.1l25.6-91.1l-50.1,17.7l-8.9-25l88.2-31.2l6.3,17.9l-26,91.5l52.4-18.5
					L1291.6,382.4z"/>
			</g>
		</g>
		<g>
			<g>
				<path class="st3" d="M1537.3,403.5l-103.6,36.7l-7.4-20.8l29.5-104.9l-57.6,20.4l-10.2-28.8l101.5-35.9l7.3,20.6l-30,105.3
					l60.3-21.3L1537.3,403.5z"/>
			</g>
		</g>
		<g>
			<g>
				<path class="st3" d="M1404.1,578.7l-59.1,20.9l-4.2-11.9l16.8-59.8l-32.9,11.6l-5.8-16.4l57.9-20.5l4.2,11.7l-17.1,60l34.4-12.2
					L1404.1,578.7z"/>
			</g>
		</g>
	</g>
</g>
</svg>
