<?xml version="1.0" encoding="utf-8"?>
<!-- Generator: Adobe Illustrator 22.1.0, SVG Export Plug-In . SVG Version: 6.00 Build 0)  -->
<svg version="1.1" id="Layer_1" xmlns="http://www.w3.org/2000/svg" xmlns:xlink="http://www.w3.org/1999/xlink" x="0px" y="0px"
	 viewBox="0 0 4000 3449" style="enable-background:new 0 0 4000 3449;" xml:space="preserve">
<style type="text/css">
	.st0{opacity:0.2;}
	.st1{fill:#636363;}
	.st2{fill:#4D5B6B;}
	.st3{fill:#5F5F82;}
	.st4{opacity:0.6;}
	.st5{fill:#FFFFFF;}
	.st6{opacity:0.3;}
	.st7{fill:#6E7189;}
	.st8{fill:#42477F;}
	.st9{fill:#EFEFEF;}
	.st10{fill:none;stroke:#000072;stroke-width:47.1961;stroke-linejoin:round;stroke-miterlimit:10;}
	.st11{fill:#C0BECC;}
	.st12{opacity:0.7;}
	.st13{fill:#05CC0A;}
</style>
<g>
	<g>
		<g class="st0">
			<ellipse class="st1" cx="1940.3" cy="3069.9" rx="1085.6" ry="222.1"/>
		</g>
		<g>
			<g>
				<g>
					<g>
						<path class="st2" d="M1314.8,2457.7c-96.8,46.4-172.6,114.9-209.5,224.3l249.2,257.6L1314.8,2457.7z"/>
					</g>
					<g>
						<path d="M1354.5,2959.2c-5.2,0-10.3-2.1-14.1-6l-249.2-257.6c-5.1-5.3-6.8-12.9-4.5-19.9c35.3-104.8,107.2-181.8,219.6-235.7
							c5.8-2.8,12.6-2.5,18.2,0.7c5.6,3.2,9.2,9,9.8,15.4L1374,2938c0.7,8.2-3.9,16-11.4,19.4
							C1360,2958.6,1357.2,2959.2,1354.5,2959.2z M1127.8,2677.1l202.7,209.5l-32.8-398.1
							C1213.7,2534.5,1157.9,2596.4,1127.8,2677.1z"/>
					</g>
					<g>
						
							<ellipse transform="matrix(0.8212 -0.5706 0.5706 0.8212 -1440.0209 1143.693)" class="st3" cx="1105.3" cy="2870.1" rx="225.3" ry="276.7"/>
					</g>
					<g class="st4">
						<path class="st5" d="M930.9,2684.4c102.2-71,255.7-26.8,342.9,98.7c54.8,78.9,70.3,171.1,49,246.4
							c42.5-80.6,33-193.8-32.4-288c-87.2-125.5-240.7-169.7-342.9-98.7c-38,26.4-63.5,64.9-76.1,109.4
							C885.4,2725.4,905.3,2702.1,930.9,2684.4z"/>
					</g>
					<g class="st6">
						<path d="M1288.4,2957.5c-102.2,71-255.7,26.8-342.9-98.7c-32.9-47.3-51.6-99.4-56.7-149.8c-43.5,80.7-34.4,194.8,31.5,289.6
							c87.2,125.5,240.7,169.7,342.9,98.7c63.7-44.2,92.4-122.7,83.9-206C1333,2917.5,1313.4,2940.2,1288.4,2957.5z"/>
					</g>
					<g>
						<path d="M1152.1,3150.9c-23.3,0-47.2-3.4-71.4-10.4c-69.1-19.9-131.8-66.3-176.5-130.7c-93.2-134.2-78.8-306,32.1-383.1
							c54.4-37.8,123.1-47.4,193.7-27.1c69.1,19.9,131.8,66.3,176.5,130.7c44.7,64.4,66.4,139.3,60.9,211
							c-5.6,73.2-38.6,134.3-92.9,172.1C1238.6,3138.2,1196.7,3150.9,1152.1,3150.9z M1058.7,2628.5c-36.7,0-71.1,10.3-100.1,30.4
							c-93.2,64.7-103.1,212.1-22.2,328.6c39.6,57,94.7,98,155.2,115.4c59,17,116,9.3,160.5-21.6c44.5-30.9,71.6-81.7,76.2-142.9
							c4.8-62.7-14.4-128.7-54-185.7c-39.6-57-94.7-98-155.2-115.4C1098.5,2631.4,1078.2,2628.5,1058.7,2628.5z"/>
					</g>
					<g>
						
							<ellipse transform="matrix(0.7071 -0.7071 0.7071 0.7071 -1741.5847 1683.7169)" class="st5" cx="1161.6" cy="2944.1" rx="112.1" ry="107.3"/>
					</g>
					<g>
						
							<ellipse transform="matrix(0.8212 -0.5706 0.5706 0.8212 -1493.2972 1068.688)" class="st5" cx="958.9" cy="2917.6" rx="38.1" ry="51.2"/>
					</g>
					<g>
						
							<ellipse transform="matrix(0.8212 -0.5706 0.5706 0.8212 -1409.4913 1069.1421)" class="st5" cx="1001.6" cy="2784.1" rx="38.1" ry="51.2"/>
					</g>
					<g>
						
							<ellipse transform="matrix(0.8212 -0.5706 0.5706 0.8212 -1360.3269 1138.759)" class="st5" cx="1137.3" cy="2740.4" rx="38.1" ry="51.2"/>
					</g>
				</g>
				<g>
					<g>
						<path class="st2" d="M2573.2,2457.7c96.8,46.4,172.6,114.9,209.5,224.3l-249.2,257.6L2573.2,2457.7z"/>
					</g>
					<g>
						<path d="M2533.5,2959.2c-2.7,0-5.5-0.6-8.1-1.7c-7.5-3.4-12.1-11.2-11.4-19.4l39.7-481.9c0.5-6.4,4.2-12.2,9.8-15.4
							c5.6-3.2,12.4-3.5,18.2-0.7c112.4,53.8,184.3,130.9,219.6,235.7c2.3,6.9,0.6,14.6-4.5,19.9l-249.2,257.6
							C2543.8,2957.1,2538.7,2959.2,2533.5,2959.2z M2590.3,2488.5l-32.8,398.1l202.7-209.5
							C2730,2596.4,2674.2,2534.5,2590.3,2488.5z"/>
					</g>
					<g>
						
							<ellipse transform="matrix(0.5706 -0.8212 0.8212 0.5706 -1162.0697 3517.7371)" class="st3" cx="2782.7" cy="2870.1" rx="276.7" ry="225.3"/>
					</g>
					<g class="st4">
						<path class="st5" d="M2957.1,2684.4c-102.2-71-255.7-26.8-342.9,98.7c-54.8,78.9-70.3,171.1-49,246.4
							c-42.5-80.6-33-193.8,32.4-288c87.2-125.5,240.7-169.7,342.9-98.7c38,26.4,63.5,64.9,76.1,109.4
							C3002.5,2725.4,2982.6,2702.1,2957.1,2684.4z"/>
					</g>
					<g class="st6">
						<path d="M2599.6,2957.5c102.2,71,255.7,26.8,342.9-98.7c32.9-47.3,51.6-99.4,56.7-149.8c43.5,80.7,34.4,194.8-31.5,289.6
							c-87.2,125.5-240.7,169.7-342.9,98.7c-63.7-44.2-92.4-122.7-83.9-206C2555,2917.5,2574.6,2940.2,2599.6,2957.5z"/>
					</g>
					<g>
						<path d="M2735.9,3150.9c-44.6,0-86.5-12.7-122.3-37.5c-54.4-37.8-87.4-98.9-92.9-172.1c-5.5-71.7,16.2-146.6,60.9-211
							c44.7-64.4,107.4-110.8,176.5-130.7c70.5-20.3,139.3-10.7,193.7,27.1c110.9,77.1,125.3,248.9,32.1,383.1
							c-44.7,64.4-107.4,110.8-176.5,130.7C2783.1,3147.4,2759.2,3150.9,2735.9,3150.9z M2829.3,2628.5c-19.6,0-39.9,2.9-60.4,8.8
							c-60.5,17.4-115.6,58.4-155.2,115.4c-39.6,57-58.8,123-54,185.7c4.7,61.2,31.7,112,76.2,142.9
							c44.5,30.9,101.5,38.6,160.5,21.6c60.5-17.4,115.6-58.4,155.2-115.4c80.9-116.4,70.9-263.8-22.2-328.6
							C2900.4,2638.7,2866.1,2628.5,2829.3,2628.5z"/>
					</g>
					<g>
						
							<ellipse transform="matrix(0.7071 -0.7071 0.7071 0.7071 -1283.2928 2790.1313)" class="st5" cx="2726.3" cy="2944.1" rx="107.3" ry="112.1"/>
					</g>
					<g>
						
							<ellipse transform="matrix(0.5706 -0.8212 0.8212 0.5706 -1138.2438 3658.3098)" class="st5" cx="2929" cy="2917.6" rx="51.2" ry="38.1"/>
					</g>
					<g>
						
							<ellipse transform="matrix(0.5706 -0.8212 0.8212 0.5706 -1046.9167 3565.9885)" class="st5" cx="2886.4" cy="2784.1" rx="51.2" ry="38.1"/>
					</g>
					<g>
						
							<ellipse transform="matrix(0.5706 -0.8212 0.8212 0.5706 -1069.3322 3435.8079)" class="st5" cx="2750.7" cy="2740.4" rx="51.2" ry="38.1"/>
					</g>
				</g>
			</g>
			<g>
				<g>
					<g>
						<path class="st7" d="M1384.9,1725.1l-10.5,598.7c-6.1,347.4,292.1,626.1,637.6,589.3c5.1-0.5,10.1-1.1,15.2-1.8
							c294.5-37.9,510.2-296.9,501.2-593.7l-17.9-592.5H1384.9z"/>
					</g>
					<g>
						<path d="M1951.8,2935.9c-147.2,0-290.6-55.3-400.9-156.3c-127.7-116.9-199.2-283.2-196.2-456.2l10.5-598.7
							c0.2-10.7,8.9-19.2,19.6-19.2h1125.6c10.6,0,19.3,8.4,19.6,19L2548,2317c4.5,148.8-45.7,293.4-141.4,407.2
							c-96.1,114.3-230,187.7-376.9,206.6c-5.2,0.7-10.4,1.3-15.6,1.8C1993.3,2934.8,1972.5,2935.9,1951.8,2935.9z M1404.1,1744.7
							l-10.2,579.4c-2.8,161.8,64,317.3,183.4,426.6c117.5,107.6,275.2,159.6,432.5,142.9c4.9-0.5,9.8-1.1,14.8-1.7
							c284.8-36.6,492.9-283.3,484.2-573.7l-17.3-573.5H1404.1z"/>
					</g>
					<g class="st0">
						<g>
							<path d="M2534.8,2205.7c-6.3-51.9-13.8-103.7-22.3-155.3c-2.5-15-5.8-31.1-16.6-41.6c-0.7-13.4-1.7-26.7-3.3-40
								c-6.5-54.1-25.9-110.7-70.4-142.2c-18.8-13.4-40.9-21.3-62.8-28.7c-239.2-80.5-497.7-113-745.9-67.3
								c-57.7,10.6-117.4,26.9-159.9,67.5c-35.3,33.7-54.8,81.3-63.2,129.4c-5.1,29.5-6.4,59.5-6.2,89.5c-9.1,7.8-16.6,17.2-21.8,28
								c-14.6,30.6-7.9,68.5,11.4,96.3c19.3,27.8,49.6,46.5,81.5,58.1l21.3,20.2c-9.8-39.2-17.5-86.4,10.9-115.1
								c3.2-3.2,6.7-6,10.5-8.5c17.1-10.9,38.5-12.1,57.6-5.4c5.7,2,11.3,4.1,16.8,6.3c62.6,24.8,120.4,61,183.5,84.4
								c97.1,36,205.6,40.3,305.2,12c75.3-21.4,144.7-60.5,219.7-82.7c0,0,0.1,0,0.1,0c7.4-2.2,15.5-1.2,22,3
								c29.7,19.2,52.4,50,61.4,84.5c13.7,52.7-2.7,110.9-37.5,152.8c35.6,7.5,71.9,15.1,108,11.1s72.7-21.6,90.4-53.4
								C2542.3,2277.9,2539,2240.5,2534.8,2205.7z"/>
						</g>
					</g>
				</g>
				<g>
					<g>
						<path class="st7" d="M2778.5,2462.4c-75.3,134.9-183.4,221.6-295.5,241.2l-77.2-94.7l-94.6-116l54-53.4l117.8-116.6
							c27.4-69,4.7-151.1-40.9-239.1l-59.8-157.3l122.7-76.6c41.9,30.6,79.9,62.9,113.7,96.3c112.2,110.8,178.9,233.3,192.7,343.7
							c1.5,11.9,2.4,23.6,2.6,35.2C2815,2373.1,2801.9,2420.4,2778.5,2462.4z"/>
					</g>
					<g class="st4">
						<g>
							<path class="st5" d="M2340.7,2483.5l117.8-116.6c3.6-9.1,6.3-18.5,8.3-28l-101.7,100.7l-54,53.4l9,11L2340.7,2483.5z"/>
						</g>
						<g>
							<path class="st5" d="M2814,2325.1c-0.2-11.6-1.1-23.3-2.6-35.2c-13.7-110.4-80.4-233-192.7-343.7
								c-33.8-33.4-71.8-65.7-113.7-96.3l-122.7,76.6l8.8,23.2c33.5-20.6,67-41.2,100.5-61.8c55.6,39.9,95.8,79.3,122.7,108.6
								c0,0,148.6,161.8,172.6,337.4c2.5,18.1,2.6,35.2,2.6,35.2c0.9,41-8.5,81.5-25.9,118.5c5.1-8.2,10-16.6,14.8-25.3
								C2801.9,2420.4,2815,2373.1,2814,2325.1z"/>
						</g>
					</g>
					<g>
						<path class="st7" d="M1641.3,2341l-24.6,29.1h0L1512.8,2493l-90.1,106.6c-206.9-65.3-373.2-149.4-404.3-296.3
							c-10.8-78.6,12.3-155.9,56.4-227.1c30.2-48.7,70.1-94.4,115.8-135.7c54.9-49.6,118-92.7,182.2-126.5l78.2,126l-28.3,121.7
							l-21.4,119.3l-0.6,3.4c23.6,9.7,46.4,19.7,68.2,30.3c0.1,0.1,0.2,0.1,0.3,0.1c2.5,1.3,5.1,2.5,7.7,3.8
							c2.2,1.1,4.3,2.1,6.4,3.2c2.9,1.4,5.8,2.9,8.6,4.4c7.1,3.6,14.2,7.5,21.2,11.4c15,8.3,29.3,16.9,42.8,26c2.5,1.7,5,3.3,7.4,5
							C1594.7,2290.4,1621.2,2314.2,1641.3,2341z"/>
					</g>
					<g class="st4">
						<path class="st5" d="M1641.3,2341l-24.6,29.1h0c-82.5-83.2-230.2-149.5-300.7-209.2c53.1,13.1,104.2,30.8,152.9,53.8
							c0.1,0.1,0.2,0.1,0.3,0.1c2.5,1.3,5.1,2.5,7.7,3.8c2.2,1.1,4.3,2.1,6.4,3.2c2.9,1.4,5.8,2.9,8.6,4.4
							c7.1,3.6,14.2,7.5,21.2,11.4c14.5,8.2,28.7,16.8,42.8,26c2.5,1.7,5,3.3,7.4,5C1594.7,2290.4,1621.2,2314.2,1641.3,2341z"/>
					</g>
					<g>
						<path d="M1433,2063.6l-13.1,124.3l-11.8-21.6c68.2,28,137.3,59.9,195.6,107c19.7,16.1,38.3,34.3,54.2,55.2
							c6,7.9,5.4,18.7-0.8,25.9c-54.3,64.6-163.7,194.7-218.3,259c-5.7,6.7-14.7,9-22.6,6.5c-84.6-27-168.4-57.6-245.8-102.8
							c-109.5-64.1-195.1-161-172.2-296.4c30.8-191.3,203.5-336.6,365.6-423.4c8.8-4.7,19.7-1.6,24.9,6.8
							c13.1,21,25.7,42.3,37.7,63.9c11.9,21.8,23.5,43.7,33.4,66.5c2.3,5.4-0.2,11.7-5.7,14c-4.4,1.9-9.3,0.6-12.3-2.9
							c-8.2-9.5-15.7-19.4-23.1-29.3c-22.2-29.8-42.6-60.8-62.2-92.3l24.9,6.8c-46.1,24.5-90.2,53-131.3,85.1
							c-116.5,89.5-231.8,234.1-211.5,383.1c29,125.7,157.8,191.1,268.4,237c39.8,16.1,80.7,30.2,121.9,43.3l-22.7,6.6
							c54.3-64.6,164.4-194,219.1-258.3c0,0-0.8,25.9-0.8,25.9c-26.8-35.5-64.1-64-104.1-88.1c-41-24.8-85.4-44.8-130.1-64.2
							c-7.6-3.8-11.2-12.3-9.2-20.2l30.9-121.1C1415.6,2047.4,1434.2,2050.6,1433,2063.6L1433,2063.6z"/>
					</g>
					<g>
						<path d="M1394,2202.2l-89.9-42.5c-11.5-5.5-4.9-23,7.3-19.7c0,0,95.7,26.8,95.7,26.8C1433,2175.3,1419.1,2212.6,1394,2202.2
							L1394,2202.2z"/>
					</g>
					<g>
						<path d="M2452.1,2078.6c30.5,55.8,58.5,117.8,59.5,183.6c0.2,22.6-3.2,45.8-11.1,67.7c-0.9,2.6-2.4,4.7-4.3,6.5l-171.8,170
							l1.3-25.3l171.8,210.7l-17.9-6.7c88.1-15.9,164.1-72.8,220.7-141.2c17.9-21.9,34.4-45.1,49.1-69.3
							c20.5-32.7,36.8-68.4,42.6-106.5c15.6-110.5-38.6-223.8-102.4-311.4c-53.9-73.8-122-136.9-195.8-191.6l21.1,0.8l-122.7,76.6
							c-21.4,12.6-40.8-18.2-20-32c0,0,122.7-76.6,122.7-76.6c6.7-4.2,15.1-3.7,21.1,0.8c133.2,98.7,254.3,229.7,301.6,392.6
							c12.8,47.5,19.6,97.9,11.6,146.9c-6.6,43.1-24.7,83.6-47.6,120.1c-15.7,25.7-33.2,50.3-52.3,73.7
							c-61.8,74.8-145.8,136.9-243.3,154.3c-7,1.3-13.7-1.5-17.9-6.7l-171.8-210.7c-6.2-7.6-5.4-18.6,1.4-25.3l171.8-170l-4.3,6.5
							c7.3-16.9,11.3-35.4,12.3-54.4c2.5-60.2-20.1-117.8-45.7-172.5C2426,2075.9,2444.7,2065.9,2452.1,2078.6L2452.1,2078.6z"/>
					</g>
					<g>
						<path class="st2" d="M1745.1,2013"/>
					</g>
					<g>
						<rect x="1736.2" y="2000.4" class="st5" width="69.5" height="166.8"/>
					</g>
					<g>
						<path d="M1805.7,2181.3h-69.5c-7.8,0-14.2-6.3-14.2-14.2v-166.8c0-7.8,6.3-14.2,14.2-14.2h69.5c7.8,0,14.2,6.3,14.2,14.2
							v166.8C1819.9,2175,1813.6,2181.3,1805.7,2181.3z M1750.4,2153h41.2v-138.4h-41.2V2153z"/>
					</g>
					<g>
						<ellipse class="st8" cx="1775" cy="2207.7" rx="61.4" ry="42.9"/>
					</g>
					<g>
						<ellipse class="st5" cx="1775" cy="2207.7" rx="61.4" ry="42.9"/>
						<path d="M1775,2264.7c-42.3,0-75.5-25.1-75.5-57s33.2-57,75.5-57c42.3,0,75.5,25,75.5,57S1817.4,2264.7,1775,2264.7z
							 M1775,2179c-25.1,0-47.2,13.4-47.2,28.7s22.1,28.7,47.2,28.7s47.2-13.4,47.2-28.7S1800.2,2179,1775,2179z"/>
					</g>
					<g>
						<rect x="2062.1" y="2000.4" class="st5" width="69.5" height="166.8"/>
					</g>
					<g class="st6">
						<rect x="1739.9" y="1990.1" width="69.5" height="166.8"/>
					</g>
					<g class="st6">
						<rect x="2065.8" y="1990.1" width="69.5" height="166.8"/>
					</g>
					<g>
						<path d="M2131.6,2181.3h-69.5c-7.8,0-14.2-6.3-14.2-14.2v-166.8c0-7.8,6.3-14.2,14.2-14.2h69.5c7.8,0,14.2,6.3,14.2,14.2
							v166.8C2145.7,2175,2139.4,2181.3,2131.6,2181.3z M2076.2,2153h41.2v-138.4h-41.2V2153z"/>
					</g>
					<g>
						<ellipse class="st5" cx="2100.9" cy="2207.7" rx="61.4" ry="42.9"/>
					</g>
					<g>
						<path d="M2100.9,2264.7c-42.3,0-75.5-25.1-75.5-57s33.2-57,75.5-57s75.5,25,75.5,57S2143.2,2264.7,2100.9,2264.7z
							 M2100.9,2179c-25.1,0-47.2,13.4-47.2,28.7s22.1,28.7,47.2,28.7s47.2-13.4,47.2-28.7S2126,2179,2100.9,2179z"/>
					</g>
					<g class="st6">
						<g>
							<path d="M1139.4,1934.3c2.1-0.1,4.1-0.3,6.2-0.3c-0.1,0.2-0.3,0.5-0.5,0.8L1139.4,1934.3z"/>
						</g>
					</g>
					<g class="st0">
						<g>
							<path d="M1450.9,1940.1l-28.3,121.7l-21.4,119.3c-28.4-6.7-56.8-13.4-85.2-20.2c-14.7-3.5-31-8.1-38.5-21.2
								c-8.3-14.5-2.1-32.4,1.1-48.8c7.9-39.6-3.8-82.7-30.6-112.9c-15.4-17.3-35.5-30.2-57.5-37.4c54.9-49.6,118-92.7,182.2-126.5
								L1450.9,1940.1z"/>
						</g>
					</g>
					<g class="st0">
						<g>
							<path d="M1512.8,2493l-90.1,106.6c-206.9-65.3-373.2-149.4-404.3-296.3c-10.8-78.6,12.3-155.9,56.4-227.1
								c3.4-3.2,6.7-6.3,10.2-9.4l7.1,0.5c-47.6,53.2-39.6,139.6,0.2,198.9c39.8,59.2,104.2,96.8,167.9,129.1
								C1340.6,2436.1,1425.3,2471.9,1512.8,2493z"/>
						</g>
					</g>
					<g class="st0">
						<g>
							<path d="M2778.5,2462.4c-75.3,134.9-183.4,221.6-295.5,241.2l-77.2-94.7c3.3-7.8,6.7-15.5,10-23.3
								c14.4-32.9,28.3-66.1,41.8-99.4c-40.7,20.2-86.8,29-132,22.1c15.7-21.4,28.9-44.6,39.5-68.8l117.8-116.6
								c27.4-69,4.7-151.1-40.9-239.1l-59.8-157.3l122.7-76.6c41.9,30.6,79.9,62.9,113.7,96.3c-18.5,21.7-31.2,49.1-37.5,77.1
								c-11.1,49.9-5,101.8,1.4,152.5c4.5,36,9,72.4,7.6,108.4c-0.7,17.3,3.7,34.5,13.3,49c0.1,0.1,0.1,0.2,0.2,0.3
								c18.8,28.2,49.7,49.5,83.5,51.1c37.2,1.7,72.4-20.2,95.9-49.1c11.3-13.9,20.4-29.4,28.3-45.5c1.5,11.9,2.4,23.6,2.6,35.2
								C2815,2373.1,2801.9,2420.4,2778.5,2462.4z"/>
						</g>
					</g>
				</g>
			</g>
			<g>
				<g>
					<path class="st9" d="M1111.3,1034.9c128.3-985.7,1456.1-990.4,1610.8-23.7c4,25,11.7,49.3,15.5,74.4
						c71.2,460.6-41.1,760.5-733.5,762.8c-22.1-0.5-44.3-1.1-66.5-0.3c-622.4,24.9-963.8-207.3-833.8-786.6
						C1105.9,1052.5,1108.1,1043.5,1111.3,1034.9z"/>
				</g>
				<g class="st4">
					<path class="st5" d="M1117.3,1138.6c2-9,4.1-18,7.4-26.6c128.3-985.7,1456.1-990.4,1610.8-23.7c2.1,12.8,5.1,25.5,8,38.1
						c-1.8-13.5-3.8-27.2-5.9-41c-3.9-25-11.5-49.4-15.5-74.4c-154.7-966.7-1482.5-962-1610.8,23.7c-3.3,8.6-5.4,17.6-7.4,26.6
						c-33.4,148.8-35.6,274.7-10,379.2C1084.5,1352.9,1091.7,1252.5,1117.3,1138.6z"/>
				</g>
				<g class="st0">
					<path d="M2004.2,1706.9c-22.1-0.4-44.3-1-66.5-0.2c-500.5,18.2-819.2-114.9-857.3-442.1c-43.9,430.5,290,604.3,857.3,583.7
						c22.1-0.8,44.3-0.2,66.5,0.2c623.6-1.9,776.5-223.5,748.8-573.9C2727.6,1542,2538.9,1705.3,2004.2,1706.9z"/>
				</g>
				<g>
					<path d="M1836.9,1253.9H1943c22.2,0,37.5,20.4,29,38.9c-13.9,30.3-40,49.5-81.4,54.7c-43.6-7.5-69.7-26.6-82.6-54.1
						C1799.3,1274.7,1814.4,1253.9,1836.9,1253.9z"/>
				</g>
				<g>
					<path d="M1849.9,1873.4c-325.1,0-553.9-77.1-681.1-229.6c-114.9-137.8-144.5-335.5-87.9-587.6c1.9-8.7,4.1-17.9,7.4-27
						c31-233.9,131.3-429.7,290.1-566.3c143.3-123.3,329.4-192.7,524-195.6c195.7-2.8,385.3,61.6,534,181.4
						c165,132.9,271.9,326.1,309.1,558.8c1.8,11.4,4.5,22.8,7.3,34.8c3,12.8,6.1,26,8.2,39.6c42.7,276.5,13.6,456.3-94.5,582.8
						c-118.2,138.4-334.8,206.1-662.2,207.2c-0.2,0-0.4,0-0.6,0l-6.6-0.2c-19.3-0.4-39.2-0.9-58.4-0.1
						C1908.3,1872.8,1878.8,1873.4,1849.9,1873.4z M1914.6,314.4c-3.9,0-7.7,0-11.5,0.1c-336.2,4.9-704.2,230.5-768.3,723.4
						c-0.2,1.8-0.7,3.6-1.3,5.3c-2.7,7.2-4.6,15.2-6.5,23.4c-53.2,237-26.9,421,78.1,547c128.6,154.2,374.7,225.1,731.7,210.9
						c20.7-0.8,41.4-0.4,61.4,0.1l6.3,0.1c312.6-1.1,517.5-63.4,626.2-190.7c98.3-115.1,124.2-283.1,83.7-544.9
						c-1.8-11.8-4.6-23.6-7.5-36.1c-2.9-12.3-5.9-25.1-8-38.2C2621.2,529.7,2251,314.4,1914.6,314.4z"/>
				</g>
				<g>
					<path d="M1890.6,1361.7c-0.8,0-1.6-0.1-2.4-0.2c-46.1-7.9-77.4-28.8-93-62.1c-6-12.8-5-26.9,2.6-38.9
						c8.3-13,22.9-20.7,39.1-20.7H1943c16.2,0,30.8,7.7,39.1,20.7c7.5,11.8,8.6,25.7,2.8,38.3c-16.6,36.1-47.7,57.3-92.5,62.8
						C1891.8,1361.6,1891.2,1361.7,1890.6,1361.7z M1836.9,1268.1c-6.5,0-12.1,2.9-15.2,7.6c-1.3,2.1-3.2,6.5-0.8,11.7
						c11.3,24.3,34.3,39.3,70.1,45.8c33.7-4.7,56.1-19.8,68.2-46.3c2.2-4.7,0.7-8.7-0.9-11.2c-3.1-4.8-8.8-7.7-15.3-7.7H1836.9z"/>
				</g>
				<g>
					<path class="st10" d="M1094.9,1034.9"/>
				</g>
				<g>
					<ellipse class="st5" cx="1892.1" cy="1267.4" rx="46.4" ry="10.4"/>
				</g>
				<g>
					<path class="st3" d="M1254.6,1322.3c66.8-664.8,815-187.6,367.5,23.4c-26.2,12.4-49.8,30.4-69.3,52.9
						c-86.7,100.1-196.8,122.6-261.7,46.7C1262.7,1412.2,1250.1,1366.7,1254.6,1322.3z"/>
				</g>
				<g>
					<path class="st3" d="M2565.4,1317.4c-66.8-664.8-815-187.6-367.5,23.4c26.2,12.4,49.8,30.4,69.3,52.9
						c86.7,100.1,196.8,122.6,261.7,46.7C2557.3,1407.3,2569.9,1361.8,2565.4,1317.4z"/>
				</g>
				<g>
					<path d="M1890.3,1431.7c-0.1,0-0.2,0-0.3,0c-7.8-0.2-14-6.6-13.9-14.5l1.9-88.1c0.2-7.8,6.7-14.1,14.5-13.9
						c7.8,0.2,14,6.6,13.9,14.5l-1.9,88.1C1904.2,1425.5,1897.9,1431.7,1890.3,1431.7z"/>
				</g>
				<g>
					<path d="M1775.8,1473.2c42.7-9.8,67.2-52.2,110.1-63.7c3-1,6.1-0.8,8.9,0.3c15.6,5.4,29.3,13.9,41.6,22.9
						c12.3,9,23.5,18.5,34.7,27.6c3.8,3,10.1,8.6,14.8,10c18.4,6.7,36.3-7.7,50.3-18.7c1.8-1.5,4.6-1.3,6.1,0.5
						c1.2,1.5,1.3,3.5,0.4,5.1c-4,6.5-9,12.6-14.7,18.1c-18.7,18.7-44.1,23.8-66.6,7.9c-14-8.9-27.7-18.9-40.9-27.6
						c-11.7-7.7-23.3-14.6-35.3-19.3l8.9,0.3c-40.3,11.9-72.2,56.4-118.2,49.6C1768.7,1485,1768.7,1474.3,1775.8,1473.2
						L1775.8,1473.2z"/>
				</g>
			</g>
			<g>
				<g>
					<ellipse cx="2258" cy="1183.2" rx="91.2" ry="109.1"/>
				</g>
				<g>
					<ellipse class="st5" cx="2225" cy="1192.6" rx="20.5" ry="37.2"/>
				</g>
			</g>
			<g>
				<g>
					<ellipse cx="1580.1" cy="1183.2" rx="91.2" ry="109.1"/>
				</g>
				<g>
					<ellipse class="st5" cx="1613.2" cy="1192.6" rx="20.5" ry="37.2"/>
				</g>
			</g>
			<g>
				<g>
					<path class="st7" d="M2841.4,1264.6c-0.2,8-0.5,16-1,24c-601.3-382.5-1207.9-408.5-1820.9,0c-8.4-150.2,26-297.8,86.4-434.7
						c30.3-68.8,67.3-134.8,108.7-197.1c89.7-134.9,200.4-252.1,310.9-340.9c148.1-119.1,295.6-187.1,390.9-178.1
						C2185.2,113.3,2857.2,665.3,2841.4,1264.6z"/>
				</g>
				<g class="st4">
					<g>
						<path class="st5" d="M1019.3,1282.8c0.1,1.9,0.1,3.9,0.2,5.8c66-44,132-83,197.9-117
							C1151.5,1203.7,1085.4,1240.7,1019.3,1282.8z"/>
					</g>
					<g>
						<path class="st5" d="M1916.4,137.8c-57.7-5.4-134.6,17.4-219.2,62.7c68.7-31.9,130.7-47.2,179.1-42.7
							c265.8-24.2,925.6,515.2,925.2,1106.7c13,7.9,25.9,15.9,38.9,24.2c0.5-8,0.8-16,1-24C2857.2,665.3,2185.2,113.3,1916.4,137.8z
							"/>
					</g>
				</g>
				<g>
					<path d="M2840.4,1307.5c-3.5,0-7.1-1-10.1-3c-619.9-394.4-1208.8-394.4-1800.3-0.2c-5.6,3.8-12.9,4.2-18.9,1.2
						c-6.1-3-10-9.1-10.4-15.8c-9.5-171.3,33.7-348.3,128.3-526.3c101.3-190.5,233.9-330,327.2-413.4
						c169.4-151.3,347.4-240.2,460.1-231.1c121.5-10,313,86.1,494.5,249.3c133.1,119.7,245,260.9,323.5,408.3
						c92.5,173.6,134.5,346.3,125,513.2c-0.4,6.7-4.3,12.7-10.2,15.7C2846.3,1306.8,2843.3,1307.5,2840.4,1307.5z M1919.7,973
						c5,0,9.9,0,14.9,0.1c291.3,3.1,590,98,888.1,282.1c3.9-288.9-157.6-607.6-437.2-859c-162.8-146.5-337.3-239.1-448.4-240.4
						c-2.7,1.5-5.8,2.3-9.1,2.3h-23.6c-3.2,0-6.3-0.8-9-2.3c-102.5,2.1-263.3,87.4-414.1,222.2C1261,575,1032.8,905.7,1037.2,1254.4
						C1327,1067.6,1623.6,973,1919.7,973z"/>
				</g>
				<g>
					<path class="st7" d="M2720.6,883.4l22.9-40.6c237.5-418.2-169.3-732.3-474.2-497.5c-21.9,16.9-47,28.1-73.5,32.5l-27.4,4.6
						C2133.8,536,2394.9,883.4,2720.6,883.4z"/>
				</g>
				<g class="st4">
					<path class="st5" d="M2168.3,382.4l8.1,6c24.9,18.5,58.6,21.5,85.7,6.4c7.4-4.1,14.5-8.8,21.3-14
						c193.9-149.3,428.9-76.7,513.3,103.5c-68.8-205.5-321.4-297.6-527.5-138.9c-21.9,16.9-47,28.1-73.5,32.5L2168.3,382.4"/>
				</g>
				<g class="st6">
					<path d="M2584.7,278.3c135.6,92.8,200.4,291.6,69.5,522v0c-14.6,25.9-43.1,41.1-72.7,37.9c-15.5-1.7-30.7-4.1-45.8-7.2
						c-8.5-1.8-12.3,10.3-4.2,13.6c43.8,18,90.1,30.6,138.1,35.9c30,3.3,59.1-11.5,73.9-37.8v0
						C2900.7,566,2775.6,334.9,2584.7,278.3z"/>
				</g>
				<g>
					<path class="st7" d="M1672.5,366.5c0,120.7-51.5,226-131.6,312.9C1439.8,789,1293,869,1146.8,913.3l-26.9-38.6
						c-4.9-6.9-9.6-13.9-14-20.8c-161-248.3-61.1-474,117.5-550.3c88.7-38,196.9-39,302.1,12.3c13.5,6.6,26.9,14,40.2,22.3
						c23.9,15,50.6,24,78.2,26.1L1672.5,366.5z"/>
				</g>
				<g class="st4">
					<path class="st5" d="M1221.5,346.1c88.7-38,196.9-39,302.1,12.3c13.5,6.6,26.9,14,40.2,22.3c23.9,15,50.6,24,78.2,26.1l0,0
						c15.9,1.2,29.7-11,30.2-26.9c0.1-4.4,0.2-8.9,0.2-13.4l-28.6-2.2c-27.6-2.1-54.3-11.1-78.2-26.1c-13.3-8.3-26.8-15.8-40.2-22.3
						c-105.2-51.3-213.4-50.3-302.1-12.3c-117.3,50.1-200.6,164.7-198.4,307.8C1038,488.3,1116,391.2,1221.5,346.1z"/>
				</g>
				<g>
					<path d="M2165.2,363.7c6.7-1,20.8-3.6,27.1-4.6c13.3-2.3,26.1-6.5,38.3-12.3c21.3-10.1,38.8-27,58.9-39.3
						c183.8-122.2,434.6-57.7,517.6,151.9c56.4,143.9,12.1,309.1-77.4,429.1c-7.4,9.9-22.8,1.3-18.2-10.1
						c9.5-22.7,20.8-44.7,30.8-66.1c75.3-149.2,84.3-331.5-47.8-451.2c-68.3-62.1-165.5-88.6-256.1-71.8
						c-51,8.9-100,30.6-142.7,60.5c-15.1,11.2-31.3,23.6-48.6,31.6c-23.3,11.8-50.2,15.8-75.8,19.6
						C2147,404.3,2140.7,368.7,2165.2,363.7L2165.2,363.7z"/>
				</g>
				<g>
					<path d="M1671.1,385.3c-6.9-0.4-21.4-1.6-27.8-2c-30.9-2.1-61.2-12.2-87.4-28.5c-7.6-4.7-23.1-13.5-31-17.5
						c-126.6-66.8-288.2-54-391.3,49.3C1026.3,491,1020.4,649.9,1083.5,780c20.3,44.6,48,84,71.9,127.3c5.9,10.6-8.9,21.3-17.1,11.9
						c-33.1-37.6-63.5-79.1-84.8-125c-100.3-201.4-34.7-437.4,185.7-517.3c98.9-35.1,211.4-22.5,303.4,25.9c0,0,17.1,9.3,17.1,9.3
						c14.1,8.7,30.7,19,46.3,24.5c21.3,8.4,45.4,9.3,68,11.1C1698.5,350.4,1696,386.3,1671.1,385.3L1671.1,385.3z"/>
				</g>
				<g class="st0">
					<g>
						<path d="M2841.4,1264.3c-0.2,8.1-0.5,16.2-1,24.3c-589.4-387.3-1183.9-413.7-1784.7,0c-8.2-152.1,25.4-301.5,84.7-440.1
							c-157.8-251.5-59.9-479.9,115.1-557.2l18.2,5.8c-76,40.4-121.2,134.8-106.3,221.7c8.9,51.8,38.9,98.6,79.6,130.1
							c27.5,21.3,60,35.7,94.2,40.1c70.9,9,141.5-21,212.8-18.1c4.3,0.2,8.5,0.5,12.8,0.9c74.3,6.9,142.3,46.8,212.5,74.4
							c150.5,59.2,315.8,62.6,471.9,103.3C2486.7,910.8,2698.4,1061.8,2841.4,1264.3z"/>
					</g>
				</g>
				<g>
					<path class="st7" d="M1991.6,899.2c-44.2,0.4-88.5,0.4-132.7,0c-471.8-4.1-1108.3,382.5-839.7,779.7
						c45,66.5,105.3,117.3,173.2,149.4c224.2,106,448.8,188.5,673.6,247.8c39,10.2,79.5,10.2,118.6,0
						c224.8-59.3,449.4-141.7,673.6-247.8c67.8-32.1,128.1-82.9,173.2-149.4C3099.9,1281.7,2463.4,895.1,1991.6,899.2z M2673,1650.7
						c-37,47.6-86.6,83.9-142.3,106.8c-184.4,75.8-369.1,134.7-553.9,177.1c-32.1,7.4-65.4,7.4-97.5,0
						c-184.9-42.3-369.5-101.3-553.9-177.1c-55.7-22.9-105.4-59.2-142.4-106.8c-220.9-283.8,302.5-560.1,690.4-557.2
						c36.4,0.3,72.8,0.3,109.1,0C2370.5,1090.5,2893.9,1366.8,2673,1650.7z"/>
				</g>
				<g class="st4">
					<g>
						<path class="st5" d="M1858.9,949.5c44.2,0.4,88.5,0.4,132.7,0c383.8-3.3,876.7,251.9,902.5,561.1
							c27.6-331.3-498-615-902.5-611.5c-44.2,0.4-88.5,0.4-132.7,0c-404.5-3.5-930,280.1-902.5,611.5
							C982.2,1201.5,1475.1,946.2,1858.9,949.5z"/>
					</g>
				</g>
				<g class="st0">
					<g>
						<path d="M2831.3,1584.5c-45,66.5-105.3,117.3-173.2,149.4c-224.2,106-448.8,188.5-673.6,247.8c-39,10.2-79.5,10.2-118.6,0
							c-224.8-59.3-449.4-141.7-673.6-247.8c-67.8-32.1-128.1-82.9-173.2-149.4c-33.2-49.1-52.6-98.1-60.1-146.2
							c-12.1,77.5,4.9,158.8,60.1,240.6c45,66.5,105.3,117.3,173.2,149.4c224.2,106,448.8,188.5,673.6,247.8
							c39,10.2,79.5,10.2,118.6,0c224.8-59.3,449.4-141.7,673.6-247.8c67.8-32.1,128.1-82.9,173.2-149.4
							c55.3-81.7,72.2-163,60.1-240.6C2883.9,1486.4,2864.5,1535.4,2831.3,1584.5z"/>
					</g>
				</g>
				<g>
					<path d="M1928,1958.9c-17.8,0-35.6-2-52.9-6c-185.5-42.5-372.9-102.4-556.9-178c-60.1-24.7-112-63.6-150.1-112.7
						c-62.3-80-73.2-166.8-31.6-251.1c45.2-91.7,151.5-177.8,299.1-242.5c139-60.9,298.5-95.3,438-94.2c36.1,0.3,72.7,0.3,108.8,0
						c2.1,0,4.1,0,6.2,0c137.9,0,294.9,34.2,431.8,94.2c147.6,64.7,253.9,150.8,299.1,242.5c41.6,84.2,30.6,171-31.6,251.1
						c-38.1,49-90,88-150.1,112.7c-184,75.6-371.3,135.5-556.9,178C1963.6,1956.9,1945.8,1958.9,1928,1958.9z M1867.4,1112.3
						c-132.8,0-284.3,33.1-416.6,91c-139.5,61.1-239.1,140.9-280.4,224.6c-35.2,71.3-25.9,142.4,27.6,211.2
						c34.1,43.8,80.7,78.7,134.7,100.9c182,74.8,367.4,134.1,550.9,176.1c29.1,6.7,59.9,6.7,89,0c183.5-42,368.9-101.3,550.9-176.1
						c54-22.2,100.6-57.1,134.7-100.9c53.5-68.8,62.8-139.8,27.6-211.2c-41.3-83.7-140.9-163.5-280.4-224.6
						c-134.3-58.8-288.4-91.9-422.6-91c-36.3,0.3-73.1,0.3-109.4,0l0,0C1871.3,1112.3,1869.3,1112.3,1867.4,1112.3z"/>
				</g>
				<g>
					<path d="M1925.3,2102.6c-21.6,0-43.1-2.8-64.1-8.3c-225.6-59.4-453.3-143.2-676.9-249c-72.4-34.2-134.9-88.2-180.7-155.9
						c-81.2-120.1-88.7-249.7-21.7-374.7c64-119.2,193.8-230.4,365.7-313c163.5-78.6,349.9-122.9,511.4-121.5
						c43.9,0.4,88.5,0.4,132.4,0c161.7-1.4,347.9,42.9,511.4,121.5c171.9,82.6,301.8,193.8,365.7,313
						c67.1,125,59.6,254.6-21.7,374.7c-45.8,67.7-108.3,121.7-180.7,155.9c-223.6,105.8-451.3,189.5-676.9,249
						C1968.4,2099.9,1946.8,2102.6,1925.3,2102.6z M1851.2,918c-333.4,0-714.8,188.7-836,414.6c-60.9,113.5-54.3,226.4,19.7,335.7
						c42,62.1,99.3,111.6,165.6,142.9c221.5,104.8,447,187.7,670.4,246.6c35.6,9.4,73.3,9.4,108.9,0
						c223.3-58.9,448.9-141.8,670.4-246.6c66.3-31.4,123.5-80.8,165.6-142.9c73.9-109.3,80.5-222.2,19.7-335.7
						C2713.2,1105,2326.8,915,1991.8,918.1c-44.1,0.4-88.9,0.4-133,0l0,0C1856.2,918,1853.7,918,1851.2,918z"/>
				</g>
				<g class="st6">
					<g>
						<path d="M1908.2,146.9c-108.3-5.8-216,67.3-250.7,170c-2.9,8.7-5.5,17.8-11.3,24.9c-9.5,11.8-26.2,15.7-41.3,13.7
							c-15-2-28.9-8.9-42.4-15.8c-11.4-5.8-24.6-14.8-22.9-27.4c0.8-6.2,5.2-11.2,9.4-15.7c88.1-94.2,214.2-151.9,343.1-157.1"/>
					</g>
				</g>
			</g>
			<g>
				<g>
					<path class="st11" d="M2499.9,3126.8H1379c-14.9,0-27.1-12.2-27.1-27.1v-49.6c0-14.9,12.2-27.1,27.1-27.1h1120.9
						c14.9,0,27.1,12.2,27.1,27.1v49.6C2527,3114.6,2514.8,3126.8,2499.9,3126.8z"/>
				</g>
				<g class="st6">
					<path d="M2522.3,3034.9v13.3c0,14.9-12.2,27.1-27.1,27.1H1374.2c-9.3,0-17.5-4.7-22.4-11.9v36.3c0,14.9,12.2,27.1,27.1,27.1
						h1120.9c14.9,0,27.1-12.2,27.1-27.1v-49.6C2527,3044.5,2525.3,3039.2,2522.3,3034.9z"/>
				</g>
				<g>
					<path class="st11" d="M2606.2,2382.2l-57.5,570.7c-1.8,17.7-10,34.3-23.1,46.3l-25.7,23.7H1379l-25.7-23.7
						c-13.1-12.1-21.3-28.6-23.1-46.3l-57.5-570.7c-1.1-11.1-0.3-22.4,3.1-32.9c8.2-25,27.1-38.7,53-45.1c1.2-0.3,2.3-0.6,3.5-0.8
						c8.6-1.8,17.4-2.5,26.1-2.5h1162.1c10,0,20,0.8,29.6,3.3c25.9,6.5,44.8,20.2,53,45.1c0.1,0.4,0.2,0.8,0.3,1.2
						C2606.6,2360.7,2607.2,2371.5,2606.2,2382.2z"/>
				</g>
				<g class="st12">
					<path class="st5" d="M1368.8,2993.1l-57.5-570.7c-1.1-11.1-0.3-22.4,3.1-32.9c8.2-25,27.1-38.7,53-45.1
						c1.2-0.3,2.3-0.6,3.5-0.8c8.6-1.8,17.4-2.5,26.1-2.5H2559c10,0,20,0.8,29.6,3.3c5.1,1.3,9.8,2.9,14.3,4.8
						c-8.2-24.8-27.1-38.4-52.9-44.9c-9.7-2.4-19.7-3.3-29.6-3.3H1358.4c-8.8,0-17.6,0.7-26.1,2.5c-1.2,0.2-2.3,0.5-3.5,0.8
						c-25.9,6.5-44.8,20.2-53,45.1c-3.4,10.6-4.2,21.9-3.1,32.9l57.5,570.7c1.8,17.7,10,34.3,23.1,46.3l25,23.1
						C1373.1,3013.4,1369.8,3003.5,1368.8,2993.1z"/>
				</g>
				<g>
					<path d="M2499.9,3145.7H1379c-25.4,0-46-20.6-46-46v-49.6c0-25.4,20.6-46,46-46h1120.9c25.4,0,46,20.6,46,46v49.6
						C2545.9,3125.1,2525.3,3145.7,2499.9,3145.7z M1379,3041.9c-4.5,0-8.3,3.8-8.3,8.3v49.6c0,4.5,3.8,8.3,8.3,8.3h1120.9
						c4.5,0,8.3-3.8,8.3-8.3v-49.6c0-4.5-3.8-8.3-8.3-8.3H1379z"/>
				</g>
				<g>
					<path d="M2499.9,3041.9H1379c-4.7,0-9.3-1.8-12.8-5l-25.7-23.7c-16.5-15.2-26.8-35.9-29.1-58.3l-57.5-570.8
						c-1.5-14.5-0.1-28.2,3.9-40.7c9.7-29.7,32-49,66.4-57.6c10.4-2.6,21.5-3.8,34.2-3.8h1162.1c12.6,0,23.8,1.3,34.2,3.8
						c34.4,8.5,56.7,27.9,66.4,57.6c4.1,12.5,5.4,26.1,4,40.7l-57.5,570.8c-2.3,22.4-12.6,43.1-29.1,58.3l-25.7,23.7
						C2509.2,3040.1,2504.6,3041.9,2499.9,3041.9z M1386.3,3004.1h1106.1l20.2-18.7c9.7-9,15.8-21.2,17.1-34.3l57.5-570.8
						c0.9-9.2,0.2-17.7-2.3-25.1c-5.5-17-18.1-27.3-39.6-32.7c-7.3-1.8-15.5-2.7-25.1-2.7H1358.4c-9.5,0-17.7,0.9-25.1,2.7
						c-21.5,5.3-34.1,15.7-39.6,32.7c-2.4,7.4-3.2,15.9-2.3,25.1l57.5,570.8c1.3,13.2,7.4,25.4,17.1,34.4L1386.3,3004.1z"/>
				</g>
				<g class="st6">
					<g>
						<path d="M2606.2,2382.2l-57.5,570.7c-1.8,17.7-10,34.3-23.1,46.3l-25.7,23.7H1379l-25.7-23.7c-13.1-12.1-21.3-28.6-23.1-46.3
							l-57.5-570.7c-1.1-11.1-0.3-22.4,3.1-32.9c8.2-25,27.1-38.7,53-45.1c1.2-0.3,2.3-0.6,3.5-0.8l21.7,3
							c-33.2,5.9-40.5,49.8-39.3,83.6c3.5,97,12.7,193.8,27.6,289.7c9,57.7,21.2,117.8,58.5,162.8c53.7,64.7,144.4,81.8,227.4,94.7
							c170.5,26.6,351.1,52,510.5-13.9c84.7-35.1,157.4-93.9,223-157.9c116.7-113.6,218.5-256.1,241.9-414.9
							C2606.6,2360.7,2607.2,2371.5,2606.2,2382.2z"/>
					</g>
				</g>
				<g>
					<g id="XMLID_2_" class="st6">
						<g>
							<path d="M2035.5,2602.3c-24.4,0.9-48.1,4.9-71.2,12.1c-8.2-13.5-11.3-27.9-9.1-43.2c24.4-0.9,48.1-4.8,71.2-12
								C2034.7,2572.6,2037.7,2587,2035.5,2602.3z"/>
							<path d="M1964.3,2637.9c-8.1,0-15.8-4.2-20.2-11.3c-11.1-18.2-15.3-38-12.3-58.8c1.6-11.3,11.1-19.9,22.5-20.3
								c22.3-0.8,44.1-4.5,65-11c10.3-3.2,21.5,1,27.2,10.2c11.1,18.2,15.3,38,12.3,58.8c-1.6,11.3-11.1,19.8-22.5,20.2
								c-22.2,0.8-44,4.5-65,11C1969,2637.6,1966.6,2637.9,1964.3,2637.9z M2035.5,2602.3L2035.5,2602.3L2035.5,2602.3z"/>
						</g>
						<g>
							<path d="M1891.2,2560.7c0,0-7.9,9.6-20.3,12.5c-8.5,2-16.9,0.4-21.3-0.9c-6.7,8.7-15.4,16.4-23.8,22.6
								c6.5-1.5,13-3.2,19.3-5.2c8.3,13.5,11.3,27.9,9.1,43.2c-24.4,0.9-48.1,4.9-71.2,12.1c-8.2-13.5-11.3-27.9-9.1-43.2
								c11-0.4,21.9-1.5,32.6-3.2c15-9.2,40.1-27.4,45.2-47.8c-4.1-0.9-12.3-3.4-18.3-9.3c-8.4-8.1-9.2-19.6-9.2-19.6
								s12.7,1.7,21,9.9c2.2,2.1,3.8,4.5,5.1,6.8c1.5-5,4-10.8,8.7-15.9c10.5-11.4,27.2-14.5,27.2-14.5s-0.2,15.3-10.7,26.7
								c-4.4,4.7-9.8,8-14.6,10.2c-0.3,6.5-2.5,12.7-5.7,18.6c3.1-2,7-4,11.4-5C1879.1,2555.9,1891.2,2560.7,1891.2,2560.7z"/>
							<path d="M1783.1,2668.6c-8.1,0-15.8-4.2-20.2-11.3c-11.2-18.3-15.3-38.1-12.3-58.8c1.6-11.3,11.1-19.8,22.5-20.2
								c8.1-0.3,16.4-1,25.1-2.2c8.8-5.8,15.5-11.2,20.4-16.1c-0.5-0.5-1.1-1-1.6-1.5c-14.1-13.6-16.1-31.3-16.3-34.7
								c-0.5-7.1,2.2-14.1,7.4-19c5.2-4.9,12.3-7.2,19.4-6.2c2,0.3,9.1,1.5,17.4,5.1c15.1-14.1,34.8-18.2,37.1-18.6
								c7-1.3,14.1,0.6,19.5,5.1c5.4,4.6,8.5,11.3,8.4,18.4c0,2-0.5,16.2-8.6,30.8c6.3,3,11,8.6,12.8,15.5
								c1.9,7.3,0.2,15.1-4.6,20.9c-2.2,2.6-13.9,16-33.1,20.5c-0.7,0.2-1.4,0.3-2,0.4c4.2,12.7,5.3,25.9,3.3,39.7
								c-1.6,11.3-11.1,19.8-22.5,20.2c-22.2,0.8-44.1,4.5-65,11C1787.8,2668.2,1785.4,2668.6,1783.1,2668.6z"/>
						</g>
						<g>
							<path d="M2001.1,2682.9c0,0-16.8,2.6-31.2-4.6c-2.5-1.2-4.6-2.7-6.6-4.2c1.3,13.9-6.8,26.1-6.8,26.1s-12.3-10.6-14.6-25.2
								c-1.6-10.9,2.9-20.9,5.3-25.3c-14.5-13.9-40.5-21.3-56.5-24.7c-5.7,1.4-11.4,2.9-17.1,4.7c-8.3-13.5-11.3-27.9-9.1-43.2
								c24.4-0.9,48.1-4.9,71.2-12.1c8.2,13.5,11.3,27.9,9.1,43.2c-12.5,0.5-24.9,1.7-37,3.9c10.8,3.1,22.7,7.5,33,13.7
								c3.6-2.6,10.7-6.8,19.5-7.7c12.7-1.3,24,5,24,5s-9.4,8.5-22.1,9.8c-4.6,0.5-9-0.1-12.7-0.9c5.5,4.4,10,9.6,13,15.5
								c5.4,0.5,11.8,1.8,17.8,4.8C1994.7,2668.7,2001.1,2682.9,2001.1,2682.9z"/>
							<path d="M1956.6,2723.8c-5.6,0-11.1-2-15.4-5.7c-3.2-2.7-19.2-17.4-22.5-39.6c-1-7-0.6-13.7,0.5-19.6
								c-7.5-3.7-17.1-7.1-28.1-9.7c-3.6,1-7,1.9-10.3,3c-10.3,3.3-21.5-0.9-27.2-10.2c-11.2-18.3-15.3-38.1-12.3-58.9
								c1.6-11.3,11.1-19.8,22.5-20.2c22.2-0.8,44.1-4.5,65-11c10.3-3.2,21.5,1,27.2,10.2c8,13.2,12.4,27.2,13.1,41.8
								c13.9,1.2,24.5,6.7,26.9,8c6.6,3.7,11,10.4,11.9,17.9c0.7,6.5-1.3,13-5.5,17.9c13.3,10.6,19.5,23.6,20.3,25.4
								c3.1,6.7,2.8,14.5-0.8,21c-3.5,6.5-9.9,11-17.2,12.1c-1.6,0.3-11.8,1.6-24.4-0.3c-1.8,3.7-3.4,6.3-4.1,7.3
								c-3.7,5.6-9.7,9.4-16.4,10.3C1958.7,2723.7,1957.6,2723.8,1956.6,2723.8z"/>
						</g>
					</g>
					<g id="XMLID_1_">
						<g id="XMLID_7_">
							<path class="st5" d="M2040.7,2521.8c9.4,17.1,12.8,35.3,10.3,54.6c-27.7,1.1-54.6,6.2-80.7,15.2
								c-9.4-17.1-12.8-35.3-10.3-54.7C1987.6,2536,2014.6,2530.9,2040.7,2521.8 M2040.7,2502.9c-2.1,0-4.2,0.3-6.2,1
								c-24.3,8.4-49.6,13.2-75.3,14.2c-9.2,0.4-16.8,7.3-18,16.5c-3,23.3,1.2,45.5,12.5,66.1c3.4,6.2,9.8,9.8,16.6,9.8
								c2.1,0,4.2-0.3,6.2-1c24.3-8.4,49.6-13.2,75.3-14.2c9.2-0.4,16.8-7.3,18-16.5c3-23.3-1.2-45.5-12.5-66.1
								C2053.9,2506.6,2047.4,2502.9,2040.7,2502.9L2040.7,2502.9z"/>
						</g>
						<g id="XMLID_6_">
							<path class="st5" d="M1881.8,2457.4c0,0-0.2,19.4-12.1,33.8c-4.9,6-11.1,10.1-16.6,13c-0.3,8.2-2.8,16.1-6.5,23.6
								c3.6-2.6,7.9-5,13-6.4c3.3-0.9,6.5-1.2,9.6-1.2c10.1,0,18.2,3.6,18.2,3.6s-9,12.1-23,15.9c-3.3,0.9-6.6,1.2-9.6,1.2
								c-6,0-11.3-1.3-14.5-2.3c-7.6,11-17.5,20.7-27,28.6c7.4-1.9,14.7-4,21.9-6.6c9.4,17.1,12.8,35.3,10.3,54.6
								c-27.7,1.1-54.6,6.2-80.7,15.2c-9.4-17.1-12.8-35.3-10.3-54.6c12.5-0.5,24.8-1.9,37-4c17-11.7,45.5-34.7,51.2-60.5
								c-4.7-1.2-14-4.4-20.8-11.8c-9.5-10.3-10.4-24.7-10.4-24.7s14.3,2.2,23.8,12.4c2.5,2.7,4.4,5.7,5.8,8.7
								c1.7-6.3,4.6-13.6,9.9-20.1C1862.9,2461.4,1881.8,2457.4,1881.8,2457.4 M1881.8,2438.5c-1.3,0-2.6,0.1-3.9,0.4
								c-2.6,0.5-25.9,5.9-41.5,24.9c-0.1,0.1-0.2,0.2-0.2,0.3c-10.5-6.1-20.4-7.8-21.9-8c-0.9-0.1-1.9-0.2-2.8-0.2
								c-4.7,0-9.3,1.8-12.8,5c-4.2,3.9-6.4,9.5-6,15.2c0.1,2.2,1.8,21.5,15.4,36.2c3.2,3.4,6.6,6.2,10.1,8.5
								c-6.9,10.5-18.7,22.1-34,33.1c-10.5,1.7-20.5,2.7-30.4,3.1c-9.2,0.4-16.8,7.3-18,16.5c-3,23.3,1.2,45.5,12.5,66.1
								c3.4,6.2,9.8,9.8,16.6,9.8c2.1,0,4.2-0.3,6.2-1c24.3-8.4,49.6-13.2,75.3-14.2c9.2-0.4,16.8-7.3,18-16.5
								c2.6-20.2-0.2-39.6-8.4-57.9c4.6-0.1,9.1-0.7,13.4-1.8c19.9-5.3,32-21.1,33.3-22.9c3.4-4.6,4.5-10.5,3.1-16
								c-1.5-5.5-5.4-10.1-10.6-12.4c-1.1-0.5-5-2.1-10.7-3.4c15.5-19,16.3-42.8,16.3-45.5c0.1-5.7-2.5-11.2-6.9-14.8
								C1890.4,2440,1886.2,2438.5,1881.8,2438.5L1881.8,2438.5z M1881.8,2476.3L1881.8,2476.3L1881.8,2476.3L1881.8,2476.3z"/>
						</g>
						<g id="XMLID_5_">
							<path class="st5" d="M1938,2541.2c9.4,17.1,12.8,35.3,10.3,54.6c-14.2,0.6-28.2,2.2-42,4.9c12.2,3.9,25.8,9.5,37.5,17.4
								c4.1-3.3,12.1-8.7,22.1-9.8c1.3-0.2,2.7-0.2,4-0.2c12.7,0,23.2,6.6,23.2,6.6s-10.6,10.7-25,12.4c-1.3,0.2-2.6,0.2-3.9,0.2
								c-3.8,0-7.3-0.6-10.5-1.4c6.2,5.6,11.3,12.1,14.6,19.6c6.2,0.6,13.4,2.2,20.2,6c16.3,9.1,23.6,27.1,23.6,27.1
								s-3.3,0.6-8.3,0.6c-7.1,0-17.6-1.1-27.1-6.4c-2.8-1.5-5.2-3.4-7.4-5.3c1.5,17.6-7.7,33-7.7,33s-14-13.4-16.5-31.9
								c-1.8-13.8,3.3-26.5,6-32.1c-16.4-17.6-45.9-27-64.1-31.3c-6.5,1.8-13,3.7-19.4,6c-9.4-17.1-12.8-35.3-10.3-54.6
								C1884.9,2555.4,1911.8,2550.3,1938,2541.2 M1938,2522.3c-2.1,0-4.2,0.3-6.2,1c-24.3,8.4-49.6,13.2-75.3,14.2
								c-9.2,0.4-16.8,7.3-18,16.5c-3,23.3,1.2,45.5,12.5,66.1c3.4,6.2,9.8,9.8,16.6,9.8c2.1,0,4.2-0.3,6.2-1
								c4.4-1.5,8.9-3,13.5-4.3c17.1,4.5,31.5,10.6,41.5,17.5c-2.3,8.1-3.8,18.1-2.4,28.8c3.2,24.4,20.2,41.2,22.2,43.1
								c3.5,3.4,8.2,5.2,13,5.2c0.8,0,1.7-0.1,2.6-0.2c5.7-0.8,10.7-4.1,13.7-9.1c0.6-1.1,3.7-6.4,6.4-14.4
								c7.4,1.8,14.3,2.3,19.7,2.3c6.3,0,10.6-0.7,11.4-0.8c5.6-0.9,10.6-4.4,13.4-9.4c2.8-5,3.2-11,1-16.3
								c-1-2.5-10.4-24.4-31.8-36.4c5-3.4,8-6.4,8.7-7.1c4-4.1,6-9.7,5.3-15.4s-3.9-10.8-8.7-13.8c-1.5-1-15.6-9.5-33.3-9.5
								c-0.7,0-1.4,0-2,0c1-20-3.5-39.2-13.3-57.1C1951.2,2525.9,1944.7,2522.3,1938,2522.3L1938,2522.3z"/>
						</g>
					</g>
					<g id="XMLID_68_">
						<g id="XMLID_69_">
							<path class="st13" d="M1970.3,2591.7c26.2-9.1,53.1-14.2,80.7-15.2c2.5-19.3-1-37.5-10.3-54.6c-26.2,9.1-53.1,14.2-80.7,15.2
								C1957.5,2556.4,1960.9,2574.6,1970.3,2591.7z"/>
						</g>
						<g id="XMLID_70_">
							<path class="st13" d="M1835.2,2560.6c-7.2,2.5-14.6,4.7-21.9,6.6c9.5-7.9,19.4-17.6,27-28.6c5,1.6,14.5,3.7,24.2,1.1
								c14-3.7,23-15.9,23-15.9s-13.8-6.1-27.8-2.4c-5.1,1.3-9.4,3.8-13,6.4c3.7-7.5,6.2-15.4,6.5-23.6c5.5-2.8,11.7-7,16.6-13
								c11.9-14.4,12.1-33.8,12.1-33.8s-19,4-30.8,18.4c-5.3,6.4-8.2,13.8-9.9,20.1c-1.5-3-3.3-6-5.8-8.7
								c-9.5-10.3-23.8-12.4-23.8-12.4s1,14.5,10.5,24.7c6.8,7.4,16.1,10.6,20.8,11.8c-5.8,25.8-34.3,48.8-51.2,60.5
								c-12.2,2.1-24.5,3.5-37,4c-2.5,19.3,1,37.5,10.3,54.6c26.2-9.1,53.1-14.2,80.7-15.2C1848,2595.9,1844.6,2577.7,1835.2,2560.6
								z"/>
						</g>
						<g id="XMLID_71_">
							<path class="st13" d="M1976.6,2672.7c16.3,9.1,35.4,5.9,35.4,5.9s-7.3-18-23.6-27.1c-6.8-3.8-14-5.4-20.2-6
								c-3.3-7.5-8.4-14-14.6-19.6c4.2,1.1,9.2,1.8,14.4,1.2c14.4-1.6,25-12.4,25-12.4s-12.8-8-27.2-6.4c-10,1.1-18,6.6-22.1,9.8
								c-11.7-7.9-25.3-13.5-37.5-17.4c13.8-2.7,27.8-4.3,42-4.9c2.5-19.3-1-37.5-10.3-54.6c-26.2,9.1-53.1,14.2-80.7,15.2
								c-2.5,19.3,1,37.5,10.3,54.6c6.4-2.2,12.9-4.2,19.4-6c18.1,4.3,47.6,13.7,64.1,31.3c-2.7,5.6-7.8,18.3-6,32.1
								c2.5,18.5,16.5,31.9,16.5,31.9s9.2-15.4,7.7-33C1971.5,2669.3,1973.9,2671.1,1976.6,2672.7z"/>
						</g>
					</g>
				</g>
			</g>
		</g>
	</g>
</g>
</svg>
